<?xml version="1.0" encoding="UTF-8" standalone="no"?>
<!DOCTYPE svg PUBLIC "-//W3C//DTD SVG 1.1//EN"
 "http://www.w3.org/Graphics/SVG/1.1/DTD/svg11.dtd">
<!-- Generated by graphviz version 11.0.0 (0)
 -->
<!-- Pages: 1 -->
<svg width="918pt" height="381pt"
 viewBox="0.00 0.00 917.81 381.04" xmlns="http://www.w3.org/2000/svg" xmlns:xlink="http://www.w3.org/1999/xlink">
<g id="graph0" class="graph" transform="scale(1 1) rotate(0) translate(4 377.04)">
<polygon fill="white" stroke="none" points="-4,4 -4,-377.04 913.81,-377.04 913.81,4 -4,4"/>
<g id="clust1" class="cluster">
<title>clusterSubject__factor_dim (18)</title>
<path fill="none" stroke="black" d="M201.8,-137.82C201.8,-137.82 534.8,-137.82 534.8,-137.82 540.8,-137.82 546.8,-143.82 546.8,-149.82 546.8,-149.82 546.8,-353.04 546.8,-353.04 546.8,-359.04 540.8,-365.04 534.8,-365.04 534.8,-365.04 201.8,-365.04 201.8,-365.04 195.8,-365.04 189.8,-359.04 189.8,-353.04 189.8,-353.04 189.8,-149.82 189.8,-149.82 189.8,-143.82 195.8,-137.82 201.8,-137.82"/>
<text text-anchor="middle" x="468.68" y="-145.02" font-family="Times,serif" font-size="14.00">Subject__factor_dim (18)</text>
</g>
<g id="clust2" class="cluster">
<title>clusterReaction_obs (144)</title>
<path fill="none" stroke="black" d="M550.8,-8C550.8,-8 648.8,-8 648.8,-8 654.8,-8 660.8,-14 660.8,-20 660.8,-20 660.8,-117.82 660.8,-117.82 660.8,-123.82 654.8,-129.82 648.8,-129.82 648.8,-129.82 550.8,-129.82 550.8,-129.82 544.8,-129.82 538.8,-123.82 538.8,-117.82 538.8,-117.82 538.8,-20 538.8,-20 538.8,-14 544.8,-8 550.8,-8"/>
<text text-anchor="middle" x="599.55" y="-15.2" font-family="Times,serif" font-size="14.00">Reaction_obs (144)</text>
</g>
<!-- Days|Subject_sigma -->
<g id="node1" class="node">
<title>Days|Subject_sigma</title>
<ellipse fill="none" stroke="black" cx="89.8" cy="-316.38" rx="89.8" ry="40.66"/>
<text text-anchor="middle" x="89.8" y="-327.83" font-family="Times,serif" font-size="14.00">Days|Subject_sigma</text>
<text text-anchor="middle" x="89.8" y="-311.33" font-family="Times,serif" font-size="14.00">~</text>
<text text-anchor="middle" x="89.8" y="-294.83" font-family="Times,serif" font-size="14.00">HalfNormal</text>
</g>
<!-- Days|Subject -->
<g id="node6" class="node">
<title>Days|Subject</title>
<polygon fill="none" stroke="black" points="330.93,-227.82 240.68,-227.82 240.68,-170.32 330.93,-170.32 330.93,-227.82"/>
<text text-anchor="middle" x="285.8" y="-210.52" font-family="Times,serif" font-size="14.00">Days|Subject</text>
<text text-anchor="middle" x="285.8" y="-194.02" font-family="Times,serif" font-size="14.00">~</text>
<text text-anchor="middle" x="285.8" y="-177.52" font-family="Times,serif" font-size="14.00">Deterministic</text>
</g>
<!-- Days|Subject_sigma&#45;&gt;Days|Subject -->
<g id="edge4" class="edge">
<title>Days|Subject_sigma&#45;&gt;Days|Subject</title>
<path fill="none" stroke="black" d="M143.88,-283.57C170.82,-267.72 203.35,-248.58 230.47,-232.62"/>
<polygon fill="black" stroke="black" points="232.05,-235.76 238.89,-227.67 228.5,-229.72 232.05,-235.76"/>
</g>
<!-- 1|Subject_sigma -->
<g id="node2" class="node">
<title>1|Subject_sigma</title>
<ellipse fill="none" stroke="black" cx="631.8" cy="-316.38" rx="74.95" ry="40.66"/>
<text text-anchor="middle" x="631.8" y="-327.83" font-family="Times,serif" font-size="14.00">1|Subject_sigma</text>
<text text-anchor="middle" x="631.8" y="-311.33" font-family="Times,serif" font-size="14.00">~</text>
<text text-anchor="middle" x="631.8" y="-294.83" font-family="Times,serif" font-size="14.00">HalfNormal</text>
</g>
<!-- 1|Subject -->
<g id="node7" class="node">
<title>1|Subject</title>
<polygon fill="none" stroke="black" points="536.93,-227.82 446.68,-227.82 446.68,-170.32 536.93,-170.32 536.93,-227.82"/>
<text text-anchor="middle" x="491.8" y="-210.52" font-family="Times,serif" font-size="14.00">1|Subject</text>
<text text-anchor="middle" x="491.8" y="-194.02" font-family="Times,serif" font-size="14.00">~</text>
<text text-anchor="middle" x="491.8" y="-177.52" font-family="Times,serif" font-size="14.00">Deterministic</text>
</g>
<!-- 1|Subject_sigma&#45;&gt;1|Subject -->
<g id="edge2" class="edge">
<title>1|Subject_sigma&#45;&gt;1|Subject</title>
<path fill="none" stroke="black" d="M591.31,-282.03C573.54,-267.4 552.67,-250.21 534.65,-235.36"/>
<polygon fill="black" stroke="black" points="537.16,-232.9 527.22,-229.24 532.71,-238.3 537.16,-232.9"/>
</g>
<!-- Intercept -->
<g id="node3" class="node">
<title>Intercept</title>
<ellipse fill="none" stroke="black" cx="599.8" cy="-199.07" rx="45.25" ry="40.66"/>
<text text-anchor="middle" x="599.8" y="-210.52" font-family="Times,serif" font-size="14.00">Intercept</text>
<text text-anchor="middle" x="599.8" y="-194.02" font-family="Times,serif" font-size="14.00">~</text>
<text text-anchor="middle" x="599.8" y="-177.52" font-family="Times,serif" font-size="14.00">Normal</text>
</g>
<!-- Reaction -->
<g id="node10" class="node">
<title>Reaction</title>
<ellipse fill="lightgrey" stroke="black" cx="599.8" cy="-81.16" rx="45.25" ry="40.66"/>
<text text-anchor="middle" x="599.8" y="-92.61" font-family="Times,serif" font-size="14.00">Reaction</text>
<text text-anchor="middle" x="599.8" y="-76.11" font-family="Times,serif" font-size="14.00">~</text>
<text text-anchor="middle" x="599.8" y="-59.61" font-family="Times,serif" font-size="14.00">Normal</text>
</g>
<!-- Intercept&#45;&gt;Reaction -->
<g id="edge9" class="edge">
<title>Intercept&#45;&gt;Reaction</title>
<path fill="none" stroke="black" d="M599.8,-158.18C599.8,-150.26 599.8,-141.83 599.8,-133.59"/>
<polygon fill="black" stroke="black" points="603.3,-133.63 599.8,-123.63 596.3,-133.63 603.3,-133.63"/>
</g>
<!-- Reaction_sigma -->
<g id="node4" class="node">
<title>Reaction_sigma</title>
<ellipse fill="none" stroke="black" cx="736.8" cy="-199.07" rx="73.36" ry="40.66"/>
<text text-anchor="middle" x="736.8" y="-210.52" font-family="Times,serif" font-size="14.00">Reaction_sigma</text>
<text text-anchor="middle" x="736.8" y="-194.02" font-family="Times,serif" font-size="14.00">~</text>
<text text-anchor="middle" x="736.8" y="-177.52" font-family="Times,serif" font-size="14.00">HalfStudentT</text>
</g>
<!-- Reaction_sigma&#45;&gt;Reaction -->
<g id="edge6" class="edge">
<title>Reaction_sigma&#45;&gt;Reaction</title>
<path fill="none" stroke="black" d="M697.18,-164.54C679.52,-149.6 658.73,-132.01 640.9,-116.93"/>
<polygon fill="black" stroke="black" points="643.47,-114.52 633.57,-110.73 638.95,-119.86 643.47,-114.52"/>
</g>
<!-- Days -->
<g id="node5" class="node">
<title>Days</title>
<ellipse fill="none" stroke="black" cx="868.8" cy="-199.07" rx="41.01" ry="40.66"/>
<text text-anchor="middle" x="868.8" y="-210.52" font-family="Times,serif" font-size="14.00">Days</text>
<text text-anchor="middle" x="868.8" y="-194.02" font-family="Times,serif" font-size="14.00">~</text>
<text text-anchor="middle" x="868.8" y="-177.52" font-family="Times,serif" font-size="14.00">Normal</text>
</g>
<!-- Days&#45;&gt;Reaction -->
<g id="edge7" class="edge">
<title>Days&#45;&gt;Reaction</title>
<path fill="none" stroke="black" d="M847.05,-164.42C839.21,-154.58 829.6,-144.64 818.8,-137.82 769.27,-106.52 703,-92.8 656.38,-86.8"/>
<polygon fill="black" stroke="black" points="656.82,-83.32 646.47,-85.61 655.98,-90.27 656.82,-83.32"/>
</g>
<!-- Days|Subject&#45;&gt;Reaction -->
<g id="edge5" class="edge">
<title>Days|Subject&#45;&gt;Reaction</title>
<path fill="none" stroke="black" d="M331.15,-179.45C361.26,-167.25 401.73,-151.16 437.8,-137.82 473.86,-124.49 514.8,-110.43 546.51,-99.77"/>
<polygon fill="black" stroke="black" points="547.51,-103.13 555.88,-96.64 545.29,-96.49 547.51,-103.13"/>
</g>
<!-- 1|Subject&#45;&gt;Reaction -->
<g id="edge8" class="edge">
<title>1|Subject&#45;&gt;Reaction</title>
<path fill="none" stroke="black" d="M516.58,-169.96C525.68,-159.76 536.13,-148.19 545.8,-137.82 551.05,-132.19 556.64,-126.31 562.16,-120.56"/>
<polygon fill="black" stroke="black" points="564.68,-122.99 569.1,-113.37 559.64,-118.13 564.68,-122.99"/>
</g>
<!-- 1|Subject_offset -->
<g id="node8" class="node">
<title>1|Subject_offset</title>
<ellipse fill="none" stroke="black" cx="465.8" cy="-316.38" rx="73.36" ry="40.66"/>
<text text-anchor="middle" x="465.8" y="-327.83" font-family="Times,serif" font-size="14.00">1|Subject_offset</text>
<text text-anchor="middle" x="465.8" y="-311.33" font-family="Times,serif" font-size="14.00">~</text>
<text text-anchor="middle" x="465.8" y="-294.83" font-family="Times,serif" font-size="14.00">Normal</text>
</g>
<!-- 1|Subject_offset&#45;&gt;1|Subject -->
<g id="edge1" class="edge">
<title>1|Subject_offset&#45;&gt;1|Subject</title>
<path fill="none" stroke="black" d="M474.75,-275.7C477.42,-263.85 480.35,-250.88 483.01,-239.07"/>
<polygon fill="black" stroke="black" points="486.34,-240.19 485.13,-229.66 479.52,-238.65 486.34,-240.19"/>
</g>
<!-- Days|Subject_offset -->
<g id="node9" class="node">
<title>Days|Subject_offset</title>
<ellipse fill="none" stroke="black" cx="285.8" cy="-316.38" rx="88.21" ry="40.66"/>
<text text-anchor="middle" x="285.8" y="-327.83" font-family="Times,serif" font-size="14.00">Days|Subject_offset</text>
<text text-anchor="middle" x="285.8" y="-311.33" font-family="Times,serif" font-size="14.00">~</text>
<text text-anchor="middle" x="285.8" y="-294.83" font-family="Times,serif" font-size="14.00">Normal</text>
</g>
<!-- Days|Subject_offset&#45;&gt;Days|Subject -->
<g id="edge3" class="edge">
<title>Days|Subject_offset&#45;&gt;Days|Subject</title>
<path fill="none" stroke="black" d="M285.8,-275.38C285.8,-263.67 285.8,-250.88 285.8,-239.23"/>
<polygon fill="black" stroke="black" points="289.3,-239.54 285.8,-229.54 282.3,-239.54 289.3,-239.54"/>
</g>
</g>
</svg>