<?xml version="1.0" encoding="UTF-8" standalone="no"?>
<!DOCTYPE svg PUBLIC "-//W3C//DTD SVG 1.1//EN"
 "http://www.w3.org/Graphics/SVG/1.1/DTD/svg11.dtd">
<!-- Generated by graphviz version 9.0.0 (0)
 -->
<!-- Pages: 1 -->
<svg width="516pt" height="369pt"
 viewBox="0.00 0.00 516.01 368.95" xmlns="http://www.w3.org/2000/svg" xmlns:xlink="http://www.w3.org/1999/xlink">
<g id="graph0" class="graph" transform="scale(1 1) rotate(0) translate(4 364.95)">
<polygon fill="white" stroke="none" points="-4,4 -4,-364.95 512.01,-364.95 512.01,4 -4,4"/>
<g id="clust1" class="cluster">
<title>cluster333</title>
<path fill="none" stroke="black" d="M25.03,-8C25.03,-8 107.03,-8 107.03,-8 113.03,-8 119.03,-14 119.03,-20 119.03,-20 119.03,-227.73 119.03,-227.73 119.03,-233.73 113.03,-239.73 107.03,-239.73 107.03,-239.73 25.03,-239.73 25.03,-239.73 19.03,-239.73 13.03,-233.73 13.03,-227.73 13.03,-227.73 13.03,-20 13.03,-20 13.03,-14 19.03,-8 25.03,-8"/>
<text text-anchor="middle" x="100.9" y="-15.2" font-family="Times,serif" font-size="14.00">333</text>
</g>
<g id="clust2" class="cluster">
<title>clusterspecies (3)</title>
<path fill="none" stroke="black" d="M139.03,-129.82C139.03,-129.82 347.03,-129.82 347.03,-129.82 353.03,-129.82 359.03,-135.82 359.03,-141.82 359.03,-141.82 359.03,-239.63 359.03,-239.63 359.03,-245.63 353.03,-251.63 347.03,-251.63 347.03,-251.63 139.03,-251.63 139.03,-251.63 133.03,-251.63 127.03,-245.63 127.03,-239.63 127.03,-239.63 127.03,-141.82 127.03,-141.82 127.03,-135.82 133.03,-129.82 139.03,-129.82"/>
<text text-anchor="middle" x="321.78" y="-137.02" font-family="Times,serif" font-size="14.00">species (3)</text>
</g>
<!-- species_idx -->
<g id="node1" class="node">
<title>species_idx</title>
<path fill="lightgrey" stroke="black" d="M98.78,-231.73C98.78,-231.73 33.28,-231.73 33.28,-231.73 27.28,-231.73 21.28,-225.73 21.28,-219.73 21.28,-219.73 21.28,-186.23 21.28,-186.23 21.28,-180.23 27.28,-174.23 33.28,-174.23 33.28,-174.23 98.78,-174.23 98.78,-174.23 104.78,-174.23 110.78,-180.23 110.78,-186.23 110.78,-186.23 110.78,-219.73 110.78,-219.73 110.78,-225.73 104.78,-231.73 98.78,-231.73"/>
<text text-anchor="middle" x="66.03" y="-214.43" font-family="Times,serif" font-size="14.00">species_idx</text>
<text text-anchor="middle" x="66.03" y="-197.93" font-family="Times,serif" font-size="14.00">~</text>
<text text-anchor="middle" x="66.03" y="-181.43" font-family="Times,serif" font-size="14.00">ConstantData</text>
</g>
<!-- y -->
<g id="node2" class="node">
<title>y</title>
<ellipse fill="lightgrey" stroke="black" cx="70.03" cy="-81.16" rx="41.01" ry="40.66"/>
<text text-anchor="middle" x="70.03" y="-92.61" font-family="Times,serif" font-size="14.00">y</text>
<text text-anchor="middle" x="70.03" y="-76.11" font-family="Times,serif" font-size="14.00">~</text>
<text text-anchor="middle" x="70.03" y="-59.61" font-family="Times,serif" font-size="14.00">Normal</text>
</g>
<!-- species_idx&#45;&gt;y -->
<g id="edge5" class="edge">
<title>species_idx&#45;&gt;y</title>
<path fill="none" stroke="black" d="M66.97,-173.88C67.37,-161.78 67.86,-147.23 68.32,-133.33"/>
<polygon fill="black" stroke="black" points="71.82,-133.49 68.65,-123.38 64.82,-133.26 71.82,-133.49"/>
</g>
<!-- mu_mean -->
<g id="node3" class="node">
<title>mu_mean</title>
<ellipse fill="none" stroke="black" cx="50.03" cy="-320.29" rx="50.03" ry="40.66"/>
<text text-anchor="middle" x="50.03" y="-331.74" font-family="Times,serif" font-size="14.00">mu_mean</text>
<text text-anchor="middle" x="50.03" y="-315.24" font-family="Times,serif" font-size="14.00">~</text>
<text text-anchor="middle" x="50.03" y="-298.74" font-family="Times,serif" font-size="14.00">Normal</text>
</g>
<!-- mu -->
<g id="node7" class="node">
<title>mu</title>
<ellipse fill="none" stroke="black" cx="176.03" cy="-202.98" rx="41.01" ry="40.66"/>
<text text-anchor="middle" x="176.03" y="-214.43" font-family="Times,serif" font-size="14.00">mu</text>
<text text-anchor="middle" x="176.03" y="-197.93" font-family="Times,serif" font-size="14.00">~</text>
<text text-anchor="middle" x="176.03" y="-181.43" font-family="Times,serif" font-size="14.00">Normal</text>
</g>
<!-- mu_mean&#45;&gt;mu -->
<g id="edge1" class="edge">
<title>mu_mean&#45;&gt;mu</title>
<path fill="none" stroke="black" d="M82.8,-289.3C99.72,-273.81 120.45,-254.84 138.07,-238.72"/>
<polygon fill="black" stroke="black" points="140.3,-241.42 145.31,-232.09 135.57,-236.26 140.3,-241.42"/>
</g>
<!-- sigma_mean -->
<g id="node4" class="node">
<title>sigma_mean</title>
<ellipse fill="none" stroke="black" cx="313.03" cy="-320.29" rx="60.63" ry="40.66"/>
<text text-anchor="middle" x="313.03" y="-331.74" font-family="Times,serif" font-size="14.00">sigma_mean</text>
<text text-anchor="middle" x="313.03" y="-315.24" font-family="Times,serif" font-size="14.00">~</text>
<text text-anchor="middle" x="313.03" y="-298.74" font-family="Times,serif" font-size="14.00">HalfNormal</text>
</g>
<!-- sigma -->
<g id="node8" class="node">
<title>sigma</title>
<ellipse fill="none" stroke="black" cx="293.03" cy="-202.98" rx="57.98" ry="40.66"/>
<text text-anchor="middle" x="293.03" y="-214.43" font-family="Times,serif" font-size="14.00">sigma</text>
<text text-anchor="middle" x="293.03" y="-197.93" font-family="Times,serif" font-size="14.00">~</text>
<text text-anchor="middle" x="293.03" y="-181.43" font-family="Times,serif" font-size="14.00">HalfNormal</text>
</g>
<!-- sigma_mean&#45;&gt;sigma -->
<g id="edge3" class="edge">
<title>sigma_mean&#45;&gt;sigma</title>
<path fill="none" stroke="black" d="M306.14,-279.61C304.76,-271.63 303.29,-263.15 301.85,-254.86"/>
<polygon fill="black" stroke="black" points="305.34,-254.48 300.18,-245.23 298.44,-255.68 305.34,-254.48"/>
</g>
<!-- sigma_sd -->
<g id="node5" class="node">
<title>sigma_sd</title>
<ellipse fill="none" stroke="black" cx="450.03" cy="-320.29" rx="57.98" ry="40.66"/>
<text text-anchor="middle" x="450.03" y="-331.74" font-family="Times,serif" font-size="14.00">sigma_sd</text>
<text text-anchor="middle" x="450.03" y="-315.24" font-family="Times,serif" font-size="14.00">~</text>
<text text-anchor="middle" x="450.03" y="-298.74" font-family="Times,serif" font-size="14.00">HalfNormal</text>
</g>
<!-- mu_sd -->
<g id="node6" class="node">
<title>mu_sd</title>
<ellipse fill="none" stroke="black" cx="176.03" cy="-320.29" rx="57.98" ry="40.66"/>
<text text-anchor="middle" x="176.03" y="-331.74" font-family="Times,serif" font-size="14.00">mu_sd</text>
<text text-anchor="middle" x="176.03" y="-315.24" font-family="Times,serif" font-size="14.00">~</text>
<text text-anchor="middle" x="176.03" y="-298.74" font-family="Times,serif" font-size="14.00">HalfNormal</text>
</g>
<!-- mu_sd&#45;&gt;mu -->
<g id="edge2" class="edge">
<title>mu_sd&#45;&gt;mu</title>
<path fill="none" stroke="black" d="M176.03,-279.28C176.03,-271.5 176.03,-263.25 176.03,-255.16"/>
<polygon fill="black" stroke="black" points="179.53,-255.43 176.03,-245.43 172.53,-255.43 179.53,-255.43"/>
</g>
<!-- mu&#45;&gt;y -->
<g id="edge4" class="edge">
<title>mu&#45;&gt;y</title>
<path fill="none" stroke="black" d="M153.64,-168.54C144.66,-155.95 133.88,-141.8 123.03,-129.82 118.72,-125.06 113.98,-120.27 109.16,-115.66"/>
<polygon fill="black" stroke="black" points="111.85,-113.38 102.14,-109.14 107.08,-118.51 111.85,-113.38"/>
</g>
<!-- sigma&#45;&gt;y -->
<g id="edge6" class="edge">
<title>sigma&#45;&gt;y</title>
<path fill="none" stroke="black" d="M266.79,-166.59C255.51,-153.46 241.39,-139.43 226.03,-129.82 194.14,-109.85 153.35,-97.77 121.47,-90.77"/>
<polygon fill="black" stroke="black" points="122.58,-87.43 112.08,-88.81 121.15,-94.28 122.58,-87.43"/>
</g>
</g>
</svg>