<?xml version="1.0" encoding="utf-8" standalone="no"?>
<!DOCTYPE svg PUBLIC "-//W3C//DTD SVG 1.1//EN"
  "http://www.w3.org/Graphics/SVG/1.1/DTD/svg11.dtd">
<svg xmlns:xlink="http://www.w3.org/1999/xlink" width="594.441719pt" height="366.599844pt" viewBox="0 0 594.441719 366.599844" xmlns="http://www.w3.org/2000/svg" version="1.1">
 <metadata>
  <rdf:RDF xmlns:dc="http://purl.org/dc/elements/1.1/" xmlns:cc="http://creativecommons.org/ns#" xmlns:rdf="http://www.w3.org/1999/02/22-rdf-syntax-ns#">
   <cc:Work>
    <dc:type rdf:resource="http://purl.org/dc/dcmitype/StillImage"/>
    <dc:date>2024-02-06T13:40:59.099693</dc:date>
    <dc:format>image/svg+xml</dc:format>
    <dc:creator>
     <cc:Agent>
      <dc:title>Matplotlib v3.8.2, https://matplotlib.org/</dc:title>
     </cc:Agent>
    </dc:creator>
   </cc:Work>
  </rdf:RDF>
 </metadata>
 <defs>
  <style type="text/css">*{stroke-linejoin: round; stroke-linecap: butt}</style>
 </defs>
 <g id="figure_1">
  <g id="patch_1">
   <path d="M 0 366.599844 
L 594.441719 366.599844 
L 594.441719 0 
L 0 0 
z
" style="fill: #ffffff"/>
  </g>
  <g id="axes_1">
   <g id="patch_2">
    <path d="M 29.241719 339.84 
L 587.241719 339.84 
L 587.241719 7.2 
L 29.241719 7.2 
z
" style="fill: #eaeaf2"/>
   </g>
   <g id="matplotlib.axis_1">
    <g id="xtick_1">
     <g id="line2d_1">
      <path d="M 89.842563 339.84 
L 89.842563 7.2 
" clip-path="url(#pc0a90a0c82)" style="fill: none; stroke: #ffffff; stroke-linecap: round"/>
     </g>
     <g id="text_1">
      <!-- −1.5 -->
      <g style="fill: #262626" transform="translate(78.985219 357.213594) scale(0.11 -0.11)">
       <defs>
        <path id="ArialMT-2212" d="M 3381 1997 
L 356 1997 
L 356 2522 
L 3381 2522 
L 3381 1997 
z
" transform="scale(0.015625)"/>
        <path id="ArialMT-31" d="M 2384 0 
L 1822 0 
L 1822 3584 
Q 1619 3391 1289 3197 
Q 959 3003 697 2906 
L 697 3450 
Q 1169 3672 1522 3987 
Q 1875 4303 2022 4600 
L 2384 4600 
L 2384 0 
z
" transform="scale(0.015625)"/>
        <path id="ArialMT-2e" d="M 581 0 
L 581 641 
L 1222 641 
L 1222 0 
L 581 0 
z
" transform="scale(0.015625)"/>
        <path id="ArialMT-35" d="M 266 1200 
L 856 1250 
Q 922 819 1161 601 
Q 1400 384 1738 384 
Q 2144 384 2425 690 
Q 2706 997 2706 1503 
Q 2706 1984 2436 2262 
Q 2166 2541 1728 2541 
Q 1456 2541 1237 2417 
Q 1019 2294 894 2097 
L 366 2166 
L 809 4519 
L 3088 4519 
L 3088 3981 
L 1259 3981 
L 1013 2750 
Q 1425 3038 1878 3038 
Q 2478 3038 2890 2622 
Q 3303 2206 3303 1553 
Q 3303 931 2941 478 
Q 2500 -78 1738 -78 
Q 1113 -78 717 272 
Q 322 622 266 1200 
z
" transform="scale(0.015625)"/>
       </defs>
       <use xlink:href="#ArialMT-2212"/>
       <use xlink:href="#ArialMT-31" x="58.398438"/>
       <use xlink:href="#ArialMT-2e" x="114.013672"/>
       <use xlink:href="#ArialMT-35" x="141.796875"/>
      </g>
     </g>
    </g>
    <g id="xtick_2">
     <g id="line2d_2">
      <path d="M 161.277992 339.84 
L 161.277992 7.2 
" clip-path="url(#pc0a90a0c82)" style="fill: none; stroke: #ffffff; stroke-linecap: round"/>
     </g>
     <g id="text_2">
      <!-- −1.0 -->
      <g style="fill: #262626" transform="translate(150.420648 357.213594) scale(0.11 -0.11)">
       <defs>
        <path id="ArialMT-30" d="M 266 2259 
Q 266 3072 433 3567 
Q 600 4063 929 4331 
Q 1259 4600 1759 4600 
Q 2128 4600 2406 4451 
Q 2684 4303 2865 4023 
Q 3047 3744 3150 3342 
Q 3253 2941 3253 2259 
Q 3253 1453 3087 958 
Q 2922 463 2592 192 
Q 2263 -78 1759 -78 
Q 1097 -78 719 397 
Q 266 969 266 2259 
z
M 844 2259 
Q 844 1131 1108 757 
Q 1372 384 1759 384 
Q 2147 384 2411 759 
Q 2675 1134 2675 2259 
Q 2675 3391 2411 3762 
Q 2147 4134 1753 4134 
Q 1366 4134 1134 3806 
Q 844 3388 844 2259 
z
" transform="scale(0.015625)"/>
       </defs>
       <use xlink:href="#ArialMT-2212"/>
       <use xlink:href="#ArialMT-31" x="58.398438"/>
       <use xlink:href="#ArialMT-2e" x="114.013672"/>
       <use xlink:href="#ArialMT-30" x="141.796875"/>
      </g>
     </g>
    </g>
    <g id="xtick_3">
     <g id="line2d_3">
      <path d="M 232.713421 339.84 
L 232.713421 7.2 
" clip-path="url(#pc0a90a0c82)" style="fill: none; stroke: #ffffff; stroke-linecap: round"/>
     </g>
     <g id="text_3">
      <!-- −0.5 -->
      <g style="fill: #262626" transform="translate(221.856077 357.213594) scale(0.11 -0.11)">
       <use xlink:href="#ArialMT-2212"/>
       <use xlink:href="#ArialMT-30" x="58.398438"/>
       <use xlink:href="#ArialMT-2e" x="114.013672"/>
       <use xlink:href="#ArialMT-35" x="141.796875"/>
      </g>
     </g>
    </g>
    <g id="xtick_4">
     <g id="line2d_4">
      <path d="M 304.14885 339.84 
L 304.14885 7.2 
" clip-path="url(#pc0a90a0c82)" style="fill: none; stroke: #ffffff; stroke-linecap: round"/>
     </g>
     <g id="text_4">
      <!-- 0.0 -->
      <g style="fill: #262626" transform="translate(296.50385 357.213594) scale(0.11 -0.11)">
       <use xlink:href="#ArialMT-30"/>
       <use xlink:href="#ArialMT-2e" x="55.615234"/>
       <use xlink:href="#ArialMT-30" x="83.398438"/>
      </g>
     </g>
    </g>
    <g id="xtick_5">
     <g id="line2d_5">
      <path d="M 375.584279 339.84 
L 375.584279 7.2 
" clip-path="url(#pc0a90a0c82)" style="fill: none; stroke: #ffffff; stroke-linecap: round"/>
     </g>
     <g id="text_5">
      <!-- 0.5 -->
      <g style="fill: #262626" transform="translate(367.939279 357.213594) scale(0.11 -0.11)">
       <use xlink:href="#ArialMT-30"/>
       <use xlink:href="#ArialMT-2e" x="55.615234"/>
       <use xlink:href="#ArialMT-35" x="83.398438"/>
      </g>
     </g>
    </g>
    <g id="xtick_6">
     <g id="line2d_6">
      <path d="M 447.019708 339.84 
L 447.019708 7.2 
" clip-path="url(#pc0a90a0c82)" style="fill: none; stroke: #ffffff; stroke-linecap: round"/>
     </g>
     <g id="text_6">
      <!-- 1.0 -->
      <g style="fill: #262626" transform="translate(439.374708 357.213594) scale(0.11 -0.11)">
       <use xlink:href="#ArialMT-31"/>
       <use xlink:href="#ArialMT-2e" x="55.615234"/>
       <use xlink:href="#ArialMT-30" x="83.398438"/>
      </g>
     </g>
    </g>
    <g id="xtick_7">
     <g id="line2d_7">
      <path d="M 518.455137 339.84 
L 518.455137 7.2 
" clip-path="url(#pc0a90a0c82)" style="fill: none; stroke: #ffffff; stroke-linecap: round"/>
     </g>
     <g id="text_7">
      <!-- 1.5 -->
      <g style="fill: #262626" transform="translate(510.810137 357.213594) scale(0.11 -0.11)">
       <use xlink:href="#ArialMT-31"/>
       <use xlink:href="#ArialMT-2e" x="55.615234"/>
       <use xlink:href="#ArialMT-35" x="83.398438"/>
      </g>
     </g>
    </g>
   </g>
   <g id="matplotlib.axis_2">
    <g id="ytick_1">
     <g id="line2d_8">
      <path d="M 29.241719 323.687491 
L 587.241719 323.687491 
" clip-path="url(#pc0a90a0c82)" style="fill: none; stroke: #ffffff; stroke-linecap: round"/>
     </g>
     <g id="text_8">
      <!-- −3 -->
      <g style="fill: #262626" transform="translate(7.2 327.624288) scale(0.11 -0.11)">
       <defs>
        <path id="ArialMT-33" d="M 269 1209 
L 831 1284 
Q 928 806 1161 595 
Q 1394 384 1728 384 
Q 2125 384 2398 659 
Q 2672 934 2672 1341 
Q 2672 1728 2419 1979 
Q 2166 2231 1775 2231 
Q 1616 2231 1378 2169 
L 1441 2663 
Q 1497 2656 1531 2656 
Q 1891 2656 2178 2843 
Q 2466 3031 2466 3422 
Q 2466 3731 2256 3934 
Q 2047 4138 1716 4138 
Q 1388 4138 1169 3931 
Q 950 3725 888 3313 
L 325 3413 
Q 428 3978 793 4289 
Q 1159 4600 1703 4600 
Q 2078 4600 2393 4439 
Q 2709 4278 2876 4000 
Q 3044 3722 3044 3409 
Q 3044 3113 2884 2869 
Q 2725 2625 2413 2481 
Q 2819 2388 3044 2092 
Q 3269 1797 3269 1353 
Q 3269 753 2831 336 
Q 2394 -81 1725 -81 
Q 1122 -81 723 278 
Q 325 638 269 1209 
z
" transform="scale(0.015625)"/>
       </defs>
       <use xlink:href="#ArialMT-2212"/>
       <use xlink:href="#ArialMT-33" x="58.398438"/>
      </g>
     </g>
    </g>
    <g id="ytick_2">
     <g id="line2d_9">
      <path d="M 29.241719 254.578565 
L 587.241719 254.578565 
" clip-path="url(#pc0a90a0c82)" style="fill: none; stroke: #ffffff; stroke-linecap: round"/>
     </g>
     <g id="text_9">
      <!-- −2 -->
      <g style="fill: #262626" transform="translate(7.2 258.515362) scale(0.11 -0.11)">
       <defs>
        <path id="ArialMT-32" d="M 3222 541 
L 3222 0 
L 194 0 
Q 188 203 259 391 
Q 375 700 629 1000 
Q 884 1300 1366 1694 
Q 2113 2306 2375 2664 
Q 2638 3022 2638 3341 
Q 2638 3675 2398 3904 
Q 2159 4134 1775 4134 
Q 1369 4134 1125 3890 
Q 881 3647 878 3216 
L 300 3275 
Q 359 3922 746 4261 
Q 1134 4600 1788 4600 
Q 2447 4600 2831 4234 
Q 3216 3869 3216 3328 
Q 3216 3053 3103 2787 
Q 2991 2522 2730 2228 
Q 2469 1934 1863 1422 
Q 1356 997 1212 845 
Q 1069 694 975 541 
L 3222 541 
z
" transform="scale(0.015625)"/>
       </defs>
       <use xlink:href="#ArialMT-2212"/>
       <use xlink:href="#ArialMT-32" x="58.398438"/>
      </g>
     </g>
    </g>
    <g id="ytick_3">
     <g id="line2d_10">
      <path d="M 29.241719 185.46964 
L 587.241719 185.46964 
" clip-path="url(#pc0a90a0c82)" style="fill: none; stroke: #ffffff; stroke-linecap: round"/>
     </g>
     <g id="text_10">
      <!-- −1 -->
      <g style="fill: #262626" transform="translate(7.2 189.406437) scale(0.11 -0.11)">
       <use xlink:href="#ArialMT-2212"/>
       <use xlink:href="#ArialMT-31" x="58.398438"/>
      </g>
     </g>
    </g>
    <g id="ytick_4">
     <g id="line2d_11">
      <path d="M 29.241719 116.360715 
L 587.241719 116.360715 
" clip-path="url(#pc0a90a0c82)" style="fill: none; stroke: #ffffff; stroke-linecap: round"/>
     </g>
     <g id="text_11">
      <!-- 0 -->
      <g style="fill: #262626" transform="translate(13.624688 120.297512) scale(0.11 -0.11)">
       <use xlink:href="#ArialMT-30"/>
      </g>
     </g>
    </g>
    <g id="ytick_5">
     <g id="line2d_12">
      <path d="M 29.241719 47.251789 
L 587.241719 47.251789 
" clip-path="url(#pc0a90a0c82)" style="fill: none; stroke: #ffffff; stroke-linecap: round"/>
     </g>
     <g id="text_12">
      <!-- 1 -->
      <g style="fill: #262626" transform="translate(13.624688 51.188586) scale(0.11 -0.11)">
       <use xlink:href="#ArialMT-31"/>
      </g>
     </g>
    </g>
   </g>
   <g id="line2d_13">
    <path d="M 54.605355 309.114546 
L 55.058065 307.981989 
L 69.056539 273.447191 
L 75.708545 257.358649 
L 81.686694 243.023155 
L 85.522943 233.855967 
L 88.382055 227.032559 
L 89.565028 224.211984 
L 90.651221 221.624622 
L 94.324354 212.922234 
L 101.850672 196.115103 
L 109.869383 182.435633 
L 115.169426 173.53156 
L 115.887638 172.315913 
L 118.03312 168.501226 
L 125.198589 156.227725 
L 132.885708 143.536372 
L 144.550907 125.693884 
L 147.433737 121.150896 
L 150.22658 117.003258 
L 170.473927 90.273674 
L 176.781496 81.82971 
L 182.476499 74.1702 
L 188.455764 65.840588 
L 201.703845 54.967417 
L 203.196963 53.969616 
L 203.244099 53.936726 
L 204.151971 53.304323 
L 204.186947 53.280012 
L 206.051917 51.994363 
L 209.339253 49.877327 
L 209.844766 49.58866 
L 216.368643 47.400128 
L 222.1141 46.148652 
L 225.145655 45.72223 
L 234.006066 45.226934 
L 236.248726 45.122552 
L 245.920065 44.847033 
L 253.26323 44.19633 
L 253.842632 44.175865 
L 256.741543 44.107796 
L 265.318829 44.279312 
L 272.709011 44.864293 
L 273.191123 44.917604 
L 274.91578 45.252887 
L 278.527249 46.019046 
L 283.395394 47.535509 
L 287.801568 49.139434 
L 292.632708 50.30077 
L 294.226786 50.741169 
L 310.328783 55.200336 
L 319.49093 58.441887 
L 320.728358 58.910592 
L 323.095014 59.805121 
L 326.47264 61.085853 
L 328.60964 61.927943 
L 337.802145 65.498332 
L 345.051839 70.468813 
L 350.995198 73.637684 
L 352.282218 74.320686 
L 354.905929 75.988215 
L 367.28906 84.848242 
L 370.388202 86.505315 
L 370.997395 86.855978 
L 373.445441 87.752693 
L 377.784446 90.373943 
L 378.587209 90.868822 
L 380.185214 91.606343 
L 392.288307 97.968549 
L 397.452597 100.920039 
L 402.645217 102.902318 
L 403.764521 103.840101 
L 406.299575 106.013224 
L 408.984781 108.40032 
L 412.941126 111.616645 
L 419.669867 118.878606 
L 429.279015 127.95519 
L 429.346712 127.997804 
L 430.525089 128.75649 
L 431.087526 129.134477 
L 436.308215 133.950969 
L 450.966467 145.347923 
L 463.068971 153.37018 
L 466.844613 155.793928 
L 471.387356 158.791331 
L 471.871608 159.08032 
L 473.998243 160.300732 
L 483.331919 165.598623 
L 496.164246 171.046291 
L 498.112913 171.954284 
L 510.38016 178.380452 
L 525.486117 186.725048 
L 528.562103 188.420855 
L 530.031255 189.229808 
L 534.343482 191.601495 
L 536.43694 192.75246 
L 545.165448 197.565777 
L 548.978852 199.683438 
L 556.900889 204.127738 
L 561.878082 206.956565 
" clip-path="url(#pc0a90a0c82)" style="fill: none; stroke: #ff6347; stroke-width: 1.5; stroke-linecap: round"/>
   </g>
   <g id="line2d_14">
    <defs>
     <path id="me1f52fdad2" d="M 0 1.5 
C 0.397805 1.5 0.77937 1.341951 1.06066 1.06066 
C 1.341951 0.77937 1.5 0.397805 1.5 0 
C 1.5 -0.397805 1.341951 -0.77937 1.06066 -1.06066 
C 0.77937 -1.341951 0.397805 -1.5 0 -1.5 
C -0.397805 -1.5 -0.77937 -1.341951 -1.06066 -1.06066 
C -1.341951 -0.77937 -1.5 -0.397805 -1.5 0 
C -1.5 0.397805 -1.341951 0.77937 -1.06066 1.06066 
C -0.77937 1.341951 -0.397805 1.5 0 1.5 
z
" style="stroke: #1a1a1a"/>
    </defs>
    <g clip-path="url(#pc0a90a0c82)">
     <use xlink:href="#me1f52fdad2" x="278.527249" y="39.861895" style="fill: #1a1a1a; stroke: #1a1a1a"/>
     <use xlink:href="#me1f52fdad2" x="545.165448" y="195.390977" style="fill: #1a1a1a; stroke: #1a1a1a"/>
     <use xlink:href="#me1f52fdad2" x="328.60964" y="54.34076" style="fill: #1a1a1a; stroke: #1a1a1a"/>
     <use xlink:href="#me1f52fdad2" x="548.978852" y="206.218572" style="fill: #1a1a1a; stroke: #1a1a1a"/>
     <use xlink:href="#me1f52fdad2" x="69.056539" y="297.370213" style="fill: #1a1a1a; stroke: #1a1a1a"/>
     <use xlink:href="#me1f52fdad2" x="132.885708" y="139.667244" style="fill: #1a1a1a; stroke: #1a1a1a"/>
     <use xlink:href="#me1f52fdad2" x="81.686694" y="226.562911" style="fill: #1a1a1a; stroke: #1a1a1a"/>
     <use xlink:href="#me1f52fdad2" x="525.486117" y="193.208434" style="fill: #1a1a1a; stroke: #1a1a1a"/>
     <use xlink:href="#me1f52fdad2" x="429.346712" y="123.338411" style="fill: #1a1a1a; stroke: #1a1a1a"/>
     <use xlink:href="#me1f52fdad2" x="182.476499" y="58.343666" style="fill: #1a1a1a; stroke: #1a1a1a"/>
     <use xlink:href="#me1f52fdad2" x="319.49093" y="53.296579" style="fill: #1a1a1a; stroke: #1a1a1a"/>
     <use xlink:href="#me1f52fdad2" x="528.562103" y="179.565275" style="fill: #1a1a1a; stroke: #1a1a1a"/>
     <use xlink:href="#me1f52fdad2" x="406.299575" y="100.248524" style="fill: #1a1a1a; stroke: #1a1a1a"/>
     <use xlink:href="#me1f52fdad2" x="115.169426" y="178.145745" style="fill: #1a1a1a; stroke: #1a1a1a"/>
     <use xlink:href="#me1f52fdad2" x="561.878082" y="219.453564" style="fill: #1a1a1a; stroke: #1a1a1a"/>
     <use xlink:href="#me1f52fdad2" x="115.887638" y="117.555353" style="fill: #1a1a1a; stroke: #1a1a1a"/>
     <use xlink:href="#me1f52fdad2" x="294.226786" y="55.760297" style="fill: #1a1a1a; stroke: #1a1a1a"/>
     <use xlink:href="#me1f52fdad2" x="530.031255" y="177.688359" style="fill: #1a1a1a; stroke: #1a1a1a"/>
     <use xlink:href="#me1f52fdad2" x="287.801568" y="22.32" style="fill: #1a1a1a; stroke: #1a1a1a"/>
     <use xlink:href="#me1f52fdad2" x="430.525089" y="96.385021" style="fill: #1a1a1a; stroke: #1a1a1a"/>
     <use xlink:href="#me1f52fdad2" x="150.22658" y="95.322463" style="fill: #1a1a1a; stroke: #1a1a1a"/>
     <use xlink:href="#me1f52fdad2" x="54.605355" y="324.72" style="fill: #1a1a1a; stroke: #1a1a1a"/>
     <use xlink:href="#me1f52fdad2" x="419.669867" y="123.365492" style="fill: #1a1a1a; stroke: #1a1a1a"/>
     <use xlink:href="#me1f52fdad2" x="466.844613" y="155.589875" style="fill: #1a1a1a; stroke: #1a1a1a"/>
     <use xlink:href="#me1f52fdad2" x="234.006066" y="48.783419" style="fill: #1a1a1a; stroke: #1a1a1a"/>
     <use xlink:href="#me1f52fdad2" x="236.248726" y="48.352549" style="fill: #1a1a1a; stroke: #1a1a1a"/>
     <use xlink:href="#me1f52fdad2" x="352.282218" y="73.722239" style="fill: #1a1a1a; stroke: #1a1a1a"/>
     <use xlink:href="#me1f52fdad2" x="471.871608" y="174.750296" style="fill: #1a1a1a; stroke: #1a1a1a"/>
     <use xlink:href="#me1f52fdad2" x="274.91578" y="35.088894" style="fill: #1a1a1a; stroke: #1a1a1a"/>
     <use xlink:href="#me1f52fdad2" x="536.43694" y="196.29537" style="fill: #1a1a1a; stroke: #1a1a1a"/>
     <use xlink:href="#me1f52fdad2" x="473.998243" y="167.446862" style="fill: #1a1a1a; stroke: #1a1a1a"/>
     <use xlink:href="#me1f52fdad2" x="402.645217" y="94.333281" style="fill: #1a1a1a; stroke: #1a1a1a"/>
     <use xlink:href="#me1f52fdad2" x="408.984781" y="108.81692" style="fill: #1a1a1a; stroke: #1a1a1a"/>
     <use xlink:href="#me1f52fdad2" x="273.191123" y="45.442371" style="fill: #1a1a1a; stroke: #1a1a1a"/>
     <use xlink:href="#me1f52fdad2" x="209.844766" y="31.515526" style="fill: #1a1a1a; stroke: #1a1a1a"/>
     <use xlink:href="#me1f52fdad2" x="377.784446" y="105.579105" style="fill: #1a1a1a; stroke: #1a1a1a"/>
     <use xlink:href="#me1f52fdad2" x="483.331919" y="153.526219" style="fill: #1a1a1a; stroke: #1a1a1a"/>
     <use xlink:href="#me1f52fdad2" x="310.328783" y="72.813024" style="fill: #1a1a1a; stroke: #1a1a1a"/>
     <use xlink:href="#me1f52fdad2" x="373.445441" y="90.615996" style="fill: #1a1a1a; stroke: #1a1a1a"/>
     <use xlink:href="#me1f52fdad2" x="118.03312" y="142.745633" style="fill: #1a1a1a; stroke: #1a1a1a"/>
     <use xlink:href="#me1f52fdad2" x="203.244099" y="39.56811" style="fill: #1a1a1a; stroke: #1a1a1a"/>
     <use xlink:href="#me1f52fdad2" x="147.433737" y="134.027046" style="fill: #1a1a1a; stroke: #1a1a1a"/>
     <use xlink:href="#me1f52fdad2" x="89.565028" y="211.416594" style="fill: #1a1a1a; stroke: #1a1a1a"/>
     <use xlink:href="#me1f52fdad2" x="88.382055" y="218.251558" style="fill: #1a1a1a; stroke: #1a1a1a"/>
     <use xlink:href="#me1f52fdad2" x="412.941126" y="129.339738" style="fill: #1a1a1a; stroke: #1a1a1a"/>
     <use xlink:href="#me1f52fdad2" x="206.051917" y="53.027988" style="fill: #1a1a1a; stroke: #1a1a1a"/>
     <use xlink:href="#me1f52fdad2" x="216.368643" y="56.405585" style="fill: #1a1a1a; stroke: #1a1a1a"/>
     <use xlink:href="#me1f52fdad2" x="188.455764" y="77.329317" style="fill: #1a1a1a; stroke: #1a1a1a"/>
     <use xlink:href="#me1f52fdad2" x="436.308215" y="153.102366" style="fill: #1a1a1a; stroke: #1a1a1a"/>
     <use xlink:href="#me1f52fdad2" x="370.997395" y="102.21438" style="fill: #1a1a1a; stroke: #1a1a1a"/>
     <use xlink:href="#me1f52fdad2" x="256.741543" y="60.198448" style="fill: #1a1a1a; stroke: #1a1a1a"/>
     <use xlink:href="#me1f52fdad2" x="55.058065" y="303.6976" style="fill: #1a1a1a; stroke: #1a1a1a"/>
     <use xlink:href="#me1f52fdad2" x="350.995198" y="65.970387" style="fill: #1a1a1a; stroke: #1a1a1a"/>
     <use xlink:href="#me1f52fdad2" x="556.900889" y="201.165785" style="fill: #1a1a1a; stroke: #1a1a1a"/>
     <use xlink:href="#me1f52fdad2" x="463.068971" y="137.506006" style="fill: #1a1a1a; stroke: #1a1a1a"/>
     <use xlink:href="#me1f52fdad2" x="323.095014" y="68.707837" style="fill: #1a1a1a; stroke: #1a1a1a"/>
     <use xlink:href="#me1f52fdad2" x="534.343482" y="180.45716" style="fill: #1a1a1a; stroke: #1a1a1a"/>
     <use xlink:href="#me1f52fdad2" x="201.703845" y="47.209947" style="fill: #1a1a1a; stroke: #1a1a1a"/>
     <use xlink:href="#me1f52fdad2" x="429.279015" y="145.440588" style="fill: #1a1a1a; stroke: #1a1a1a"/>
     <use xlink:href="#me1f52fdad2" x="403.764521" y="80.640508" style="fill: #1a1a1a; stroke: #1a1a1a"/>
     <use xlink:href="#me1f52fdad2" x="253.26323" y="38.813386" style="fill: #1a1a1a; stroke: #1a1a1a"/>
     <use xlink:href="#me1f52fdad2" x="496.164246" y="179.373507" style="fill: #1a1a1a; stroke: #1a1a1a"/>
     <use xlink:href="#me1f52fdad2" x="170.473927" y="76.945873" style="fill: #1a1a1a; stroke: #1a1a1a"/>
     <use xlink:href="#me1f52fdad2" x="337.802145" y="56.553686" style="fill: #1a1a1a; stroke: #1a1a1a"/>
     <use xlink:href="#me1f52fdad2" x="176.781496" y="97.029381" style="fill: #1a1a1a; stroke: #1a1a1a"/>
     <use xlink:href="#me1f52fdad2" x="431.087526" y="119.135674" style="fill: #1a1a1a; stroke: #1a1a1a"/>
     <use xlink:href="#me1f52fdad2" x="265.318829" y="57.714094" style="fill: #1a1a1a; stroke: #1a1a1a"/>
     <use xlink:href="#me1f52fdad2" x="354.905929" y="78.452291" style="fill: #1a1a1a; stroke: #1a1a1a"/>
     <use xlink:href="#me1f52fdad2" x="392.288307" y="78.547847" style="fill: #1a1a1a; stroke: #1a1a1a"/>
     <use xlink:href="#me1f52fdad2" x="101.850672" y="201.202137" style="fill: #1a1a1a; stroke: #1a1a1a"/>
     <use xlink:href="#me1f52fdad2" x="225.145655" y="32.899633" style="fill: #1a1a1a; stroke: #1a1a1a"/>
     <use xlink:href="#me1f52fdad2" x="203.196963" y="31.945769" style="fill: #1a1a1a; stroke: #1a1a1a"/>
     <use xlink:href="#me1f52fdad2" x="253.842632" y="36.197516" style="fill: #1a1a1a; stroke: #1a1a1a"/>
     <use xlink:href="#me1f52fdad2" x="397.452597" y="104.492558" style="fill: #1a1a1a; stroke: #1a1a1a"/>
     <use xlink:href="#me1f52fdad2" x="345.051839" y="65.835032" style="fill: #1a1a1a; stroke: #1a1a1a"/>
     <use xlink:href="#me1f52fdad2" x="204.186947" y="50.971622" style="fill: #1a1a1a; stroke: #1a1a1a"/>
     <use xlink:href="#me1f52fdad2" x="283.395394" y="60.799245" style="fill: #1a1a1a; stroke: #1a1a1a"/>
     <use xlink:href="#me1f52fdad2" x="245.920065" y="27.590909" style="fill: #1a1a1a; stroke: #1a1a1a"/>
     <use xlink:href="#me1f52fdad2" x="471.387356" y="154.986766" style="fill: #1a1a1a; stroke: #1a1a1a"/>
     <use xlink:href="#me1f52fdad2" x="109.869383" y="200.608997" style="fill: #1a1a1a; stroke: #1a1a1a"/>
     <use xlink:href="#me1f52fdad2" x="272.709011" y="41.596828" style="fill: #1a1a1a; stroke: #1a1a1a"/>
     <use xlink:href="#me1f52fdad2" x="75.708545" y="254.295722" style="fill: #1a1a1a; stroke: #1a1a1a"/>
     <use xlink:href="#me1f52fdad2" x="380.185214" y="105.011635" style="fill: #1a1a1a; stroke: #1a1a1a"/>
     <use xlink:href="#me1f52fdad2" x="292.632708" y="40.243208" style="fill: #1a1a1a; stroke: #1a1a1a"/>
     <use xlink:href="#me1f52fdad2" x="209.339253" y="60.03299" style="fill: #1a1a1a; stroke: #1a1a1a"/>
     <use xlink:href="#me1f52fdad2" x="370.388202" y="94.896988" style="fill: #1a1a1a; stroke: #1a1a1a"/>
     <use xlink:href="#me1f52fdad2" x="222.1141" y="62.692634" style="fill: #1a1a1a; stroke: #1a1a1a"/>
     <use xlink:href="#me1f52fdad2" x="498.112913" y="177.239648" style="fill: #1a1a1a; stroke: #1a1a1a"/>
     <use xlink:href="#me1f52fdad2" x="85.522943" y="229.944267" style="fill: #1a1a1a; stroke: #1a1a1a"/>
     <use xlink:href="#me1f52fdad2" x="378.587209" y="84.62585" style="fill: #1a1a1a; stroke: #1a1a1a"/>
     <use xlink:href="#me1f52fdad2" x="90.651221" y="202.575092" style="fill: #1a1a1a; stroke: #1a1a1a"/>
     <use xlink:href="#me1f52fdad2" x="320.728358" y="63.736227" style="fill: #1a1a1a; stroke: #1a1a1a"/>
     <use xlink:href="#me1f52fdad2" x="204.151971" y="44.247634" style="fill: #1a1a1a; stroke: #1a1a1a"/>
     <use xlink:href="#me1f52fdad2" x="326.47264" y="53.48879" style="fill: #1a1a1a; stroke: #1a1a1a"/>
     <use xlink:href="#me1f52fdad2" x="367.28906" y="66.353735" style="fill: #1a1a1a; stroke: #1a1a1a"/>
     <use xlink:href="#me1f52fdad2" x="144.550907" y="136.306658" style="fill: #1a1a1a; stroke: #1a1a1a"/>
     <use xlink:href="#me1f52fdad2" x="450.966467" y="157.823729" style="fill: #1a1a1a; stroke: #1a1a1a"/>
     <use xlink:href="#me1f52fdad2" x="125.198589" y="131.003269" style="fill: #1a1a1a; stroke: #1a1a1a"/>
     <use xlink:href="#me1f52fdad2" x="510.38016" y="173.916539" style="fill: #1a1a1a; stroke: #1a1a1a"/>
     <use xlink:href="#me1f52fdad2" x="94.324354" y="216.719828" style="fill: #1a1a1a; stroke: #1a1a1a"/>
    </g>
   </g>
   <g id="patch_3">
    <path d="M 29.241719 339.84 
L 29.241719 7.2 
" style="fill: none; stroke: #ffffff; stroke-width: 1.25; stroke-linejoin: miter; stroke-linecap: square"/>
   </g>
   <g id="patch_4">
    <path d="M 587.241719 339.84 
L 587.241719 7.2 
" style="fill: none; stroke: #ffffff; stroke-width: 1.25; stroke-linejoin: miter; stroke-linecap: square"/>
   </g>
   <g id="patch_5">
    <path d="M 29.241719 339.84 
L 587.241719 339.84 
" style="fill: none; stroke: #ffffff; stroke-width: 1.25; stroke-linejoin: miter; stroke-linecap: square"/>
   </g>
   <g id="patch_6">
    <path d="M 29.241719 7.2 
L 587.241719 7.2 
" style="fill: none; stroke: #ffffff; stroke-width: 1.25; stroke-linejoin: miter; stroke-linecap: square"/>
   </g>
  </g>
 </g>
 <defs>
  <clipPath id="pc0a90a0c82">
   <rect x="29.241719" y="7.2" width="558" height="332.64"/>
  </clipPath>
 </defs>
</svg>