<?xml version="1.0" encoding="UTF-8" standalone="no"?>
<!DOCTYPE svg PUBLIC "-//W3C//DTD SVG 1.1//EN"
 "http://www.w3.org/Graphics/SVG/1.1/DTD/svg11.dtd">
<!-- Generated by graphviz version 11.0.0 (0)
 -->
<!-- Pages: 1 -->
<svg width="681pt" height="276pt"
 viewBox="0.00 0.00 681.36 275.63" xmlns="http://www.w3.org/2000/svg" xmlns:xlink="http://www.w3.org/1999/xlink">
<g id="graph0" class="graph" transform="scale(1 1) rotate(0) translate(4 271.63)">
<polygon fill="white" stroke="none" points="-4,4 -4,-271.63 677.36,-271.63 677.36,4 -4,4"/>
<g id="clust1" class="cluster">
<title>clusterC(Subject)_dim (17)</title>
<path fill="none" stroke="black" d="M374.36,-137.82C374.36,-137.82 479.36,-137.82 479.36,-137.82 485.36,-137.82 491.36,-143.82 491.36,-149.82 491.36,-149.82 491.36,-247.63 491.36,-247.63 491.36,-253.63 485.36,-259.63 479.36,-259.63 479.36,-259.63 374.36,-259.63 374.36,-259.63 368.36,-259.63 362.36,-253.63 362.36,-247.63 362.36,-247.63 362.36,-149.82 362.36,-149.82 362.36,-143.82 368.36,-137.82 374.36,-137.82"/>
<text text-anchor="middle" x="426.74" y="-145.02" font-family="Times,serif" font-size="14.00">C(Subject)_dim (17)</text>
</g>
<g id="clust2" class="cluster">
<title>clusterDays:C(Subject)_dim (17)</title>
<path fill="none" stroke="black" d="M511.36,-137.82C511.36,-137.82 653.36,-137.82 653.36,-137.82 659.36,-137.82 665.36,-143.82 665.36,-149.82 665.36,-149.82 665.36,-247.63 665.36,-247.63 665.36,-253.63 659.36,-259.63 653.36,-259.63 653.36,-259.63 511.36,-259.63 511.36,-259.63 505.36,-259.63 499.36,-253.63 499.36,-247.63 499.36,-247.63 499.36,-149.82 499.36,-149.82 499.36,-143.82 505.36,-137.82 511.36,-137.82"/>
<text text-anchor="middle" x="584.99" y="-145.02" font-family="Times,serif" font-size="14.00">Days:C(Subject)_dim (17)</text>
</g>
<g id="clust3" class="cluster">
<title>clusterReaction_obs (144)</title>
<path fill="none" stroke="black" d="M260.36,-8C260.36,-8 358.36,-8 358.36,-8 364.36,-8 370.36,-14 370.36,-20 370.36,-20 370.36,-117.82 370.36,-117.82 370.36,-123.82 364.36,-129.82 358.36,-129.82 358.36,-129.82 260.36,-129.82 260.36,-129.82 254.36,-129.82 248.36,-123.82 248.36,-117.82 248.36,-117.82 248.36,-20 248.36,-20 248.36,-14 254.36,-8 260.36,-8"/>
<text text-anchor="middle" x="309.11" y="-15.2" font-family="Times,serif" font-size="14.00">Reaction_obs (144)</text>
</g>
<!-- Reaction_sigma -->
<g id="node1" class="node">
<title>Reaction_sigma</title>
<ellipse fill="none" stroke="black" cx="73.36" cy="-210.98" rx="73.36" ry="40.66"/>
<text text-anchor="middle" x="73.36" y="-222.43" font-family="Times,serif" font-size="14.00">Reaction_sigma</text>
<text text-anchor="middle" x="73.36" y="-205.93" font-family="Times,serif" font-size="14.00">~</text>
<text text-anchor="middle" x="73.36" y="-189.43" font-family="Times,serif" font-size="14.00">HalfStudentT</text>
</g>
<!-- Reaction -->
<g id="node6" class="node">
<title>Reaction</title>
<ellipse fill="lightgrey" stroke="black" cx="309.36" cy="-81.16" rx="45.25" ry="40.66"/>
<text text-anchor="middle" x="309.36" y="-92.61" font-family="Times,serif" font-size="14.00">Reaction</text>
<text text-anchor="middle" x="309.36" y="-76.11" font-family="Times,serif" font-size="14.00">~</text>
<text text-anchor="middle" x="309.36" y="-59.61" font-family="Times,serif" font-size="14.00">Normal</text>
</g>
<!-- Reaction_sigma&#45;&gt;Reaction -->
<g id="edge2" class="edge">
<title>Reaction_sigma&#45;&gt;Reaction</title>
<path fill="none" stroke="black" d="M107.41,-174.86C121.35,-161.92 138.23,-147.96 155.36,-137.82 186.31,-119.51 224.26,-105.71 254.75,-96.43"/>
<polygon fill="black" stroke="black" points="255.57,-99.83 264.16,-93.64 253.58,-93.12 255.57,-99.83"/>
</g>
<!-- Days -->
<g id="node2" class="node">
<title>Days</title>
<ellipse fill="none" stroke="black" cx="205.36" cy="-210.98" rx="41.01" ry="40.66"/>
<text text-anchor="middle" x="205.36" y="-222.43" font-family="Times,serif" font-size="14.00">Days</text>
<text text-anchor="middle" x="205.36" y="-205.93" font-family="Times,serif" font-size="14.00">~</text>
<text text-anchor="middle" x="205.36" y="-189.43" font-family="Times,serif" font-size="14.00">Normal</text>
</g>
<!-- Days&#45;&gt;Reaction -->
<g id="edge3" class="edge">
<title>Days&#45;&gt;Reaction</title>
<path fill="none" stroke="black" d="M227.16,-176.09C235.55,-163.72 245.49,-149.83 255.36,-137.82 260.25,-131.88 265.64,-125.82 271.07,-119.99"/>
<polygon fill="black" stroke="black" points="273.6,-122.41 277.95,-112.75 268.53,-117.58 273.6,-122.41"/>
</g>
<!-- Intercept -->
<g id="node3" class="node">
<title>Intercept</title>
<ellipse fill="none" stroke="black" cx="309.36" cy="-210.98" rx="45.25" ry="40.66"/>
<text text-anchor="middle" x="309.36" y="-222.43" font-family="Times,serif" font-size="14.00">Intercept</text>
<text text-anchor="middle" x="309.36" y="-205.93" font-family="Times,serif" font-size="14.00">~</text>
<text text-anchor="middle" x="309.36" y="-189.43" font-family="Times,serif" font-size="14.00">Normal</text>
</g>
<!-- Intercept&#45;&gt;Reaction -->
<g id="edge4" class="edge">
<title>Intercept&#45;&gt;Reaction</title>
<path fill="none" stroke="black" d="M309.36,-169.88C309.36,-158.34 309.36,-145.6 309.36,-133.48"/>
<polygon fill="black" stroke="black" points="312.86,-133.62 309.36,-123.62 305.86,-133.62 312.86,-133.62"/>
</g>
<!-- C(Subject) -->
<g id="node4" class="node">
<title>C(Subject)</title>
<ellipse fill="none" stroke="black" cx="425.36" cy="-210.98" rx="52.68" ry="40.66"/>
<text text-anchor="middle" x="425.36" y="-222.43" font-family="Times,serif" font-size="14.00">C(Subject)</text>
<text text-anchor="middle" x="425.36" y="-205.93" font-family="Times,serif" font-size="14.00">~</text>
<text text-anchor="middle" x="425.36" y="-189.43" font-family="Times,serif" font-size="14.00">Normal</text>
</g>
<!-- C(Subject)&#45;&gt;Reaction -->
<g id="edge5" class="edge">
<title>C(Subject)&#45;&gt;Reaction</title>
<path fill="none" stroke="black" d="M397.07,-176.2C386.63,-163.97 374.61,-150.14 363.36,-137.82 358.18,-132.14 352.62,-126.23 347.11,-120.46"/>
<polygon fill="black" stroke="black" points="349.63,-118.04 340.18,-113.26 344.59,-122.89 349.63,-118.04"/>
</g>
<!-- Days&amp;C(Subject) -->
<g id="node5" class="node">
<title>Days&amp;C(Subject)</title>
<ellipse fill="none" stroke="black" cx="582.36" cy="-210.98" rx="74.95" ry="40.66"/>
<text text-anchor="middle" x="582.36" y="-222.43" font-family="Times,serif" font-size="14.00">Days:C(Subject)</text>
<text text-anchor="middle" x="582.36" y="-205.93" font-family="Times,serif" font-size="14.00">~</text>
<text text-anchor="middle" x="582.36" y="-189.43" font-family="Times,serif" font-size="14.00">Normal</text>
</g>
<!-- Days&amp;C(Subject)&#45;&gt;Reaction -->
<g id="edge1" class="edge">
<title>Days&amp;C(Subject)&#45;&gt;Reaction</title>
<path fill="none" stroke="black" d="M546.65,-174.8C531.77,-161.69 513.7,-147.64 495.36,-137.82 454.12,-115.73 402.92,-101.24 364.69,-92.59"/>
<polygon fill="black" stroke="black" points="365.76,-89.24 355.24,-90.52 364.26,-96.08 365.76,-89.24"/>
</g>
</g>
</svg>