<?xml version="1.0" encoding="UTF-8" standalone="no"?>
<!DOCTYPE svg PUBLIC "-//W3C//DTD SVG 1.1//EN"
 "http://www.w3.org/Graphics/SVG/1.1/DTD/svg11.dtd">
<!-- Generated by graphviz version 11.0.0 (0)
 -->
<!-- Pages: 1 -->
<svg width="355pt" height="247pt"
 viewBox="0.00 0.00 354.60 247.13" xmlns="http://www.w3.org/2000/svg" xmlns:xlink="http://www.w3.org/1999/xlink">
<g id="graph0" class="graph" transform="scale(1 1) rotate(0) translate(4 243.13)">
<polygon fill="white" stroke="none" points="-4,4 -4,-243.13 350.6,-243.13 350.6,4 -4,4"/>
<g id="clust1" class="cluster">
<title>clusterheight_obs (352)</title>
<path fill="none" stroke="black" d="M148.29,-8C148.29,-8 232.29,-8 232.29,-8 238.29,-8 244.29,-14 244.29,-20 244.29,-20 244.29,-117.82 244.29,-117.82 244.29,-123.82 238.29,-129.82 232.29,-129.82 232.29,-129.82 148.29,-129.82 148.29,-129.82 142.29,-129.82 136.29,-123.82 136.29,-117.82 136.29,-117.82 136.29,-20 136.29,-20 136.29,-14 142.29,-8 148.29,-8"/>
<text text-anchor="middle" x="190.16" y="-15.2" font-family="Times,serif" font-size="14.00">height_obs (352)</text>
</g>
<!-- height_sigma -->
<g id="node1" class="node">
<title>height_sigma</title>
<ellipse fill="none" stroke="black" cx="63.29" cy="-198.48" rx="63.29" ry="40.66"/>
<text text-anchor="middle" x="63.29" y="-209.93" font-family="Times,serif" font-size="14.00">height_sigma</text>
<text text-anchor="middle" x="63.29" y="-193.43" font-family="Times,serif" font-size="14.00">~</text>
<text text-anchor="middle" x="63.29" y="-176.93" font-family="Times,serif" font-size="14.00">HalfStudentT</text>
</g>
<!-- height -->
<g id="node4" class="node">
<title>height</title>
<ellipse fill="lightgrey" stroke="black" cx="190.29" cy="-81.16" rx="41.01" ry="40.66"/>
<text text-anchor="middle" x="190.29" y="-92.61" font-family="Times,serif" font-size="14.00">height</text>
<text text-anchor="middle" x="190.29" y="-76.11" font-family="Times,serif" font-size="14.00">~</text>
<text text-anchor="middle" x="190.29" y="-59.61" font-family="Times,serif" font-size="14.00">Normal</text>
</g>
<!-- height_sigma&#45;&gt;height -->
<g id="edge1" class="edge">
<title>height_sigma&#45;&gt;height</title>
<path fill="none" stroke="black" d="M99.34,-164.74C115.83,-149.77 135.37,-132.02 152.11,-116.83"/>
<polygon fill="black" stroke="black" points="154.4,-119.47 159.45,-110.16 149.69,-114.29 154.4,-119.47"/>
</g>
<!-- Intercept -->
<g id="node2" class="node">
<title>Intercept</title>
<ellipse fill="none" stroke="black" cx="190.29" cy="-198.48" rx="45.25" ry="40.66"/>
<text text-anchor="middle" x="190.29" y="-209.93" font-family="Times,serif" font-size="14.00">Intercept</text>
<text text-anchor="middle" x="190.29" y="-193.43" font-family="Times,serif" font-size="14.00">~</text>
<text text-anchor="middle" x="190.29" y="-176.93" font-family="Times,serif" font-size="14.00">Normal</text>
</g>
<!-- Intercept&#45;&gt;height -->
<g id="edge2" class="edge">
<title>Intercept&#45;&gt;height</title>
<path fill="none" stroke="black" d="M190.29,-157.47C190.29,-149.69 190.29,-141.43 190.29,-133.34"/>
<polygon fill="black" stroke="black" points="193.79,-133.61 190.29,-123.61 186.79,-133.61 193.79,-133.61"/>
</g>
<!-- weight_c -->
<g id="node3" class="node">
<title>weight_c</title>
<ellipse fill="none" stroke="black" cx="300.29" cy="-198.48" rx="46.32" ry="40.66"/>
<text text-anchor="middle" x="300.29" y="-209.93" font-family="Times,serif" font-size="14.00">weight_c</text>
<text text-anchor="middle" x="300.29" y="-193.43" font-family="Times,serif" font-size="14.00">~</text>
<text text-anchor="middle" x="300.29" y="-176.93" font-family="Times,serif" font-size="14.00">Normal</text>
</g>
<!-- weight_c&#45;&gt;height -->
<g id="edge3" class="edge">
<title>weight_c&#45;&gt;height</title>
<path fill="none" stroke="black" d="M270.81,-166.57C256.95,-152.05 240.33,-134.62 225.78,-119.37"/>
<polygon fill="black" stroke="black" points="228.43,-117.08 219,-112.26 223.37,-121.91 228.43,-117.08"/>
</g>
</g>
</svg>