<?xml version="1.0" encoding="UTF-8" standalone="no"?>
<!DOCTYPE svg PUBLIC "-//W3C//DTD SVG 1.1//EN"
 "http://www.w3.org/Graphics/SVG/1.1/DTD/svg11.dtd">
<!-- Generated by graphviz version 9.0.0 (0)
 -->
<!-- Pages: 1 -->
<svg width="736pt" height="462pt"
 viewBox="0.00 0.00 735.73 462.45" xmlns="http://www.w3.org/2000/svg" xmlns:xlink="http://www.w3.org/1999/xlink">
<g id="graph0" class="graph" transform="scale(1 1) rotate(0) translate(4 458.45)">
<polygon fill="white" stroke="none" points="-4,4 -4,-458.45 731.73,-458.45 731.73,4 -4,4"/>
<g id="clust2" class="cluster">
<title>clusterobs_id (100)</title>
<path fill="none" stroke="black" d="M522.73,-8C522.73,-8 707.73,-8 707.73,-8 713.73,-8 719.73,-14 719.73,-20 719.73,-20 719.73,-321.23 719.73,-321.23 719.73,-327.23 713.73,-333.23 707.73,-333.23 707.73,-333.23 522.73,-333.23 522.73,-333.23 516.73,-333.23 510.73,-327.23 510.73,-321.23 510.73,-321.23 510.73,-20 510.73,-20 510.73,-14 516.73,-8 522.73,-8"/>
<text text-anchor="middle" x="677.23" y="-15.2" font-family="Times,serif" font-size="14.00">obs_id (100)</text>
</g>
<g id="clust1" class="cluster">
<title>clustergroup (5)</title>
<path fill="none" stroke="black" d="M182.73,-223.32C182.73,-223.32 490.73,-223.32 490.73,-223.32 496.73,-223.32 502.73,-229.32 502.73,-235.32 502.73,-235.32 502.73,-333.13 502.73,-333.13 502.73,-339.13 496.73,-345.13 490.73,-345.13 490.73,-345.13 182.73,-345.13 182.73,-345.13 176.73,-345.13 170.73,-339.13 170.73,-333.13 170.73,-333.13 170.73,-235.32 170.73,-235.32 170.73,-229.32 176.73,-223.32 182.73,-223.32"/>
<text text-anchor="middle" x="469.23" y="-230.52" font-family="Times,serif" font-size="14.00">group (5)</text>
</g>
<!-- intercept_sigma -->
<g id="node1" class="node">
<title>intercept_sigma</title>
<ellipse fill="none" stroke="black" cx="646.73" cy="-413.79" rx="72.83" ry="40.66"/>
<text text-anchor="middle" x="646.73" y="-425.24" font-family="Times,serif" font-size="14.00">intercept_sigma</text>
<text text-anchor="middle" x="646.73" y="-408.74" font-family="Times,serif" font-size="14.00">~</text>
<text text-anchor="middle" x="646.73" y="-392.24" font-family="Times,serif" font-size="14.00">HalfNormal</text>
</g>
<!-- β0 -->
<g id="node7" class="node">
<title>β0</title>
<ellipse fill="none" stroke="black" cx="453.73" cy="-296.48" rx="41.01" ry="40.66"/>
<text text-anchor="middle" x="453.73" y="-307.93" font-family="Times,serif" font-size="14.00">β0</text>
<text text-anchor="middle" x="453.73" y="-291.43" font-family="Times,serif" font-size="14.00">~</text>
<text text-anchor="middle" x="453.73" y="-274.93" font-family="Times,serif" font-size="14.00">Normal</text>
</g>
<!-- intercept_sigma&#45;&gt;β0 -->
<g id="edge2" class="edge">
<title>intercept_sigma&#45;&gt;β0</title>
<path fill="none" stroke="black" d="M592.48,-386.55C583.22,-382.07 573.7,-377.47 564.73,-373.13 538.95,-360.68 530.49,-361.09 506.73,-345.13 501.39,-341.56 496.05,-337.47 490.91,-333.23"/>
<polygon fill="black" stroke="black" points="493.51,-330.85 483.65,-327 488.95,-336.17 493.51,-330.85"/>
</g>
<!-- intercept_mu -->
<g id="node2" class="node">
<title>intercept_mu</title>
<ellipse fill="none" stroke="black" cx="493.73" cy="-413.79" rx="62.23" ry="40.66"/>
<text text-anchor="middle" x="493.73" y="-425.24" font-family="Times,serif" font-size="14.00">intercept_mu</text>
<text text-anchor="middle" x="493.73" y="-408.74" font-family="Times,serif" font-size="14.00">~</text>
<text text-anchor="middle" x="493.73" y="-392.24" font-family="Times,serif" font-size="14.00">Normal</text>
</g>
<!-- intercept_mu&#45;&gt;β0 -->
<g id="edge3" class="edge">
<title>intercept_mu&#45;&gt;β0</title>
<path fill="none" stroke="black" d="M480.18,-373.75C477.09,-364.83 473.76,-355.24 470.55,-345.97"/>
<polygon fill="black" stroke="black" points="473.93,-345.04 467.34,-336.73 467.31,-347.33 473.93,-345.04"/>
</g>
<!-- sigma_hyperprior -->
<g id="node3" class="node">
<title>sigma_hyperprior</title>
<ellipse fill="none" stroke="black" cx="79.73" cy="-413.79" rx="79.73" ry="40.66"/>
<text text-anchor="middle" x="79.73" y="-425.24" font-family="Times,serif" font-size="14.00">sigma_hyperprior</text>
<text text-anchor="middle" x="79.73" y="-408.74" font-family="Times,serif" font-size="14.00">~</text>
<text text-anchor="middle" x="79.73" y="-392.24" font-family="Times,serif" font-size="14.00">HalfNormal</text>
</g>
<!-- sigma -->
<g id="node6" class="node">
<title>sigma</title>
<ellipse fill="none" stroke="black" cx="236.73" cy="-296.48" rx="57.98" ry="40.66"/>
<text text-anchor="middle" x="236.73" y="-307.93" font-family="Times,serif" font-size="14.00">sigma</text>
<text text-anchor="middle" x="236.73" y="-291.43" font-family="Times,serif" font-size="14.00">~</text>
<text text-anchor="middle" x="236.73" y="-274.93" font-family="Times,serif" font-size="14.00">HalfNormal</text>
</g>
<!-- sigma_hyperprior&#45;&gt;sigma -->
<g id="edge1" class="edge">
<title>sigma_hyperprior&#45;&gt;sigma</title>
<path fill="none" stroke="black" d="M124.72,-379.75C144.52,-365.2 167.82,-348.09 188.03,-333.24"/>
<polygon fill="black" stroke="black" points="189.87,-336.24 195.85,-327.5 185.72,-330.6 189.87,-336.24"/>
</g>
<!-- slope_sigma -->
<g id="node4" class="node">
<title>slope_sigma</title>
<ellipse fill="none" stroke="black" cx="353.73" cy="-413.79" rx="59.57" ry="40.66"/>
<text text-anchor="middle" x="353.73" y="-425.24" font-family="Times,serif" font-size="14.00">slope_sigma</text>
<text text-anchor="middle" x="353.73" y="-408.74" font-family="Times,serif" font-size="14.00">~</text>
<text text-anchor="middle" x="353.73" y="-392.24" font-family="Times,serif" font-size="14.00">HalfNormal</text>
</g>
<!-- β1 -->
<g id="node8" class="node">
<title>β1</title>
<ellipse fill="none" stroke="black" cx="353.73" cy="-296.48" rx="41.01" ry="40.66"/>
<text text-anchor="middle" x="353.73" y="-307.93" font-family="Times,serif" font-size="14.00">β1</text>
<text text-anchor="middle" x="353.73" y="-291.43" font-family="Times,serif" font-size="14.00">~</text>
<text text-anchor="middle" x="353.73" y="-274.93" font-family="Times,serif" font-size="14.00">Normal</text>
</g>
<!-- slope_sigma&#45;&gt;β1 -->
<g id="edge5" class="edge">
<title>slope_sigma&#45;&gt;β1</title>
<path fill="none" stroke="black" d="M353.73,-372.78C353.73,-365 353.73,-356.75 353.73,-348.66"/>
<polygon fill="black" stroke="black" points="357.23,-348.93 353.73,-338.93 350.23,-348.93 357.23,-348.93"/>
</g>
<!-- slope_mu -->
<g id="node5" class="node">
<title>slope_mu</title>
<ellipse fill="none" stroke="black" cx="226.73" cy="-413.79" rx="48.97" ry="40.66"/>
<text text-anchor="middle" x="226.73" y="-425.24" font-family="Times,serif" font-size="14.00">slope_mu</text>
<text text-anchor="middle" x="226.73" y="-408.74" font-family="Times,serif" font-size="14.00">~</text>
<text text-anchor="middle" x="226.73" y="-392.24" font-family="Times,serif" font-size="14.00">Normal</text>
</g>
<!-- slope_mu&#45;&gt;β1 -->
<g id="edge4" class="edge">
<title>slope_mu&#45;&gt;β1</title>
<path fill="none" stroke="black" d="M260.34,-383.78C273.92,-371.92 289.68,-357.99 303.73,-345.13 307.88,-341.34 312.19,-337.33 316.46,-333.32"/>
<polygon fill="black" stroke="black" points="318.6,-336.1 323.47,-326.69 313.8,-331.02 318.6,-336.1"/>
</g>
<!-- y -->
<g id="node9" class="node">
<title>y</title>
<ellipse fill="lightgrey" stroke="black" cx="563.73" cy="-81.16" rx="41.01" ry="40.66"/>
<text text-anchor="middle" x="563.73" y="-92.61" font-family="Times,serif" font-size="14.00">y</text>
<text text-anchor="middle" x="563.73" y="-76.11" font-family="Times,serif" font-size="14.00">~</text>
<text text-anchor="middle" x="563.73" y="-59.61" font-family="Times,serif" font-size="14.00">Normal</text>
</g>
<!-- sigma&#45;&gt;y -->
<g id="edge10" class="edge">
<title>sigma&#45;&gt;y</title>
<path fill="none" stroke="black" d="M265.01,-260.53C276.25,-247.9 289.82,-234.11 303.73,-223.32 371.44,-170.77 461.35,-126.75 515.75,-102.47"/>
<polygon fill="black" stroke="black" points="517.02,-105.73 524.76,-98.49 514.19,-99.33 517.02,-105.73"/>
</g>
<!-- μ -->
<g id="node11" class="node">
<title>μ</title>
<polygon fill="none" stroke="black" points="608.85,-215.32 518.6,-215.32 518.6,-157.82 608.85,-157.82 608.85,-215.32"/>
<text text-anchor="middle" x="563.73" y="-198.02" font-family="Times,serif" font-size="14.00">μ</text>
<text text-anchor="middle" x="563.73" y="-181.52" font-family="Times,serif" font-size="14.00">~</text>
<text text-anchor="middle" x="563.73" y="-165.02" font-family="Times,serif" font-size="14.00">Deterministic</text>
</g>
<!-- β0&#45;&gt;μ -->
<g id="edge7" class="edge">
<title>β0&#45;&gt;μ</title>
<path fill="none" stroke="black" d="M474.81,-261.37C483.71,-248.56 494.77,-234.43 506.73,-223.32 507.62,-222.48 508.55,-221.66 509.48,-220.84"/>
<polygon fill="black" stroke="black" points="511.55,-223.67 517.18,-214.69 507.18,-218.2 511.55,-223.67"/>
</g>
<!-- β1&#45;&gt;μ -->
<g id="edge9" class="edge">
<title>β1&#45;&gt;μ</title>
<path fill="none" stroke="black" d="M371.3,-259.48C379.45,-246.26 390.32,-232.34 403.73,-223.32 434.14,-202.85 474.46,-193.93 507.01,-190.11"/>
<polygon fill="black" stroke="black" points="507.08,-193.63 516.67,-189.12 506.36,-186.66 507.08,-193.63"/>
</g>
<!-- g -->
<g id="node10" class="node">
<title>g</title>
<path fill="lightgrey" stroke="black" d="M699.35,-325.23C699.35,-325.23 636.1,-325.23 636.1,-325.23 630.1,-325.23 624.1,-319.23 624.1,-313.23 624.1,-313.23 624.1,-279.73 624.1,-279.73 624.1,-273.73 630.1,-267.73 636.1,-267.73 636.1,-267.73 699.35,-267.73 699.35,-267.73 705.35,-267.73 711.35,-273.73 711.35,-279.73 711.35,-279.73 711.35,-313.23 711.35,-313.23 711.35,-319.23 705.35,-325.23 699.35,-325.23"/>
<text text-anchor="middle" x="667.73" y="-307.93" font-family="Times,serif" font-size="14.00">g</text>
<text text-anchor="middle" x="667.73" y="-291.43" font-family="Times,serif" font-size="14.00">~</text>
<text text-anchor="middle" x="667.73" y="-274.93" font-family="Times,serif" font-size="14.00">MutableData</text>
</g>
<!-- g&#45;&gt;y -->
<g id="edge11" class="edge">
<title>g&#45;&gt;y</title>
<path fill="none" stroke="black" d="M659.97,-267.38C651.55,-238.88 636.72,-193.94 617.73,-157.82 611.51,-146 603.67,-133.91 595.9,-122.97"/>
<polygon fill="black" stroke="black" points="598.75,-120.93 590.03,-114.91 593.09,-125.05 598.75,-120.93"/>
</g>
<!-- g&#45;&gt;μ -->
<g id="edge6" class="edge">
<title>g&#45;&gt;μ</title>
<path fill="none" stroke="black" d="M650.74,-267.34C642.67,-255.09 632.31,-240.81 615.44,-223.75"/>
<polygon fill="black" stroke="black" points="617.89,-221.26 608.29,-216.77 613,-226.27 617.89,-221.26"/>
</g>
<!-- μ&#45;&gt;y -->
<g id="edge12" class="edge">
<title>μ&#45;&gt;y</title>
<path fill="none" stroke="black" d="M563.73,-157.58C563.73,-150.1 563.73,-141.77 563.73,-133.45"/>
<polygon fill="black" stroke="black" points="567.23,-133.71 563.73,-123.71 560.23,-133.71 567.23,-133.71"/>
</g>
<!-- x -->
<g id="node12" class="node">
<title>x</title>
<path fill="lightgrey" stroke="black" d="M594.35,-325.23C594.35,-325.23 531.1,-325.23 531.1,-325.23 525.1,-325.23 519.1,-319.23 519.1,-313.23 519.1,-313.23 519.1,-279.73 519.1,-279.73 519.1,-273.73 525.1,-267.73 531.1,-267.73 531.1,-267.73 594.35,-267.73 594.35,-267.73 600.35,-267.73 606.35,-273.73 606.35,-279.73 606.35,-279.73 606.35,-313.23 606.35,-313.23 606.35,-319.23 600.35,-325.23 594.35,-325.23"/>
<text text-anchor="middle" x="562.73" y="-307.93" font-family="Times,serif" font-size="14.00">x</text>
<text text-anchor="middle" x="562.73" y="-291.43" font-family="Times,serif" font-size="14.00">~</text>
<text text-anchor="middle" x="562.73" y="-274.93" font-family="Times,serif" font-size="14.00">MutableData</text>
</g>
<!-- x&#45;&gt;μ -->
<g id="edge8" class="edge">
<title>x&#45;&gt;μ</title>
<path fill="none" stroke="black" d="M562.99,-267.41C563.1,-255.04 563.24,-240.3 563.36,-226.87"/>
<polygon fill="black" stroke="black" points="566.86,-227.04 563.45,-217.01 559.86,-226.98 566.86,-227.04"/>
</g>
</g>
</svg>