<?xml version="1.0" encoding="UTF-8" standalone="no"?>
<!DOCTYPE svg PUBLIC "-//W3C//DTD SVG 1.1//EN"
 "http://www.w3.org/Graphics/SVG/1.1/DTD/svg11.dtd">
<!-- Generated by graphviz version 9.0.0 (0)
 -->
<!-- Pages: 1 -->
<svg width="447pt" height="247pt"
 viewBox="0.00 0.00 446.62 247.13" xmlns="http://www.w3.org/2000/svg" xmlns:xlink="http://www.w3.org/1999/xlink">
<g id="graph0" class="graph" transform="scale(1 1) rotate(0) translate(4 243.13)">
<polygon fill="white" stroke="none" points="-4,4 -4,-243.13 442.62,-243.13 442.62,4 -4,4"/>
<g id="clust1" class="cluster">
<title>clustery_obs (103)</title>
<path fill="none" stroke="black" d="M166.01,-8C166.01,-8 250.01,-8 250.01,-8 256.01,-8 262.01,-14 262.01,-20 262.01,-20 262.01,-117.82 262.01,-117.82 262.01,-123.82 256.01,-129.82 250.01,-129.82 250.01,-129.82 166.01,-129.82 166.01,-129.82 160.01,-129.82 154.01,-123.82 154.01,-117.82 154.01,-117.82 154.01,-20 154.01,-20 154.01,-14 160.01,-8 166.01,-8"/>
<text text-anchor="middle" x="221.39" y="-15.2" font-family="Times,serif" font-size="14.00">y_obs (103)</text>
</g>
<!-- x -->
<g id="node1" class="node">
<title>x</title>
<ellipse fill="none" stroke="black" cx="41.01" cy="-198.48" rx="41.01" ry="40.66"/>
<text text-anchor="middle" x="41.01" y="-209.93" font-family="Times,serif" font-size="14.00">x</text>
<text text-anchor="middle" x="41.01" y="-193.43" font-family="Times,serif" font-size="14.00">~</text>
<text text-anchor="middle" x="41.01" y="-176.93" font-family="Times,serif" font-size="14.00">Normal</text>
</g>
<!-- y -->
<g id="node5" class="node">
<title>y</title>
<ellipse fill="lightgrey" stroke="black" cx="208.01" cy="-81.16" rx="46.32" ry="40.66"/>
<text text-anchor="middle" x="208.01" y="-92.61" font-family="Times,serif" font-size="14.00">y</text>
<text text-anchor="middle" x="208.01" y="-76.11" font-family="Times,serif" font-size="14.00">~</text>
<text text-anchor="middle" x="208.01" y="-59.61" font-family="Times,serif" font-size="14.00">StudentT</text>
</g>
<!-- x&#45;&gt;y -->
<g id="edge1" class="edge">
<title>x&#45;&gt;y</title>
<path fill="none" stroke="black" d="M72.4,-171.83C78.49,-167.07 84.89,-162.21 91.01,-157.82 113.43,-141.74 139.09,-124.97 160.65,-111.32"/>
<polygon fill="black" stroke="black" points="162.37,-114.38 168.97,-106.09 158.64,-108.45 162.37,-114.38"/>
</g>
<!-- Intercept -->
<g id="node2" class="node">
<title>Intercept</title>
<ellipse fill="none" stroke="black" cx="145.01" cy="-198.48" rx="45.25" ry="40.66"/>
<text text-anchor="middle" x="145.01" y="-209.93" font-family="Times,serif" font-size="14.00">Intercept</text>
<text text-anchor="middle" x="145.01" y="-193.43" font-family="Times,serif" font-size="14.00">~</text>
<text text-anchor="middle" x="145.01" y="-176.93" font-family="Times,serif" font-size="14.00">Normal</text>
</g>
<!-- Intercept&#45;&gt;y -->
<g id="edge2" class="edge">
<title>Intercept&#45;&gt;y</title>
<path fill="none" stroke="black" d="M164.6,-161.62C170.35,-151.09 176.73,-139.43 182.78,-128.35"/>
<polygon fill="black" stroke="black" points="185.77,-130.17 187.49,-119.72 179.63,-126.81 185.77,-130.17"/>
</g>
<!-- y_sigma -->
<g id="node3" class="node">
<title>y_sigma</title>
<ellipse fill="none" stroke="black" cx="272.01" cy="-198.48" rx="63.29" ry="40.66"/>
<text text-anchor="middle" x="272.01" y="-209.93" font-family="Times,serif" font-size="14.00">y_sigma</text>
<text text-anchor="middle" x="272.01" y="-193.43" font-family="Times,serif" font-size="14.00">~</text>
<text text-anchor="middle" x="272.01" y="-176.93" font-family="Times,serif" font-size="14.00">HalfStudentT</text>
</g>
<!-- y_sigma&#45;&gt;y -->
<g id="edge3" class="edge">
<title>y_sigma&#45;&gt;y</title>
<path fill="none" stroke="black" d="M251.06,-159.72C245.42,-149.56 239.26,-138.47 233.41,-127.93"/>
<polygon fill="black" stroke="black" points="236.58,-126.41 228.66,-119.37 230.45,-129.81 236.58,-126.41"/>
</g>
<!-- y_nu -->
<g id="node4" class="node">
<title>y_nu</title>
<ellipse fill="none" stroke="black" cx="396.01" cy="-198.48" rx="42.6" ry="40.66"/>
<text text-anchor="middle" x="396.01" y="-209.93" font-family="Times,serif" font-size="14.00">y_nu</text>
<text text-anchor="middle" x="396.01" y="-193.43" font-family="Times,serif" font-size="14.00">~</text>
<text text-anchor="middle" x="396.01" y="-176.93" font-family="Times,serif" font-size="14.00">Gamma</text>
</g>
<!-- y_nu&#45;&gt;y -->
<g id="edge4" class="edge">
<title>y_nu&#45;&gt;y</title>
<path fill="none" stroke="black" d="M363.52,-171.57C357.17,-166.83 350.47,-162.05 344.01,-157.82 316.37,-139.72 284.11,-121.65 257.95,-107.71"/>
<polygon fill="black" stroke="black" points="259.69,-104.68 249.21,-103.1 256.42,-110.87 259.69,-104.68"/>
</g>
</g>
</svg>