<?xml version="1.0" encoding="UTF-8" standalone="no"?>
<!DOCTYPE svg PUBLIC "-//W3C//DTD SVG 1.1//EN"
 "http://www.w3.org/Graphics/SVG/1.1/DTD/svg11.dtd">
<!-- Generated by graphviz version 9.0.0 (0)
 -->
<!-- Pages: 1 -->
<svg width="363pt" height="247pt"
 viewBox="0.00 0.00 363.37 247.13" xmlns="http://www.w3.org/2000/svg" xmlns:xlink="http://www.w3.org/1999/xlink">
<g id="graph0" class="graph" transform="scale(1 1) rotate(0) translate(4 243.13)">
<polygon fill="white" stroke="none" points="-4,4 -4,-243.13 359.37,-243.13 359.37,4 -4,4"/>
<g id="clust1" class="cluster">
<title>clusterReaction_obs (144)</title>
<path fill="none" stroke="black" d="M96.01,-8C96.01,-8 194.01,-8 194.01,-8 200.01,-8 206.01,-14 206.01,-20 206.01,-20 206.01,-117.82 206.01,-117.82 206.01,-123.82 200.01,-129.82 194.01,-129.82 194.01,-129.82 96.01,-129.82 96.01,-129.82 90.01,-129.82 84.01,-123.82 84.01,-117.82 84.01,-117.82 84.01,-20 84.01,-20 84.01,-14 90.01,-8 96.01,-8"/>
<text text-anchor="middle" x="144.76" y="-15.2" font-family="Times,serif" font-size="14.00">Reaction_obs (144)</text>
</g>
<!-- Days -->
<g id="node1" class="node">
<title>Days</title>
<ellipse fill="none" stroke="black" cx="41.01" cy="-198.48" rx="41.01" ry="40.66"/>
<text text-anchor="middle" x="41.01" y="-209.93" font-family="Times,serif" font-size="14.00">Days</text>
<text text-anchor="middle" x="41.01" y="-193.43" font-family="Times,serif" font-size="14.00">~</text>
<text text-anchor="middle" x="41.01" y="-176.93" font-family="Times,serif" font-size="14.00">Normal</text>
</g>
<!-- Reaction -->
<g id="node4" class="node">
<title>Reaction</title>
<ellipse fill="lightgrey" stroke="black" cx="145.01" cy="-81.16" rx="45.25" ry="40.66"/>
<text text-anchor="middle" x="145.01" y="-92.61" font-family="Times,serif" font-size="14.00">Reaction</text>
<text text-anchor="middle" x="145.01" y="-76.11" font-family="Times,serif" font-size="14.00">~</text>
<text text-anchor="middle" x="145.01" y="-59.61" font-family="Times,serif" font-size="14.00">Normal</text>
</g>
<!-- Days&#45;&gt;Reaction -->
<g id="edge1" class="edge">
<title>Days&#45;&gt;Reaction</title>
<path fill="none" stroke="black" d="M68.07,-167.48C80.76,-153.4 96.06,-136.44 109.65,-121.36"/>
<polygon fill="black" stroke="black" points="111.89,-124.11 115.99,-114.34 106.7,-119.42 111.89,-124.11"/>
</g>
<!-- Intercept -->
<g id="node2" class="node">
<title>Intercept</title>
<ellipse fill="none" stroke="black" cx="145.01" cy="-198.48" rx="45.25" ry="40.66"/>
<text text-anchor="middle" x="145.01" y="-209.93" font-family="Times,serif" font-size="14.00">Intercept</text>
<text text-anchor="middle" x="145.01" y="-193.43" font-family="Times,serif" font-size="14.00">~</text>
<text text-anchor="middle" x="145.01" y="-176.93" font-family="Times,serif" font-size="14.00">Normal</text>
</g>
<!-- Intercept&#45;&gt;Reaction -->
<g id="edge2" class="edge">
<title>Intercept&#45;&gt;Reaction</title>
<path fill="none" stroke="black" d="M145.01,-157.47C145.01,-149.69 145.01,-141.43 145.01,-133.34"/>
<polygon fill="black" stroke="black" points="148.51,-133.61 145.01,-123.61 141.51,-133.61 148.51,-133.61"/>
</g>
<!-- Reaction_sigma -->
<g id="node3" class="node">
<title>Reaction_sigma</title>
<ellipse fill="none" stroke="black" cx="282.01" cy="-198.48" rx="73.36" ry="40.66"/>
<text text-anchor="middle" x="282.01" y="-209.93" font-family="Times,serif" font-size="14.00">Reaction_sigma</text>
<text text-anchor="middle" x="282.01" y="-193.43" font-family="Times,serif" font-size="14.00">~</text>
<text text-anchor="middle" x="282.01" y="-176.93" font-family="Times,serif" font-size="14.00">HalfStudentT</text>
</g>
<!-- Reaction_sigma&#45;&gt;Reaction -->
<g id="edge3" class="edge">
<title>Reaction_sigma&#45;&gt;Reaction</title>
<path fill="none" stroke="black" d="M242.39,-164.12C224.73,-149.26 203.94,-131.76 186.11,-116.75"/>
<polygon fill="black" stroke="black" points="188.69,-114.35 178.78,-110.59 184.18,-119.7 188.69,-114.35"/>
</g>
</g>
</svg>