<?xml version="1.0" encoding="UTF-8" standalone="no"?>
<!DOCTYPE svg PUBLIC "-//W3C//DTD SVG 1.1//EN"
 "http://www.w3.org/Graphics/SVG/1.1/DTD/svg11.dtd">
<!-- Generated by graphviz version 9.0.0 (0)
 -->
<!-- Pages: 1 -->
<svg width="682pt" height="276pt"
 viewBox="0.00 0.00 682.01 275.63" xmlns="http://www.w3.org/2000/svg" xmlns:xlink="http://www.w3.org/1999/xlink">
<g id="graph0" class="graph" transform="scale(1 1) rotate(0) translate(4 271.63)">
<polygon fill="white" stroke="none" points="-4,4 -4,-271.63 678.01,-271.63 678.01,4 -4,4"/>
<g id="clust1" class="cluster">
<title>clusterC(Subject)_dim (17)</title>
<path fill="none" stroke="black" d="M375.01,-137.82C375.01,-137.82 480.01,-137.82 480.01,-137.82 486.01,-137.82 492.01,-143.82 492.01,-149.82 492.01,-149.82 492.01,-247.63 492.01,-247.63 492.01,-253.63 486.01,-259.63 480.01,-259.63 480.01,-259.63 375.01,-259.63 375.01,-259.63 369.01,-259.63 363.01,-253.63 363.01,-247.63 363.01,-247.63 363.01,-149.82 363.01,-149.82 363.01,-143.82 369.01,-137.82 375.01,-137.82"/>
<text text-anchor="middle" x="427.39" y="-145.02" font-family="Times,serif" font-size="14.00">C(Subject)_dim (17)</text>
</g>
<g id="clust2" class="cluster">
<title>clusterDays:C(Subject)_dim (17)</title>
<path fill="none" stroke="black" d="M512.01,-137.82C512.01,-137.82 654.01,-137.82 654.01,-137.82 660.01,-137.82 666.01,-143.82 666.01,-149.82 666.01,-149.82 666.01,-247.63 666.01,-247.63 666.01,-253.63 660.01,-259.63 654.01,-259.63 654.01,-259.63 512.01,-259.63 512.01,-259.63 506.01,-259.63 500.01,-253.63 500.01,-247.63 500.01,-247.63 500.01,-149.82 500.01,-149.82 500.01,-143.82 506.01,-137.82 512.01,-137.82"/>
<text text-anchor="middle" x="585.64" y="-145.02" font-family="Times,serif" font-size="14.00">Days:C(Subject)_dim (17)</text>
</g>
<g id="clust3" class="cluster">
<title>clusterReaction_obs (144)</title>
<path fill="none" stroke="black" d="M233.01,-8C233.01,-8 331.01,-8 331.01,-8 337.01,-8 343.01,-14 343.01,-20 343.01,-20 343.01,-117.82 343.01,-117.82 343.01,-123.82 337.01,-129.82 331.01,-129.82 331.01,-129.82 233.01,-129.82 233.01,-129.82 227.01,-129.82 221.01,-123.82 221.01,-117.82 221.01,-117.82 221.01,-20 221.01,-20 221.01,-14 227.01,-8 233.01,-8"/>
<text text-anchor="middle" x="281.76" y="-15.2" font-family="Times,serif" font-size="14.00">Reaction_obs (144)</text>
</g>
<!-- Days -->
<g id="node1" class="node">
<title>Days</title>
<ellipse fill="none" stroke="black" cx="41.01" cy="-210.98" rx="41.01" ry="40.66"/>
<text text-anchor="middle" x="41.01" y="-222.43" font-family="Times,serif" font-size="14.00">Days</text>
<text text-anchor="middle" x="41.01" y="-205.93" font-family="Times,serif" font-size="14.00">~</text>
<text text-anchor="middle" x="41.01" y="-189.43" font-family="Times,serif" font-size="14.00">Normal</text>
</g>
<!-- Reaction -->
<g id="node6" class="node">
<title>Reaction</title>
<ellipse fill="lightgrey" stroke="black" cx="282.01" cy="-81.16" rx="45.25" ry="40.66"/>
<text text-anchor="middle" x="282.01" y="-92.61" font-family="Times,serif" font-size="14.00">Reaction</text>
<text text-anchor="middle" x="282.01" y="-76.11" font-family="Times,serif" font-size="14.00">~</text>
<text text-anchor="middle" x="282.01" y="-59.61" font-family="Times,serif" font-size="14.00">Normal</text>
</g>
<!-- Days&#45;&gt;Reaction -->
<g id="edge1" class="edge">
<title>Days&#45;&gt;Reaction</title>
<path fill="none" stroke="black" d="M59.12,-174.04C67.28,-160.99 78.03,-147.17 91.01,-137.82 130.76,-109.19 185.09,-95.2 225.65,-88.41"/>
<polygon fill="black" stroke="black" points="226.13,-91.88 235.47,-86.88 225.05,-84.96 226.13,-91.88"/>
</g>
<!-- Intercept -->
<g id="node2" class="node">
<title>Intercept</title>
<ellipse fill="none" stroke="black" cx="145.01" cy="-210.98" rx="45.25" ry="40.66"/>
<text text-anchor="middle" x="145.01" y="-222.43" font-family="Times,serif" font-size="14.00">Intercept</text>
<text text-anchor="middle" x="145.01" y="-205.93" font-family="Times,serif" font-size="14.00">~</text>
<text text-anchor="middle" x="145.01" y="-189.43" font-family="Times,serif" font-size="14.00">Normal</text>
</g>
<!-- Intercept&#45;&gt;Reaction -->
<g id="edge3" class="edge">
<title>Intercept&#45;&gt;Reaction</title>
<path fill="none" stroke="black" d="M167.84,-175.41C177.02,-162.83 188.23,-148.97 200.01,-137.82 210.46,-127.92 222.84,-118.55 234.77,-110.42"/>
<polygon fill="black" stroke="black" points="236.52,-113.46 242.93,-105.02 232.66,-107.62 236.52,-113.46"/>
</g>
<!-- Reaction_sigma -->
<g id="node3" class="node">
<title>Reaction_sigma</title>
<ellipse fill="none" stroke="black" cx="282.01" cy="-210.98" rx="73.36" ry="40.66"/>
<text text-anchor="middle" x="282.01" y="-222.43" font-family="Times,serif" font-size="14.00">Reaction_sigma</text>
<text text-anchor="middle" x="282.01" y="-205.93" font-family="Times,serif" font-size="14.00">~</text>
<text text-anchor="middle" x="282.01" y="-189.43" font-family="Times,serif" font-size="14.00">HalfStudentT</text>
</g>
<!-- Reaction_sigma&#45;&gt;Reaction -->
<g id="edge5" class="edge">
<title>Reaction_sigma&#45;&gt;Reaction</title>
<path fill="none" stroke="black" d="M282.01,-169.88C282.01,-158.34 282.01,-145.6 282.01,-133.48"/>
<polygon fill="black" stroke="black" points="285.51,-133.62 282.01,-123.62 278.51,-133.62 285.51,-133.62"/>
</g>
<!-- C(Subject) -->
<g id="node4" class="node">
<title>C(Subject)</title>
<ellipse fill="none" stroke="black" cx="426.01" cy="-210.98" rx="52.68" ry="40.66"/>
<text text-anchor="middle" x="426.01" y="-222.43" font-family="Times,serif" font-size="14.00">C(Subject)</text>
<text text-anchor="middle" x="426.01" y="-205.93" font-family="Times,serif" font-size="14.00">~</text>
<text text-anchor="middle" x="426.01" y="-189.43" font-family="Times,serif" font-size="14.00">Normal</text>
</g>
<!-- C(Subject)&#45;&gt;Reaction -->
<g id="edge2" class="edge">
<title>C(Subject)&#45;&gt;Reaction</title>
<path fill="none" stroke="black" d="M399.65,-175.6C389.22,-163.04 376.7,-149.15 364.01,-137.82 353.28,-128.23 340.8,-118.97 328.87,-110.84"/>
<polygon fill="black" stroke="black" points="330.99,-108.05 320.72,-105.42 327.11,-113.88 330.99,-108.05"/>
</g>
<!-- Days&amp;C(Subject) -->
<g id="node5" class="node">
<title>Days&amp;C(Subject)</title>
<ellipse fill="none" stroke="black" cx="583.01" cy="-210.98" rx="74.95" ry="40.66"/>
<text text-anchor="middle" x="583.01" y="-222.43" font-family="Times,serif" font-size="14.00">Days:C(Subject)</text>
<text text-anchor="middle" x="583.01" y="-205.93" font-family="Times,serif" font-size="14.00">~</text>
<text text-anchor="middle" x="583.01" y="-189.43" font-family="Times,serif" font-size="14.00">Normal</text>
</g>
<!-- Days&amp;C(Subject)&#45;&gt;Reaction -->
<g id="edge4" class="edge">
<title>Days&amp;C(Subject)&#45;&gt;Reaction</title>
<path fill="none" stroke="black" d="M547.89,-174.83C532.96,-161.57 514.7,-147.39 496.01,-137.82 445.88,-112.14 382.92,-97.61 338.3,-89.89"/>
<polygon fill="black" stroke="black" points="339.01,-86.46 328.57,-88.27 337.86,-93.36 339.01,-86.46"/>
</g>
</g>
</svg>