<?xml version="1.0" encoding="UTF-8" standalone="no"?>
<!DOCTYPE svg PUBLIC "-//W3C//DTD SVG 1.1//EN"
 "http://www.w3.org/Graphics/SVG/1.1/DTD/svg11.dtd">
<!-- Generated by graphviz version 9.0.0 (0)
 -->
<!-- Pages: 1 -->
<svg width="447pt" height="247pt"
 viewBox="0.00 0.00 446.54 247.13" xmlns="http://www.w3.org/2000/svg" xmlns:xlink="http://www.w3.org/1999/xlink">
<g id="graph0" class="graph" transform="scale(1 1) rotate(0) translate(4 243.13)">
<polygon fill="white" stroke="none" points="-4,4 -4,-243.13 442.54,-243.13 442.54,4 -4,4"/>
<g id="clust1" class="cluster">
<title>clustery_obs (103)</title>
<path fill="none" stroke="black" d="M194.29,-8C194.29,-8 278.29,-8 278.29,-8 284.29,-8 290.29,-14 290.29,-20 290.29,-20 290.29,-117.82 290.29,-117.82 290.29,-123.82 284.29,-129.82 278.29,-129.82 278.29,-129.82 194.29,-129.82 194.29,-129.82 188.29,-129.82 182.29,-123.82 182.29,-117.82 182.29,-117.82 182.29,-20 182.29,-20 182.29,-14 188.29,-8 194.29,-8"/>
<text text-anchor="middle" x="249.66" y="-15.2" font-family="Times,serif" font-size="14.00">y_obs (103)</text>
</g>
<!-- y_sigma -->
<g id="node1" class="node">
<title>y_sigma</title>
<ellipse fill="none" stroke="black" cx="63.29" cy="-198.48" rx="63.29" ry="40.66"/>
<text text-anchor="middle" x="63.29" y="-209.93" font-family="Times,serif" font-size="14.00">y_sigma</text>
<text text-anchor="middle" x="63.29" y="-193.43" font-family="Times,serif" font-size="14.00">~</text>
<text text-anchor="middle" x="63.29" y="-176.93" font-family="Times,serif" font-size="14.00">HalfStudentT</text>
</g>
<!-- y -->
<g id="node5" class="node">
<title>y</title>
<ellipse fill="lightgrey" stroke="black" cx="236.29" cy="-81.16" rx="46.32" ry="40.66"/>
<text text-anchor="middle" x="236.29" y="-92.61" font-family="Times,serif" font-size="14.00">y</text>
<text text-anchor="middle" x="236.29" y="-76.11" font-family="Times,serif" font-size="14.00">~</text>
<text text-anchor="middle" x="236.29" y="-59.61" font-family="Times,serif" font-size="14.00">StudentT</text>
</g>
<!-- y_sigma&#45;&gt;y -->
<g id="edge1" class="edge">
<title>y_sigma&#45;&gt;y</title>
<path fill="none" stroke="black" d="M106.49,-168.67C132.08,-151.62 164.46,-130.03 190.49,-112.69"/>
<polygon fill="black" stroke="black" points="192.12,-115.8 198.5,-107.34 188.24,-109.98 192.12,-115.8"/>
</g>
<!-- x -->
<g id="node2" class="node">
<title>x</title>
<ellipse fill="none" stroke="black" cx="185.29" cy="-198.48" rx="41.01" ry="40.66"/>
<text text-anchor="middle" x="185.29" y="-209.93" font-family="Times,serif" font-size="14.00">x</text>
<text text-anchor="middle" x="185.29" y="-193.43" font-family="Times,serif" font-size="14.00">~</text>
<text text-anchor="middle" x="185.29" y="-176.93" font-family="Times,serif" font-size="14.00">Normal</text>
</g>
<!-- x&#45;&gt;y -->
<g id="edge2" class="edge">
<title>x&#45;&gt;y</title>
<path fill="none" stroke="black" d="M201.56,-160.67C205.89,-150.89 210.63,-140.18 215.17,-129.9"/>
<polygon fill="black" stroke="black" points="218.36,-131.35 219.2,-120.79 211.96,-128.52 218.36,-131.35"/>
</g>
<!-- y_nu -->
<g id="node3" class="node">
<title>y_nu</title>
<ellipse fill="none" stroke="black" cx="287.29" cy="-198.48" rx="42.6" ry="40.66"/>
<text text-anchor="middle" x="287.29" y="-209.93" font-family="Times,serif" font-size="14.00">y_nu</text>
<text text-anchor="middle" x="287.29" y="-193.43" font-family="Times,serif" font-size="14.00">~</text>
<text text-anchor="middle" x="287.29" y="-176.93" font-family="Times,serif" font-size="14.00">Gamma</text>
</g>
<!-- y_nu&#45;&gt;y -->
<g id="edge3" class="edge">
<title>y_nu&#45;&gt;y</title>
<path fill="none" stroke="black" d="M271.01,-160.67C266.68,-150.89 261.95,-140.18 257.4,-129.9"/>
<polygon fill="black" stroke="black" points="260.62,-128.52 253.37,-120.79 254.21,-131.35 260.62,-128.52"/>
</g>
<!-- Intercept -->
<g id="node4" class="node">
<title>Intercept</title>
<ellipse fill="none" stroke="black" cx="393.29" cy="-198.48" rx="45.25" ry="40.66"/>
<text text-anchor="middle" x="393.29" y="-209.93" font-family="Times,serif" font-size="14.00">Intercept</text>
<text text-anchor="middle" x="393.29" y="-193.43" font-family="Times,serif" font-size="14.00">~</text>
<text text-anchor="middle" x="393.29" y="-176.93" font-family="Times,serif" font-size="14.00">Normal</text>
</g>
<!-- Intercept&#45;&gt;y -->
<g id="edge4" class="edge">
<title>Intercept&#45;&gt;y</title>
<path fill="none" stroke="black" d="M358.44,-171.88C335.53,-155.06 305.35,-132.89 280.72,-114.79"/>
<polygon fill="black" stroke="black" points="282.93,-112.07 272.79,-108.97 278.78,-117.72 282.93,-112.07"/>
</g>
</g>
</svg>