<?xml version="1.0" encoding="UTF-8" standalone="no"?>
<!DOCTYPE svg PUBLIC "-//W3C//DTD SVG 1.1//EN"
 "http://www.w3.org/Graphics/SVG/1.1/DTD/svg11.dtd">
<!-- Generated by graphviz version 9.0.0 (0)
 -->
<!-- Pages: 1 -->
<svg width="447pt" height="247pt"
 viewBox="0.00 0.00 447.30 247.13" xmlns="http://www.w3.org/2000/svg" xmlns:xlink="http://www.w3.org/1999/xlink">
<g id="graph0" class="graph" transform="scale(1 1) rotate(0) translate(4 243.13)">
<polygon fill="white" stroke="none" points="-4,4 -4,-243.13 443.3,-243.13 443.3,4 -4,4"/>
<g id="clust1" class="cluster">
<title>clustery_obs (103)</title>
<path fill="none" stroke="black" d="M154.01,-8C154.01,-8 238.01,-8 238.01,-8 244.01,-8 250.01,-14 250.01,-20 250.01,-20 250.01,-117.82 250.01,-117.82 250.01,-123.82 244.01,-129.82 238.01,-129.82 238.01,-129.82 154.01,-129.82 154.01,-129.82 148.01,-129.82 142.01,-123.82 142.01,-117.82 142.01,-117.82 142.01,-20 142.01,-20 142.01,-14 148.01,-8 154.01,-8"/>
<text text-anchor="middle" x="209.39" y="-15.2" font-family="Times,serif" font-size="14.00">y_obs (103)</text>
</g>
<!-- x -->
<g id="node1" class="node">
<title>x</title>
<ellipse fill="none" stroke="black" cx="41.01" cy="-198.48" rx="41.01" ry="40.66"/>
<text text-anchor="middle" x="41.01" y="-209.93" font-family="Times,serif" font-size="14.00">x</text>
<text text-anchor="middle" x="41.01" y="-193.43" font-family="Times,serif" font-size="14.00">~</text>
<text text-anchor="middle" x="41.01" y="-176.93" font-family="Times,serif" font-size="14.00">Normal</text>
</g>
<!-- y -->
<g id="node5" class="node">
<title>y</title>
<ellipse fill="lightgrey" stroke="black" cx="196.01" cy="-81.16" rx="46.32" ry="40.66"/>
<text text-anchor="middle" x="196.01" y="-92.61" font-family="Times,serif" font-size="14.00">y</text>
<text text-anchor="middle" x="196.01" y="-76.11" font-family="Times,serif" font-size="14.00">~</text>
<text text-anchor="middle" x="196.01" y="-59.61" font-family="Times,serif" font-size="14.00">StudentT</text>
</g>
<!-- x&#45;&gt;y -->
<g id="edge1" class="edge">
<title>x&#45;&gt;y</title>
<path fill="none" stroke="black" d="M72.58,-172.08C78.66,-167.29 85,-162.36 91.01,-157.82 110.48,-143.09 132.34,-127.24 151.05,-113.87"/>
<polygon fill="black" stroke="black" points="152.89,-116.85 159,-108.2 148.83,-111.15 152.89,-116.85"/>
</g>
<!-- y_nu -->
<g id="node2" class="node">
<title>y_nu</title>
<ellipse fill="none" stroke="black" cx="143.01" cy="-198.48" rx="42.6" ry="40.66"/>
<text text-anchor="middle" x="143.01" y="-209.93" font-family="Times,serif" font-size="14.00">y_nu</text>
<text text-anchor="middle" x="143.01" y="-193.43" font-family="Times,serif" font-size="14.00">~</text>
<text text-anchor="middle" x="143.01" y="-176.93" font-family="Times,serif" font-size="14.00">Gamma</text>
</g>
<!-- y_nu&#45;&gt;y -->
<g id="edge2" class="edge">
<title>y_nu&#45;&gt;y</title>
<path fill="none" stroke="black" d="M159.93,-160.67C164.47,-150.78 169.45,-139.95 174.22,-129.58"/>
<polygon fill="black" stroke="black" points="177.27,-131.33 178.26,-120.78 170.91,-128.4 177.27,-131.33"/>
</g>
<!-- Intercept -->
<g id="node3" class="node">
<title>Intercept</title>
<ellipse fill="none" stroke="black" cx="249.01" cy="-198.48" rx="45.25" ry="40.66"/>
<text text-anchor="middle" x="249.01" y="-209.93" font-family="Times,serif" font-size="14.00">Intercept</text>
<text text-anchor="middle" x="249.01" y="-193.43" font-family="Times,serif" font-size="14.00">~</text>
<text text-anchor="middle" x="249.01" y="-176.93" font-family="Times,serif" font-size="14.00">Normal</text>
</g>
<!-- Intercept&#45;&gt;y -->
<g id="edge3" class="edge">
<title>Intercept&#45;&gt;y</title>
<path fill="none" stroke="black" d="M231.95,-160.35C227.46,-150.58 222.55,-139.9 217.85,-129.66"/>
<polygon fill="black" stroke="black" points="221.03,-128.21 213.67,-120.59 214.67,-131.13 221.03,-128.21"/>
</g>
<!-- y_sigma -->
<g id="node4" class="node">
<title>y_sigma</title>
<ellipse fill="none" stroke="black" cx="376.01" cy="-198.48" rx="63.29" ry="40.66"/>
<text text-anchor="middle" x="376.01" y="-209.93" font-family="Times,serif" font-size="14.00">y_sigma</text>
<text text-anchor="middle" x="376.01" y="-193.43" font-family="Times,serif" font-size="14.00">~</text>
<text text-anchor="middle" x="376.01" y="-176.93" font-family="Times,serif" font-size="14.00">HalfStudentT</text>
</g>
<!-- y_sigma&#45;&gt;y -->
<g id="edge4" class="edge">
<title>y_sigma&#45;&gt;y</title>
<path fill="none" stroke="black" d="M331.98,-169.27C304.89,-151.91 270.2,-129.69 242.64,-112.03"/>
<polygon fill="black" stroke="black" points="244.79,-109.25 234.49,-106.81 241.02,-115.15 244.79,-109.25"/>
</g>
</g>
</svg>