<?xml version="1.0" encoding="UTF-8" standalone="no"?>
<!DOCTYPE svg PUBLIC "-//W3C//DTD SVG 1.1//EN"
 "http://www.w3.org/Graphics/SVG/1.1/DTD/svg11.dtd">
<!-- Generated by graphviz version 9.0.0 (0)
 -->
<!-- Pages: 1 -->
<svg width="447pt" height="247pt"
 viewBox="0.00 0.00 446.86 247.13" xmlns="http://www.w3.org/2000/svg" xmlns:xlink="http://www.w3.org/1999/xlink">
<g id="graph0" class="graph" transform="scale(1 1) rotate(0) translate(4 243.13)">
<polygon fill="white" stroke="none" points="-4,4 -4,-243.13 442.86,-243.13 442.86,4 -4,4"/>
<g id="clust1" class="cluster">
<title>clustery_obs (103)</title>
<path fill="none" stroke="black" d="M191.25,-8C191.25,-8 275.25,-8 275.25,-8 281.25,-8 287.25,-14 287.25,-20 287.25,-20 287.25,-117.82 287.25,-117.82 287.25,-123.82 281.25,-129.82 275.25,-129.82 275.25,-129.82 191.25,-129.82 191.25,-129.82 185.25,-129.82 179.25,-123.82 179.25,-117.82 179.25,-117.82 179.25,-20 179.25,-20 179.25,-14 185.25,-8 191.25,-8"/>
<text text-anchor="middle" x="246.63" y="-15.2" font-family="Times,serif" font-size="14.00">y_obs (103)</text>
</g>
<!-- Intercept -->
<g id="node1" class="node">
<title>Intercept</title>
<ellipse fill="none" stroke="black" cx="45.25" cy="-198.48" rx="45.25" ry="40.66"/>
<text text-anchor="middle" x="45.25" y="-209.93" font-family="Times,serif" font-size="14.00">Intercept</text>
<text text-anchor="middle" x="45.25" y="-193.43" font-family="Times,serif" font-size="14.00">~</text>
<text text-anchor="middle" x="45.25" y="-176.93" font-family="Times,serif" font-size="14.00">Normal</text>
</g>
<!-- y -->
<g id="node5" class="node">
<title>y</title>
<ellipse fill="lightgrey" stroke="black" cx="233.25" cy="-81.16" rx="46.32" ry="40.66"/>
<text text-anchor="middle" x="233.25" y="-92.61" font-family="Times,serif" font-size="14.00">y</text>
<text text-anchor="middle" x="233.25" y="-76.11" font-family="Times,serif" font-size="14.00">~</text>
<text text-anchor="middle" x="233.25" y="-59.61" font-family="Times,serif" font-size="14.00">StudentT</text>
</g>
<!-- Intercept&#45;&gt;y -->
<g id="edge1" class="edge">
<title>Intercept&#45;&gt;y</title>
<path fill="none" stroke="black" d="M79.78,-171.72C86.48,-166.97 93.52,-162.14 100.25,-157.82 127.39,-140.39 158.69,-122.48 184.11,-108.46"/>
<polygon fill="black" stroke="black" points="185.49,-111.7 192.57,-103.82 182.12,-105.56 185.49,-111.7"/>
</g>
<!-- y_sigma -->
<g id="node2" class="node">
<title>y_sigma</title>
<ellipse fill="none" stroke="black" cx="172.25" cy="-198.48" rx="63.29" ry="40.66"/>
<text text-anchor="middle" x="172.25" y="-209.93" font-family="Times,serif" font-size="14.00">y_sigma</text>
<text text-anchor="middle" x="172.25" y="-193.43" font-family="Times,serif" font-size="14.00">~</text>
<text text-anchor="middle" x="172.25" y="-176.93" font-family="Times,serif" font-size="14.00">HalfStudentT</text>
</g>
<!-- y_sigma&#45;&gt;y -->
<g id="edge2" class="edge">
<title>y_sigma&#45;&gt;y</title>
<path fill="none" stroke="black" d="M192.23,-159.72C197.49,-149.77 203.23,-138.91 208.71,-128.56"/>
<polygon fill="black" stroke="black" points="211.78,-130.25 213.36,-119.77 205.59,-126.97 211.78,-130.25"/>
</g>
<!-- x -->
<g id="node3" class="node">
<title>x</title>
<ellipse fill="none" stroke="black" cx="294.25" cy="-198.48" rx="41.01" ry="40.66"/>
<text text-anchor="middle" x="294.25" y="-209.93" font-family="Times,serif" font-size="14.00">x</text>
<text text-anchor="middle" x="294.25" y="-193.43" font-family="Times,serif" font-size="14.00">~</text>
<text text-anchor="middle" x="294.25" y="-176.93" font-family="Times,serif" font-size="14.00">Normal</text>
</g>
<!-- x&#45;&gt;y -->
<g id="edge3" class="edge">
<title>x&#45;&gt;y</title>
<path fill="none" stroke="black" d="M275.46,-161.94C269.88,-151.4 263.69,-139.7 257.81,-128.58"/>
<polygon fill="black" stroke="black" points="261,-127.12 253.23,-119.91 254.81,-130.39 261,-127.12"/>
</g>
<!-- y_nu -->
<g id="node4" class="node">
<title>y_nu</title>
<ellipse fill="none" stroke="black" cx="396.25" cy="-198.48" rx="42.6" ry="40.66"/>
<text text-anchor="middle" x="396.25" y="-209.93" font-family="Times,serif" font-size="14.00">y_nu</text>
<text text-anchor="middle" x="396.25" y="-193.43" font-family="Times,serif" font-size="14.00">~</text>
<text text-anchor="middle" x="396.25" y="-176.93" font-family="Times,serif" font-size="14.00">Gamma</text>
</g>
<!-- y_nu&#45;&gt;y -->
<g id="edge4" class="edge">
<title>y_nu&#45;&gt;y</title>
<path fill="none" stroke="black" d="M363.44,-172.03C357.12,-167.25 350.52,-162.33 344.25,-157.82 323.29,-142.69 299.66,-126.48 279.62,-112.96"/>
<polygon fill="black" stroke="black" points="281.6,-110.07 271.35,-107.39 277.69,-115.88 281.6,-110.07"/>
</g>
</g>
</svg>