<?xml version="1.0" encoding="UTF-8" standalone="no"?>
<!DOCTYPE svg PUBLIC "-//W3C//DTD SVG 1.1//EN"
 "http://www.w3.org/Graphics/SVG/1.1/DTD/svg11.dtd">
<!-- Generated by graphviz version 9.0.0 (0)
 -->
<!-- Pages: 1 -->
<svg width="682pt" height="276pt"
 viewBox="0.00 0.00 682.01 275.63" xmlns="http://www.w3.org/2000/svg" xmlns:xlink="http://www.w3.org/1999/xlink">
<g id="graph0" class="graph" transform="scale(1 1) rotate(0) translate(4 271.63)">
<polygon fill="white" stroke="none" points="-4,4 -4,-271.63 678.01,-271.63 678.01,4 -4,4"/>
<g id="clust1" class="cluster">
<title>clusterC(Subject)_dim (17)</title>
<path fill="none" stroke="black" d="M375.01,-137.82C375.01,-137.82 480.01,-137.82 480.01,-137.82 486.01,-137.82 492.01,-143.82 492.01,-149.82 492.01,-149.82 492.01,-247.63 492.01,-247.63 492.01,-253.63 486.01,-259.63 480.01,-259.63 480.01,-259.63 375.01,-259.63 375.01,-259.63 369.01,-259.63 363.01,-253.63 363.01,-247.63 363.01,-247.63 363.01,-149.82 363.01,-149.82 363.01,-143.82 369.01,-137.82 375.01,-137.82"/>
<text text-anchor="middle" x="427.39" y="-145.02" font-family="Times,serif" font-size="14.00">C(Subject)_dim (17)</text>
</g>
<g id="clust2" class="cluster">
<title>clusterDays:C(Subject)_dim (17)</title>
<path fill="none" stroke="black" d="M512.01,-137.82C512.01,-137.82 654.01,-137.82 654.01,-137.82 660.01,-137.82 666.01,-143.82 666.01,-149.82 666.01,-149.82 666.01,-247.63 666.01,-247.63 666.01,-253.63 660.01,-259.63 654.01,-259.63 654.01,-259.63 512.01,-259.63 512.01,-259.63 506.01,-259.63 500.01,-253.63 500.01,-247.63 500.01,-247.63 500.01,-149.82 500.01,-149.82 500.01,-143.82 506.01,-137.82 512.01,-137.82"/>
<text text-anchor="middle" x="585.64" y="-145.02" font-family="Times,serif" font-size="14.00">Days:C(Subject)_dim (17)</text>
</g>
<g id="clust3" class="cluster">
<title>clusterReaction_obs (144)</title>
<path fill="none" stroke="black" d="M261.01,-8C261.01,-8 359.01,-8 359.01,-8 365.01,-8 371.01,-14 371.01,-20 371.01,-20 371.01,-117.82 371.01,-117.82 371.01,-123.82 365.01,-129.82 359.01,-129.82 359.01,-129.82 261.01,-129.82 261.01,-129.82 255.01,-129.82 249.01,-123.82 249.01,-117.82 249.01,-117.82 249.01,-20 249.01,-20 249.01,-14 255.01,-8 261.01,-8"/>
<text text-anchor="middle" x="309.76" y="-15.2" font-family="Times,serif" font-size="14.00">Reaction_obs (144)</text>
</g>
<!-- Days -->
<g id="node1" class="node">
<title>Days</title>
<ellipse fill="none" stroke="black" cx="41.01" cy="-210.98" rx="41.01" ry="40.66"/>
<text text-anchor="middle" x="41.01" y="-222.43" font-family="Times,serif" font-size="14.00">Days</text>
<text text-anchor="middle" x="41.01" y="-205.93" font-family="Times,serif" font-size="14.00">~</text>
<text text-anchor="middle" x="41.01" y="-189.43" font-family="Times,serif" font-size="14.00">Normal</text>
</g>
<!-- Reaction -->
<g id="node6" class="node">
<title>Reaction</title>
<ellipse fill="lightgrey" stroke="black" cx="310.01" cy="-81.16" rx="45.25" ry="40.66"/>
<text text-anchor="middle" x="310.01" y="-92.61" font-family="Times,serif" font-size="14.00">Reaction</text>
<text text-anchor="middle" x="310.01" y="-76.11" font-family="Times,serif" font-size="14.00">~</text>
<text text-anchor="middle" x="310.01" y="-59.61" font-family="Times,serif" font-size="14.00">Normal</text>
</g>
<!-- Days&#45;&gt;Reaction -->
<g id="edge4" class="edge">
<title>Days&#45;&gt;Reaction</title>
<path fill="none" stroke="black" d="M58.73,-174.18C66.89,-160.99 77.74,-147.03 91.01,-137.82 139.39,-104.23 206.34,-90.9 253.44,-85.61"/>
<polygon fill="black" stroke="black" points="253.57,-89.12 263.16,-84.61 252.86,-82.15 253.57,-89.12"/>
</g>
<!-- Reaction_sigma -->
<g id="node2" class="node">
<title>Reaction_sigma</title>
<ellipse fill="none" stroke="black" cx="173.01" cy="-210.98" rx="73.36" ry="40.66"/>
<text text-anchor="middle" x="173.01" y="-222.43" font-family="Times,serif" font-size="14.00">Reaction_sigma</text>
<text text-anchor="middle" x="173.01" y="-205.93" font-family="Times,serif" font-size="14.00">~</text>
<text text-anchor="middle" x="173.01" y="-189.43" font-family="Times,serif" font-size="14.00">HalfStudentT</text>
</g>
<!-- Reaction_sigma&#45;&gt;Reaction -->
<g id="edge5" class="edge">
<title>Reaction_sigma&#45;&gt;Reaction</title>
<path fill="none" stroke="black" d="M210.09,-175.39C228.86,-157.87 251.66,-136.6 270.74,-118.8"/>
<polygon fill="black" stroke="black" points="272.9,-121.57 277.83,-112.18 268.13,-116.45 272.9,-121.57"/>
</g>
<!-- Intercept -->
<g id="node3" class="node">
<title>Intercept</title>
<ellipse fill="none" stroke="black" cx="310.01" cy="-210.98" rx="45.25" ry="40.66"/>
<text text-anchor="middle" x="310.01" y="-222.43" font-family="Times,serif" font-size="14.00">Intercept</text>
<text text-anchor="middle" x="310.01" y="-205.93" font-family="Times,serif" font-size="14.00">~</text>
<text text-anchor="middle" x="310.01" y="-189.43" font-family="Times,serif" font-size="14.00">Normal</text>
</g>
<!-- Intercept&#45;&gt;Reaction -->
<g id="edge3" class="edge">
<title>Intercept&#45;&gt;Reaction</title>
<path fill="none" stroke="black" d="M310.01,-169.88C310.01,-158.34 310.01,-145.6 310.01,-133.48"/>
<polygon fill="black" stroke="black" points="313.51,-133.62 310.01,-123.62 306.51,-133.62 313.51,-133.62"/>
</g>
<!-- C(Subject) -->
<g id="node4" class="node">
<title>C(Subject)</title>
<ellipse fill="none" stroke="black" cx="426.01" cy="-210.98" rx="52.68" ry="40.66"/>
<text text-anchor="middle" x="426.01" y="-222.43" font-family="Times,serif" font-size="14.00">C(Subject)</text>
<text text-anchor="middle" x="426.01" y="-205.93" font-family="Times,serif" font-size="14.00">~</text>
<text text-anchor="middle" x="426.01" y="-189.43" font-family="Times,serif" font-size="14.00">Normal</text>
</g>
<!-- C(Subject)&#45;&gt;Reaction -->
<g id="edge2" class="edge">
<title>C(Subject)&#45;&gt;Reaction</title>
<path fill="none" stroke="black" d="M397.72,-176.2C387.28,-163.97 375.26,-150.14 364.01,-137.82 358.83,-132.14 353.27,-126.23 347.76,-120.46"/>
<polygon fill="black" stroke="black" points="350.28,-118.04 340.83,-113.26 345.24,-122.89 350.28,-118.04"/>
</g>
<!-- Days&amp;C(Subject) -->
<g id="node5" class="node">
<title>Days&amp;C(Subject)</title>
<ellipse fill="none" stroke="black" cx="583.01" cy="-210.98" rx="74.95" ry="40.66"/>
<text text-anchor="middle" x="583.01" y="-222.43" font-family="Times,serif" font-size="14.00">Days:C(Subject)</text>
<text text-anchor="middle" x="583.01" y="-205.93" font-family="Times,serif" font-size="14.00">~</text>
<text text-anchor="middle" x="583.01" y="-189.43" font-family="Times,serif" font-size="14.00">Normal</text>
</g>
<!-- Days&amp;C(Subject)&#45;&gt;Reaction -->
<g id="edge1" class="edge">
<title>Days&amp;C(Subject)&#45;&gt;Reaction</title>
<path fill="none" stroke="black" d="M547.29,-174.8C532.42,-161.69 514.35,-147.64 496.01,-137.82 454.77,-115.73 403.57,-101.24 365.34,-92.59"/>
<polygon fill="black" stroke="black" points="366.41,-89.24 355.89,-90.52 364.91,-96.08 366.41,-89.24"/>
</g>
</g>
</svg>