<?xml version="1.0" encoding="UTF-8" standalone="no"?>
<!DOCTYPE svg PUBLIC "-//W3C//DTD SVG 1.1//EN"
 "http://www.w3.org/Graphics/SVG/1.1/DTD/svg11.dtd">
<!-- Generated by graphviz version 9.0.0 (0)
 -->
<!-- Pages: 1 -->
<svg width="343pt" height="247pt"
 viewBox="0.00 0.00 342.54 247.13" xmlns="http://www.w3.org/2000/svg" xmlns:xlink="http://www.w3.org/1999/xlink">
<g id="graph0" class="graph" transform="scale(1 1) rotate(0) translate(4 243.13)">
<polygon fill="white" stroke="none" points="-4,4 -4,-243.13 338.54,-243.13 338.54,4 -4,4"/>
<g id="clust1" class="cluster">
<title>clustery_obs (200)</title>
<path fill="none" stroke="black" d="M148.29,-8C148.29,-8 222.29,-8 222.29,-8 228.29,-8 234.29,-14 234.29,-20 234.29,-20 234.29,-117.82 234.29,-117.82 234.29,-123.82 228.29,-129.82 222.29,-129.82 222.29,-129.82 148.29,-129.82 148.29,-129.82 142.29,-129.82 136.29,-123.82 136.29,-117.82 136.29,-117.82 136.29,-20 136.29,-20 136.29,-14 142.29,-8 148.29,-8"/>
<text text-anchor="middle" x="193.66" y="-15.2" font-family="Times,serif" font-size="14.00">y_obs (200)</text>
</g>
<!-- y_sigma -->
<g id="node1" class="node">
<title>y_sigma</title>
<ellipse fill="none" stroke="black" cx="63.29" cy="-198.48" rx="63.29" ry="40.66"/>
<text text-anchor="middle" x="63.29" y="-209.93" font-family="Times,serif" font-size="14.00">y_sigma</text>
<text text-anchor="middle" x="63.29" y="-193.43" font-family="Times,serif" font-size="14.00">~</text>
<text text-anchor="middle" x="63.29" y="-176.93" font-family="Times,serif" font-size="14.00">HalfStudentT</text>
</g>
<!-- y -->
<g id="node4" class="node">
<title>y</title>
<ellipse fill="lightgrey" stroke="black" cx="185.29" cy="-81.16" rx="41.01" ry="40.66"/>
<text text-anchor="middle" x="185.29" y="-92.61" font-family="Times,serif" font-size="14.00">y</text>
<text text-anchor="middle" x="185.29" y="-76.11" font-family="Times,serif" font-size="14.00">~</text>
<text text-anchor="middle" x="185.29" y="-59.61" font-family="Times,serif" font-size="14.00">Normal</text>
</g>
<!-- y_sigma&#45;&gt;y -->
<g id="edge1" class="edge">
<title>y_sigma&#45;&gt;y</title>
<path fill="none" stroke="black" d="M98.25,-164.43C113.84,-149.69 132.22,-132.32 148.06,-117.34"/>
<polygon fill="black" stroke="black" points="150.13,-120.21 154.99,-110.79 145.32,-115.12 150.13,-120.21"/>
</g>
<!-- x -->
<g id="node2" class="node">
<title>x</title>
<ellipse fill="none" stroke="black" cx="185.29" cy="-198.48" rx="41.01" ry="40.66"/>
<text text-anchor="middle" x="185.29" y="-209.93" font-family="Times,serif" font-size="14.00">x</text>
<text text-anchor="middle" x="185.29" y="-193.43" font-family="Times,serif" font-size="14.00">~</text>
<text text-anchor="middle" x="185.29" y="-176.93" font-family="Times,serif" font-size="14.00">Normal</text>
</g>
<!-- x&#45;&gt;y -->
<g id="edge2" class="edge">
<title>x&#45;&gt;y</title>
<path fill="none" stroke="black" d="M185.29,-157.47C185.29,-149.69 185.29,-141.43 185.29,-133.34"/>
<polygon fill="black" stroke="black" points="188.79,-133.61 185.29,-123.61 181.79,-133.61 188.79,-133.61"/>
</g>
<!-- Intercept -->
<g id="node3" class="node">
<title>Intercept</title>
<ellipse fill="none" stroke="black" cx="289.29" cy="-198.48" rx="45.25" ry="40.66"/>
<text text-anchor="middle" x="289.29" y="-209.93" font-family="Times,serif" font-size="14.00">Intercept</text>
<text text-anchor="middle" x="289.29" y="-193.43" font-family="Times,serif" font-size="14.00">~</text>
<text text-anchor="middle" x="289.29" y="-176.93" font-family="Times,serif" font-size="14.00">Normal</text>
</g>
<!-- Intercept&#45;&gt;y -->
<g id="edge3" class="edge">
<title>Intercept&#45;&gt;y</title>
<path fill="none" stroke="black" d="M261.14,-166.27C248.47,-152.22 233.38,-135.49 220.02,-120.67"/>
<polygon fill="black" stroke="black" points="222.69,-118.4 213.39,-113.32 217.49,-123.09 222.69,-118.4"/>
</g>
</g>
</svg>