<?xml version="1.0" encoding="UTF-8" standalone="no"?>
<!DOCTYPE svg PUBLIC "-//W3C//DTD SVG 1.1//EN"
 "http://www.w3.org/Graphics/SVG/1.1/DTD/svg11.dtd">
<!-- Generated by graphviz version 9.0.0 (0)
 -->
<!-- Pages: 1 -->
<svg width="447pt" height="247pt"
 viewBox="0.00 0.00 446.62 247.13" xmlns="http://www.w3.org/2000/svg" xmlns:xlink="http://www.w3.org/1999/xlink">
<g id="graph0" class="graph" transform="scale(1 1) rotate(0) translate(4 243.13)">
<polygon fill="white" stroke="none" points="-4,4 -4,-243.13 442.62,-243.13 442.62,4 -4,4"/>
<g id="clust1" class="cluster">
<title>clustery_obs (103)</title>
<path fill="none" stroke="black" d="M187.6,-8C187.6,-8 271.6,-8 271.6,-8 277.6,-8 283.6,-14 283.6,-20 283.6,-20 283.6,-117.82 283.6,-117.82 283.6,-123.82 277.6,-129.82 271.6,-129.82 271.6,-129.82 187.6,-129.82 187.6,-129.82 181.6,-129.82 175.6,-123.82 175.6,-117.82 175.6,-117.82 175.6,-20 175.6,-20 175.6,-14 181.6,-8 187.6,-8"/>
<text text-anchor="middle" x="242.98" y="-15.2" font-family="Times,serif" font-size="14.00">y_obs (103)</text>
</g>
<!-- y_nu -->
<g id="node1" class="node">
<title>y_nu</title>
<ellipse fill="none" stroke="black" cx="42.6" cy="-198.48" rx="42.6" ry="40.66"/>
<text text-anchor="middle" x="42.6" y="-209.93" font-family="Times,serif" font-size="14.00">y_nu</text>
<text text-anchor="middle" x="42.6" y="-193.43" font-family="Times,serif" font-size="14.00">~</text>
<text text-anchor="middle" x="42.6" y="-176.93" font-family="Times,serif" font-size="14.00">Gamma</text>
</g>
<!-- y -->
<g id="node5" class="node">
<title>y</title>
<ellipse fill="lightgrey" stroke="black" cx="229.6" cy="-81.16" rx="46.32" ry="40.66"/>
<text text-anchor="middle" x="229.6" y="-92.61" font-family="Times,serif" font-size="14.00">y</text>
<text text-anchor="middle" x="229.6" y="-76.11" font-family="Times,serif" font-size="14.00">~</text>
<text text-anchor="middle" x="229.6" y="-59.61" font-family="Times,serif" font-size="14.00">StudentT</text>
</g>
<!-- y_nu&#45;&gt;y -->
<g id="edge1" class="edge">
<title>y_nu&#45;&gt;y</title>
<path fill="none" stroke="black" d="M75.11,-171.58C81.46,-166.84 88.15,-162.06 94.6,-157.82 121.96,-139.85 153.85,-121.85 179.77,-107.91"/>
<polygon fill="black" stroke="black" points="181.24,-111.1 188.41,-103.3 177.94,-104.92 181.24,-111.1"/>
</g>
<!-- y_sigma -->
<g id="node2" class="node">
<title>y_sigma</title>
<ellipse fill="none" stroke="black" cx="166.6" cy="-198.48" rx="63.29" ry="40.66"/>
<text text-anchor="middle" x="166.6" y="-209.93" font-family="Times,serif" font-size="14.00">y_sigma</text>
<text text-anchor="middle" x="166.6" y="-193.43" font-family="Times,serif" font-size="14.00">~</text>
<text text-anchor="middle" x="166.6" y="-176.93" font-family="Times,serif" font-size="14.00">HalfStudentT</text>
</g>
<!-- y_sigma&#45;&gt;y -->
<g id="edge2" class="edge">
<title>y_sigma&#45;&gt;y</title>
<path fill="none" stroke="black" d="M187.23,-159.72C192.73,-149.66 198.72,-138.69 204.43,-128.24"/>
<polygon fill="black" stroke="black" points="207.34,-130.22 209.06,-119.76 201.19,-126.86 207.34,-130.22"/>
</g>
<!-- Intercept -->
<g id="node3" class="node">
<title>Intercept</title>
<ellipse fill="none" stroke="black" cx="293.6" cy="-198.48" rx="45.25" ry="40.66"/>
<text text-anchor="middle" x="293.6" y="-209.93" font-family="Times,serif" font-size="14.00">Intercept</text>
<text text-anchor="middle" x="293.6" y="-193.43" font-family="Times,serif" font-size="14.00">~</text>
<text text-anchor="middle" x="293.6" y="-176.93" font-family="Times,serif" font-size="14.00">Normal</text>
</g>
<!-- Intercept&#45;&gt;y -->
<g id="edge3" class="edge">
<title>Intercept&#45;&gt;y</title>
<path fill="none" stroke="black" d="M273.7,-161.62C267.8,-150.99 261.26,-139.2 255.06,-128.03"/>
<polygon fill="black" stroke="black" points="258.14,-126.36 250.22,-119.31 252.02,-129.76 258.14,-126.36"/>
</g>
<!-- x -->
<g id="node4" class="node">
<title>x</title>
<ellipse fill="none" stroke="black" cx="397.6" cy="-198.48" rx="41.01" ry="40.66"/>
<text text-anchor="middle" x="397.6" y="-209.93" font-family="Times,serif" font-size="14.00">x</text>
<text text-anchor="middle" x="397.6" y="-193.43" font-family="Times,serif" font-size="14.00">~</text>
<text text-anchor="middle" x="397.6" y="-176.93" font-family="Times,serif" font-size="14.00">Normal</text>
</g>
<!-- x&#45;&gt;y -->
<g id="edge4" class="edge">
<title>x&#45;&gt;y</title>
<path fill="none" stroke="black" d="M366.23,-171.81C360.13,-167.05 353.73,-162.2 347.6,-157.82 324.94,-141.62 298.95,-124.78 277.14,-111.12"/>
<polygon fill="black" stroke="black" points="279.06,-108.19 268.73,-105.87 275.36,-114.13 279.06,-108.19"/>
</g>
</g>
</svg>