<?xml version="1.0" encoding="UTF-8" standalone="no"?>
<!DOCTYPE svg PUBLIC "-//W3C//DTD SVG 1.1//EN"
 "http://www.w3.org/Graphics/SVG/1.1/DTD/svg11.dtd">
<!-- Generated by graphviz version 9.0.0 (0)
 -->
<!-- Pages: 1 -->
<svg width="447pt" height="247pt"
 viewBox="0.00 0.00 446.62 247.13" xmlns="http://www.w3.org/2000/svg" xmlns:xlink="http://www.w3.org/1999/xlink">
<g id="graph0" class="graph" transform="scale(1 1) rotate(0) translate(4 243.13)">
<polygon fill="white" stroke="none" points="-4,4 -4,-243.13 442.62,-243.13 442.62,4 -4,4"/>
<g id="clust1" class="cluster">
<title>clustery_obs (103)</title>
<path fill="none" stroke="black" d="M184.01,-8C184.01,-8 268.01,-8 268.01,-8 274.01,-8 280.01,-14 280.01,-20 280.01,-20 280.01,-117.82 280.01,-117.82 280.01,-123.82 274.01,-129.82 268.01,-129.82 268.01,-129.82 184.01,-129.82 184.01,-129.82 178.01,-129.82 172.01,-123.82 172.01,-117.82 172.01,-117.82 172.01,-20 172.01,-20 172.01,-14 178.01,-8 184.01,-8"/>
<text text-anchor="middle" x="239.39" y="-15.2" font-family="Times,serif" font-size="14.00">y_obs (103)</text>
</g>
<!-- x -->
<g id="node1" class="node">
<title>x</title>
<ellipse fill="none" stroke="black" cx="41.01" cy="-198.48" rx="41.01" ry="40.66"/>
<text text-anchor="middle" x="41.01" y="-209.93" font-family="Times,serif" font-size="14.00">x</text>
<text text-anchor="middle" x="41.01" y="-193.43" font-family="Times,serif" font-size="14.00">~</text>
<text text-anchor="middle" x="41.01" y="-176.93" font-family="Times,serif" font-size="14.00">Normal</text>
</g>
<!-- y -->
<g id="node5" class="node">
<title>y</title>
<ellipse fill="lightgrey" stroke="black" cx="226.01" cy="-81.16" rx="46.32" ry="40.66"/>
<text text-anchor="middle" x="226.01" y="-92.61" font-family="Times,serif" font-size="14.00">y</text>
<text text-anchor="middle" x="226.01" y="-76.11" font-family="Times,serif" font-size="14.00">~</text>
<text text-anchor="middle" x="226.01" y="-59.61" font-family="Times,serif" font-size="14.00">StudentT</text>
</g>
<!-- x&#45;&gt;y -->
<g id="edge2" class="edge">
<title>x&#45;&gt;y</title>
<path fill="none" stroke="black" d="M72.18,-171.51C78.29,-166.78 84.75,-162.01 91.01,-157.82 118.2,-139.59 150.08,-121.57 176.04,-107.7"/>
<polygon fill="black" stroke="black" points="177.5,-110.89 184.7,-103.11 174.22,-104.7 177.5,-110.89"/>
</g>
<!-- y_sigma -->
<g id="node2" class="node">
<title>y_sigma</title>
<ellipse fill="none" stroke="black" cx="163.01" cy="-198.48" rx="63.29" ry="40.66"/>
<text text-anchor="middle" x="163.01" y="-209.93" font-family="Times,serif" font-size="14.00">y_sigma</text>
<text text-anchor="middle" x="163.01" y="-193.43" font-family="Times,serif" font-size="14.00">~</text>
<text text-anchor="middle" x="163.01" y="-176.93" font-family="Times,serif" font-size="14.00">HalfStudentT</text>
</g>
<!-- y_sigma&#45;&gt;y -->
<g id="edge1" class="edge">
<title>y_sigma&#45;&gt;y</title>
<path fill="none" stroke="black" d="M183.64,-159.72C189.13,-149.66 195.13,-138.69 200.84,-128.24"/>
<polygon fill="black" stroke="black" points="203.75,-130.22 205.47,-119.76 197.6,-126.86 203.75,-130.22"/>
</g>
<!-- Intercept -->
<g id="node3" class="node">
<title>Intercept</title>
<ellipse fill="none" stroke="black" cx="290.01" cy="-198.48" rx="45.25" ry="40.66"/>
<text text-anchor="middle" x="290.01" y="-209.93" font-family="Times,serif" font-size="14.00">Intercept</text>
<text text-anchor="middle" x="290.01" y="-193.43" font-family="Times,serif" font-size="14.00">~</text>
<text text-anchor="middle" x="290.01" y="-176.93" font-family="Times,serif" font-size="14.00">Normal</text>
</g>
<!-- Intercept&#45;&gt;y -->
<g id="edge4" class="edge">
<title>Intercept&#45;&gt;y</title>
<path fill="none" stroke="black" d="M270.11,-161.62C264.21,-150.99 257.67,-139.2 251.47,-128.03"/>
<polygon fill="black" stroke="black" points="254.55,-126.36 246.63,-119.31 248.43,-129.76 254.55,-126.36"/>
</g>
<!-- y_nu -->
<g id="node4" class="node">
<title>y_nu</title>
<ellipse fill="none" stroke="black" cx="396.01" cy="-198.48" rx="42.6" ry="40.66"/>
<text text-anchor="middle" x="396.01" y="-209.93" font-family="Times,serif" font-size="14.00">y_nu</text>
<text text-anchor="middle" x="396.01" y="-193.43" font-family="Times,serif" font-size="14.00">~</text>
<text text-anchor="middle" x="396.01" y="-176.93" font-family="Times,serif" font-size="14.00">Gamma</text>
</g>
<!-- y_nu&#45;&gt;y -->
<g id="edge3" class="edge">
<title>y_nu&#45;&gt;y</title>
<path fill="none" stroke="black" d="M363.3,-171.89C356.97,-167.12 350.34,-162.25 344.01,-157.82 321.19,-141.84 295.19,-125.02 273.41,-111.31"/>
<polygon fill="black" stroke="black" points="275.34,-108.39 265.01,-106.05 271.62,-114.33 275.34,-108.39"/>
</g>
</g>
</svg>