<?xml version="1.0" encoding="UTF-8" standalone="no"?>
<!DOCTYPE svg PUBLIC "-//W3C//DTD SVG 1.1//EN"
 "http://www.w3.org/Graphics/SVG/1.1/DTD/svg11.dtd">
<!-- Generated by graphviz version 11.0.0 (0)
 -->
<!-- Pages: 1 -->
<svg width="363pt" height="247pt"
 viewBox="0.00 0.00 362.62 247.13" xmlns="http://www.w3.org/2000/svg" xmlns:xlink="http://www.w3.org/1999/xlink">
<g id="graph0" class="graph" transform="scale(1 1) rotate(0) translate(4 243.13)">
<polygon fill="white" stroke="none" points="-4,4 -4,-243.13 358.62,-243.13 358.62,4 -4,4"/>
<g id="clust1" class="cluster">
<title>clusterReaction_obs (144)</title>
<path fill="none" stroke="black" d="M156.36,-8C156.36,-8 254.36,-8 254.36,-8 260.36,-8 266.36,-14 266.36,-20 266.36,-20 266.36,-117.82 266.36,-117.82 266.36,-123.82 260.36,-129.82 254.36,-129.82 254.36,-129.82 156.36,-129.82 156.36,-129.82 150.36,-129.82 144.36,-123.82 144.36,-117.82 144.36,-117.82 144.36,-20 144.36,-20 144.36,-14 150.36,-8 156.36,-8"/>
<text text-anchor="middle" x="205.11" y="-15.2" font-family="Times,serif" font-size="14.00">Reaction_obs (144)</text>
</g>
<!-- Reaction_sigma -->
<g id="node1" class="node">
<title>Reaction_sigma</title>
<ellipse fill="none" stroke="black" cx="73.36" cy="-198.48" rx="73.36" ry="40.66"/>
<text text-anchor="middle" x="73.36" y="-209.93" font-family="Times,serif" font-size="14.00">Reaction_sigma</text>
<text text-anchor="middle" x="73.36" y="-193.43" font-family="Times,serif" font-size="14.00">~</text>
<text text-anchor="middle" x="73.36" y="-176.93" font-family="Times,serif" font-size="14.00">HalfStudentT</text>
</g>
<!-- Reaction -->
<g id="node4" class="node">
<title>Reaction</title>
<ellipse fill="lightgrey" stroke="black" cx="205.36" cy="-81.16" rx="45.25" ry="40.66"/>
<text text-anchor="middle" x="205.36" y="-92.61" font-family="Times,serif" font-size="14.00">Reaction</text>
<text text-anchor="middle" x="205.36" y="-76.11" font-family="Times,serif" font-size="14.00">~</text>
<text text-anchor="middle" x="205.36" y="-59.61" font-family="Times,serif" font-size="14.00">Normal</text>
</g>
<!-- Reaction_sigma&#45;&gt;Reaction -->
<g id="edge1" class="edge">
<title>Reaction_sigma&#45;&gt;Reaction</title>
<path fill="none" stroke="black" d="M112.25,-163.5C128.83,-149.02 148.17,-132.12 164.92,-117.49"/>
<polygon fill="black" stroke="black" points="167.04,-120.28 172.27,-111.07 162.44,-115.01 167.04,-120.28"/>
</g>
<!-- Days -->
<g id="node2" class="node">
<title>Days</title>
<ellipse fill="none" stroke="black" cx="205.36" cy="-198.48" rx="41.01" ry="40.66"/>
<text text-anchor="middle" x="205.36" y="-209.93" font-family="Times,serif" font-size="14.00">Days</text>
<text text-anchor="middle" x="205.36" y="-193.43" font-family="Times,serif" font-size="14.00">~</text>
<text text-anchor="middle" x="205.36" y="-176.93" font-family="Times,serif" font-size="14.00">Normal</text>
</g>
<!-- Days&#45;&gt;Reaction -->
<g id="edge2" class="edge">
<title>Days&#45;&gt;Reaction</title>
<path fill="none" stroke="black" d="M205.36,-157.47C205.36,-149.69 205.36,-141.43 205.36,-133.34"/>
<polygon fill="black" stroke="black" points="208.86,-133.61 205.36,-123.61 201.86,-133.61 208.86,-133.61"/>
</g>
<!-- Intercept -->
<g id="node3" class="node">
<title>Intercept</title>
<ellipse fill="none" stroke="black" cx="309.36" cy="-198.48" rx="45.25" ry="40.66"/>
<text text-anchor="middle" x="309.36" y="-209.93" font-family="Times,serif" font-size="14.00">Intercept</text>
<text text-anchor="middle" x="309.36" y="-193.43" font-family="Times,serif" font-size="14.00">~</text>
<text text-anchor="middle" x="309.36" y="-176.93" font-family="Times,serif" font-size="14.00">Normal</text>
</g>
<!-- Intercept&#45;&gt;Reaction -->
<g id="edge3" class="edge">
<title>Intercept&#45;&gt;Reaction</title>
<path fill="none" stroke="black" d="M281.22,-166.27C268.85,-152.55 254.18,-136.29 241.05,-121.73"/>
<polygon fill="black" stroke="black" points="243.84,-119.6 234.54,-114.51 238.64,-124.28 243.84,-119.6"/>
</g>
</g>
</svg>