<?xml version="1.0" encoding="utf-8" standalone="no"?>
<!DOCTYPE svg PUBLIC "-//W3C//DTD SVG 1.1//EN"
  "http://www.w3.org/Graphics/SVG/1.1/DTD/svg11.dtd">
<svg xmlns:xlink="http://www.w3.org/1999/xlink" width="621.650156pt" height="396.450469pt" viewBox="0 0 621.650156 396.450469" xmlns="http://www.w3.org/2000/svg" version="1.1">
 <metadata>
  <rdf:RDF xmlns:dc="http://purl.org/dc/elements/1.1/" xmlns:cc="http://creativecommons.org/ns#" xmlns:rdf="http://www.w3.org/1999/02/22-rdf-syntax-ns#">
   <cc:Work>
    <dc:type rdf:resource="http://purl.org/dc/dcmitype/StillImage"/>
    <dc:date>2024-03-16T08:44:45.149517</dc:date>
    <dc:format>image/svg+xml</dc:format>
    <dc:creator>
     <cc:Agent>
      <dc:title>Matplotlib v3.8.3, https://matplotlib.org/</dc:title>
     </cc:Agent>
    </dc:creator>
   </cc:Work>
  </rdf:RDF>
 </metadata>
 <defs>
  <style type="text/css">*{stroke-linejoin: round; stroke-linecap: butt}</style>
 </defs>
 <g id="figure_1">
  <g id="patch_1">
   <path d="M 0 396.450469 
L 621.650156 396.450469 
L 621.650156 0 
L 0 0 
z
" style="fill: #ffffff"/>
  </g>
  <g id="axes_1">
   <g id="patch_2">
    <path d="M 56.450156 354.429375 
L 614.450156 354.429375 
L 614.450156 21.789375 
L 56.450156 21.789375 
z
" style="fill: #eaeaf2"/>
   </g>
   <g id="matplotlib.axis_1">
    <g id="xtick_1">
     <g id="line2d_1">
      <path d="M 81.813793 354.429375 
L 81.813793 21.789375 
" clip-path="url(#pdc56e7e55c)" style="fill: none; stroke: #ffffff; stroke-linecap: round"/>
     </g>
     <g id="text_1">
      <!-- 0.0 -->
      <g style="fill: #262626" transform="translate(74.168793 371.802969) scale(0.11 -0.11)">
       <defs>
        <path id="ArialMT-30" d="M 266 2259 
Q 266 3072 433 3567 
Q 600 4063 929 4331 
Q 1259 4600 1759 4600 
Q 2128 4600 2406 4451 
Q 2684 4303 2865 4023 
Q 3047 3744 3150 3342 
Q 3253 2941 3253 2259 
Q 3253 1453 3087 958 
Q 2922 463 2592 192 
Q 2263 -78 1759 -78 
Q 1097 -78 719 397 
Q 266 969 266 2259 
z
M 844 2259 
Q 844 1131 1108 757 
Q 1372 384 1759 384 
Q 2147 384 2411 759 
Q 2675 1134 2675 2259 
Q 2675 3391 2411 3762 
Q 2147 4134 1753 4134 
Q 1366 4134 1134 3806 
Q 844 3388 844 2259 
z
" transform="scale(0.015625)"/>
        <path id="ArialMT-2e" d="M 581 0 
L 581 641 
L 1222 641 
L 1222 0 
L 581 0 
z
" transform="scale(0.015625)"/>
       </defs>
       <use xlink:href="#ArialMT-30"/>
       <use xlink:href="#ArialMT-2e" x="55.615234"/>
       <use xlink:href="#ArialMT-30" x="83.398438"/>
      </g>
     </g>
    </g>
    <g id="xtick_2">
     <g id="line2d_2">
      <path d="M 183.268338 354.429375 
L 183.268338 21.789375 
" clip-path="url(#pdc56e7e55c)" style="fill: none; stroke: #ffffff; stroke-linecap: round"/>
     </g>
     <g id="text_2">
      <!-- 0.2 -->
      <g style="fill: #262626" transform="translate(175.623338 371.802969) scale(0.11 -0.11)">
       <defs>
        <path id="ArialMT-32" d="M 3222 541 
L 3222 0 
L 194 0 
Q 188 203 259 391 
Q 375 700 629 1000 
Q 884 1300 1366 1694 
Q 2113 2306 2375 2664 
Q 2638 3022 2638 3341 
Q 2638 3675 2398 3904 
Q 2159 4134 1775 4134 
Q 1369 4134 1125 3890 
Q 881 3647 878 3216 
L 300 3275 
Q 359 3922 746 4261 
Q 1134 4600 1788 4600 
Q 2447 4600 2831 4234 
Q 3216 3869 3216 3328 
Q 3216 3053 3103 2787 
Q 2991 2522 2730 2228 
Q 2469 1934 1863 1422 
Q 1356 997 1212 845 
Q 1069 694 975 541 
L 3222 541 
z
" transform="scale(0.015625)"/>
       </defs>
       <use xlink:href="#ArialMT-30"/>
       <use xlink:href="#ArialMT-2e" x="55.615234"/>
       <use xlink:href="#ArialMT-32" x="83.398438"/>
      </g>
     </g>
    </g>
    <g id="xtick_3">
     <g id="line2d_3">
      <path d="M 284.722884 354.429375 
L 284.722884 21.789375 
" clip-path="url(#pdc56e7e55c)" style="fill: none; stroke: #ffffff; stroke-linecap: round"/>
     </g>
     <g id="text_3">
      <!-- 0.4 -->
      <g style="fill: #262626" transform="translate(277.077884 371.802969) scale(0.11 -0.11)">
       <defs>
        <path id="ArialMT-34" d="M 2069 0 
L 2069 1097 
L 81 1097 
L 81 1613 
L 2172 4581 
L 2631 4581 
L 2631 1613 
L 3250 1613 
L 3250 1097 
L 2631 1097 
L 2631 0 
L 2069 0 
z
M 2069 1613 
L 2069 3678 
L 634 1613 
L 2069 1613 
z
" transform="scale(0.015625)"/>
       </defs>
       <use xlink:href="#ArialMT-30"/>
       <use xlink:href="#ArialMT-2e" x="55.615234"/>
       <use xlink:href="#ArialMT-34" x="83.398438"/>
      </g>
     </g>
    </g>
    <g id="xtick_4">
     <g id="line2d_4">
      <path d="M 386.177429 354.429375 
L 386.177429 21.789375 
" clip-path="url(#pdc56e7e55c)" style="fill: none; stroke: #ffffff; stroke-linecap: round"/>
     </g>
     <g id="text_4">
      <!-- 0.6 -->
      <g style="fill: #262626" transform="translate(378.532429 371.802969) scale(0.11 -0.11)">
       <defs>
        <path id="ArialMT-36" d="M 3184 3459 
L 2625 3416 
Q 2550 3747 2413 3897 
Q 2184 4138 1850 4138 
Q 1581 4138 1378 3988 
Q 1113 3794 959 3422 
Q 806 3050 800 2363 
Q 1003 2672 1297 2822 
Q 1591 2972 1913 2972 
Q 2475 2972 2870 2558 
Q 3266 2144 3266 1488 
Q 3266 1056 3080 686 
Q 2894 316 2569 119 
Q 2244 -78 1831 -78 
Q 1128 -78 684 439 
Q 241 956 241 2144 
Q 241 3472 731 4075 
Q 1159 4600 1884 4600 
Q 2425 4600 2770 4297 
Q 3116 3994 3184 3459 
z
M 888 1484 
Q 888 1194 1011 928 
Q 1134 663 1356 523 
Q 1578 384 1822 384 
Q 2178 384 2434 671 
Q 2691 959 2691 1453 
Q 2691 1928 2437 2201 
Q 2184 2475 1800 2475 
Q 1419 2475 1153 2201 
Q 888 1928 888 1484 
z
" transform="scale(0.015625)"/>
       </defs>
       <use xlink:href="#ArialMT-30"/>
       <use xlink:href="#ArialMT-2e" x="55.615234"/>
       <use xlink:href="#ArialMT-36" x="83.398438"/>
      </g>
     </g>
    </g>
    <g id="xtick_5">
     <g id="line2d_5">
      <path d="M 487.631974 354.429375 
L 487.631974 21.789375 
" clip-path="url(#pdc56e7e55c)" style="fill: none; stroke: #ffffff; stroke-linecap: round"/>
     </g>
     <g id="text_5">
      <!-- 0.8 -->
      <g style="fill: #262626" transform="translate(479.986974 371.802969) scale(0.11 -0.11)">
       <defs>
        <path id="ArialMT-38" d="M 1131 2484 
Q 781 2613 612 2850 
Q 444 3088 444 3419 
Q 444 3919 803 4259 
Q 1163 4600 1759 4600 
Q 2359 4600 2725 4251 
Q 3091 3903 3091 3403 
Q 3091 3084 2923 2848 
Q 2756 2613 2416 2484 
Q 2838 2347 3058 2040 
Q 3278 1734 3278 1309 
Q 3278 722 2862 322 
Q 2447 -78 1769 -78 
Q 1091 -78 675 323 
Q 259 725 259 1325 
Q 259 1772 486 2073 
Q 713 2375 1131 2484 
z
M 1019 3438 
Q 1019 3113 1228 2906 
Q 1438 2700 1772 2700 
Q 2097 2700 2305 2904 
Q 2513 3109 2513 3406 
Q 2513 3716 2298 3927 
Q 2084 4138 1766 4138 
Q 1444 4138 1231 3931 
Q 1019 3725 1019 3438 
z
M 838 1322 
Q 838 1081 952 856 
Q 1066 631 1291 507 
Q 1516 384 1775 384 
Q 2178 384 2440 643 
Q 2703 903 2703 1303 
Q 2703 1709 2433 1975 
Q 2163 2241 1756 2241 
Q 1359 2241 1098 1978 
Q 838 1716 838 1322 
z
" transform="scale(0.015625)"/>
       </defs>
       <use xlink:href="#ArialMT-30"/>
       <use xlink:href="#ArialMT-2e" x="55.615234"/>
       <use xlink:href="#ArialMT-38" x="83.398438"/>
      </g>
     </g>
    </g>
    <g id="xtick_6">
     <g id="line2d_6">
      <path d="M 589.08652 354.429375 
L 589.08652 21.789375 
" clip-path="url(#pdc56e7e55c)" style="fill: none; stroke: #ffffff; stroke-linecap: round"/>
     </g>
     <g id="text_6">
      <!-- 1.0 -->
      <g style="fill: #262626" transform="translate(581.44152 371.802969) scale(0.11 -0.11)">
       <defs>
        <path id="ArialMT-31" d="M 2384 0 
L 1822 0 
L 1822 3584 
Q 1619 3391 1289 3197 
Q 959 3003 697 2906 
L 697 3450 
Q 1169 3672 1522 3987 
Q 1875 4303 2022 4600 
L 2384 4600 
L 2384 0 
z
" transform="scale(0.015625)"/>
       </defs>
       <use xlink:href="#ArialMT-31"/>
       <use xlink:href="#ArialMT-2e" x="55.615234"/>
       <use xlink:href="#ArialMT-30" x="83.398438"/>
      </g>
     </g>
    </g>
    <g id="text_7">
     <!-- Gruppo (codificato con 0 e 1) -->
     <g style="fill: #262626" transform="translate(258.080156 386.724844) scale(0.12 -0.12)">
      <defs>
       <path id="ArialMT-47" d="M 2638 1797 
L 2638 2334 
L 4578 2338 
L 4578 638 
Q 4131 281 3656 101 
Q 3181 -78 2681 -78 
Q 2006 -78 1454 211 
Q 903 500 622 1047 
Q 341 1594 341 2269 
Q 341 2938 620 3517 
Q 900 4097 1425 4378 
Q 1950 4659 2634 4659 
Q 3131 4659 3532 4498 
Q 3934 4338 4162 4050 
Q 4391 3763 4509 3300 
L 3963 3150 
Q 3859 3500 3706 3700 
Q 3553 3900 3268 4020 
Q 2984 4141 2638 4141 
Q 2222 4141 1919 4014 
Q 1616 3888 1430 3681 
Q 1244 3475 1141 3228 
Q 966 2803 966 2306 
Q 966 1694 1177 1281 
Q 1388 869 1791 669 
Q 2194 469 2647 469 
Q 3041 469 3416 620 
Q 3791 772 3984 944 
L 3984 1797 
L 2638 1797 
z
" transform="scale(0.015625)"/>
       <path id="ArialMT-72" d="M 416 0 
L 416 3319 
L 922 3319 
L 922 2816 
Q 1116 3169 1280 3281 
Q 1444 3394 1641 3394 
Q 1925 3394 2219 3213 
L 2025 2691 
Q 1819 2813 1613 2813 
Q 1428 2813 1281 2702 
Q 1134 2591 1072 2394 
Q 978 2094 978 1738 
L 978 0 
L 416 0 
z
" transform="scale(0.015625)"/>
       <path id="ArialMT-75" d="M 2597 0 
L 2597 488 
Q 2209 -75 1544 -75 
Q 1250 -75 995 37 
Q 741 150 617 320 
Q 494 491 444 738 
Q 409 903 409 1263 
L 409 3319 
L 972 3319 
L 972 1478 
Q 972 1038 1006 884 
Q 1059 663 1231 536 
Q 1403 409 1656 409 
Q 1909 409 2131 539 
Q 2353 669 2445 892 
Q 2538 1116 2538 1541 
L 2538 3319 
L 3100 3319 
L 3100 0 
L 2597 0 
z
" transform="scale(0.015625)"/>
       <path id="ArialMT-70" d="M 422 -1272 
L 422 3319 
L 934 3319 
L 934 2888 
Q 1116 3141 1344 3267 
Q 1572 3394 1897 3394 
Q 2322 3394 2647 3175 
Q 2972 2956 3137 2557 
Q 3303 2159 3303 1684 
Q 3303 1175 3120 767 
Q 2938 359 2589 142 
Q 2241 -75 1856 -75 
Q 1575 -75 1351 44 
Q 1128 163 984 344 
L 984 -1272 
L 422 -1272 
z
M 931 1641 
Q 931 1000 1190 694 
Q 1450 388 1819 388 
Q 2194 388 2461 705 
Q 2728 1022 2728 1688 
Q 2728 2322 2467 2637 
Q 2206 2953 1844 2953 
Q 1484 2953 1207 2617 
Q 931 2281 931 1641 
z
" transform="scale(0.015625)"/>
       <path id="ArialMT-6f" d="M 213 1659 
Q 213 2581 725 3025 
Q 1153 3394 1769 3394 
Q 2453 3394 2887 2945 
Q 3322 2497 3322 1706 
Q 3322 1066 3130 698 
Q 2938 331 2570 128 
Q 2203 -75 1769 -75 
Q 1072 -75 642 372 
Q 213 819 213 1659 
z
M 791 1659 
Q 791 1022 1069 705 
Q 1347 388 1769 388 
Q 2188 388 2466 706 
Q 2744 1025 2744 1678 
Q 2744 2294 2464 2611 
Q 2184 2928 1769 2928 
Q 1347 2928 1069 2612 
Q 791 2297 791 1659 
z
" transform="scale(0.015625)"/>
       <path id="ArialMT-20" transform="scale(0.015625)"/>
       <path id="ArialMT-28" d="M 1497 -1347 
Q 1031 -759 709 28 
Q 388 816 388 1659 
Q 388 2403 628 3084 
Q 909 3875 1497 4659 
L 1900 4659 
Q 1522 4009 1400 3731 
Q 1209 3300 1100 2831 
Q 966 2247 966 1656 
Q 966 153 1900 -1347 
L 1497 -1347 
z
" transform="scale(0.015625)"/>
       <path id="ArialMT-63" d="M 2588 1216 
L 3141 1144 
Q 3050 572 2676 248 
Q 2303 -75 1759 -75 
Q 1078 -75 664 370 
Q 250 816 250 1647 
Q 250 2184 428 2587 
Q 606 2991 970 3192 
Q 1334 3394 1763 3394 
Q 2303 3394 2647 3120 
Q 2991 2847 3088 2344 
L 2541 2259 
Q 2463 2594 2264 2762 
Q 2066 2931 1784 2931 
Q 1359 2931 1093 2626 
Q 828 2322 828 1663 
Q 828 994 1084 691 
Q 1341 388 1753 388 
Q 2084 388 2306 591 
Q 2528 794 2588 1216 
z
" transform="scale(0.015625)"/>
       <path id="ArialMT-64" d="M 2575 0 
L 2575 419 
Q 2259 -75 1647 -75 
Q 1250 -75 917 144 
Q 584 363 401 755 
Q 219 1147 219 1656 
Q 219 2153 384 2558 
Q 550 2963 881 3178 
Q 1213 3394 1622 3394 
Q 1922 3394 2156 3267 
Q 2391 3141 2538 2938 
L 2538 4581 
L 3097 4581 
L 3097 0 
L 2575 0 
z
M 797 1656 
Q 797 1019 1065 703 
Q 1334 388 1700 388 
Q 2069 388 2326 689 
Q 2584 991 2584 1609 
Q 2584 2291 2321 2609 
Q 2059 2928 1675 2928 
Q 1300 2928 1048 2622 
Q 797 2316 797 1656 
z
" transform="scale(0.015625)"/>
       <path id="ArialMT-69" d="M 425 3934 
L 425 4581 
L 988 4581 
L 988 3934 
L 425 3934 
z
M 425 0 
L 425 3319 
L 988 3319 
L 988 0 
L 425 0 
z
" transform="scale(0.015625)"/>
       <path id="ArialMT-66" d="M 556 0 
L 556 2881 
L 59 2881 
L 59 3319 
L 556 3319 
L 556 3672 
Q 556 4006 616 4169 
Q 697 4388 901 4523 
Q 1106 4659 1475 4659 
Q 1713 4659 2000 4603 
L 1916 4113 
Q 1741 4144 1584 4144 
Q 1328 4144 1222 4034 
Q 1116 3925 1116 3625 
L 1116 3319 
L 1763 3319 
L 1763 2881 
L 1116 2881 
L 1116 0 
L 556 0 
z
" transform="scale(0.015625)"/>
       <path id="ArialMT-61" d="M 2588 409 
Q 2275 144 1986 34 
Q 1697 -75 1366 -75 
Q 819 -75 525 192 
Q 231 459 231 875 
Q 231 1119 342 1320 
Q 453 1522 633 1644 
Q 813 1766 1038 1828 
Q 1203 1872 1538 1913 
Q 2219 1994 2541 2106 
Q 2544 2222 2544 2253 
Q 2544 2597 2384 2738 
Q 2169 2928 1744 2928 
Q 1347 2928 1158 2789 
Q 969 2650 878 2297 
L 328 2372 
Q 403 2725 575 2942 
Q 747 3159 1072 3276 
Q 1397 3394 1825 3394 
Q 2250 3394 2515 3294 
Q 2781 3194 2906 3042 
Q 3031 2891 3081 2659 
Q 3109 2516 3109 2141 
L 3109 1391 
Q 3109 606 3145 398 
Q 3181 191 3288 0 
L 2700 0 
Q 2613 175 2588 409 
z
M 2541 1666 
Q 2234 1541 1622 1453 
Q 1275 1403 1131 1340 
Q 988 1278 909 1158 
Q 831 1038 831 891 
Q 831 666 1001 516 
Q 1172 366 1500 366 
Q 1825 366 2078 508 
Q 2331 650 2450 897 
Q 2541 1088 2541 1459 
L 2541 1666 
z
" transform="scale(0.015625)"/>
       <path id="ArialMT-74" d="M 1650 503 
L 1731 6 
Q 1494 -44 1306 -44 
Q 1000 -44 831 53 
Q 663 150 594 308 
Q 525 466 525 972 
L 525 2881 
L 113 2881 
L 113 3319 
L 525 3319 
L 525 4141 
L 1084 4478 
L 1084 3319 
L 1650 3319 
L 1650 2881 
L 1084 2881 
L 1084 941 
Q 1084 700 1114 631 
Q 1144 563 1211 522 
Q 1278 481 1403 481 
Q 1497 481 1650 503 
z
" transform="scale(0.015625)"/>
       <path id="ArialMT-6e" d="M 422 0 
L 422 3319 
L 928 3319 
L 928 2847 
Q 1294 3394 1984 3394 
Q 2284 3394 2536 3286 
Q 2788 3178 2913 3003 
Q 3038 2828 3088 2588 
Q 3119 2431 3119 2041 
L 3119 0 
L 2556 0 
L 2556 2019 
Q 2556 2363 2490 2533 
Q 2425 2703 2258 2804 
Q 2091 2906 1866 2906 
Q 1506 2906 1245 2678 
Q 984 2450 984 1813 
L 984 0 
L 422 0 
z
" transform="scale(0.015625)"/>
       <path id="ArialMT-65" d="M 2694 1069 
L 3275 997 
Q 3138 488 2766 206 
Q 2394 -75 1816 -75 
Q 1088 -75 661 373 
Q 234 822 234 1631 
Q 234 2469 665 2931 
Q 1097 3394 1784 3394 
Q 2450 3394 2872 2941 
Q 3294 2488 3294 1666 
Q 3294 1616 3291 1516 
L 816 1516 
Q 847 969 1125 678 
Q 1403 388 1819 388 
Q 2128 388 2347 550 
Q 2566 713 2694 1069 
z
M 847 1978 
L 2700 1978 
Q 2663 2397 2488 2606 
Q 2219 2931 1791 2931 
Q 1403 2931 1139 2672 
Q 875 2413 847 1978 
z
" transform="scale(0.015625)"/>
       <path id="ArialMT-29" d="M 791 -1347 
L 388 -1347 
Q 1322 153 1322 1656 
Q 1322 2244 1188 2822 
Q 1081 3291 891 3722 
Q 769 4003 388 4659 
L 791 4659 
Q 1378 3875 1659 3084 
Q 1900 2403 1900 1659 
Q 1900 816 1576 28 
Q 1253 -759 791 -1347 
z
" transform="scale(0.015625)"/>
      </defs>
      <use xlink:href="#ArialMT-47"/>
      <use xlink:href="#ArialMT-72" x="77.783203"/>
      <use xlink:href="#ArialMT-75" x="111.083984"/>
      <use xlink:href="#ArialMT-70" x="166.699219"/>
      <use xlink:href="#ArialMT-70" x="222.314453"/>
      <use xlink:href="#ArialMT-6f" x="277.929688"/>
      <use xlink:href="#ArialMT-20" x="333.544922"/>
      <use xlink:href="#ArialMT-28" x="361.328125"/>
      <use xlink:href="#ArialMT-63" x="394.628906"/>
      <use xlink:href="#ArialMT-6f" x="444.628906"/>
      <use xlink:href="#ArialMT-64" x="500.244141"/>
      <use xlink:href="#ArialMT-69" x="555.859375"/>
      <use xlink:href="#ArialMT-66" x="578.076172"/>
      <use xlink:href="#ArialMT-69" x="605.859375"/>
      <use xlink:href="#ArialMT-63" x="628.076172"/>
      <use xlink:href="#ArialMT-61" x="678.076172"/>
      <use xlink:href="#ArialMT-74" x="733.691406"/>
      <use xlink:href="#ArialMT-6f" x="761.474609"/>
      <use xlink:href="#ArialMT-20" x="817.089844"/>
      <use xlink:href="#ArialMT-63" x="844.873047"/>
      <use xlink:href="#ArialMT-6f" x="894.873047"/>
      <use xlink:href="#ArialMT-6e" x="950.488281"/>
      <use xlink:href="#ArialMT-20" x="1006.103516"/>
      <use xlink:href="#ArialMT-30" x="1033.886719"/>
      <use xlink:href="#ArialMT-20" x="1089.501953"/>
      <use xlink:href="#ArialMT-65" x="1117.285156"/>
      <use xlink:href="#ArialMT-20" x="1172.900391"/>
      <use xlink:href="#ArialMT-31" x="1200.683594"/>
      <use xlink:href="#ArialMT-29" x="1256.298828"/>
     </g>
    </g>
   </g>
   <g id="matplotlib.axis_2">
    <g id="ytick_1">
     <g id="line2d_7">
      <path d="M 56.450156 337.187241 
L 614.450156 337.187241 
" clip-path="url(#pdc56e7e55c)" style="fill: none; stroke: #ffffff; stroke-linecap: round"/>
     </g>
     <g id="text_8">
      <!-- −100 -->
      <g style="fill: #262626" transform="translate(22.174375 341.124038) scale(0.11 -0.11)">
       <defs>
        <path id="ArialMT-2212" d="M 3381 1997 
L 356 1997 
L 356 2522 
L 3381 2522 
L 3381 1997 
z
" transform="scale(0.015625)"/>
       </defs>
       <use xlink:href="#ArialMT-2212"/>
       <use xlink:href="#ArialMT-31" x="58.398438"/>
       <use xlink:href="#ArialMT-30" x="114.013672"/>
       <use xlink:href="#ArialMT-30" x="169.628906"/>
      </g>
     </g>
    </g>
    <g id="ytick_2">
     <g id="line2d_8">
      <path d="M 56.450156 270.471479 
L 614.450156 270.471479 
" clip-path="url(#pdc56e7e55c)" style="fill: none; stroke: #ffffff; stroke-linecap: round"/>
     </g>
     <g id="text_9">
      <!-- 0 -->
      <g style="fill: #262626" transform="translate(40.833125 274.408276) scale(0.11 -0.11)">
       <use xlink:href="#ArialMT-30"/>
      </g>
     </g>
    </g>
    <g id="ytick_3">
     <g id="line2d_9">
      <path d="M 56.450156 203.755717 
L 614.450156 203.755717 
" clip-path="url(#pdc56e7e55c)" style="fill: none; stroke: #ffffff; stroke-linecap: round"/>
     </g>
     <g id="text_10">
      <!-- 100 -->
      <g style="fill: #262626" transform="translate(28.599062 207.692514) scale(0.11 -0.11)">
       <use xlink:href="#ArialMT-31"/>
       <use xlink:href="#ArialMT-30" x="55.615234"/>
       <use xlink:href="#ArialMT-30" x="111.230469"/>
      </g>
     </g>
    </g>
    <g id="ytick_4">
     <g id="line2d_10">
      <path d="M 56.450156 137.039955 
L 614.450156 137.039955 
" clip-path="url(#pdc56e7e55c)" style="fill: none; stroke: #ffffff; stroke-linecap: round"/>
     </g>
     <g id="text_11">
      <!-- 200 -->
      <g style="fill: #262626" transform="translate(28.599062 140.976751) scale(0.11 -0.11)">
       <use xlink:href="#ArialMT-32"/>
       <use xlink:href="#ArialMT-30" x="55.615234"/>
       <use xlink:href="#ArialMT-30" x="111.230469"/>
      </g>
     </g>
    </g>
    <g id="ytick_5">
     <g id="line2d_11">
      <path d="M 56.450156 70.324192 
L 614.450156 70.324192 
" clip-path="url(#pdc56e7e55c)" style="fill: none; stroke: #ffffff; stroke-linecap: round"/>
     </g>
     <g id="text_12">
      <!-- 300 -->
      <g style="fill: #262626" transform="translate(28.599062 74.260989) scale(0.11 -0.11)">
       <defs>
        <path id="ArialMT-33" d="M 269 1209 
L 831 1284 
Q 928 806 1161 595 
Q 1394 384 1728 384 
Q 2125 384 2398 659 
Q 2672 934 2672 1341 
Q 2672 1728 2419 1979 
Q 2166 2231 1775 2231 
Q 1616 2231 1378 2169 
L 1441 2663 
Q 1497 2656 1531 2656 
Q 1891 2656 2178 2843 
Q 2466 3031 2466 3422 
Q 2466 3731 2256 3934 
Q 2047 4138 1716 4138 
Q 1388 4138 1169 3931 
Q 950 3725 888 3313 
L 325 3413 
Q 428 3978 793 4289 
Q 1159 4600 1703 4600 
Q 2078 4600 2393 4439 
Q 2709 4278 2876 4000 
Q 3044 3722 3044 3409 
Q 3044 3113 2884 2869 
Q 2725 2625 2413 2481 
Q 2819 2388 3044 2092 
Q 3269 1797 3269 1353 
Q 3269 753 2831 336 
Q 2394 -81 1725 -81 
Q 1122 -81 723 278 
Q 325 638 269 1209 
z
" transform="scale(0.015625)"/>
       </defs>
       <use xlink:href="#ArialMT-33"/>
       <use xlink:href="#ArialMT-30" x="55.615234"/>
       <use xlink:href="#ArialMT-30" x="111.230469"/>
      </g>
     </g>
    </g>
    <g id="text_13">
     <!-- Soddisfazione della vita -->
     <g style="fill: #262626" transform="translate(15.789375 251.146875) rotate(-90) scale(0.12 -0.12)">
      <defs>
       <path id="ArialMT-53" d="M 288 1472 
L 859 1522 
Q 900 1178 1048 958 
Q 1197 738 1509 602 
Q 1822 466 2213 466 
Q 2559 466 2825 569 
Q 3091 672 3220 851 
Q 3350 1031 3350 1244 
Q 3350 1459 3225 1620 
Q 3100 1781 2813 1891 
Q 2628 1963 1997 2114 
Q 1366 2266 1113 2400 
Q 784 2572 623 2826 
Q 463 3081 463 3397 
Q 463 3744 659 4045 
Q 856 4347 1234 4503 
Q 1613 4659 2075 4659 
Q 2584 4659 2973 4495 
Q 3363 4331 3572 4012 
Q 3781 3694 3797 3291 
L 3216 3247 
Q 3169 3681 2898 3903 
Q 2628 4125 2100 4125 
Q 1550 4125 1298 3923 
Q 1047 3722 1047 3438 
Q 1047 3191 1225 3031 
Q 1400 2872 2139 2705 
Q 2878 2538 3153 2413 
Q 3553 2228 3743 1945 
Q 3934 1663 3934 1294 
Q 3934 928 3725 604 
Q 3516 281 3123 101 
Q 2731 -78 2241 -78 
Q 1619 -78 1198 103 
Q 778 284 539 648 
Q 300 1013 288 1472 
z
" transform="scale(0.015625)"/>
       <path id="ArialMT-73" d="M 197 991 
L 753 1078 
Q 800 744 1014 566 
Q 1228 388 1613 388 
Q 2000 388 2187 545 
Q 2375 703 2375 916 
Q 2375 1106 2209 1216 
Q 2094 1291 1634 1406 
Q 1016 1563 777 1677 
Q 538 1791 414 1992 
Q 291 2194 291 2438 
Q 291 2659 392 2848 
Q 494 3038 669 3163 
Q 800 3259 1026 3326 
Q 1253 3394 1513 3394 
Q 1903 3394 2198 3281 
Q 2494 3169 2634 2976 
Q 2775 2784 2828 2463 
L 2278 2388 
Q 2241 2644 2061 2787 
Q 1881 2931 1553 2931 
Q 1166 2931 1000 2803 
Q 834 2675 834 2503 
Q 834 2394 903 2306 
Q 972 2216 1119 2156 
Q 1203 2125 1616 2013 
Q 2213 1853 2448 1751 
Q 2684 1650 2818 1456 
Q 2953 1263 2953 975 
Q 2953 694 2789 445 
Q 2625 197 2315 61 
Q 2006 -75 1616 -75 
Q 969 -75 630 194 
Q 291 463 197 991 
z
" transform="scale(0.015625)"/>
       <path id="ArialMT-7a" d="M 125 0 
L 125 456 
L 2238 2881 
Q 1878 2863 1603 2863 
L 250 2863 
L 250 3319 
L 2963 3319 
L 2963 2947 
L 1166 841 
L 819 456 
Q 1197 484 1528 484 
L 3063 484 
L 3063 0 
L 125 0 
z
" transform="scale(0.015625)"/>
       <path id="ArialMT-6c" d="M 409 0 
L 409 4581 
L 972 4581 
L 972 0 
L 409 0 
z
" transform="scale(0.015625)"/>
       <path id="ArialMT-76" d="M 1344 0 
L 81 3319 
L 675 3319 
L 1388 1331 
Q 1503 1009 1600 663 
Q 1675 925 1809 1294 
L 2547 3319 
L 3125 3319 
L 1869 0 
L 1344 0 
z
" transform="scale(0.015625)"/>
      </defs>
      <use xlink:href="#ArialMT-53"/>
      <use xlink:href="#ArialMT-6f" x="66.699219"/>
      <use xlink:href="#ArialMT-64" x="122.314453"/>
      <use xlink:href="#ArialMT-64" x="177.929688"/>
      <use xlink:href="#ArialMT-69" x="233.544922"/>
      <use xlink:href="#ArialMT-73" x="255.761719"/>
      <use xlink:href="#ArialMT-66" x="305.761719"/>
      <use xlink:href="#ArialMT-61" x="333.544922"/>
      <use xlink:href="#ArialMT-7a" x="389.160156"/>
      <use xlink:href="#ArialMT-69" x="439.160156"/>
      <use xlink:href="#ArialMT-6f" x="461.376953"/>
      <use xlink:href="#ArialMT-6e" x="516.992188"/>
      <use xlink:href="#ArialMT-65" x="572.607422"/>
      <use xlink:href="#ArialMT-20" x="628.222656"/>
      <use xlink:href="#ArialMT-64" x="656.005859"/>
      <use xlink:href="#ArialMT-65" x="711.621094"/>
      <use xlink:href="#ArialMT-6c" x="767.236328"/>
      <use xlink:href="#ArialMT-6c" x="789.453125"/>
      <use xlink:href="#ArialMT-61" x="811.669922"/>
      <use xlink:href="#ArialMT-20" x="867.285156"/>
      <use xlink:href="#ArialMT-76" x="895.068359"/>
      <use xlink:href="#ArialMT-69" x="945.068359"/>
      <use xlink:href="#ArialMT-74" x="967.285156"/>
      <use xlink:href="#ArialMT-61" x="995.068359"/>
     </g>
    </g>
   </g>
   <g id="line2d_12">
    <path d="M 81.813793 263.177501 
L 132.541065 253.743637 
L 183.268338 244.309774 
L 233.995611 234.875911 
L 284.722884 225.442048 
L 335.450156 216.008185 
L 386.177429 206.574321 
L 436.904702 197.140458 
L 487.631974 187.706595 
L 538.359247 178.272732 
L 589.08652 168.838868 
" clip-path="url(#pdc56e7e55c)" style="fill: none; stroke: #1a1a1a; stroke-opacity: 0.4; stroke-width: 1.5; stroke-linecap: round"/>
   </g>
   <g id="line2d_13">
    <path d="M 81.813793 241.590932 
L 132.541065 247.153005 
L 183.268338 252.715077 
L 233.995611 258.27715 
L 284.722884 263.839222 
L 335.450156 269.401295 
L 386.177429 274.963367 
L 436.904702 280.525439 
L 487.631974 286.087512 
L 538.359247 291.649584 
L 589.08652 297.211657 
" clip-path="url(#pdc56e7e55c)" style="fill: none; stroke: #1a1a1a; stroke-opacity: 0.4; stroke-width: 1.5; stroke-linecap: round"/>
   </g>
   <g id="line2d_14">
    <path d="M 81.813793 258.439452 
L 132.541065 262.069561 
L 183.268338 265.699671 
L 233.995611 269.329781 
L 284.722884 272.959891 
L 335.450156 276.590001 
L 386.177429 280.22011 
L 436.904702 283.85022 
L 487.631974 287.48033 
L 538.359247 291.11044 
L 589.08652 294.740549 
" clip-path="url(#pdc56e7e55c)" style="fill: none; stroke: #1a1a1a; stroke-opacity: 0.4; stroke-width: 1.5; stroke-linecap: round"/>
   </g>
   <g id="line2d_15">
    <path d="M 81.813793 240.833894 
L 132.541065 249.131726 
L 183.268338 257.429559 
L 233.995611 265.727391 
L 284.722884 274.025224 
L 335.450156 282.323056 
L 386.177429 290.620888 
L 436.904702 298.918721 
L 487.631974 307.216553 
L 538.359247 315.514386 
L 589.08652 323.812218 
" clip-path="url(#pdc56e7e55c)" style="fill: none; stroke: #1a1a1a; stroke-opacity: 0.4; stroke-width: 1.5; stroke-linecap: round"/>
   </g>
   <g id="line2d_16">
    <path d="M 81.813793 303.957257 
L 132.541065 304.100865 
L 183.268338 304.244473 
L 233.995611 304.388081 
L 284.722884 304.531689 
L 335.450156 304.675298 
L 386.177429 304.818906 
L 436.904702 304.962514 
L 487.631974 305.106122 
L 538.359247 305.24973 
L 589.08652 305.393338 
" clip-path="url(#pdc56e7e55c)" style="fill: none; stroke: #1a1a1a; stroke-opacity: 0.4; stroke-width: 1.5; stroke-linecap: round"/>
   </g>
   <g id="line2d_17">
    <path d="M 81.813793 286.55707 
L 132.541065 272.936695 
L 183.268338 259.31632 
L 233.995611 245.695945 
L 284.722884 232.07557 
L 335.450156 218.455195 
L 386.177429 204.83482 
L 436.904702 191.214445 
L 487.631974 177.59407 
L 538.359247 163.973695 
L 589.08652 150.35332 
" clip-path="url(#pdc56e7e55c)" style="fill: none; stroke: #1a1a1a; stroke-opacity: 0.4; stroke-width: 1.5; stroke-linecap: round"/>
   </g>
   <g id="line2d_18">
    <path d="M 81.813793 229.780244 
L 132.541065 225.010874 
L 183.268338 220.241504 
L 233.995611 215.472134 
L 284.722884 210.702764 
L 335.450156 205.933394 
L 386.177429 201.164024 
L 436.904702 196.394654 
L 487.631974 191.625284 
L 538.359247 186.855914 
L 589.08652 182.086544 
" clip-path="url(#pdc56e7e55c)" style="fill: none; stroke: #1a1a1a; stroke-opacity: 0.4; stroke-width: 1.5; stroke-linecap: round"/>
   </g>
   <g id="line2d_19">
    <path d="M 81.813793 217.20079 
L 132.541065 214.524626 
L 183.268338 211.848463 
L 233.995611 209.172299 
L 284.722884 206.496135 
L 335.450156 203.819972 
L 386.177429 201.143808 
L 436.904702 198.467644 
L 487.631974 195.791481 
L 538.359247 193.115317 
L 589.08652 190.439154 
" clip-path="url(#pdc56e7e55c)" style="fill: none; stroke: #1a1a1a; stroke-opacity: 0.4; stroke-width: 1.5; stroke-linecap: round"/>
   </g>
   <g id="line2d_20">
    <path d="M 81.813793 275.601595 
L 132.541065 275.973726 
L 183.268338 276.345857 
L 233.995611 276.717988 
L 284.722884 277.090119 
L 335.450156 277.462249 
L 386.177429 277.83438 
L 436.904702 278.206511 
L 487.631974 278.578642 
L 538.359247 278.950773 
L 589.08652 279.322904 
" clip-path="url(#pdc56e7e55c)" style="fill: none; stroke: #1a1a1a; stroke-opacity: 0.4; stroke-width: 1.5; stroke-linecap: round"/>
   </g>
   <g id="line2d_21">
    <path d="M 81.813793 245.21813 
L 132.541065 253.674392 
L 183.268338 262.130654 
L 233.995611 270.586915 
L 284.722884 279.043177 
L 335.450156 287.499438 
L 386.177429 295.9557 
L 436.904702 304.411962 
L 487.631974 312.868223 
L 538.359247 321.324485 
L 589.08652 329.780747 
" clip-path="url(#pdc56e7e55c)" style="fill: none; stroke: #1a1a1a; stroke-opacity: 0.4; stroke-width: 1.5; stroke-linecap: round"/>
   </g>
   <g id="line2d_22">
    <path d="M 81.813793 289.712792 
L 132.541065 280.378125 
L 183.268338 271.043458 
L 233.995611 261.708792 
L 284.722884 252.374125 
L 335.450156 243.039459 
L 386.177429 233.704792 
L 436.904702 224.370125 
L 487.631974 215.035459 
L 538.359247 205.700792 
L 589.08652 196.366125 
" clip-path="url(#pdc56e7e55c)" style="fill: none; stroke: #1a1a1a; stroke-opacity: 0.4; stroke-width: 1.5; stroke-linecap: round"/>
   </g>
   <g id="line2d_23">
    <path d="M 81.813793 271.830541 
L 132.541065 270.70273 
L 183.268338 269.574918 
L 233.995611 268.447107 
L 284.722884 267.319295 
L 335.450156 266.191484 
L 386.177429 265.063672 
L 436.904702 263.935861 
L 487.631974 262.808049 
L 538.359247 261.680238 
L 589.08652 260.552426 
" clip-path="url(#pdc56e7e55c)" style="fill: none; stroke: #1a1a1a; stroke-opacity: 0.4; stroke-width: 1.5; stroke-linecap: round"/>
   </g>
   <g id="line2d_24">
    <path d="M 81.813793 233.891201 
L 132.541065 223.897206 
L 183.268338 213.903212 
L 233.995611 203.909218 
L 284.722884 193.915224 
L 335.450156 183.92123 
L 386.177429 173.927236 
L 436.904702 163.933241 
L 487.631974 153.939247 
L 538.359247 143.945253 
L 589.08652 133.951259 
" clip-path="url(#pdc56e7e55c)" style="fill: none; stroke: #1a1a1a; stroke-opacity: 0.4; stroke-width: 1.5; stroke-linecap: round"/>
   </g>
   <g id="line2d_25">
    <path d="M 81.813793 317.514035 
L 132.541065 317.167929 
L 183.268338 316.821822 
L 233.995611 316.475716 
L 284.722884 316.129609 
L 335.450156 315.783503 
L 386.177429 315.437396 
L 436.904702 315.09129 
L 487.631974 314.745183 
L 538.359247 314.399076 
L 589.08652 314.05297 
" clip-path="url(#pdc56e7e55c)" style="fill: none; stroke: #1a1a1a; stroke-opacity: 0.4; stroke-width: 1.5; stroke-linecap: round"/>
   </g>
   <g id="line2d_26">
    <path d="M 81.813793 277.100007 
L 132.541065 273.005328 
L 183.268338 268.910649 
L 233.995611 264.815971 
L 284.722884 260.721292 
L 335.450156 256.626613 
L 386.177429 252.531934 
L 436.904702 248.437255 
L 487.631974 244.342576 
L 538.359247 240.247897 
L 589.08652 236.153219 
" clip-path="url(#pdc56e7e55c)" style="fill: none; stroke: #1a1a1a; stroke-opacity: 0.4; stroke-width: 1.5; stroke-linecap: round"/>
   </g>
   <g id="line2d_27">
    <path d="M 81.813793 263.618917 
L 132.541065 260.365826 
L 183.268338 257.112735 
L 233.995611 253.859644 
L 284.722884 250.606553 
L 335.450156 247.353461 
L 386.177429 244.10037 
L 436.904702 240.847279 
L 487.631974 237.594188 
L 538.359247 234.341096 
L 589.08652 231.088005 
" clip-path="url(#pdc56e7e55c)" style="fill: none; stroke: #1a1a1a; stroke-opacity: 0.4; stroke-width: 1.5; stroke-linecap: round"/>
   </g>
   <g id="line2d_28">
    <path d="M 81.813793 285.919401 
L 132.541065 285.685972 
L 183.268338 285.452542 
L 233.995611 285.219113 
L 284.722884 284.985684 
L 335.450156 284.752254 
L 386.177429 284.518825 
L 436.904702 284.285396 
L 487.631974 284.051967 
L 538.359247 283.818537 
L 589.08652 283.585108 
" clip-path="url(#pdc56e7e55c)" style="fill: none; stroke: #1a1a1a; stroke-opacity: 0.4; stroke-width: 1.5; stroke-linecap: round"/>
   </g>
   <g id="line2d_29">
    <path d="M 81.813793 289.244332 
L 132.541065 277.660292 
L 183.268338 266.076252 
L 233.995611 254.492211 
L 284.722884 242.908171 
L 335.450156 231.324131 
L 386.177429 219.740091 
L 436.904702 208.156051 
L 487.631974 196.57201 
L 538.359247 184.98797 
L 589.08652 173.40393 
" clip-path="url(#pdc56e7e55c)" style="fill: none; stroke: #1a1a1a; stroke-opacity: 0.4; stroke-width: 1.5; stroke-linecap: round"/>
   </g>
   <g id="line2d_30">
    <path d="M 81.813793 188.797034 
L 132.541065 183.153889 
L 183.268338 177.510745 
L 233.995611 171.8676 
L 284.722884 166.224456 
L 335.450156 160.581311 
L 386.177429 154.938167 
L 436.904702 149.295023 
L 487.631974 143.651878 
L 538.359247 138.008734 
L 589.08652 132.365589 
" clip-path="url(#pdc56e7e55c)" style="fill: none; stroke: #1a1a1a; stroke-opacity: 0.4; stroke-width: 1.5; stroke-linecap: round"/>
   </g>
   <g id="line2d_31">
    <path d="M 81.813793 214.132399 
L 132.541065 224.155813 
L 183.268338 234.179226 
L 233.995611 244.20264 
L 284.722884 254.226054 
L 335.450156 264.249467 
L 386.177429 274.272881 
L 436.904702 284.296295 
L 487.631974 294.319709 
L 538.359247 304.343122 
L 589.08652 314.366536 
" clip-path="url(#pdc56e7e55c)" style="fill: none; stroke: #1a1a1a; stroke-opacity: 0.4; stroke-width: 1.5; stroke-linecap: round"/>
   </g>
   <g id="line2d_32">
    <path d="M 81.813793 298.474966 
L 132.541065 289.413088 
L 183.268338 280.35121 
L 233.995611 271.289332 
L 284.722884 262.227455 
L 335.450156 253.165577 
L 386.177429 244.103699 
L 436.904702 235.041821 
L 487.631974 225.979944 
L 538.359247 216.918066 
L 589.08652 207.856188 
" clip-path="url(#pdc56e7e55c)" style="fill: none; stroke: #1a1a1a; stroke-opacity: 0.4; stroke-width: 1.5; stroke-linecap: round"/>
   </g>
   <g id="line2d_33">
    <path d="M 81.813793 280.92406 
L 132.541065 283.018323 
L 183.268338 285.112586 
L 233.995611 287.20685 
L 284.722884 289.301113 
L 335.450156 291.395376 
L 386.177429 293.489639 
L 436.904702 295.583902 
L 487.631974 297.678165 
L 538.359247 299.772428 
L 589.08652 301.866691 
" clip-path="url(#pdc56e7e55c)" style="fill: none; stroke: #1a1a1a; stroke-opacity: 0.4; stroke-width: 1.5; stroke-linecap: round"/>
   </g>
   <g id="line2d_34">
    <path d="M 81.813793 260.572317 
L 132.541065 259.705927 
L 183.268338 258.839537 
L 233.995611 257.973148 
L 284.722884 257.106758 
L 335.450156 256.240368 
L 386.177429 255.373978 
L 436.904702 254.507589 
L 487.631974 253.641199 
L 538.359247 252.774809 
L 589.08652 251.90842 
" clip-path="url(#pdc56e7e55c)" style="fill: none; stroke: #1a1a1a; stroke-opacity: 0.4; stroke-width: 1.5; stroke-linecap: round"/>
   </g>
   <g id="line2d_35">
    <path d="M 81.813793 178.182421 
L 132.541065 164.055117 
L 183.268338 149.927812 
L 233.995611 135.800507 
L 284.722884 121.673203 
L 335.450156 107.545898 
L 386.177429 93.418593 
L 436.904702 79.291289 
L 487.631974 65.163984 
L 538.359247 51.03668 
L 589.08652 36.909375 
" clip-path="url(#pdc56e7e55c)" style="fill: none; stroke: #1a1a1a; stroke-opacity: 0.4; stroke-width: 1.5; stroke-linecap: round"/>
   </g>
   <g id="line2d_36">
    <path d="M 81.813793 288.08673 
L 132.541065 279.581937 
L 183.268338 271.077145 
L 233.995611 262.572353 
L 284.722884 254.06756 
L 335.450156 245.562768 
L 386.177429 237.057975 
L 436.904702 228.553183 
L 487.631974 220.04839 
L 538.359247 211.543598 
L 589.08652 203.038805 
" clip-path="url(#pdc56e7e55c)" style="fill: none; stroke: #1a1a1a; stroke-opacity: 0.4; stroke-width: 1.5; stroke-linecap: round"/>
   </g>
   <g id="line2d_37">
    <path d="M 81.813793 235.605219 
L 132.541065 228.238805 
L 183.268338 220.872392 
L 233.995611 213.505979 
L 284.722884 206.139565 
L 335.450156 198.773152 
L 386.177429 191.406739 
L 436.904702 184.040325 
L 487.631974 176.673912 
L 538.359247 169.307499 
L 589.08652 161.941085 
" clip-path="url(#pdc56e7e55c)" style="fill: none; stroke: #1a1a1a; stroke-opacity: 0.4; stroke-width: 1.5; stroke-linecap: round"/>
   </g>
   <g id="line2d_38">
    <path d="M 81.813793 267.509298 
L 132.541065 263.553126 
L 183.268338 259.596955 
L 233.995611 255.640783 
L 284.722884 251.684611 
L 335.450156 247.72844 
L 386.177429 243.772268 
L 436.904702 239.816096 
L 487.631974 235.859925 
L 538.359247 231.903753 
L 589.08652 227.947581 
" clip-path="url(#pdc56e7e55c)" style="fill: none; stroke: #1a1a1a; stroke-opacity: 0.4; stroke-width: 1.5; stroke-linecap: round"/>
   </g>
   <g id="line2d_39">
    <path d="M 81.813793 289.254581 
L 132.541065 294.26006 
L 183.268338 299.26554 
L 233.995611 304.271019 
L 284.722884 309.276499 
L 335.450156 314.281978 
L 386.177429 319.287457 
L 436.904702 324.292937 
L 487.631974 329.298416 
L 538.359247 334.303896 
L 589.08652 339.309375 
" clip-path="url(#pdc56e7e55c)" style="fill: none; stroke: #1a1a1a; stroke-opacity: 0.4; stroke-width: 1.5; stroke-linecap: round"/>
   </g>
   <g id="line2d_40">
    <path d="M 81.813793 280.854045 
L 132.541065 273.27399 
L 183.268338 265.693936 
L 233.995611 258.113882 
L 284.722884 250.533827 
L 335.450156 242.953773 
L 386.177429 235.373718 
L 436.904702 227.793664 
L 487.631974 220.21361 
L 538.359247 212.633555 
L 589.08652 205.053501 
" clip-path="url(#pdc56e7e55c)" style="fill: none; stroke: #1a1a1a; stroke-opacity: 0.4; stroke-width: 1.5; stroke-linecap: round"/>
   </g>
   <g id="line2d_41">
    <path d="M 81.813793 206.257664 
L 132.541065 196.314163 
L 183.268338 186.370661 
L 233.995611 176.42716 
L 284.722884 166.483658 
L 335.450156 156.540156 
L 386.177429 146.596655 
L 436.904702 136.653153 
L 487.631974 126.709652 
L 538.359247 116.76615 
L 589.08652 106.822648 
" clip-path="url(#pdc56e7e55c)" style="fill: none; stroke: #1a1a1a; stroke-opacity: 0.4; stroke-width: 1.5; stroke-linecap: round"/>
   </g>
   <g id="line2d_42">
    <path d="M 81.813793 268.105246 
L 132.541065 268.657865 
L 183.268338 269.210484 
L 233.995611 269.763103 
L 284.722884 270.315722 
L 335.450156 270.868341 
L 386.177429 271.420961 
L 436.904702 271.97358 
L 487.631974 272.526199 
L 538.359247 273.078818 
L 589.08652 273.631437 
" clip-path="url(#pdc56e7e55c)" style="fill: none; stroke: #1a1a1a; stroke-opacity: 0.4; stroke-width: 1.5; stroke-linecap: round"/>
   </g>
   <g id="line2d_43">
    <path d="M 81.813793 277.317675 
L 132.541065 276.680744 
L 183.268338 276.043812 
L 233.995611 275.40688 
L 284.722884 274.769949 
L 335.450156 274.133017 
L 386.177429 273.496085 
L 436.904702 272.859154 
L 487.631974 272.222222 
L 538.359247 271.58529 
L 589.08652 270.948359 
" clip-path="url(#pdc56e7e55c)" style="fill: none; stroke: #1a1a1a; stroke-opacity: 0.4; stroke-width: 1.5; stroke-linecap: round"/>
   </g>
   <g id="line2d_44">
    <path d="M 81.813793 280.1631 
L 132.541065 277.439845 
L 183.268338 274.71659 
L 233.995611 271.993335 
L 284.722884 269.27008 
L 335.450156 266.546825 
L 386.177429 263.82357 
L 436.904702 261.100315 
L 487.631974 258.37706 
L 538.359247 255.653805 
L 589.08652 252.93055 
" clip-path="url(#pdc56e7e55c)" style="fill: none; stroke: #1a1a1a; stroke-opacity: 0.4; stroke-width: 1.5; stroke-linecap: round"/>
   </g>
   <g id="line2d_45">
    <path d="M 81.813793 245.733034 
L 132.541065 243.85319 
L 183.268338 241.973346 
L 233.995611 240.093502 
L 284.722884 238.213658 
L 335.450156 236.333815 
L 386.177429 234.453971 
L 436.904702 232.574127 
L 487.631974 230.694283 
L 538.359247 228.814439 
L 589.08652 226.934595 
" clip-path="url(#pdc56e7e55c)" style="fill: none; stroke: #1a1a1a; stroke-opacity: 0.4; stroke-width: 1.5; stroke-linecap: round"/>
   </g>
   <g id="line2d_46">
    <path d="M 81.813793 203.033831 
L 132.541065 213.068957 
L 183.268338 223.104083 
L 233.995611 233.13921 
L 284.722884 243.174336 
L 335.450156 253.209462 
L 386.177429 263.244588 
L 436.904702 273.279714 
L 487.631974 283.31484 
L 538.359247 293.349966 
L 589.08652 303.385092 
" clip-path="url(#pdc56e7e55c)" style="fill: none; stroke: #1a1a1a; stroke-opacity: 0.4; stroke-width: 1.5; stroke-linecap: round"/>
   </g>
   <g id="line2d_47">
    <path d="M 81.813793 247.242181 
L 132.541065 244.808542 
L 183.268338 242.374902 
L 233.995611 239.941262 
L 284.722884 237.507622 
L 335.450156 235.073982 
L 386.177429 232.640342 
L 436.904702 230.206702 
L 487.631974 227.773062 
L 538.359247 225.339422 
L 589.08652 222.905783 
" clip-path="url(#pdc56e7e55c)" style="fill: none; stroke: #1a1a1a; stroke-opacity: 0.4; stroke-width: 1.5; stroke-linecap: round"/>
   </g>
   <g id="line2d_48">
    <path d="M 81.813793 252.077968 
L 132.541065 255.916812 
L 183.268338 259.755656 
L 233.995611 263.594501 
L 284.722884 267.433345 
L 335.450156 271.272189 
L 386.177429 275.111034 
L 436.904702 278.949878 
L 487.631974 282.788722 
L 538.359247 286.627567 
L 589.08652 290.466411 
" clip-path="url(#pdc56e7e55c)" style="fill: none; stroke: #1a1a1a; stroke-opacity: 0.4; stroke-width: 1.5; stroke-linecap: round"/>
   </g>
   <g id="line2d_49">
    <path d="M 81.813793 222.103508 
L 132.541065 215.719359 
L 183.268338 209.33521 
L 233.995611 202.951061 
L 284.722884 196.566912 
L 335.450156 190.182763 
L 386.177429 183.798615 
L 436.904702 177.414466 
L 487.631974 171.030317 
L 538.359247 164.646168 
L 589.08652 158.262019 
" clip-path="url(#pdc56e7e55c)" style="fill: none; stroke: #1a1a1a; stroke-opacity: 0.4; stroke-width: 1.5; stroke-linecap: round"/>
   </g>
   <g id="line2d_50">
    <path d="M 81.813793 241.891211 
L 132.541065 234.669554 
L 183.268338 227.447898 
L 233.995611 220.226241 
L 284.722884 213.004585 
L 335.450156 205.782928 
L 386.177429 198.561271 
L 436.904702 191.339615 
L 487.631974 184.117958 
L 538.359247 176.896302 
L 589.08652 169.674645 
" clip-path="url(#pdc56e7e55c)" style="fill: none; stroke: #1a1a1a; stroke-opacity: 0.4; stroke-width: 1.5; stroke-linecap: round"/>
   </g>
   <g id="line2d_51">
    <path d="M 81.813793 223.425369 
L 132.541065 223.024085 
L 183.268338 222.622802 
L 233.995611 222.221518 
L 284.722884 221.820234 
L 335.450156 221.418951 
L 386.177429 221.017667 
L 436.904702 220.616383 
L 487.631974 220.2151 
L 538.359247 219.813816 
L 589.08652 219.412532 
" clip-path="url(#pdc56e7e55c)" style="fill: none; stroke: #1a1a1a; stroke-opacity: 0.4; stroke-width: 1.5; stroke-linecap: round"/>
   </g>
   <g id="line2d_52">
    <path d="M 81.813793 275.137684 
L 132.541065 278.544485 
L 183.268338 281.951285 
L 233.995611 285.358086 
L 284.722884 288.764886 
L 335.450156 292.171686 
L 386.177429 295.578487 
L 436.904702 298.985287 
L 487.631974 302.392088 
L 538.359247 305.798888 
L 589.08652 309.205689 
" clip-path="url(#pdc56e7e55c)" style="fill: none; stroke: #1a1a1a; stroke-opacity: 0.4; stroke-width: 1.5; stroke-linecap: round"/>
   </g>
   <g id="line2d_53">
    <path d="M 81.813793 226.331585 
L 132.541065 234.256055 
L 183.268338 242.180525 
L 233.995611 250.104995 
L 284.722884 258.029465 
L 335.450156 265.953935 
L 386.177429 273.878406 
L 436.904702 281.802876 
L 487.631974 289.727346 
L 538.359247 297.651816 
L 589.08652 305.576286 
" clip-path="url(#pdc56e7e55c)" style="fill: none; stroke: #1a1a1a; stroke-opacity: 0.4; stroke-width: 1.5; stroke-linecap: round"/>
   </g>
   <g id="line2d_54">
    <path d="M 81.813793 253.459786 
L 132.541065 251.459609 
L 183.268338 249.459433 
L 233.995611 247.459256 
L 284.722884 245.45908 
L 335.450156 243.458903 
L 386.177429 241.458727 
L 436.904702 239.45855 
L 487.631974 237.458374 
L 538.359247 235.458197 
L 589.08652 233.458021 
" clip-path="url(#pdc56e7e55c)" style="fill: none; stroke: #1a1a1a; stroke-opacity: 0.4; stroke-width: 1.5; stroke-linecap: round"/>
   </g>
   <g id="line2d_55">
    <path d="M 81.813793 239.318 
L 132.541065 235.861826 
L 183.268338 232.405652 
L 233.995611 228.949478 
L 284.722884 225.493304 
L 335.450156 222.03713 
L 386.177429 218.580956 
L 436.904702 215.124782 
L 487.631974 211.668608 
L 538.359247 208.212433 
L 589.08652 204.756259 
" clip-path="url(#pdc56e7e55c)" style="fill: none; stroke: #1a1a1a; stroke-opacity: 0.4; stroke-width: 1.5; stroke-linecap: round"/>
   </g>
   <g id="line2d_56">
    <path d="M 81.813793 245.664334 
L 132.541065 240.054638 
L 183.268338 234.444942 
L 233.995611 228.835246 
L 284.722884 223.22555 
L 335.450156 217.615855 
L 386.177429 212.006159 
L 436.904702 206.396463 
L 487.631974 200.786767 
L 538.359247 195.177071 
L 589.08652 189.567376 
" clip-path="url(#pdc56e7e55c)" style="fill: none; stroke: #1a1a1a; stroke-opacity: 0.4; stroke-width: 1.5; stroke-linecap: round"/>
   </g>
   <g id="line2d_57">
    <path d="M 81.813793 315.611552 
L 132.541065 315.521162 
L 183.268338 315.430772 
L 233.995611 315.340381 
L 284.722884 315.249991 
L 335.450156 315.159601 
L 386.177429 315.069211 
L 436.904702 314.97882 
L 487.631974 314.88843 
L 538.359247 314.79804 
L 589.08652 314.70765 
" clip-path="url(#pdc56e7e55c)" style="fill: none; stroke: #1a1a1a; stroke-opacity: 0.4; stroke-width: 1.5; stroke-linecap: round"/>
   </g>
   <g id="line2d_58">
    <path d="M 81.813793 320.530736 
L 132.541065 319.934382 
L 183.268338 319.338028 
L 233.995611 318.741674 
L 284.722884 318.145319 
L 335.450156 317.548965 
L 386.177429 316.952611 
L 436.904702 316.356257 
L 487.631974 315.759903 
L 538.359247 315.163549 
L 589.08652 314.567195 
" clip-path="url(#pdc56e7e55c)" style="fill: none; stroke: #1a1a1a; stroke-opacity: 0.4; stroke-width: 1.5; stroke-linecap: round"/>
   </g>
   <g id="line2d_59">
    <path d="M 81.813793 298.233045 
L 132.541065 292.07999 
L 183.268338 285.926934 
L 233.995611 279.773878 
L 284.722884 273.620822 
L 335.450156 267.467767 
L 386.177429 261.314711 
L 436.904702 255.161655 
L 487.631974 249.0086 
L 538.359247 242.855544 
L 589.08652 236.702488 
" clip-path="url(#pdc56e7e55c)" style="fill: none; stroke: #1a1a1a; stroke-opacity: 0.4; stroke-width: 1.5; stroke-linecap: round"/>
   </g>
   <g id="line2d_60">
    <path d="M 81.813793 287.334992 
L 132.541065 290.374894 
L 183.268338 293.414796 
L 233.995611 296.454699 
L 284.722884 299.494601 
L 335.450156 302.534503 
L 386.177429 305.574406 
L 436.904702 308.614308 
L 487.631974 311.65421 
L 538.359247 314.694113 
L 589.08652 317.734015 
" clip-path="url(#pdc56e7e55c)" style="fill: none; stroke: #1a1a1a; stroke-opacity: 0.4; stroke-width: 1.5; stroke-linecap: round"/>
   </g>
   <g id="line2d_61">
    <path d="M 81.813793 269.535554 
L 132.541065 258.977866 
L 183.268338 248.420179 
L 233.995611 237.862491 
L 284.722884 227.304804 
L 335.450156 216.747116 
L 386.177429 206.189429 
L 436.904702 195.631742 
L 487.631974 185.074054 
L 538.359247 174.516367 
L 589.08652 163.958679 
" clip-path="url(#pdc56e7e55c)" style="fill: none; stroke: #1a1a1a; stroke-opacity: 0.4; stroke-width: 1.5; stroke-linecap: round"/>
   </g>
   <g id="patch_3">
    <path d="M 56.450156 354.429375 
L 56.450156 21.789375 
" style="fill: none; stroke: #ffffff; stroke-width: 1.25; stroke-linejoin: miter; stroke-linecap: square"/>
   </g>
   <g id="patch_4">
    <path d="M 614.450156 354.429375 
L 614.450156 21.789375 
" style="fill: none; stroke: #ffffff; stroke-width: 1.25; stroke-linejoin: miter; stroke-linecap: square"/>
   </g>
   <g id="patch_5">
    <path d="M 56.450156 354.429375 
L 614.450156 354.429375 
" style="fill: none; stroke: #ffffff; stroke-width: 1.25; stroke-linejoin: miter; stroke-linecap: square"/>
   </g>
   <g id="patch_6">
    <path d="M 56.450156 21.789375 
L 614.450156 21.789375 
" style="fill: none; stroke: #ffffff; stroke-width: 1.25; stroke-linejoin: miter; stroke-linecap: square"/>
   </g>
   <g id="text_14">
    <!-- Distribuzione predittiva a priori -->
    <g style="fill: #262626" transform="translate(254.753906 15.789375) scale(0.12 -0.12)">
     <defs>
      <path id="ArialMT-44" d="M 494 0 
L 494 4581 
L 2072 4581 
Q 2606 4581 2888 4516 
Q 3281 4425 3559 4188 
Q 3922 3881 4101 3404 
Q 4281 2928 4281 2316 
Q 4281 1794 4159 1391 
Q 4038 988 3847 723 
Q 3656 459 3429 307 
Q 3203 156 2883 78 
Q 2563 0 2147 0 
L 494 0 
z
M 1100 541 
L 2078 541 
Q 2531 541 2789 625 
Q 3047 709 3200 863 
Q 3416 1078 3536 1442 
Q 3656 1806 3656 2325 
Q 3656 3044 3420 3430 
Q 3184 3816 2847 3947 
Q 2603 4041 2063 4041 
L 1100 4041 
L 1100 541 
z
" transform="scale(0.015625)"/>
      <path id="ArialMT-62" d="M 941 0 
L 419 0 
L 419 4581 
L 981 4581 
L 981 2947 
Q 1338 3394 1891 3394 
Q 2197 3394 2470 3270 
Q 2744 3147 2920 2923 
Q 3097 2700 3197 2384 
Q 3297 2069 3297 1709 
Q 3297 856 2875 390 
Q 2453 -75 1863 -75 
Q 1275 -75 941 416 
L 941 0 
z
M 934 1684 
Q 934 1088 1097 822 
Q 1363 388 1816 388 
Q 2184 388 2453 708 
Q 2722 1028 2722 1663 
Q 2722 2313 2464 2622 
Q 2206 2931 1841 2931 
Q 1472 2931 1203 2611 
Q 934 2291 934 1684 
z
" transform="scale(0.015625)"/>
     </defs>
     <use xlink:href="#ArialMT-44"/>
     <use xlink:href="#ArialMT-69" x="72.216797"/>
     <use xlink:href="#ArialMT-73" x="94.433594"/>
     <use xlink:href="#ArialMT-74" x="144.433594"/>
     <use xlink:href="#ArialMT-72" x="172.216797"/>
     <use xlink:href="#ArialMT-69" x="205.517578"/>
     <use xlink:href="#ArialMT-62" x="227.734375"/>
     <use xlink:href="#ArialMT-75" x="283.349609"/>
     <use xlink:href="#ArialMT-7a" x="338.964844"/>
     <use xlink:href="#ArialMT-69" x="388.964844"/>
     <use xlink:href="#ArialMT-6f" x="411.181641"/>
     <use xlink:href="#ArialMT-6e" x="466.796875"/>
     <use xlink:href="#ArialMT-65" x="522.412109"/>
     <use xlink:href="#ArialMT-20" x="578.027344"/>
     <use xlink:href="#ArialMT-70" x="605.810547"/>
     <use xlink:href="#ArialMT-72" x="661.425781"/>
     <use xlink:href="#ArialMT-65" x="694.726562"/>
     <use xlink:href="#ArialMT-64" x="750.341797"/>
     <use xlink:href="#ArialMT-69" x="805.957031"/>
     <use xlink:href="#ArialMT-74" x="828.173828"/>
     <use xlink:href="#ArialMT-74" x="855.957031"/>
     <use xlink:href="#ArialMT-69" x="883.740234"/>
     <use xlink:href="#ArialMT-76" x="905.957031"/>
     <use xlink:href="#ArialMT-61" x="955.957031"/>
     <use xlink:href="#ArialMT-20" x="1011.572266"/>
     <use xlink:href="#ArialMT-61" x="1039.355469"/>
     <use xlink:href="#ArialMT-20" x="1094.970703"/>
     <use xlink:href="#ArialMT-70" x="1122.753906"/>
     <use xlink:href="#ArialMT-72" x="1178.369141"/>
     <use xlink:href="#ArialMT-69" x="1211.669922"/>
     <use xlink:href="#ArialMT-6f" x="1233.886719"/>
     <use xlink:href="#ArialMT-72" x="1289.501953"/>
     <use xlink:href="#ArialMT-69" x="1322.802734"/>
    </g>
   </g>
  </g>
 </g>
 <defs>
  <clipPath id="pdc56e7e55c">
   <rect x="56.450156" y="21.789375" width="558" height="332.64"/>
  </clipPath>
 </defs>
</svg>