<?xml version="1.0" encoding="UTF-8" standalone="no"?>
<!DOCTYPE svg PUBLIC "-//W3C//DTD SVG 1.1//EN"
 "http://www.w3.org/Graphics/SVG/1.1/DTD/svg11.dtd">
<!-- Generated by graphviz version 9.0.0 (0)
 -->
<!-- Pages: 1 -->
<svg width="631pt" height="369pt"
 viewBox="0.00 0.00 630.98 368.95" xmlns="http://www.w3.org/2000/svg" xmlns:xlink="http://www.w3.org/1999/xlink">
<g id="graph0" class="graph" transform="scale(1 1) rotate(0) translate(4 364.95)">
<polygon fill="white" stroke="none" points="-4,4 -4,-364.95 626.98,-364.95 626.98,4 -4,4"/>
<g id="clust1" class="cluster">
<title>cluster333</title>
<path fill="none" stroke="black" d="M20,-8C20,-8 102,-8 102,-8 108,-8 114,-14 114,-20 114,-20 114,-227.73 114,-227.73 114,-233.73 108,-239.73 102,-239.73 102,-239.73 20,-239.73 20,-239.73 14,-239.73 8,-233.73 8,-227.73 8,-227.73 8,-20 8,-20 8,-14 14,-8 20,-8"/>
<text text-anchor="middle" x="95.88" y="-15.2" font-family="Times,serif" font-size="14.00">333</text>
</g>
<g id="clust2" class="cluster">
<title>clusterspecies (3)</title>
<path fill="none" stroke="black" d="M134,-129.82C134,-129.82 342,-129.82 342,-129.82 348,-129.82 354,-135.82 354,-141.82 354,-141.82 354,-239.63 354,-239.63 354,-245.63 348,-251.63 342,-251.63 342,-251.63 134,-251.63 134,-251.63 128,-251.63 122,-245.63 122,-239.63 122,-239.63 122,-141.82 122,-141.82 122,-135.82 128,-129.82 134,-129.82"/>
<text text-anchor="middle" x="316.75" y="-137.02" font-family="Times,serif" font-size="14.00">species (3)</text>
</g>
<!-- y -->
<g id="node1" class="node">
<title>y</title>
<ellipse fill="lightgrey" stroke="black" cx="65" cy="-81.16" rx="41.01" ry="40.66"/>
<text text-anchor="middle" x="65" y="-92.61" font-family="Times,serif" font-size="14.00">y</text>
<text text-anchor="middle" x="65" y="-76.11" font-family="Times,serif" font-size="14.00">~</text>
<text text-anchor="middle" x="65" y="-59.61" font-family="Times,serif" font-size="14.00">Normal</text>
</g>
<!-- species_idx -->
<g id="node2" class="node">
<title>species_idx</title>
<path fill="lightgrey" stroke="black" d="M93.75,-231.73C93.75,-231.73 28.25,-231.73 28.25,-231.73 22.25,-231.73 16.25,-225.73 16.25,-219.73 16.25,-219.73 16.25,-186.23 16.25,-186.23 16.25,-180.23 22.25,-174.23 28.25,-174.23 28.25,-174.23 93.75,-174.23 93.75,-174.23 99.75,-174.23 105.75,-180.23 105.75,-186.23 105.75,-186.23 105.75,-219.73 105.75,-219.73 105.75,-225.73 99.75,-231.73 93.75,-231.73"/>
<text text-anchor="middle" x="61" y="-214.43" font-family="Times,serif" font-size="14.00">species_idx</text>
<text text-anchor="middle" x="61" y="-197.93" font-family="Times,serif" font-size="14.00">~</text>
<text text-anchor="middle" x="61" y="-181.43" font-family="Times,serif" font-size="14.00">ConstantData</text>
</g>
<!-- species_idx&#45;&gt;y -->
<g id="edge5" class="edge">
<title>species_idx&#45;&gt;y</title>
<path fill="none" stroke="black" d="M61.94,-173.88C62.34,-161.78 62.83,-147.23 63.29,-133.33"/>
<polygon fill="black" stroke="black" points="66.79,-133.49 63.62,-123.38 59.79,-133.26 66.79,-133.49"/>
</g>
<!-- sigma_sd -->
<g id="node3" class="node">
<title>sigma_sd</title>
<ellipse fill="none" stroke="black" cx="565" cy="-320.29" rx="57.98" ry="40.66"/>
<text text-anchor="middle" x="565" y="-331.74" font-family="Times,serif" font-size="14.00">sigma_sd</text>
<text text-anchor="middle" x="565" y="-315.24" font-family="Times,serif" font-size="14.00">~</text>
<text text-anchor="middle" x="565" y="-298.74" font-family="Times,serif" font-size="14.00">HalfNormal</text>
</g>
<!-- mu_mean -->
<g id="node4" class="node">
<title>mu_mean</title>
<ellipse fill="none" stroke="black" cx="305" cy="-320.29" rx="50.03" ry="40.66"/>
<text text-anchor="middle" x="305" y="-331.74" font-family="Times,serif" font-size="14.00">mu_mean</text>
<text text-anchor="middle" x="305" y="-315.24" font-family="Times,serif" font-size="14.00">~</text>
<text text-anchor="middle" x="305" y="-298.74" font-family="Times,serif" font-size="14.00">Normal</text>
</g>
<!-- mu -->
<g id="node8" class="node">
<title>mu</title>
<ellipse fill="none" stroke="black" cx="305" cy="-202.98" rx="41.01" ry="40.66"/>
<text text-anchor="middle" x="305" y="-214.43" font-family="Times,serif" font-size="14.00">mu</text>
<text text-anchor="middle" x="305" y="-197.93" font-family="Times,serif" font-size="14.00">~</text>
<text text-anchor="middle" x="305" y="-181.43" font-family="Times,serif" font-size="14.00">Normal</text>
</g>
<!-- mu_mean&#45;&gt;mu -->
<g id="edge1" class="edge">
<title>mu_mean&#45;&gt;mu</title>
<path fill="none" stroke="black" d="M305,-279.28C305,-271.5 305,-263.25 305,-255.16"/>
<polygon fill="black" stroke="black" points="308.5,-255.43 305,-245.43 301.5,-255.43 308.5,-255.43"/>
</g>
<!-- sigma_mean -->
<g id="node5" class="node">
<title>sigma_mean</title>
<ellipse fill="none" stroke="black" cx="176" cy="-320.29" rx="60.63" ry="40.66"/>
<text text-anchor="middle" x="176" y="-331.74" font-family="Times,serif" font-size="14.00">sigma_mean</text>
<text text-anchor="middle" x="176" y="-315.24" font-family="Times,serif" font-size="14.00">~</text>
<text text-anchor="middle" x="176" y="-298.74" font-family="Times,serif" font-size="14.00">HalfNormal</text>
</g>
<!-- sigma -->
<g id="node7" class="node">
<title>sigma</title>
<ellipse fill="none" stroke="black" cx="188" cy="-202.98" rx="57.98" ry="40.66"/>
<text text-anchor="middle" x="188" y="-214.43" font-family="Times,serif" font-size="14.00">sigma</text>
<text text-anchor="middle" x="188" y="-197.93" font-family="Times,serif" font-size="14.00">~</text>
<text text-anchor="middle" x="188" y="-181.43" font-family="Times,serif" font-size="14.00">HalfNormal</text>
</g>
<!-- sigma_mean&#45;&gt;sigma -->
<g id="edge3" class="edge">
<title>sigma_mean&#45;&gt;sigma</title>
<path fill="none" stroke="black" d="M180.16,-279.28C180.97,-271.5 181.83,-263.25 182.67,-255.16"/>
<polygon fill="black" stroke="black" points="186.13,-255.73 183.69,-245.42 179.17,-255 186.13,-255.73"/>
</g>
<!-- mu_sd -->
<g id="node6" class="node">
<title>mu_sd</title>
<ellipse fill="none" stroke="black" cx="431" cy="-320.29" rx="57.98" ry="40.66"/>
<text text-anchor="middle" x="431" y="-331.74" font-family="Times,serif" font-size="14.00">mu_sd</text>
<text text-anchor="middle" x="431" y="-315.24" font-family="Times,serif" font-size="14.00">~</text>
<text text-anchor="middle" x="431" y="-298.74" font-family="Times,serif" font-size="14.00">HalfNormal</text>
</g>
<!-- mu_sd&#45;&gt;mu -->
<g id="edge2" class="edge">
<title>mu_sd&#45;&gt;mu</title>
<path fill="none" stroke="black" d="M396.24,-287.48C379.71,-272.35 359.92,-254.24 342.99,-238.75"/>
<polygon fill="black" stroke="black" points="345.8,-236.57 336.06,-232.4 341.08,-241.74 345.8,-236.57"/>
</g>
<!-- sigma&#45;&gt;y -->
<g id="edge4" class="edge">
<title>sigma&#45;&gt;y</title>
<path fill="none" stroke="black" d="M156.41,-168.46C144.54,-156.13 130.82,-142.17 118,-129.82 113.37,-125.36 108.45,-120.76 103.53,-116.24"/>
<polygon fill="black" stroke="black" points="106.19,-113.93 96.44,-109.79 101.48,-119.11 106.19,-113.93"/>
</g>
<!-- mu&#45;&gt;y -->
<g id="edge6" class="edge">
<title>mu&#45;&gt;y</title>
<path fill="none" stroke="black" d="M287.3,-166.15C279.14,-152.96 268.29,-139.01 255,-129.82 214.19,-101.58 158.16,-90.05 117.53,-85.35"/>
<polygon fill="black" stroke="black" points="118.05,-81.89 107.75,-84.33 117.33,-88.85 118.05,-81.89"/>
</g>
</g>
</svg>