<?xml version="1.0" encoding="UTF-8" standalone="no"?>
<!DOCTYPE svg PUBLIC "-//W3C//DTD SVG 1.1//EN"
 "http://www.w3.org/Graphics/SVG/1.1/DTD/svg11.dtd">
<!-- Generated by graphviz version 9.0.0 (0)
 -->
<!-- Pages: 1 -->
<svg width="433pt" height="380pt"
 viewBox="0.00 0.00 432.53 380.45" xmlns="http://www.w3.org/2000/svg" xmlns:xlink="http://www.w3.org/1999/xlink">
<g id="graph0" class="graph" transform="scale(1 1) rotate(0) translate(4 376.45)">
<polygon fill="white" stroke="none" points="-4,4 -4,-376.45 428.53,-376.45 428.53,4 -4,4"/>
<g id="clust1" class="cluster">
<title>clusteri (1)</title>
<path fill="none" stroke="black" d="M137.98,-8C137.98,-8 219.98,-8 219.98,-8 225.98,-8 231.98,-14 231.98,-20 231.98,-20 231.98,-352.45 231.98,-352.45 231.98,-358.45 225.98,-364.45 219.98,-364.45 219.98,-364.45 137.98,-364.45 137.98,-364.45 131.98,-364.45 125.98,-358.45 125.98,-352.45 125.98,-352.45 125.98,-20 125.98,-20 125.98,-14 131.98,-8 137.98,-8"/>
<text text-anchor="middle" x="212.36" y="-15.2" font-family="Times,serif" font-size="14.00">i (1)</text>
</g>
<!-- sigma_y -->
<g id="node1" class="node">
<title>sigma_y</title>
<ellipse fill="none" stroke="black" cx="57.98" cy="-198.48" rx="57.98" ry="40.66"/>
<text text-anchor="middle" x="57.98" y="-209.93" font-family="Times,serif" font-size="14.00">sigma_y</text>
<text text-anchor="middle" x="57.98" y="-193.43" font-family="Times,serif" font-size="14.00">~</text>
<text text-anchor="middle" x="57.98" y="-176.93" font-family="Times,serif" font-size="14.00">HalfNormal</text>
</g>
<!-- y -->
<g id="node5" class="node">
<title>y</title>
<ellipse fill="none" stroke="black" cx="176.98" cy="-81.16" rx="41.01" ry="40.66"/>
<text text-anchor="middle" x="176.98" y="-92.61" font-family="Times,serif" font-size="14.00">y</text>
<text text-anchor="middle" x="176.98" y="-76.11" font-family="Times,serif" font-size="14.00">~</text>
<text text-anchor="middle" x="176.98" y="-59.61" font-family="Times,serif" font-size="14.00">Normal</text>
</g>
<!-- sigma_y&#45;&gt;y -->
<g id="edge5" class="edge">
<title>sigma_y&#45;&gt;y</title>
<path fill="none" stroke="black" d="M91.45,-165.05C106.55,-150.41 124.44,-133.07 139.95,-118.05"/>
<polygon fill="black" stroke="black" points="141.98,-120.95 146.72,-111.48 137.11,-115.93 141.98,-120.95"/>
</g>
<!-- beta_xy -->
<g id="node2" class="node">
<title>beta_xy</title>
<ellipse fill="none" stroke="black" cx="281.98" cy="-315.79" rx="41.54" ry="40.66"/>
<text text-anchor="middle" x="281.98" y="-327.24" font-family="Times,serif" font-size="14.00">beta_xy</text>
<text text-anchor="middle" x="281.98" y="-310.74" font-family="Times,serif" font-size="14.00">~</text>
<text text-anchor="middle" x="281.98" y="-294.24" font-family="Times,serif" font-size="14.00">Normal</text>
</g>
<!-- y_mu -->
<g id="node4" class="node">
<title>y_mu</title>
<polygon fill="none" stroke="black" points="224.11,-227.23 133.86,-227.23 133.86,-169.73 224.11,-169.73 224.11,-227.23"/>
<text text-anchor="middle" x="178.98" y="-209.93" font-family="Times,serif" font-size="14.00">y_mu</text>
<text text-anchor="middle" x="178.98" y="-193.43" font-family="Times,serif" font-size="14.00">~</text>
<text text-anchor="middle" x="178.98" y="-176.93" font-family="Times,serif" font-size="14.00">Deterministic</text>
</g>
<!-- beta_xy&#45;&gt;y_mu -->
<g id="edge1" class="edge">
<title>beta_xy&#45;&gt;y_mu</title>
<path fill="none" stroke="black" d="M254.92,-284.49C241.64,-269.63 225.55,-251.61 211.6,-235.99"/>
<polygon fill="black" stroke="black" points="214.38,-233.85 205.11,-228.72 209.16,-238.51 214.38,-233.85"/>
</g>
<!-- beta_y0 -->
<g id="node3" class="node">
<title>beta_y0</title>
<ellipse fill="none" stroke="black" cx="382.98" cy="-315.79" rx="41.54" ry="40.66"/>
<text text-anchor="middle" x="382.98" y="-327.24" font-family="Times,serif" font-size="14.00">beta_y0</text>
<text text-anchor="middle" x="382.98" y="-310.74" font-family="Times,serif" font-size="14.00">~</text>
<text text-anchor="middle" x="382.98" y="-294.24" font-family="Times,serif" font-size="14.00">Normal</text>
</g>
<!-- beta_y0&#45;&gt;y_mu -->
<g id="edge2" class="edge">
<title>beta_y0&#45;&gt;y_mu</title>
<path fill="none" stroke="black" d="M351.73,-288.35C345.67,-283.71 339.26,-279.1 332.98,-275.13 301.79,-255.42 264.72,-237.07 234.76,-223.37"/>
<polygon fill="black" stroke="black" points="236.42,-220.28 225.87,-219.35 233.54,-226.66 236.42,-220.28"/>
</g>
<!-- y_mu&#45;&gt;y -->
<g id="edge4" class="edge">
<title>y_mu&#45;&gt;y</title>
<path fill="none" stroke="black" d="M178.49,-169.27C178.31,-158.44 178.09,-145.73 177.87,-133.41"/>
<polygon fill="black" stroke="black" points="181.38,-133.72 177.7,-123.78 174.38,-133.84 181.38,-133.72"/>
</g>
<!-- x -->
<g id="node6" class="node">
<title>x</title>
<ellipse fill="none" stroke="black" cx="178.98" cy="-315.79" rx="41.01" ry="40.66"/>
<text text-anchor="middle" x="178.98" y="-327.24" font-family="Times,serif" font-size="14.00">x</text>
<text text-anchor="middle" x="178.98" y="-310.74" font-family="Times,serif" font-size="14.00">~</text>
<text text-anchor="middle" x="178.98" y="-294.24" font-family="Times,serif" font-size="14.00">Normal</text>
</g>
<!-- x&#45;&gt;y_mu -->
<g id="edge3" class="edge">
<title>x&#45;&gt;y_mu</title>
<path fill="none" stroke="black" d="M178.98,-274.78C178.98,-263.08 178.98,-250.29 178.98,-238.64"/>
<polygon fill="black" stroke="black" points="182.48,-238.95 178.98,-228.95 175.48,-238.95 182.48,-238.95"/>
</g>
</g>
</svg>