<?xml version="1.0" encoding="UTF-8" standalone="no"?>
<!DOCTYPE svg PUBLIC "-//W3C//DTD SVG 1.1//EN"
 "http://www.w3.org/Graphics/SVG/1.1/DTD/svg11.dtd">
<!-- Generated by graphviz version 9.0.0 (0)
 -->
<!-- Pages: 1 -->
<svg width="746pt" height="462pt"
 viewBox="0.00 0.00 745.73 462.45" xmlns="http://www.w3.org/2000/svg" xmlns:xlink="http://www.w3.org/1999/xlink">
<g id="graph0" class="graph" transform="scale(1 1) rotate(0) translate(4 458.45)">
<polygon fill="white" stroke="none" points="-4,4 -4,-458.45 741.73,-458.45 741.73,4 -4,4"/>
<g id="clust1" class="cluster">
<title>clustergroup (5)</title>
<path fill="none" stroke="black" d="M192.73,-223.32C192.73,-223.32 500.73,-223.32 500.73,-223.32 506.73,-223.32 512.73,-229.32 512.73,-235.32 512.73,-235.32 512.73,-333.13 512.73,-333.13 512.73,-339.13 506.73,-345.13 500.73,-345.13 500.73,-345.13 192.73,-345.13 192.73,-345.13 186.73,-345.13 180.73,-339.13 180.73,-333.13 180.73,-333.13 180.73,-235.32 180.73,-235.32 180.73,-229.32 186.73,-223.32 192.73,-223.32"/>
<text text-anchor="middle" x="479.23" y="-230.52" font-family="Times,serif" font-size="14.00">group (5)</text>
</g>
<g id="clust2" class="cluster">
<title>clusterobs_id (100)</title>
<path fill="none" stroke="black" d="M532.73,-8C532.73,-8 717.73,-8 717.73,-8 723.73,-8 729.73,-14 729.73,-20 729.73,-20 729.73,-321.23 729.73,-321.23 729.73,-327.23 723.73,-333.23 717.73,-333.23 717.73,-333.23 532.73,-333.23 532.73,-333.23 526.73,-333.23 520.73,-327.23 520.73,-321.23 520.73,-321.23 520.73,-20 520.73,-20 520.73,-14 526.73,-8 532.73,-8"/>
<text text-anchor="middle" x="687.23" y="-15.2" font-family="Times,serif" font-size="14.00">obs_id (100)</text>
</g>
<!-- intercept_sigma -->
<g id="node1" class="node">
<title>intercept_sigma</title>
<ellipse fill="none" stroke="black" cx="645.73" cy="-413.79" rx="72.83" ry="40.66"/>
<text text-anchor="middle" x="645.73" y="-425.24" font-family="Times,serif" font-size="14.00">intercept_sigma</text>
<text text-anchor="middle" x="645.73" y="-408.74" font-family="Times,serif" font-size="14.00">~</text>
<text text-anchor="middle" x="645.73" y="-392.24" font-family="Times,serif" font-size="14.00">HalfNormal</text>
</g>
<!-- β0 -->
<g id="node7" class="node">
<title>β0</title>
<ellipse fill="none" stroke="black" cx="463.73" cy="-296.48" rx="41.01" ry="40.66"/>
<text text-anchor="middle" x="463.73" y="-307.93" font-family="Times,serif" font-size="14.00">β0</text>
<text text-anchor="middle" x="463.73" y="-291.43" font-family="Times,serif" font-size="14.00">~</text>
<text text-anchor="middle" x="463.73" y="-274.93" font-family="Times,serif" font-size="14.00">Normal</text>
</g>
<!-- intercept_sigma&#45;&gt;β0 -->
<g id="edge2" class="edge">
<title>intercept_sigma&#45;&gt;β0</title>
<path fill="none" stroke="black" d="M591.87,-386.24C562.77,-371.56 530.12,-354.45 516.73,-345.13 511.45,-341.47 506.14,-337.33 501.02,-333.06"/>
<polygon fill="black" stroke="black" points="503.63,-330.69 493.78,-326.81 499.06,-335.99 503.63,-330.69"/>
</g>
<!-- slope_mu -->
<g id="node2" class="node">
<title>slope_mu</title>
<ellipse fill="none" stroke="black" cx="363.73" cy="-413.79" rx="48.97" ry="40.66"/>
<text text-anchor="middle" x="363.73" y="-425.24" font-family="Times,serif" font-size="14.00">slope_mu</text>
<text text-anchor="middle" x="363.73" y="-408.74" font-family="Times,serif" font-size="14.00">~</text>
<text text-anchor="middle" x="363.73" y="-392.24" font-family="Times,serif" font-size="14.00">Normal</text>
</g>
<!-- β1 -->
<g id="node8" class="node">
<title>β1</title>
<ellipse fill="none" stroke="black" cx="363.73" cy="-296.48" rx="41.01" ry="40.66"/>
<text text-anchor="middle" x="363.73" y="-307.93" font-family="Times,serif" font-size="14.00">β1</text>
<text text-anchor="middle" x="363.73" y="-291.43" font-family="Times,serif" font-size="14.00">~</text>
<text text-anchor="middle" x="363.73" y="-274.93" font-family="Times,serif" font-size="14.00">Normal</text>
</g>
<!-- slope_mu&#45;&gt;β1 -->
<g id="edge5" class="edge">
<title>slope_mu&#45;&gt;β1</title>
<path fill="none" stroke="black" d="M363.73,-372.78C363.73,-365 363.73,-356.75 363.73,-348.66"/>
<polygon fill="black" stroke="black" points="367.23,-348.93 363.73,-338.93 360.23,-348.93 367.23,-348.93"/>
</g>
<!-- intercept_mu -->
<g id="node3" class="node">
<title>intercept_mu</title>
<ellipse fill="none" stroke="black" cx="492.73" cy="-413.79" rx="62.23" ry="40.66"/>
<text text-anchor="middle" x="492.73" y="-425.24" font-family="Times,serif" font-size="14.00">intercept_mu</text>
<text text-anchor="middle" x="492.73" y="-408.74" font-family="Times,serif" font-size="14.00">~</text>
<text text-anchor="middle" x="492.73" y="-392.24" font-family="Times,serif" font-size="14.00">Normal</text>
</g>
<!-- intercept_mu&#45;&gt;β0 -->
<g id="edge3" class="edge">
<title>intercept_mu&#45;&gt;β0</title>
<path fill="none" stroke="black" d="M482.83,-373.43C480.7,-364.99 478.43,-355.96 476.23,-347.19"/>
<polygon fill="black" stroke="black" points="479.68,-346.58 473.85,-337.74 472.9,-348.29 479.68,-346.58"/>
</g>
<!-- slope_sigma -->
<g id="node4" class="node">
<title>slope_sigma</title>
<ellipse fill="none" stroke="black" cx="236.73" cy="-413.79" rx="59.57" ry="40.66"/>
<text text-anchor="middle" x="236.73" y="-425.24" font-family="Times,serif" font-size="14.00">slope_sigma</text>
<text text-anchor="middle" x="236.73" y="-408.74" font-family="Times,serif" font-size="14.00">~</text>
<text text-anchor="middle" x="236.73" y="-392.24" font-family="Times,serif" font-size="14.00">HalfNormal</text>
</g>
<!-- slope_sigma&#45;&gt;β1 -->
<g id="edge4" class="edge">
<title>slope_sigma&#45;&gt;β1</title>
<path fill="none" stroke="black" d="M273.03,-381.43C285.98,-370.1 300.6,-357.15 313.73,-345.13 317.88,-341.34 322.19,-337.33 326.46,-333.32"/>
<polygon fill="black" stroke="black" points="328.6,-336.1 333.47,-326.69 323.8,-331.02 328.6,-336.1"/>
</g>
<!-- sigma_hyperprior -->
<g id="node5" class="node">
<title>sigma_hyperprior</title>
<ellipse fill="none" stroke="black" cx="79.73" cy="-413.79" rx="79.73" ry="40.66"/>
<text text-anchor="middle" x="79.73" y="-425.24" font-family="Times,serif" font-size="14.00">sigma_hyperprior</text>
<text text-anchor="middle" x="79.73" y="-408.74" font-family="Times,serif" font-size="14.00">~</text>
<text text-anchor="middle" x="79.73" y="-392.24" font-family="Times,serif" font-size="14.00">HalfNormal</text>
</g>
<!-- sigma -->
<g id="node6" class="node">
<title>sigma</title>
<ellipse fill="none" stroke="black" cx="246.73" cy="-296.48" rx="57.98" ry="40.66"/>
<text text-anchor="middle" x="246.73" y="-307.93" font-family="Times,serif" font-size="14.00">sigma</text>
<text text-anchor="middle" x="246.73" y="-291.43" font-family="Times,serif" font-size="14.00">~</text>
<text text-anchor="middle" x="246.73" y="-274.93" font-family="Times,serif" font-size="14.00">HalfNormal</text>
</g>
<!-- sigma_hyperprior&#45;&gt;sigma -->
<g id="edge1" class="edge">
<title>sigma_hyperprior&#45;&gt;sigma</title>
<path fill="none" stroke="black" d="M126.25,-380.67C148.12,-365.57 174.23,-347.54 196.55,-332.13"/>
<polygon fill="black" stroke="black" points="198.37,-335.12 204.61,-326.56 194.39,-329.36 198.37,-335.12"/>
</g>
<!-- y -->
<g id="node10" class="node">
<title>y</title>
<ellipse fill="lightgrey" stroke="black" cx="573.73" cy="-81.16" rx="41.01" ry="40.66"/>
<text text-anchor="middle" x="573.73" y="-92.61" font-family="Times,serif" font-size="14.00">y</text>
<text text-anchor="middle" x="573.73" y="-76.11" font-family="Times,serif" font-size="14.00">~</text>
<text text-anchor="middle" x="573.73" y="-59.61" font-family="Times,serif" font-size="14.00">Normal</text>
</g>
<!-- sigma&#45;&gt;y -->
<g id="edge11" class="edge">
<title>sigma&#45;&gt;y</title>
<path fill="none" stroke="black" d="M275.01,-260.53C286.25,-247.9 299.82,-234.11 313.73,-223.32 381.44,-170.77 471.35,-126.75 525.75,-102.47"/>
<polygon fill="black" stroke="black" points="527.02,-105.73 534.76,-98.49 524.19,-99.33 527.02,-105.73"/>
</g>
<!-- μ -->
<g id="node9" class="node">
<title>μ</title>
<polygon fill="none" stroke="black" points="618.85,-215.32 528.6,-215.32 528.6,-157.82 618.85,-157.82 618.85,-215.32"/>
<text text-anchor="middle" x="573.73" y="-198.02" font-family="Times,serif" font-size="14.00">μ</text>
<text text-anchor="middle" x="573.73" y="-181.52" font-family="Times,serif" font-size="14.00">~</text>
<text text-anchor="middle" x="573.73" y="-165.02" font-family="Times,serif" font-size="14.00">Deterministic</text>
</g>
<!-- β0&#45;&gt;μ -->
<g id="edge7" class="edge">
<title>β0&#45;&gt;μ</title>
<path fill="none" stroke="black" d="M484.81,-261.37C493.71,-248.56 504.77,-234.43 516.73,-223.32 517.62,-222.48 518.55,-221.66 519.48,-220.84"/>
<polygon fill="black" stroke="black" points="521.55,-223.67 527.18,-214.69 517.18,-218.2 521.55,-223.67"/>
</g>
<!-- β1&#45;&gt;μ -->
<g id="edge6" class="edge">
<title>β1&#45;&gt;μ</title>
<path fill="none" stroke="black" d="M381.3,-259.48C389.45,-246.26 400.32,-232.34 413.73,-223.32 444.14,-202.85 484.46,-193.93 517.01,-190.11"/>
<polygon fill="black" stroke="black" points="517.08,-193.63 526.67,-189.12 516.36,-186.66 517.08,-193.63"/>
</g>
<!-- μ&#45;&gt;y -->
<g id="edge10" class="edge">
<title>μ&#45;&gt;y</title>
<path fill="none" stroke="black" d="M573.73,-157.58C573.73,-150.1 573.73,-141.77 573.73,-133.45"/>
<polygon fill="black" stroke="black" points="577.23,-133.71 573.73,-123.71 570.23,-133.71 577.23,-133.71"/>
</g>
<!-- x -->
<g id="node11" class="node">
<title>x</title>
<path fill="lightgrey" stroke="black" d="M604.35,-325.23C604.35,-325.23 541.1,-325.23 541.1,-325.23 535.1,-325.23 529.1,-319.23 529.1,-313.23 529.1,-313.23 529.1,-279.73 529.1,-279.73 529.1,-273.73 535.1,-267.73 541.1,-267.73 541.1,-267.73 604.35,-267.73 604.35,-267.73 610.35,-267.73 616.35,-273.73 616.35,-279.73 616.35,-279.73 616.35,-313.23 616.35,-313.23 616.35,-319.23 610.35,-325.23 604.35,-325.23"/>
<text text-anchor="middle" x="572.73" y="-307.93" font-family="Times,serif" font-size="14.00">x</text>
<text text-anchor="middle" x="572.73" y="-291.43" font-family="Times,serif" font-size="14.00">~</text>
<text text-anchor="middle" x="572.73" y="-274.93" font-family="Times,serif" font-size="14.00">MutableData</text>
</g>
<!-- x&#45;&gt;μ -->
<g id="edge8" class="edge">
<title>x&#45;&gt;μ</title>
<path fill="none" stroke="black" d="M572.99,-267.41C573.1,-255.04 573.24,-240.3 573.36,-226.87"/>
<polygon fill="black" stroke="black" points="576.86,-227.04 573.45,-217.01 569.86,-226.98 576.86,-227.04"/>
</g>
<!-- g -->
<g id="node12" class="node">
<title>g</title>
<path fill="lightgrey" stroke="black" d="M709.35,-325.23C709.35,-325.23 646.1,-325.23 646.1,-325.23 640.1,-325.23 634.1,-319.23 634.1,-313.23 634.1,-313.23 634.1,-279.73 634.1,-279.73 634.1,-273.73 640.1,-267.73 646.1,-267.73 646.1,-267.73 709.35,-267.73 709.35,-267.73 715.35,-267.73 721.35,-273.73 721.35,-279.73 721.35,-279.73 721.35,-313.23 721.35,-313.23 721.35,-319.23 715.35,-325.23 709.35,-325.23"/>
<text text-anchor="middle" x="677.73" y="-307.93" font-family="Times,serif" font-size="14.00">g</text>
<text text-anchor="middle" x="677.73" y="-291.43" font-family="Times,serif" font-size="14.00">~</text>
<text text-anchor="middle" x="677.73" y="-274.93" font-family="Times,serif" font-size="14.00">MutableData</text>
</g>
<!-- g&#45;&gt;μ -->
<g id="edge9" class="edge">
<title>g&#45;&gt;μ</title>
<path fill="none" stroke="black" d="M660.74,-267.34C652.67,-255.09 642.31,-240.81 625.44,-223.75"/>
<polygon fill="black" stroke="black" points="627.89,-221.26 618.29,-216.77 623,-226.27 627.89,-221.26"/>
</g>
<!-- g&#45;&gt;y -->
<g id="edge12" class="edge">
<title>g&#45;&gt;y</title>
<path fill="none" stroke="black" d="M669.97,-267.38C661.55,-238.88 646.72,-193.94 627.73,-157.82 621.51,-146 613.67,-133.91 605.9,-122.97"/>
<polygon fill="black" stroke="black" points="608.75,-120.93 600.03,-114.91 603.09,-125.05 608.75,-120.93"/>
</g>
</g>
</svg>