<?xml version="1.0" encoding="UTF-8" standalone="no"?>
<!DOCTYPE svg PUBLIC "-//W3C//DTD SVG 1.1//EN"
 "http://www.w3.org/Graphics/SVG/1.1/DTD/svg11.dtd">
<!-- Generated by graphviz version 9.0.0 (0)
 -->
<!-- Pages: 1 -->
<svg width="363pt" height="247pt"
 viewBox="0.00 0.00 363.27 247.13" xmlns="http://www.w3.org/2000/svg" xmlns:xlink="http://www.w3.org/1999/xlink">
<g id="graph0" class="graph" transform="scale(1 1) rotate(0) translate(4 243.13)">
<polygon fill="white" stroke="none" points="-4,4 -4,-243.13 359.27,-243.13 359.27,4 -4,4"/>
<g id="clust1" class="cluster">
<title>clusterReaction_obs (144)</title>
<path fill="none" stroke="black" d="M133.25,-8C133.25,-8 231.25,-8 231.25,-8 237.25,-8 243.25,-14 243.25,-20 243.25,-20 243.25,-117.82 243.25,-117.82 243.25,-123.82 237.25,-129.82 231.25,-129.82 231.25,-129.82 133.25,-129.82 133.25,-129.82 127.25,-129.82 121.25,-123.82 121.25,-117.82 121.25,-117.82 121.25,-20 121.25,-20 121.25,-14 127.25,-8 133.25,-8"/>
<text text-anchor="middle" x="182" y="-15.2" font-family="Times,serif" font-size="14.00">Reaction_obs (144)</text>
</g>
<!-- Intercept -->
<g id="node1" class="node">
<title>Intercept</title>
<ellipse fill="none" stroke="black" cx="45.25" cy="-198.48" rx="45.25" ry="40.66"/>
<text text-anchor="middle" x="45.25" y="-209.93" font-family="Times,serif" font-size="14.00">Intercept</text>
<text text-anchor="middle" x="45.25" y="-193.43" font-family="Times,serif" font-size="14.00">~</text>
<text text-anchor="middle" x="45.25" y="-176.93" font-family="Times,serif" font-size="14.00">Normal</text>
</g>
<!-- Reaction -->
<g id="node4" class="node">
<title>Reaction</title>
<ellipse fill="lightgrey" stroke="black" cx="182.25" cy="-81.16" rx="45.25" ry="40.66"/>
<text text-anchor="middle" x="182.25" y="-92.61" font-family="Times,serif" font-size="14.00">Reaction</text>
<text text-anchor="middle" x="182.25" y="-76.11" font-family="Times,serif" font-size="14.00">~</text>
<text text-anchor="middle" x="182.25" y="-59.61" font-family="Times,serif" font-size="14.00">Normal</text>
</g>
<!-- Intercept&#45;&gt;Reaction -->
<g id="edge1" class="edge">
<title>Intercept&#45;&gt;Reaction</title>
<path fill="none" stroke="black" d="M78.07,-169.85C96.96,-153.95 120.88,-133.82 141.04,-116.85"/>
<polygon fill="black" stroke="black" points="143.15,-119.65 148.55,-110.53 138.65,-114.29 143.15,-119.65"/>
</g>
<!-- Reaction_sigma -->
<g id="node2" class="node">
<title>Reaction_sigma</title>
<ellipse fill="none" stroke="black" cx="182.25" cy="-198.48" rx="73.36" ry="40.66"/>
<text text-anchor="middle" x="182.25" y="-209.93" font-family="Times,serif" font-size="14.00">Reaction_sigma</text>
<text text-anchor="middle" x="182.25" y="-193.43" font-family="Times,serif" font-size="14.00">~</text>
<text text-anchor="middle" x="182.25" y="-176.93" font-family="Times,serif" font-size="14.00">HalfStudentT</text>
</g>
<!-- Reaction_sigma&#45;&gt;Reaction -->
<g id="edge2" class="edge">
<title>Reaction_sigma&#45;&gt;Reaction</title>
<path fill="none" stroke="black" d="M182.25,-157.47C182.25,-149.69 182.25,-141.43 182.25,-133.34"/>
<polygon fill="black" stroke="black" points="185.75,-133.61 182.25,-123.61 178.75,-133.61 185.75,-133.61"/>
</g>
<!-- Days -->
<g id="node3" class="node">
<title>Days</title>
<ellipse fill="none" stroke="black" cx="314.25" cy="-198.48" rx="41.01" ry="40.66"/>
<text text-anchor="middle" x="314.25" y="-209.93" font-family="Times,serif" font-size="14.00">Days</text>
<text text-anchor="middle" x="314.25" y="-193.43" font-family="Times,serif" font-size="14.00">~</text>
<text text-anchor="middle" x="314.25" y="-176.93" font-family="Times,serif" font-size="14.00">Normal</text>
</g>
<!-- Days&#45;&gt;Reaction -->
<g id="edge3" class="edge">
<title>Days&#45;&gt;Reaction</title>
<path fill="none" stroke="black" d="M283.64,-170.73C265.46,-154.85 242.2,-134.53 222.54,-117.36"/>
<polygon fill="black" stroke="black" points="225.06,-114.9 215.22,-110.96 220.45,-120.17 225.06,-114.9"/>
</g>
</g>
</svg>