<?xml version="1.0" encoding="UTF-8" standalone="no"?>
<!DOCTYPE svg PUBLIC "-//W3C//DTD SVG 1.1//EN"
 "http://www.w3.org/Graphics/SVG/1.1/DTD/svg11.dtd">
<!-- Generated by graphviz version 9.0.0 (0)
 -->
<!-- Pages: 1 -->
<svg width="343pt" height="247pt"
 viewBox="0.00 0.00 343.27 247.13" xmlns="http://www.w3.org/2000/svg" xmlns:xlink="http://www.w3.org/1999/xlink">
<g id="graph0" class="graph" transform="scale(1 1) rotate(0) translate(4 243.13)">
<polygon fill="white" stroke="none" points="-4,4 -4,-243.13 339.27,-243.13 339.27,4 -4,4"/>
<g id="clust1" class="cluster">
<title>clustery_obs (103)</title>
<path fill="none" stroke="black" d="M135.25,-8C135.25,-8 209.25,-8 209.25,-8 215.25,-8 221.25,-14 221.25,-20 221.25,-20 221.25,-117.82 221.25,-117.82 221.25,-123.82 215.25,-129.82 209.25,-129.82 209.25,-129.82 135.25,-129.82 135.25,-129.82 129.25,-129.82 123.25,-123.82 123.25,-117.82 123.25,-117.82 123.25,-20 123.25,-20 123.25,-14 129.25,-8 135.25,-8"/>
<text text-anchor="middle" x="180.63" y="-15.2" font-family="Times,serif" font-size="14.00">y_obs (103)</text>
</g>
<!-- Intercept -->
<g id="node1" class="node">
<title>Intercept</title>
<ellipse fill="none" stroke="black" cx="45.25" cy="-198.48" rx="45.25" ry="40.66"/>
<text text-anchor="middle" x="45.25" y="-209.93" font-family="Times,serif" font-size="14.00">Intercept</text>
<text text-anchor="middle" x="45.25" y="-193.43" font-family="Times,serif" font-size="14.00">~</text>
<text text-anchor="middle" x="45.25" y="-176.93" font-family="Times,serif" font-size="14.00">Normal</text>
</g>
<!-- y -->
<g id="node4" class="node">
<title>y</title>
<ellipse fill="lightgrey" stroke="black" cx="172.25" cy="-81.16" rx="41.01" ry="40.66"/>
<text text-anchor="middle" x="172.25" y="-92.61" font-family="Times,serif" font-size="14.00">y</text>
<text text-anchor="middle" x="172.25" y="-76.11" font-family="Times,serif" font-size="14.00">~</text>
<text text-anchor="middle" x="172.25" y="-59.61" font-family="Times,serif" font-size="14.00">Normal</text>
</g>
<!-- Intercept&#45;&gt;y -->
<g id="edge1" class="edge">
<title>Intercept&#45;&gt;y</title>
<path fill="none" stroke="black" d="M76.65,-168.97C94.1,-153.12 115.95,-133.29 134.35,-116.58"/>
<polygon fill="black" stroke="black" points="136.36,-119.48 141.41,-110.17 131.65,-114.3 136.36,-119.48"/>
</g>
<!-- y_sigma -->
<g id="node2" class="node">
<title>y_sigma</title>
<ellipse fill="none" stroke="black" cx="172.25" cy="-198.48" rx="63.29" ry="40.66"/>
<text text-anchor="middle" x="172.25" y="-209.93" font-family="Times,serif" font-size="14.00">y_sigma</text>
<text text-anchor="middle" x="172.25" y="-193.43" font-family="Times,serif" font-size="14.00">~</text>
<text text-anchor="middle" x="172.25" y="-176.93" font-family="Times,serif" font-size="14.00">HalfStudentT</text>
</g>
<!-- y_sigma&#45;&gt;y -->
<g id="edge2" class="edge">
<title>y_sigma&#45;&gt;y</title>
<path fill="none" stroke="black" d="M172.25,-157.47C172.25,-149.69 172.25,-141.43 172.25,-133.34"/>
<polygon fill="black" stroke="black" points="175.75,-133.61 172.25,-123.61 168.75,-133.61 175.75,-133.61"/>
</g>
<!-- x -->
<g id="node3" class="node">
<title>x</title>
<ellipse fill="none" stroke="black" cx="294.25" cy="-198.48" rx="41.01" ry="40.66"/>
<text text-anchor="middle" x="294.25" y="-209.93" font-family="Times,serif" font-size="14.00">x</text>
<text text-anchor="middle" x="294.25" y="-193.43" font-family="Times,serif" font-size="14.00">~</text>
<text text-anchor="middle" x="294.25" y="-176.93" font-family="Times,serif" font-size="14.00">Normal</text>
</g>
<!-- x&#45;&gt;y -->
<g id="edge3" class="edge">
<title>x&#45;&gt;y</title>
<path fill="none" stroke="black" d="M264.72,-169.56C248.09,-153.84 227.16,-134.05 209.42,-117.28"/>
<polygon fill="black" stroke="black" points="212.29,-115.18 202.62,-110.86 207.48,-120.27 212.29,-115.18"/>
</g>
</g>
</svg>