<?xml version="1.0" encoding="UTF-8" standalone="no"?>
<!DOCTYPE svg PUBLIC "-//W3C//DTD SVG 1.1//EN"
 "http://www.w3.org/Graphics/SVG/1.1/DTD/svg11.dtd">
<!-- Generated by graphviz version 9.0.0 (0)
 -->
<!-- Pages: 1 -->
<svg width="556pt" height="498pt"
 viewBox="0.00 0.00 555.99 497.77" xmlns="http://www.w3.org/2000/svg" xmlns:xlink="http://www.w3.org/1999/xlink">
<g id="graph0" class="graph" transform="scale(1 1) rotate(0) translate(4 493.77)">
<polygon fill="white" stroke="none" points="-4,4 -4,-493.77 551.99,-493.77 551.99,4 -4,4"/>
<g id="clust1" class="cluster">
<title>clusteri (1)</title>
<path fill="none" stroke="black" d="M135.98,-8C135.98,-8 241.98,-8 241.98,-8 247.98,-8 253.98,-14 253.98,-20 253.98,-20 253.98,-469.77 253.98,-469.77 253.98,-475.77 247.98,-481.77 241.98,-481.77 241.98,-481.77 135.98,-481.77 135.98,-481.77 129.98,-481.77 123.98,-475.77 123.98,-469.77 123.98,-469.77 123.98,-20 123.98,-20 123.98,-14 129.98,-8 135.98,-8"/>
<text text-anchor="middle" x="234.36" y="-15.2" font-family="Times,serif" font-size="14.00">i (1)</text>
</g>
<!-- sigma_y -->
<g id="node1" class="node">
<title>sigma_y</title>
<ellipse fill="none" stroke="black" cx="57.98" cy="-198.48" rx="57.98" ry="40.66"/>
<text text-anchor="middle" x="57.98" y="-209.93" font-family="Times,serif" font-size="14.00">sigma_y</text>
<text text-anchor="middle" x="57.98" y="-193.43" font-family="Times,serif" font-size="14.00">~</text>
<text text-anchor="middle" x="57.98" y="-176.93" font-family="Times,serif" font-size="14.00">HalfNormal</text>
</g>
<!-- y -->
<g id="node10" class="node">
<title>y</title>
<ellipse fill="none" stroke="black" cx="185.98" cy="-81.16" rx="41.01" ry="40.66"/>
<text text-anchor="middle" x="185.98" y="-92.61" font-family="Times,serif" font-size="14.00">y</text>
<text text-anchor="middle" x="185.98" y="-76.11" font-family="Times,serif" font-size="14.00">~</text>
<text text-anchor="middle" x="185.98" y="-59.61" font-family="Times,serif" font-size="14.00">Normal</text>
</g>
<!-- sigma_y&#45;&gt;y -->
<g id="edge10" class="edge">
<title>sigma_y&#45;&gt;y</title>
<path fill="none" stroke="black" d="M92.96,-165.96C109.88,-150.72 130.23,-132.38 147.58,-116.75"/>
<polygon fill="black" stroke="black" points="149.62,-119.63 154.71,-110.34 144.93,-114.43 149.62,-119.63"/>
</g>
<!-- beta_zy -->
<g id="node2" class="node">
<title>beta_zy</title>
<ellipse fill="none" stroke="black" cx="304.98" cy="-315.79" rx="41.01" ry="40.66"/>
<text text-anchor="middle" x="304.98" y="-327.24" font-family="Times,serif" font-size="14.00">beta_zy</text>
<text text-anchor="middle" x="304.98" y="-310.74" font-family="Times,serif" font-size="14.00">~</text>
<text text-anchor="middle" x="304.98" y="-294.24" font-family="Times,serif" font-size="14.00">Normal</text>
</g>
<!-- y_mu -->
<g id="node8" class="node">
<title>y_mu</title>
<polygon fill="none" stroke="black" points="245.11,-227.23 154.86,-227.23 154.86,-169.73 245.11,-169.73 245.11,-227.23"/>
<text text-anchor="middle" x="199.98" y="-209.93" font-family="Times,serif" font-size="14.00">y_mu</text>
<text text-anchor="middle" x="199.98" y="-193.43" font-family="Times,serif" font-size="14.00">~</text>
<text text-anchor="middle" x="199.98" y="-176.93" font-family="Times,serif" font-size="14.00">Deterministic</text>
</g>
<!-- beta_zy&#45;&gt;y_mu -->
<g id="edge7" class="edge">
<title>beta_zy&#45;&gt;y_mu</title>
<path fill="none" stroke="black" d="M277.94,-285.1C264.31,-270.12 247.64,-251.82 233.23,-235.99"/>
<polygon fill="black" stroke="black" points="235.83,-233.64 226.51,-228.6 230.65,-238.35 235.83,-233.64"/>
</g>
<!-- beta_y0 -->
<g id="node3" class="node">
<title>beta_y0</title>
<ellipse fill="none" stroke="black" cx="405.98" cy="-315.79" rx="41.54" ry="40.66"/>
<text text-anchor="middle" x="405.98" y="-327.24" font-family="Times,serif" font-size="14.00">beta_y0</text>
<text text-anchor="middle" x="405.98" y="-310.74" font-family="Times,serif" font-size="14.00">~</text>
<text text-anchor="middle" x="405.98" y="-294.24" font-family="Times,serif" font-size="14.00">Normal</text>
</g>
<!-- beta_y0&#45;&gt;y_mu -->
<g id="edge4" class="edge">
<title>beta_y0&#45;&gt;y_mu</title>
<path fill="none" stroke="black" d="M374.61,-288.78C368.28,-284 361.55,-279.23 354.98,-275.13 323.39,-255.44 285.92,-237.02 255.74,-223.3"/>
<polygon fill="black" stroke="black" points="257.32,-220.17 246.77,-219.26 254.45,-226.56 257.32,-220.17"/>
</g>
<!-- beta_cz -->
<g id="node4" class="node">
<title>beta_cz</title>
<ellipse fill="none" stroke="black" cx="302.98" cy="-433.11" rx="41.01" ry="40.66"/>
<text text-anchor="middle" x="302.98" y="-444.56" font-family="Times,serif" font-size="14.00">beta_cz</text>
<text text-anchor="middle" x="302.98" y="-428.06" font-family="Times,serif" font-size="14.00">~</text>
<text text-anchor="middle" x="302.98" y="-411.56" font-family="Times,serif" font-size="14.00">Normal</text>
</g>
<!-- z -->
<g id="node9" class="node">
<title>z</title>
<ellipse fill="none" stroke="black" cx="198.98" cy="-315.79" rx="47.38" ry="40.66"/>
<text text-anchor="middle" x="198.98" y="-327.24" font-family="Times,serif" font-size="14.00">z</text>
<text text-anchor="middle" x="198.98" y="-310.74" font-family="Times,serif" font-size="14.00">~</text>
<text text-anchor="middle" x="198.98" y="-294.24" font-family="Times,serif" font-size="14.00">Bernoulli</text>
</g>
<!-- beta_cz&#45;&gt;z -->
<g id="edge2" class="edge">
<title>beta_cz&#45;&gt;z</title>
<path fill="none" stroke="black" d="M275.93,-402.11C263.55,-388.39 248.71,-371.93 235.37,-357.14"/>
<polygon fill="black" stroke="black" points="238.03,-354.86 228.73,-349.78 232.83,-359.55 238.03,-354.86"/>
</g>
<!-- beta_cy -->
<g id="node5" class="node">
<title>beta_cy</title>
<ellipse fill="none" stroke="black" cx="506.98" cy="-315.79" rx="41.01" ry="40.66"/>
<text text-anchor="middle" x="506.98" y="-327.24" font-family="Times,serif" font-size="14.00">beta_cy</text>
<text text-anchor="middle" x="506.98" y="-310.74" font-family="Times,serif" font-size="14.00">~</text>
<text text-anchor="middle" x="506.98" y="-294.24" font-family="Times,serif" font-size="14.00">Normal</text>
</g>
<!-- beta_cy&#45;&gt;y_mu -->
<g id="edge6" class="edge">
<title>beta_cy&#45;&gt;y_mu</title>
<path fill="none" stroke="black" d="M476.79,-287.86C470.53,-283.16 463.77,-278.65 456.98,-275.13 392.03,-241.45 309.86,-220.59 256.16,-209.52"/>
<polygon fill="black" stroke="black" points="257.13,-206.14 246.63,-207.6 255.74,-213.01 257.13,-206.14"/>
</g>
<!-- beta_z0 -->
<g id="node6" class="node">
<title>beta_z0</title>
<ellipse fill="none" stroke="black" cx="402.98" cy="-433.11" rx="41.01" ry="40.66"/>
<text text-anchor="middle" x="402.98" y="-444.56" font-family="Times,serif" font-size="14.00">beta_z0</text>
<text text-anchor="middle" x="402.98" y="-428.06" font-family="Times,serif" font-size="14.00">~</text>
<text text-anchor="middle" x="402.98" y="-411.56" font-family="Times,serif" font-size="14.00">Normal</text>
</g>
<!-- beta_z0&#45;&gt;z -->
<g id="edge3" class="edge">
<title>beta_z0&#45;&gt;z</title>
<path fill="none" stroke="black" d="M372.59,-405.53C366.36,-400.8 359.65,-396.19 352.98,-392.45 312.52,-369.75 296.05,-378.05 254.98,-356.45 251.12,-354.42 247.21,-352.16 243.36,-349.77"/>
<polygon fill="black" stroke="black" points="245.49,-346.98 235.2,-344.47 241.68,-352.86 245.49,-346.98"/>
</g>
<!-- c -->
<g id="node7" class="node">
<title>c</title>
<ellipse fill="none" stroke="black" cx="185.98" cy="-433.11" rx="41.01" ry="40.66"/>
<text text-anchor="middle" x="185.98" y="-444.56" font-family="Times,serif" font-size="14.00">c</text>
<text text-anchor="middle" x="185.98" y="-428.06" font-family="Times,serif" font-size="14.00">~</text>
<text text-anchor="middle" x="185.98" y="-411.56" font-family="Times,serif" font-size="14.00">Normal</text>
</g>
<!-- c&#45;&gt;y_mu -->
<g id="edge8" class="edge">
<title>c&#45;&gt;y_mu</title>
<path fill="none" stroke="black" d="M162.53,-399.46C154.7,-386.68 146.96,-371.5 142.98,-356.45 133.75,-321.51 131.52,-309.41 142.98,-275.13 147.63,-261.23 155.96,-247.83 164.84,-236.27"/>
<polygon fill="black" stroke="black" points="167.48,-238.57 171.06,-228.6 162.04,-234.16 167.48,-238.57"/>
</g>
<!-- c&#45;&gt;z -->
<g id="edge1" class="edge">
<title>c&#45;&gt;z</title>
<path fill="none" stroke="black" d="M190.46,-392.42C191.35,-384.54 192.29,-376.16 193.21,-367.96"/>
<polygon fill="black" stroke="black" points="196.69,-368.39 194.33,-358.06 189.73,-367.6 196.69,-368.39"/>
</g>
<!-- y_mu&#45;&gt;y -->
<g id="edge9" class="edge">
<title>y_mu&#45;&gt;y</title>
<path fill="none" stroke="black" d="M196.56,-169.27C195.23,-158.34 193.67,-145.49 192.16,-133.06"/>
<polygon fill="black" stroke="black" points="195.66,-132.84 190.98,-123.34 188.71,-133.68 195.66,-132.84"/>
</g>
<!-- z&#45;&gt;y_mu -->
<g id="edge5" class="edge">
<title>z&#45;&gt;y_mu</title>
<path fill="none" stroke="black" d="M199.33,-274.78C199.43,-263.08 199.54,-250.29 199.64,-238.64"/>
<polygon fill="black" stroke="black" points="203.14,-238.98 199.73,-228.95 196.14,-238.92 203.14,-238.98"/>
</g>
</g>
</svg>