<?xml version="1.0" encoding="UTF-8" standalone="no"?>
<!DOCTYPE svg PUBLIC "-//W3C//DTD SVG 1.1//EN"
 "http://www.w3.org/Graphics/SVG/1.1/DTD/svg11.dtd">
<!-- Generated by graphviz version 9.0.0 (0)
 -->
<!-- Pages: 1 -->
<svg width="582pt" height="305pt"
 viewBox="0.00 0.00 582.24 304.63" xmlns="http://www.w3.org/2000/svg" xmlns:xlink="http://www.w3.org/1999/xlink">
<g id="graph0" class="graph" transform="scale(1 1) rotate(0) translate(4 300.63)">
<polygon fill="white" stroke="none" points="-4,4 -4,-300.63 578.24,-300.63 578.24,4 -4,4"/>
<g id="clust1" class="cluster">
<title>cluster341</title>
<path fill="none" stroke="black" d="M435.11,-65.5C435.11,-65.5 537.11,-65.5 537.11,-65.5 543.11,-65.5 549.11,-71.5 549.11,-77.5 549.11,-77.5 549.11,-175.32 549.11,-175.32 549.11,-181.32 543.11,-187.32 537.11,-187.32 537.11,-187.32 435.11,-187.32 435.11,-187.32 429.11,-187.32 423.11,-181.32 423.11,-175.32 423.11,-175.32 423.11,-77.5 423.11,-77.5 423.11,-71.5 429.11,-65.5 435.11,-65.5"/>
<text text-anchor="middle" x="530.98" y="-72.7" font-family="Times,serif" font-size="14.00">341</text>
</g>
<g id="clust2" class="cluster">
<title>cluster93</title>
<path fill="none" stroke="black" d="M36.11,-65.5C36.11,-65.5 138.11,-65.5 138.11,-65.5 144.11,-65.5 150.11,-71.5 150.11,-77.5 150.11,-77.5 150.11,-175.32 150.11,-175.32 150.11,-181.32 144.11,-187.32 138.11,-187.32 138.11,-187.32 36.11,-187.32 36.11,-187.32 30.11,-187.32 24.11,-181.32 24.11,-175.32 24.11,-175.32 24.11,-77.5 24.11,-77.5 24.11,-71.5 30.11,-65.5 36.11,-65.5"/>
<text text-anchor="middle" x="135.36" y="-72.7" font-family="Times,serif" font-size="14.00">93</text>
</g>
<!-- group1_mean -->
<g id="node1" class="node">
<title>group1_mean</title>
<ellipse fill="none" stroke="black" cx="357.11" cy="-255.98" rx="64.35" ry="40.66"/>
<text text-anchor="middle" x="357.11" y="-267.43" font-family="Times,serif" font-size="14.00">group1_mean</text>
<text text-anchor="middle" x="357.11" y="-250.93" font-family="Times,serif" font-size="14.00">~</text>
<text text-anchor="middle" x="357.11" y="-234.43" font-family="Times,serif" font-size="14.00">Normal</text>
</g>
<!-- difference of means -->
<g id="node4" class="node">
<title>difference of means</title>
<polygon fill="none" stroke="black" points="284.48,-167.41 159.73,-167.41 159.73,-109.91 284.48,-109.91 284.48,-167.41"/>
<text text-anchor="middle" x="222.11" y="-150.11" font-family="Times,serif" font-size="14.00">difference of means</text>
<text text-anchor="middle" x="222.11" y="-133.61" font-family="Times,serif" font-size="14.00">~</text>
<text text-anchor="middle" x="222.11" y="-117.11" font-family="Times,serif" font-size="14.00">Deterministic</text>
</g>
<!-- group1_mean&#45;&gt;difference of means -->
<g id="edge6" class="edge">
<title>group1_mean&#45;&gt;difference of means</title>
<path fill="none" stroke="black" d="M319.5,-222.85C302.07,-207.96 281.31,-190.22 263.44,-174.96"/>
<polygon fill="black" stroke="black" points="265.95,-172.51 256.07,-168.67 261.4,-177.83 265.95,-172.51"/>
</g>
<!-- mom_hs_1 -->
<g id="node8" class="node">
<title>mom_hs_1</title>
<ellipse fill="lightgrey" stroke="black" cx="486.11" cy="-138.66" rx="54.8" ry="40.66"/>
<text text-anchor="middle" x="486.11" y="-150.11" font-family="Times,serif" font-size="14.00">mom_hs_1</text>
<text text-anchor="middle" x="486.11" y="-133.61" font-family="Times,serif" font-size="14.00">~</text>
<text text-anchor="middle" x="486.11" y="-117.11" font-family="Times,serif" font-size="14.00">Normal</text>
</g>
<!-- group1_mean&#45;&gt;mom_hs_1 -->
<g id="edge1" class="edge">
<title>group1_mean&#45;&gt;mom_hs_1</title>
<path fill="none" stroke="black" d="M393.73,-222.24C409.21,-208.4 427.34,-192.2 443.42,-177.82"/>
<polygon fill="black" stroke="black" points="445.36,-180.78 450.49,-171.5 440.7,-175.56 445.36,-180.78"/>
</g>
<!-- group0_std -->
<g id="node2" class="node">
<title>group0_std</title>
<ellipse fill="none" stroke="black" cx="70.11" cy="-255.98" rx="57.45" ry="40.66"/>
<text text-anchor="middle" x="70.11" y="-267.43" font-family="Times,serif" font-size="14.00">group0_std</text>
<text text-anchor="middle" x="70.11" y="-250.93" font-family="Times,serif" font-size="14.00">~</text>
<text text-anchor="middle" x="70.11" y="-234.43" font-family="Times,serif" font-size="14.00">HalfCauchy</text>
</g>
<!-- effect size -->
<g id="node5" class="node">
<title>effect size</title>
<polygon fill="none" stroke="black" points="267.23,-57.5 176.98,-57.5 176.98,0 267.23,0 267.23,-57.5"/>
<text text-anchor="middle" x="222.11" y="-40.2" font-family="Times,serif" font-size="14.00">effect size</text>
<text text-anchor="middle" x="222.11" y="-23.7" font-family="Times,serif" font-size="14.00">~</text>
<text text-anchor="middle" x="222.11" y="-7.2" font-family="Times,serif" font-size="14.00">Deterministic</text>
</g>
<!-- group0_std&#45;&gt;effect size -->
<g id="edge11" class="edge">
<title>group0_std&#45;&gt;effect size</title>
<path fill="none" stroke="black" d="M38.97,-221.58C31.3,-211.33 24.13,-199.53 20.11,-187.32 3.17,-135.89 -14.68,-106.99 20.11,-65.5 38.34,-43.76 112.11,-35.24 165.23,-31.89"/>
<polygon fill="black" stroke="black" points="165.27,-35.4 175.05,-31.33 164.86,-28.41 165.27,-35.4"/>
</g>
<!-- difference of stds -->
<g id="node6" class="node">
<title>difference of stds</title>
<polygon fill="none" stroke="black" points="413.36,-167.41 302.86,-167.41 302.86,-109.91 413.36,-109.91 413.36,-167.41"/>
<text text-anchor="middle" x="358.11" y="-150.11" font-family="Times,serif" font-size="14.00">difference of stds</text>
<text text-anchor="middle" x="358.11" y="-133.61" font-family="Times,serif" font-size="14.00">~</text>
<text text-anchor="middle" x="358.11" y="-117.11" font-family="Times,serif" font-size="14.00">Deterministic</text>
</g>
<!-- group0_std&#45;&gt;difference of stds -->
<g id="edge8" class="edge">
<title>group0_std&#45;&gt;difference of stds</title>
<path fill="none" stroke="black" d="M111.5,-227.41C119.73,-222.82 128.49,-218.52 137.11,-215.32 203.13,-190.76 228.37,-215.08 293.11,-187.32 301.16,-183.87 309.15,-179.25 316.64,-174.26"/>
<polygon fill="black" stroke="black" points="318.44,-177.27 324.59,-168.65 314.4,-171.55 318.44,-177.27"/>
</g>
<!-- mom_hs_0 -->
<g id="node9" class="node">
<title>mom_hs_0</title>
<ellipse fill="lightgrey" stroke="black" cx="87.11" cy="-138.66" rx="54.8" ry="40.66"/>
<text text-anchor="middle" x="87.11" y="-150.11" font-family="Times,serif" font-size="14.00">mom_hs_0</text>
<text text-anchor="middle" x="87.11" y="-133.61" font-family="Times,serif" font-size="14.00">~</text>
<text text-anchor="middle" x="87.11" y="-117.11" font-family="Times,serif" font-size="14.00">Normal</text>
</g>
<!-- group0_std&#45;&gt;mom_hs_0 -->
<g id="edge4" class="edge">
<title>group0_std&#45;&gt;mom_hs_0</title>
<path fill="none" stroke="black" d="M75.96,-215.29C77.13,-207.32 78.39,-198.84 79.61,-190.54"/>
<polygon fill="black" stroke="black" points="83.03,-191.32 81.03,-180.91 76.11,-190.3 83.03,-191.32"/>
</g>
<!-- group0_mean -->
<g id="node3" class="node">
<title>group0_mean</title>
<ellipse fill="none" stroke="black" cx="210.11" cy="-255.98" rx="64.35" ry="40.66"/>
<text text-anchor="middle" x="210.11" y="-267.43" font-family="Times,serif" font-size="14.00">group0_mean</text>
<text text-anchor="middle" x="210.11" y="-250.93" font-family="Times,serif" font-size="14.00">~</text>
<text text-anchor="middle" x="210.11" y="-234.43" font-family="Times,serif" font-size="14.00">Normal</text>
</g>
<!-- group0_mean&#45;&gt;difference of means -->
<g id="edge5" class="edge">
<title>group0_mean&#45;&gt;difference of means</title>
<path fill="none" stroke="black" d="M214.27,-214.97C215.49,-203.26 216.82,-190.47 218.03,-178.82"/>
<polygon fill="black" stroke="black" points="221.49,-179.43 219.04,-169.13 214.53,-178.71 221.49,-179.43"/>
</g>
<!-- group0_mean&#45;&gt;mom_hs_0 -->
<g id="edge3" class="edge">
<title>group0_mean&#45;&gt;mom_hs_0</title>
<path fill="none" stroke="black" d="M174.53,-221.62C160.16,-208.15 143.49,-192.52 128.57,-178.53"/>
<polygon fill="black" stroke="black" points="131.29,-176.28 121.6,-172 126.5,-181.39 131.29,-176.28"/>
</g>
<!-- difference of means&#45;&gt;effect size -->
<g id="edge9" class="edge">
<title>difference of means&#45;&gt;effect size</title>
<path fill="none" stroke="black" d="M222.11,-109.59C222.11,-97.22 222.11,-82.48 222.11,-69.05"/>
<polygon fill="black" stroke="black" points="225.61,-69.19 222.11,-59.19 218.61,-69.19 225.61,-69.19"/>
</g>
<!-- group1_std -->
<g id="node7" class="node">
<title>group1_std</title>
<ellipse fill="none" stroke="black" cx="497.11" cy="-255.98" rx="57.45" ry="40.66"/>
<text text-anchor="middle" x="497.11" y="-267.43" font-family="Times,serif" font-size="14.00">group1_std</text>
<text text-anchor="middle" x="497.11" y="-250.93" font-family="Times,serif" font-size="14.00">~</text>
<text text-anchor="middle" x="497.11" y="-234.43" font-family="Times,serif" font-size="14.00">HalfCauchy</text>
</g>
<!-- group1_std&#45;&gt;effect size -->
<g id="edge10" class="edge">
<title>group1_std&#45;&gt;effect size</title>
<path fill="none" stroke="black" d="M531.35,-222.81C540.16,-212.42 548.46,-200.23 553.11,-187.32 571.45,-136.38 589.28,-105.79 553.11,-65.5 535.17,-45.52 368.82,-35.71 279,-31.83"/>
<polygon fill="black" stroke="black" points="279.3,-28.34 269.17,-31.42 279.01,-35.33 279.3,-28.34"/>
</g>
<!-- group1_std&#45;&gt;difference of stds -->
<g id="edge7" class="edge">
<title>group1_std&#45;&gt;difference of stds</title>
<path fill="none" stroke="black" d="M460.22,-224.38C441.89,-209.17 419.65,-190.71 400.61,-174.92"/>
<polygon fill="black" stroke="black" points="402.93,-172.29 392.99,-168.6 398.46,-177.68 402.93,-172.29"/>
</g>
<!-- group1_std&#45;&gt;mom_hs_1 -->
<g id="edge2" class="edge">
<title>group1_std&#45;&gt;mom_hs_1</title>
<path fill="none" stroke="black" d="M493.29,-214.97C492.55,-207.19 491.76,-198.93 490.99,-190.84"/>
<polygon fill="black" stroke="black" points="494.5,-190.73 490.06,-181.1 487.53,-191.39 494.5,-190.73"/>
</g>
</g>
</svg>