<?xml version="1.0" encoding="UTF-8" standalone="no"?>
<!DOCTYPE svg PUBLIC "-//W3C//DTD SVG 1.1//EN"
 "http://www.w3.org/Graphics/SVG/1.1/DTD/svg11.dtd">
<!-- Generated by graphviz version 9.0.0 (0)
 -->
<!-- Pages: 1 -->
<svg width="681pt" height="276pt"
 viewBox="0.00 0.00 681.25 275.63" xmlns="http://www.w3.org/2000/svg" xmlns:xlink="http://www.w3.org/1999/xlink">
<g id="graph0" class="graph" transform="scale(1 1) rotate(0) translate(4 271.63)">
<polygon fill="white" stroke="none" points="-4,4 -4,-271.63 677.25,-271.63 677.25,4 -4,4"/>
<g id="clust1" class="cluster">
<title>clusterC(Subject)_dim (17)</title>
<path fill="none" stroke="black" d="M374.25,-137.82C374.25,-137.82 479.25,-137.82 479.25,-137.82 485.25,-137.82 491.25,-143.82 491.25,-149.82 491.25,-149.82 491.25,-247.63 491.25,-247.63 491.25,-253.63 485.25,-259.63 479.25,-259.63 479.25,-259.63 374.25,-259.63 374.25,-259.63 368.25,-259.63 362.25,-253.63 362.25,-247.63 362.25,-247.63 362.25,-149.82 362.25,-149.82 362.25,-143.82 368.25,-137.82 374.25,-137.82"/>
<text text-anchor="middle" x="426.63" y="-145.02" font-family="Times,serif" font-size="14.00">C(Subject)_dim (17)</text>
</g>
<g id="clust2" class="cluster">
<title>clusterDays:C(Subject)_dim (17)</title>
<path fill="none" stroke="black" d="M511.25,-137.82C511.25,-137.82 653.25,-137.82 653.25,-137.82 659.25,-137.82 665.25,-143.82 665.25,-149.82 665.25,-149.82 665.25,-247.63 665.25,-247.63 665.25,-253.63 659.25,-259.63 653.25,-259.63 653.25,-259.63 511.25,-259.63 511.25,-259.63 505.25,-259.63 499.25,-253.63 499.25,-247.63 499.25,-247.63 499.25,-149.82 499.25,-149.82 499.25,-143.82 505.25,-137.82 511.25,-137.82"/>
<text text-anchor="middle" x="584.88" y="-145.02" font-family="Times,serif" font-size="14.00">Days:C(Subject)_dim (17)</text>
</g>
<g id="clust3" class="cluster">
<title>clusterReaction_obs (144)</title>
<path fill="none" stroke="black" d="M232.25,-8C232.25,-8 330.25,-8 330.25,-8 336.25,-8 342.25,-14 342.25,-20 342.25,-20 342.25,-117.82 342.25,-117.82 342.25,-123.82 336.25,-129.82 330.25,-129.82 330.25,-129.82 232.25,-129.82 232.25,-129.82 226.25,-129.82 220.25,-123.82 220.25,-117.82 220.25,-117.82 220.25,-20 220.25,-20 220.25,-14 226.25,-8 232.25,-8"/>
<text text-anchor="middle" x="281" y="-15.2" font-family="Times,serif" font-size="14.00">Reaction_obs (144)</text>
</g>
<!-- Intercept -->
<g id="node1" class="node">
<title>Intercept</title>
<ellipse fill="none" stroke="black" cx="45.25" cy="-210.98" rx="45.25" ry="40.66"/>
<text text-anchor="middle" x="45.25" y="-222.43" font-family="Times,serif" font-size="14.00">Intercept</text>
<text text-anchor="middle" x="45.25" y="-205.93" font-family="Times,serif" font-size="14.00">~</text>
<text text-anchor="middle" x="45.25" y="-189.43" font-family="Times,serif" font-size="14.00">Normal</text>
</g>
<!-- Reaction -->
<g id="node6" class="node">
<title>Reaction</title>
<ellipse fill="lightgrey" stroke="black" cx="281.25" cy="-81.16" rx="45.25" ry="40.66"/>
<text text-anchor="middle" x="281.25" y="-92.61" font-family="Times,serif" font-size="14.00">Reaction</text>
<text text-anchor="middle" x="281.25" y="-76.11" font-family="Times,serif" font-size="14.00">~</text>
<text text-anchor="middle" x="281.25" y="-59.61" font-family="Times,serif" font-size="14.00">Normal</text>
</g>
<!-- Intercept&#45;&gt;Reaction -->
<g id="edge2" class="edge">
<title>Intercept&#45;&gt;Reaction</title>
<path fill="none" stroke="black" d="M65.42,-174.14C74.31,-161.1 85.81,-147.26 99.25,-137.82 136.78,-111.45 187.11,-97.31 225.34,-89.89"/>
<polygon fill="black" stroke="black" points="225.59,-93.41 234.79,-88.16 224.32,-86.52 225.59,-93.41"/>
</g>
<!-- Days -->
<g id="node2" class="node">
<title>Days</title>
<ellipse fill="none" stroke="black" cx="149.25" cy="-210.98" rx="41.01" ry="40.66"/>
<text text-anchor="middle" x="149.25" y="-222.43" font-family="Times,serif" font-size="14.00">Days</text>
<text text-anchor="middle" x="149.25" y="-205.93" font-family="Times,serif" font-size="14.00">~</text>
<text text-anchor="middle" x="149.25" y="-189.43" font-family="Times,serif" font-size="14.00">Normal</text>
</g>
<!-- Days&#45;&gt;Reaction -->
<g id="edge1" class="edge">
<title>Days&#45;&gt;Reaction</title>
<path fill="none" stroke="black" d="M169.53,-175.3C177.83,-162.7 188.1,-148.86 199.25,-137.82 209.48,-127.69 221.78,-118.24 233.7,-110.1"/>
<polygon fill="black" stroke="black" points="235.46,-113.14 241.87,-104.71 231.6,-107.3 235.46,-113.14"/>
</g>
<!-- Reaction_sigma -->
<g id="node3" class="node">
<title>Reaction_sigma</title>
<ellipse fill="none" stroke="black" cx="281.25" cy="-210.98" rx="73.36" ry="40.66"/>
<text text-anchor="middle" x="281.25" y="-222.43" font-family="Times,serif" font-size="14.00">Reaction_sigma</text>
<text text-anchor="middle" x="281.25" y="-205.93" font-family="Times,serif" font-size="14.00">~</text>
<text text-anchor="middle" x="281.25" y="-189.43" font-family="Times,serif" font-size="14.00">HalfStudentT</text>
</g>
<!-- Reaction_sigma&#45;&gt;Reaction -->
<g id="edge5" class="edge">
<title>Reaction_sigma&#45;&gt;Reaction</title>
<path fill="none" stroke="black" d="M281.25,-169.88C281.25,-158.34 281.25,-145.6 281.25,-133.48"/>
<polygon fill="black" stroke="black" points="284.75,-133.62 281.25,-123.62 277.75,-133.62 284.75,-133.62"/>
</g>
<!-- C(Subject) -->
<g id="node4" class="node">
<title>C(Subject)</title>
<ellipse fill="none" stroke="black" cx="425.25" cy="-210.98" rx="52.68" ry="40.66"/>
<text text-anchor="middle" x="425.25" y="-222.43" font-family="Times,serif" font-size="14.00">C(Subject)</text>
<text text-anchor="middle" x="425.25" y="-205.93" font-family="Times,serif" font-size="14.00">~</text>
<text text-anchor="middle" x="425.25" y="-189.43" font-family="Times,serif" font-size="14.00">Normal</text>
</g>
<!-- C(Subject)&#45;&gt;Reaction -->
<g id="edge4" class="edge">
<title>C(Subject)&#45;&gt;Reaction</title>
<path fill="none" stroke="black" d="M398.89,-175.6C388.46,-163.04 375.95,-149.15 363.25,-137.82 352.52,-128.23 340.04,-118.97 328.11,-110.84"/>
<polygon fill="black" stroke="black" points="330.23,-108.05 319.97,-105.42 326.35,-113.88 330.23,-108.05"/>
</g>
<!-- Days&amp;C(Subject) -->
<g id="node5" class="node">
<title>Days&amp;C(Subject)</title>
<ellipse fill="none" stroke="black" cx="582.25" cy="-210.98" rx="74.95" ry="40.66"/>
<text text-anchor="middle" x="582.25" y="-222.43" font-family="Times,serif" font-size="14.00">Days:C(Subject)</text>
<text text-anchor="middle" x="582.25" y="-205.93" font-family="Times,serif" font-size="14.00">~</text>
<text text-anchor="middle" x="582.25" y="-189.43" font-family="Times,serif" font-size="14.00">Normal</text>
</g>
<!-- Days&amp;C(Subject)&#45;&gt;Reaction -->
<g id="edge3" class="edge">
<title>Days&amp;C(Subject)&#45;&gt;Reaction</title>
<path fill="none" stroke="black" d="M547.14,-174.83C532.21,-161.57 513.94,-147.39 495.25,-137.82 445.12,-112.14 382.16,-97.61 337.54,-89.89"/>
<polygon fill="black" stroke="black" points="338.26,-86.46 327.82,-88.27 337.11,-93.36 338.26,-86.46"/>
</g>
</g>
</svg>