<?xml version="1.0" encoding="UTF-8" standalone="no"?>
<!DOCTYPE svg PUBLIC "-//W3C//DTD SVG 1.1//EN"
 "http://www.w3.org/Graphics/SVG/1.1/DTD/svg11.dtd">
<!-- Generated by graphviz version 9.0.0 (0)
 -->
<!-- Pages: 1 -->
<svg width="775pt" height="462pt"
 viewBox="0.00 0.00 774.73 462.45" xmlns="http://www.w3.org/2000/svg" xmlns:xlink="http://www.w3.org/1999/xlink">
<g id="graph0" class="graph" transform="scale(1 1) rotate(0) translate(4 458.45)">
<polygon fill="white" stroke="none" points="-4,4 -4,-458.45 770.73,-458.45 770.73,4 -4,4"/>
<g id="clust1" class="cluster">
<title>clustergroup (5)</title>
<path fill="none" stroke="black" d="M221.73,-223.32C221.73,-223.32 529.73,-223.32 529.73,-223.32 535.73,-223.32 541.73,-229.32 541.73,-235.32 541.73,-235.32 541.73,-333.13 541.73,-333.13 541.73,-339.13 535.73,-345.13 529.73,-345.13 529.73,-345.13 221.73,-345.13 221.73,-345.13 215.73,-345.13 209.73,-339.13 209.73,-333.13 209.73,-333.13 209.73,-235.32 209.73,-235.32 209.73,-229.32 215.73,-223.32 221.73,-223.32"/>
<text text-anchor="middle" x="508.23" y="-230.52" font-family="Times,serif" font-size="14.00">group (5)</text>
</g>
<g id="clust2" class="cluster">
<title>clusterobs_id (100)</title>
<path fill="none" stroke="black" d="M561.73,-8C561.73,-8 746.73,-8 746.73,-8 752.73,-8 758.73,-14 758.73,-20 758.73,-20 758.73,-321.23 758.73,-321.23 758.73,-327.23 752.73,-333.23 746.73,-333.23 746.73,-333.23 561.73,-333.23 561.73,-333.23 555.73,-333.23 549.73,-327.23 549.73,-321.23 549.73,-321.23 549.73,-20 549.73,-20 549.73,-14 555.73,-8 561.73,-8"/>
<text text-anchor="middle" x="716.23" y="-15.2" font-family="Times,serif" font-size="14.00">obs_id (100)</text>
</g>
<!-- slope_mu -->
<g id="node1" class="node">
<title>slope_mu</title>
<ellipse fill="none" stroke="black" cx="669.73" cy="-413.79" rx="48.97" ry="40.66"/>
<text text-anchor="middle" x="669.73" y="-425.24" font-family="Times,serif" font-size="14.00">slope_mu</text>
<text text-anchor="middle" x="669.73" y="-408.74" font-family="Times,serif" font-size="14.00">~</text>
<text text-anchor="middle" x="669.73" y="-392.24" font-family="Times,serif" font-size="14.00">Normal</text>
</g>
<!-- β1 -->
<g id="node7" class="node">
<title>β1</title>
<ellipse fill="none" stroke="black" cx="492.73" cy="-296.48" rx="41.01" ry="40.66"/>
<text text-anchor="middle" x="492.73" y="-307.93" font-family="Times,serif" font-size="14.00">β1</text>
<text text-anchor="middle" x="492.73" y="-291.43" font-family="Times,serif" font-size="14.00">~</text>
<text text-anchor="middle" x="492.73" y="-274.93" font-family="Times,serif" font-size="14.00">Normal</text>
</g>
<!-- slope_mu&#45;&gt;β1 -->
<g id="edge4" class="edge">
<title>slope_mu&#45;&gt;β1</title>
<path fill="none" stroke="black" d="M633.29,-386.27C626.29,-381.64 618.9,-377.06 611.73,-373.13 583.77,-357.84 572.61,-362.24 545.73,-345.13 540.31,-341.69 534.91,-337.68 529.75,-333.48"/>
<polygon fill="black" stroke="black" points="532.35,-331.1 522.46,-327.28 527.81,-336.43 532.35,-331.1"/>
</g>
<!-- slope_sigma -->
<g id="node2" class="node">
<title>slope_sigma</title>
<ellipse fill="none" stroke="black" cx="542.73" cy="-413.79" rx="59.57" ry="40.66"/>
<text text-anchor="middle" x="542.73" y="-425.24" font-family="Times,serif" font-size="14.00">slope_sigma</text>
<text text-anchor="middle" x="542.73" y="-408.74" font-family="Times,serif" font-size="14.00">~</text>
<text text-anchor="middle" x="542.73" y="-392.24" font-family="Times,serif" font-size="14.00">HalfNormal</text>
</g>
<!-- slope_sigma&#45;&gt;β1 -->
<g id="edge5" class="edge">
<title>slope_sigma&#45;&gt;β1</title>
<path fill="none" stroke="black" d="M526.08,-374.39C521.95,-364.87 517.47,-354.55 513.18,-344.65"/>
<polygon fill="black" stroke="black" points="516.42,-343.31 509.23,-335.53 509.99,-346.1 516.42,-343.31"/>
</g>
<!-- sigma_hyperprior -->
<g id="node3" class="node">
<title>sigma_hyperprior</title>
<ellipse fill="none" stroke="black" cx="79.73" cy="-413.79" rx="79.73" ry="40.66"/>
<text text-anchor="middle" x="79.73" y="-425.24" font-family="Times,serif" font-size="14.00">sigma_hyperprior</text>
<text text-anchor="middle" x="79.73" y="-408.74" font-family="Times,serif" font-size="14.00">~</text>
<text text-anchor="middle" x="79.73" y="-392.24" font-family="Times,serif" font-size="14.00">HalfNormal</text>
</g>
<!-- sigma -->
<g id="node6" class="node">
<title>sigma</title>
<ellipse fill="none" stroke="black" cx="275.73" cy="-296.48" rx="57.98" ry="40.66"/>
<text text-anchor="middle" x="275.73" y="-307.93" font-family="Times,serif" font-size="14.00">sigma</text>
<text text-anchor="middle" x="275.73" y="-291.43" font-family="Times,serif" font-size="14.00">~</text>
<text text-anchor="middle" x="275.73" y="-274.93" font-family="Times,serif" font-size="14.00">HalfNormal</text>
</g>
<!-- sigma_hyperprior&#45;&gt;sigma -->
<g id="edge1" class="edge">
<title>sigma_hyperprior&#45;&gt;sigma</title>
<path fill="none" stroke="black" d="M131.48,-382.34C159.38,-365.93 193.77,-345.7 221.97,-329.1"/>
<polygon fill="black" stroke="black" points="223.52,-332.25 230.36,-324.17 219.97,-326.22 223.52,-332.25"/>
</g>
<!-- intercept_sigma -->
<g id="node4" class="node">
<title>intercept_sigma</title>
<ellipse fill="none" stroke="black" cx="392.73" cy="-413.79" rx="72.83" ry="40.66"/>
<text text-anchor="middle" x="392.73" y="-425.24" font-family="Times,serif" font-size="14.00">intercept_sigma</text>
<text text-anchor="middle" x="392.73" y="-408.74" font-family="Times,serif" font-size="14.00">~</text>
<text text-anchor="middle" x="392.73" y="-392.24" font-family="Times,serif" font-size="14.00">HalfNormal</text>
</g>
<!-- β0 -->
<g id="node8" class="node">
<title>β0</title>
<ellipse fill="none" stroke="black" cx="392.73" cy="-296.48" rx="41.01" ry="40.66"/>
<text text-anchor="middle" x="392.73" y="-307.93" font-family="Times,serif" font-size="14.00">β0</text>
<text text-anchor="middle" x="392.73" y="-291.43" font-family="Times,serif" font-size="14.00">~</text>
<text text-anchor="middle" x="392.73" y="-274.93" font-family="Times,serif" font-size="14.00">Normal</text>
</g>
<!-- intercept_sigma&#45;&gt;β0 -->
<g id="edge3" class="edge">
<title>intercept_sigma&#45;&gt;β0</title>
<path fill="none" stroke="black" d="M392.73,-372.78C392.73,-365 392.73,-356.75 392.73,-348.66"/>
<polygon fill="black" stroke="black" points="396.23,-348.93 392.73,-338.93 389.23,-348.93 396.23,-348.93"/>
</g>
<!-- intercept_mu -->
<g id="node5" class="node">
<title>intercept_mu</title>
<ellipse fill="none" stroke="black" cx="239.73" cy="-413.79" rx="62.23" ry="40.66"/>
<text text-anchor="middle" x="239.73" y="-425.24" font-family="Times,serif" font-size="14.00">intercept_mu</text>
<text text-anchor="middle" x="239.73" y="-408.74" font-family="Times,serif" font-size="14.00">~</text>
<text text-anchor="middle" x="239.73" y="-392.24" font-family="Times,serif" font-size="14.00">Normal</text>
</g>
<!-- intercept_mu&#45;&gt;β0 -->
<g id="edge2" class="edge">
<title>intercept_mu&#45;&gt;β0</title>
<path fill="none" stroke="black" d="M285.06,-385.51C303.48,-373.79 324.63,-359.51 342.73,-345.13 347.19,-341.59 351.72,-337.72 356.14,-333.76"/>
<polygon fill="black" stroke="black" points="358.34,-336.49 363.33,-327.14 353.6,-331.34 358.34,-336.49"/>
</g>
<!-- y -->
<g id="node10" class="node">
<title>y</title>
<ellipse fill="lightgrey" stroke="black" cx="602.73" cy="-81.16" rx="41.01" ry="40.66"/>
<text text-anchor="middle" x="602.73" y="-92.61" font-family="Times,serif" font-size="14.00">y</text>
<text text-anchor="middle" x="602.73" y="-76.11" font-family="Times,serif" font-size="14.00">~</text>
<text text-anchor="middle" x="602.73" y="-59.61" font-family="Times,serif" font-size="14.00">Normal</text>
</g>
<!-- sigma&#45;&gt;y -->
<g id="edge11" class="edge">
<title>sigma&#45;&gt;y</title>
<path fill="none" stroke="black" d="M304.01,-260.53C315.25,-247.9 328.82,-234.11 342.73,-223.32 410.44,-170.77 500.35,-126.75 554.75,-102.47"/>
<polygon fill="black" stroke="black" points="556.02,-105.73 563.76,-98.49 553.19,-99.33 556.02,-105.73"/>
</g>
<!-- μ -->
<g id="node11" class="node">
<title>μ</title>
<polygon fill="none" stroke="black" points="647.85,-215.32 557.6,-215.32 557.6,-157.82 647.85,-157.82 647.85,-215.32"/>
<text text-anchor="middle" x="602.73" y="-198.02" font-family="Times,serif" font-size="14.00">μ</text>
<text text-anchor="middle" x="602.73" y="-181.52" font-family="Times,serif" font-size="14.00">~</text>
<text text-anchor="middle" x="602.73" y="-165.02" font-family="Times,serif" font-size="14.00">Deterministic</text>
</g>
<!-- β1&#45;&gt;μ -->
<g id="edge7" class="edge">
<title>β1&#45;&gt;μ</title>
<path fill="none" stroke="black" d="M513.81,-261.37C522.71,-248.56 533.77,-234.43 545.73,-223.32 546.62,-222.48 547.55,-221.66 548.48,-220.84"/>
<polygon fill="black" stroke="black" points="550.55,-223.67 556.18,-214.69 546.18,-218.2 550.55,-223.67"/>
</g>
<!-- β0&#45;&gt;μ -->
<g id="edge8" class="edge">
<title>β0&#45;&gt;μ</title>
<path fill="none" stroke="black" d="M410.3,-259.48C418.45,-246.26 429.32,-232.34 442.73,-223.32 473.14,-202.85 513.46,-193.93 546.01,-190.11"/>
<polygon fill="black" stroke="black" points="546.08,-193.63 555.67,-189.12 545.36,-186.66 546.08,-193.63"/>
</g>
<!-- g -->
<g id="node9" class="node">
<title>g</title>
<path fill="lightgrey" stroke="black" d="M738.35,-325.23C738.35,-325.23 675.1,-325.23 675.1,-325.23 669.1,-325.23 663.1,-319.23 663.1,-313.23 663.1,-313.23 663.1,-279.73 663.1,-279.73 663.1,-273.73 669.1,-267.73 675.1,-267.73 675.1,-267.73 738.35,-267.73 738.35,-267.73 744.35,-267.73 750.35,-273.73 750.35,-279.73 750.35,-279.73 750.35,-313.23 750.35,-313.23 750.35,-319.23 744.35,-325.23 738.35,-325.23"/>
<text text-anchor="middle" x="706.73" y="-307.93" font-family="Times,serif" font-size="14.00">g</text>
<text text-anchor="middle" x="706.73" y="-291.43" font-family="Times,serif" font-size="14.00">~</text>
<text text-anchor="middle" x="706.73" y="-274.93" font-family="Times,serif" font-size="14.00">MutableData</text>
</g>
<!-- g&#45;&gt;y -->
<g id="edge10" class="edge">
<title>g&#45;&gt;y</title>
<path fill="none" stroke="black" d="M698.97,-267.38C690.55,-238.88 675.72,-193.94 656.73,-157.82 650.51,-146 642.67,-133.91 634.9,-122.97"/>
<polygon fill="black" stroke="black" points="637.75,-120.93 629.03,-114.91 632.09,-125.05 637.75,-120.93"/>
</g>
<!-- g&#45;&gt;μ -->
<g id="edge6" class="edge">
<title>g&#45;&gt;μ</title>
<path fill="none" stroke="black" d="M689.74,-267.34C681.67,-255.09 671.31,-240.81 654.44,-223.75"/>
<polygon fill="black" stroke="black" points="656.89,-221.26 647.29,-216.77 652,-226.27 656.89,-221.26"/>
</g>
<!-- μ&#45;&gt;y -->
<g id="edge12" class="edge">
<title>μ&#45;&gt;y</title>
<path fill="none" stroke="black" d="M602.73,-157.58C602.73,-150.1 602.73,-141.77 602.73,-133.45"/>
<polygon fill="black" stroke="black" points="606.23,-133.71 602.73,-123.71 599.23,-133.71 606.23,-133.71"/>
</g>
<!-- x -->
<g id="node12" class="node">
<title>x</title>
<path fill="lightgrey" stroke="black" d="M633.35,-325.23C633.35,-325.23 570.1,-325.23 570.1,-325.23 564.1,-325.23 558.1,-319.23 558.1,-313.23 558.1,-313.23 558.1,-279.73 558.1,-279.73 558.1,-273.73 564.1,-267.73 570.1,-267.73 570.1,-267.73 633.35,-267.73 633.35,-267.73 639.35,-267.73 645.35,-273.73 645.35,-279.73 645.35,-279.73 645.35,-313.23 645.35,-313.23 645.35,-319.23 639.35,-325.23 633.35,-325.23"/>
<text text-anchor="middle" x="601.73" y="-307.93" font-family="Times,serif" font-size="14.00">x</text>
<text text-anchor="middle" x="601.73" y="-291.43" font-family="Times,serif" font-size="14.00">~</text>
<text text-anchor="middle" x="601.73" y="-274.93" font-family="Times,serif" font-size="14.00">MutableData</text>
</g>
<!-- x&#45;&gt;μ -->
<g id="edge9" class="edge">
<title>x&#45;&gt;μ</title>
<path fill="none" stroke="black" d="M601.99,-267.41C602.1,-255.04 602.24,-240.3 602.36,-226.87"/>
<polygon fill="black" stroke="black" points="605.86,-227.04 602.45,-217.01 598.86,-226.98 605.86,-227.04"/>
</g>
</g>
</svg>