<?xml version="1.0" encoding="UTF-8" standalone="no"?>
<!DOCTYPE svg PUBLIC "-//W3C//DTD SVG 1.1//EN"
 "http://www.w3.org/Graphics/SVG/1.1/DTD/svg11.dtd">
<!-- Generated by graphviz version 9.0.0 (0)
 -->
<!-- Pages: 1 -->
<svg width="682pt" height="276pt"
 viewBox="0.00 0.00 682.25 275.63" xmlns="http://www.w3.org/2000/svg" xmlns:xlink="http://www.w3.org/1999/xlink">
<g id="graph0" class="graph" transform="scale(1 1) rotate(0) translate(4 271.63)">
<polygon fill="white" stroke="none" points="-4,4 -4,-271.63 678.25,-271.63 678.25,4 -4,4"/>
<g id="clust1" class="cluster">
<title>clusterC(Subject)_dim (17)</title>
<path fill="none" stroke="black" d="M375.25,-137.82C375.25,-137.82 480.25,-137.82 480.25,-137.82 486.25,-137.82 492.25,-143.82 492.25,-149.82 492.25,-149.82 492.25,-247.63 492.25,-247.63 492.25,-253.63 486.25,-259.63 480.25,-259.63 480.25,-259.63 375.25,-259.63 375.25,-259.63 369.25,-259.63 363.25,-253.63 363.25,-247.63 363.25,-247.63 363.25,-149.82 363.25,-149.82 363.25,-143.82 369.25,-137.82 375.25,-137.82"/>
<text text-anchor="middle" x="427.63" y="-145.02" font-family="Times,serif" font-size="14.00">C(Subject)_dim (17)</text>
</g>
<g id="clust2" class="cluster">
<title>clusterDays:C(Subject)_dim (17)</title>
<path fill="none" stroke="black" d="M512.25,-137.82C512.25,-137.82 654.25,-137.82 654.25,-137.82 660.25,-137.82 666.25,-143.82 666.25,-149.82 666.25,-149.82 666.25,-247.63 666.25,-247.63 666.25,-253.63 660.25,-259.63 654.25,-259.63 654.25,-259.63 512.25,-259.63 512.25,-259.63 506.25,-259.63 500.25,-253.63 500.25,-247.63 500.25,-247.63 500.25,-149.82 500.25,-149.82 500.25,-143.82 506.25,-137.82 512.25,-137.82"/>
<text text-anchor="middle" x="585.88" y="-145.02" font-family="Times,serif" font-size="14.00">Days:C(Subject)_dim (17)</text>
</g>
<g id="clust3" class="cluster">
<title>clusterReaction_obs (144)</title>
<path fill="none" stroke="black" d="M265.25,-8C265.25,-8 363.25,-8 363.25,-8 369.25,-8 375.25,-14 375.25,-20 375.25,-20 375.25,-117.82 375.25,-117.82 375.25,-123.82 369.25,-129.82 363.25,-129.82 363.25,-129.82 265.25,-129.82 265.25,-129.82 259.25,-129.82 253.25,-123.82 253.25,-117.82 253.25,-117.82 253.25,-20 253.25,-20 253.25,-14 259.25,-8 265.25,-8"/>
<text text-anchor="middle" x="314" y="-15.2" font-family="Times,serif" font-size="14.00">Reaction_obs (144)</text>
</g>
<!-- Intercept -->
<g id="node1" class="node">
<title>Intercept</title>
<ellipse fill="none" stroke="black" cx="45.25" cy="-210.98" rx="45.25" ry="40.66"/>
<text text-anchor="middle" x="45.25" y="-222.43" font-family="Times,serif" font-size="14.00">Intercept</text>
<text text-anchor="middle" x="45.25" y="-205.93" font-family="Times,serif" font-size="14.00">~</text>
<text text-anchor="middle" x="45.25" y="-189.43" font-family="Times,serif" font-size="14.00">Normal</text>
</g>
<!-- Reaction -->
<g id="node6" class="node">
<title>Reaction</title>
<ellipse fill="lightgrey" stroke="black" cx="314.25" cy="-81.16" rx="45.25" ry="40.66"/>
<text text-anchor="middle" x="314.25" y="-92.61" font-family="Times,serif" font-size="14.00">Reaction</text>
<text text-anchor="middle" x="314.25" y="-76.11" font-family="Times,serif" font-size="14.00">~</text>
<text text-anchor="middle" x="314.25" y="-59.61" font-family="Times,serif" font-size="14.00">Normal</text>
</g>
<!-- Intercept&#45;&gt;Reaction -->
<g id="edge3" class="edge">
<title>Intercept&#45;&gt;Reaction</title>
<path fill="none" stroke="black" d="M65.46,-174.21C74.53,-161.03 86.35,-147.06 100.25,-137.82 147.69,-106.26 212.06,-92.59 257.78,-86.67"/>
<polygon fill="black" stroke="black" points="257.96,-90.17 267.47,-85.5 257.13,-83.22 257.96,-90.17"/>
</g>
<!-- Reaction_sigma -->
<g id="node2" class="node">
<title>Reaction_sigma</title>
<ellipse fill="none" stroke="black" cx="182.25" cy="-210.98" rx="73.36" ry="40.66"/>
<text text-anchor="middle" x="182.25" y="-222.43" font-family="Times,serif" font-size="14.00">Reaction_sigma</text>
<text text-anchor="middle" x="182.25" y="-205.93" font-family="Times,serif" font-size="14.00">~</text>
<text text-anchor="middle" x="182.25" y="-189.43" font-family="Times,serif" font-size="14.00">HalfStudentT</text>
</g>
<!-- Reaction_sigma&#45;&gt;Reaction -->
<g id="edge4" class="edge">
<title>Reaction_sigma&#45;&gt;Reaction</title>
<path fill="none" stroke="black" d="M217.98,-175.39C235.85,-158.08 257.51,-137.1 275.76,-119.43"/>
<polygon fill="black" stroke="black" points="278.04,-122.1 282.79,-112.63 273.17,-117.07 278.04,-122.1"/>
</g>
<!-- Days -->
<g id="node3" class="node">
<title>Days</title>
<ellipse fill="none" stroke="black" cx="314.25" cy="-210.98" rx="41.01" ry="40.66"/>
<text text-anchor="middle" x="314.25" y="-222.43" font-family="Times,serif" font-size="14.00">Days</text>
<text text-anchor="middle" x="314.25" y="-205.93" font-family="Times,serif" font-size="14.00">~</text>
<text text-anchor="middle" x="314.25" y="-189.43" font-family="Times,serif" font-size="14.00">Normal</text>
</g>
<!-- Days&#45;&gt;Reaction -->
<g id="edge5" class="edge">
<title>Days&#45;&gt;Reaction</title>
<path fill="none" stroke="black" d="M314.25,-169.88C314.25,-158.34 314.25,-145.6 314.25,-133.48"/>
<polygon fill="black" stroke="black" points="317.75,-133.62 314.25,-123.62 310.75,-133.62 317.75,-133.62"/>
</g>
<!-- C(Subject) -->
<g id="node4" class="node">
<title>C(Subject)</title>
<ellipse fill="none" stroke="black" cx="426.25" cy="-210.98" rx="52.68" ry="40.66"/>
<text text-anchor="middle" x="426.25" y="-222.43" font-family="Times,serif" font-size="14.00">C(Subject)</text>
<text text-anchor="middle" x="426.25" y="-205.93" font-family="Times,serif" font-size="14.00">~</text>
<text text-anchor="middle" x="426.25" y="-189.43" font-family="Times,serif" font-size="14.00">Normal</text>
</g>
<!-- C(Subject)&#45;&gt;Reaction -->
<g id="edge2" class="edge">
<title>C(Subject)&#45;&gt;Reaction</title>
<path fill="none" stroke="black" d="M397.7,-176.43C387.24,-164.22 375.27,-150.35 364.25,-137.82 359.64,-132.57 354.76,-127.06 349.92,-121.65"/>
<polygon fill="black" stroke="black" points="352.7,-119.5 343.42,-114.38 347.48,-124.17 352.7,-119.5"/>
</g>
<!-- Days&amp;C(Subject) -->
<g id="node5" class="node">
<title>Days&amp;C(Subject)</title>
<ellipse fill="none" stroke="black" cx="583.25" cy="-210.98" rx="74.95" ry="40.66"/>
<text text-anchor="middle" x="583.25" y="-222.43" font-family="Times,serif" font-size="14.00">Days:C(Subject)</text>
<text text-anchor="middle" x="583.25" y="-205.93" font-family="Times,serif" font-size="14.00">~</text>
<text text-anchor="middle" x="583.25" y="-189.43" font-family="Times,serif" font-size="14.00">Normal</text>
</g>
<!-- Days&amp;C(Subject)&#45;&gt;Reaction -->
<g id="edge1" class="edge">
<title>Days&amp;C(Subject)&#45;&gt;Reaction</title>
<path fill="none" stroke="black" d="M547.51,-174.86C532.63,-161.76 514.56,-147.69 496.25,-137.82 456.33,-116.28 406.88,-101.84 369.6,-93.07"/>
<polygon fill="black" stroke="black" points="370.45,-89.68 359.93,-90.87 368.9,-96.5 370.45,-89.68"/>
</g>
</g>
</svg>