<?xml version="1.0" encoding="UTF-8" standalone="no"?>
<!DOCTYPE svg PUBLIC "-//W3C//DTD SVG 1.1//EN"
 "http://www.w3.org/Graphics/SVG/1.1/DTD/svg11.dtd">
<!-- Generated by graphviz version 9.0.0 (0)
 -->
<!-- Pages: 1 -->
<svg width="516pt" height="369pt"
 viewBox="0.00 0.00 515.97 368.95" xmlns="http://www.w3.org/2000/svg" xmlns:xlink="http://www.w3.org/1999/xlink">
<g id="graph0" class="graph" transform="scale(1 1) rotate(0) translate(4 364.95)">
<polygon fill="white" stroke="none" points="-4,4 -4,-364.95 511.97,-364.95 511.97,4 -4,4"/>
<g id="clust1" class="cluster">
<title>cluster333</title>
<path fill="none" stroke="black" d="M32.98,-8C32.98,-8 114.98,-8 114.98,-8 120.98,-8 126.98,-14 126.98,-20 126.98,-20 126.98,-227.73 126.98,-227.73 126.98,-233.73 120.98,-239.73 114.98,-239.73 114.98,-239.73 32.98,-239.73 32.98,-239.73 26.98,-239.73 20.98,-233.73 20.98,-227.73 20.98,-227.73 20.98,-20 20.98,-20 20.98,-14 26.98,-8 32.98,-8"/>
<text text-anchor="middle" x="108.86" y="-15.2" font-family="Times,serif" font-size="14.00">333</text>
</g>
<g id="clust2" class="cluster">
<title>clusterspecies (3)</title>
<path fill="none" stroke="black" d="M146.98,-129.82C146.98,-129.82 354.98,-129.82 354.98,-129.82 360.98,-129.82 366.98,-135.82 366.98,-141.82 366.98,-141.82 366.98,-239.63 366.98,-239.63 366.98,-245.63 360.98,-251.63 354.98,-251.63 354.98,-251.63 146.98,-251.63 146.98,-251.63 140.98,-251.63 134.98,-245.63 134.98,-239.63 134.98,-239.63 134.98,-141.82 134.98,-141.82 134.98,-135.82 140.98,-129.82 146.98,-129.82"/>
<text text-anchor="middle" x="329.73" y="-137.02" font-family="Times,serif" font-size="14.00">species (3)</text>
</g>
<!-- species_idx -->
<g id="node1" class="node">
<title>species_idx</title>
<path fill="lightgrey" stroke="black" d="M106.73,-231.73C106.73,-231.73 41.23,-231.73 41.23,-231.73 35.23,-231.73 29.23,-225.73 29.23,-219.73 29.23,-219.73 29.23,-186.23 29.23,-186.23 29.23,-180.23 35.23,-174.23 41.23,-174.23 41.23,-174.23 106.73,-174.23 106.73,-174.23 112.73,-174.23 118.73,-180.23 118.73,-186.23 118.73,-186.23 118.73,-219.73 118.73,-219.73 118.73,-225.73 112.73,-231.73 106.73,-231.73"/>
<text text-anchor="middle" x="73.98" y="-214.43" font-family="Times,serif" font-size="14.00">species_idx</text>
<text text-anchor="middle" x="73.98" y="-197.93" font-family="Times,serif" font-size="14.00">~</text>
<text text-anchor="middle" x="73.98" y="-181.43" font-family="Times,serif" font-size="14.00">ConstantData</text>
</g>
<!-- y -->
<g id="node2" class="node">
<title>y</title>
<ellipse fill="lightgrey" stroke="black" cx="77.98" cy="-81.16" rx="41.01" ry="40.66"/>
<text text-anchor="middle" x="77.98" y="-92.61" font-family="Times,serif" font-size="14.00">y</text>
<text text-anchor="middle" x="77.98" y="-76.11" font-family="Times,serif" font-size="14.00">~</text>
<text text-anchor="middle" x="77.98" y="-59.61" font-family="Times,serif" font-size="14.00">Normal</text>
</g>
<!-- species_idx&#45;&gt;y -->
<g id="edge5" class="edge">
<title>species_idx&#45;&gt;y</title>
<path fill="none" stroke="black" d="M74.92,-173.88C75.32,-161.78 75.81,-147.23 76.27,-133.33"/>
<polygon fill="black" stroke="black" points="79.77,-133.49 76.61,-123.38 72.77,-133.26 79.77,-133.49"/>
</g>
<!-- mu_sd -->
<g id="node3" class="node">
<title>mu_sd</title>
<ellipse fill="none" stroke="black" cx="57.98" cy="-320.29" rx="57.98" ry="40.66"/>
<text text-anchor="middle" x="57.98" y="-331.74" font-family="Times,serif" font-size="14.00">mu_sd</text>
<text text-anchor="middle" x="57.98" y="-315.24" font-family="Times,serif" font-size="14.00">~</text>
<text text-anchor="middle" x="57.98" y="-298.74" font-family="Times,serif" font-size="14.00">HalfNormal</text>
</g>
<!-- mu -->
<g id="node7" class="node">
<title>mu</title>
<ellipse fill="none" stroke="black" cx="183.98" cy="-202.98" rx="41.01" ry="40.66"/>
<text text-anchor="middle" x="183.98" y="-214.43" font-family="Times,serif" font-size="14.00">mu</text>
<text text-anchor="middle" x="183.98" y="-197.93" font-family="Times,serif" font-size="14.00">~</text>
<text text-anchor="middle" x="183.98" y="-181.43" font-family="Times,serif" font-size="14.00">Normal</text>
</g>
<!-- mu_sd&#45;&gt;mu -->
<g id="edge1" class="edge">
<title>mu_sd&#45;&gt;mu</title>
<path fill="none" stroke="black" d="M92.75,-287.48C109.27,-272.35 129.07,-254.24 145.99,-238.75"/>
<polygon fill="black" stroke="black" points="147.91,-241.74 152.92,-232.4 143.18,-236.57 147.91,-241.74"/>
</g>
<!-- sigma_sd -->
<g id="node4" class="node">
<title>sigma_sd</title>
<ellipse fill="none" stroke="black" cx="449.98" cy="-320.29" rx="57.98" ry="40.66"/>
<text text-anchor="middle" x="449.98" y="-331.74" font-family="Times,serif" font-size="14.00">sigma_sd</text>
<text text-anchor="middle" x="449.98" y="-315.24" font-family="Times,serif" font-size="14.00">~</text>
<text text-anchor="middle" x="449.98" y="-298.74" font-family="Times,serif" font-size="14.00">HalfNormal</text>
</g>
<!-- sigma_mean -->
<g id="node5" class="node">
<title>sigma_mean</title>
<ellipse fill="none" stroke="black" cx="312.98" cy="-320.29" rx="60.63" ry="40.66"/>
<text text-anchor="middle" x="312.98" y="-331.74" font-family="Times,serif" font-size="14.00">sigma_mean</text>
<text text-anchor="middle" x="312.98" y="-315.24" font-family="Times,serif" font-size="14.00">~</text>
<text text-anchor="middle" x="312.98" y="-298.74" font-family="Times,serif" font-size="14.00">HalfNormal</text>
</g>
<!-- sigma -->
<g id="node8" class="node">
<title>sigma</title>
<ellipse fill="none" stroke="black" cx="300.98" cy="-202.98" rx="57.98" ry="40.66"/>
<text text-anchor="middle" x="300.98" y="-214.43" font-family="Times,serif" font-size="14.00">sigma</text>
<text text-anchor="middle" x="300.98" y="-197.93" font-family="Times,serif" font-size="14.00">~</text>
<text text-anchor="middle" x="300.98" y="-181.43" font-family="Times,serif" font-size="14.00">HalfNormal</text>
</g>
<!-- sigma_mean&#45;&gt;sigma -->
<g id="edge3" class="edge">
<title>sigma_mean&#45;&gt;sigma</title>
<path fill="none" stroke="black" d="M308.82,-279.28C308.01,-271.5 307.15,-263.25 306.31,-255.16"/>
<polygon fill="black" stroke="black" points="309.81,-255 305.3,-245.42 302.85,-255.73 309.81,-255"/>
</g>
<!-- mu_mean -->
<g id="node6" class="node">
<title>mu_mean</title>
<ellipse fill="none" stroke="black" cx="183.98" cy="-320.29" rx="50.03" ry="40.66"/>
<text text-anchor="middle" x="183.98" y="-331.74" font-family="Times,serif" font-size="14.00">mu_mean</text>
<text text-anchor="middle" x="183.98" y="-315.24" font-family="Times,serif" font-size="14.00">~</text>
<text text-anchor="middle" x="183.98" y="-298.74" font-family="Times,serif" font-size="14.00">Normal</text>
</g>
<!-- mu_mean&#45;&gt;mu -->
<g id="edge2" class="edge">
<title>mu_mean&#45;&gt;mu</title>
<path fill="none" stroke="black" d="M183.98,-279.28C183.98,-271.5 183.98,-263.25 183.98,-255.16"/>
<polygon fill="black" stroke="black" points="187.48,-255.43 183.98,-245.43 180.48,-255.43 187.48,-255.43"/>
</g>
<!-- mu&#45;&gt;y -->
<g id="edge4" class="edge">
<title>mu&#45;&gt;y</title>
<path fill="none" stroke="black" d="M161.59,-168.54C152.62,-155.95 141.83,-141.8 130.98,-129.82 126.67,-125.06 121.93,-120.27 117.11,-115.66"/>
<polygon fill="black" stroke="black" points="119.8,-113.38 110.1,-109.14 115.04,-118.51 119.8,-113.38"/>
</g>
<!-- sigma&#45;&gt;y -->
<g id="edge6" class="edge">
<title>sigma&#45;&gt;y</title>
<path fill="none" stroke="black" d="M274.75,-166.59C263.47,-153.46 249.34,-139.43 233.98,-129.82 202.1,-109.85 161.3,-97.77 129.42,-90.77"/>
<polygon fill="black" stroke="black" points="130.54,-87.43 120.03,-88.81 129.11,-94.28 130.54,-87.43"/>
</g>
</g>
</svg>