<?xml version="1.0" encoding="UTF-8" standalone="no"?>
<!DOCTYPE svg PUBLIC "-//W3C//DTD SVG 1.1//EN"
 "http://www.w3.org/Graphics/SVG/1.1/DTD/svg11.dtd">
<!-- Generated by graphviz version 9.0.0 (0)
 -->
<!-- Pages: 1 -->
<svg width="1086pt" height="381pt"
 viewBox="0.00 0.00 1086.06 381.04" xmlns="http://www.w3.org/2000/svg" xmlns:xlink="http://www.w3.org/1999/xlink">
<g id="graph0" class="graph" transform="scale(1 1) rotate(0) translate(4 377.04)">
<polygon fill="white" stroke="none" points="-4,4 -4,-377.04 1082.06,-377.04 1082.06,4 -4,4"/>
<g id="clust1" class="cluster">
<title>clusterSubject__factor_dim (18)</title>
<path fill="none" stroke="black" d="M375.25,-137.82C375.25,-137.82 708.25,-137.82 708.25,-137.82 714.25,-137.82 720.25,-143.82 720.25,-149.82 720.25,-149.82 720.25,-353.04 720.25,-353.04 720.25,-359.04 714.25,-365.04 708.25,-365.04 708.25,-365.04 375.25,-365.04 375.25,-365.04 369.25,-365.04 363.25,-359.04 363.25,-353.04 363.25,-353.04 363.25,-149.82 363.25,-149.82 363.25,-143.82 369.25,-137.82 375.25,-137.82"/>
<text text-anchor="middle" x="642.13" y="-145.02" font-family="Times,serif" font-size="14.00">Subject__factor_dim (18)</text>
</g>
<g id="clust2" class="cluster">
<title>clusterReaction_obs (144)</title>
<path fill="none" stroke="black" d="M265.25,-8C265.25,-8 363.25,-8 363.25,-8 369.25,-8 375.25,-14 375.25,-20 375.25,-20 375.25,-117.82 375.25,-117.82 375.25,-123.82 369.25,-129.82 363.25,-129.82 363.25,-129.82 265.25,-129.82 265.25,-129.82 259.25,-129.82 253.25,-123.82 253.25,-117.82 253.25,-117.82 253.25,-20 253.25,-20 253.25,-14 259.25,-8 265.25,-8"/>
<text text-anchor="middle" x="314" y="-15.2" font-family="Times,serif" font-size="14.00">Reaction_obs (144)</text>
</g>
<!-- Days -->
<g id="node1" class="node">
<title>Days</title>
<ellipse fill="none" stroke="black" cx="314.25" cy="-199.07" rx="41.01" ry="40.66"/>
<text text-anchor="middle" x="314.25" y="-210.52" font-family="Times,serif" font-size="14.00">Days</text>
<text text-anchor="middle" x="314.25" y="-194.02" font-family="Times,serif" font-size="14.00">~</text>
<text text-anchor="middle" x="314.25" y="-177.52" font-family="Times,serif" font-size="14.00">Normal</text>
</g>
<!-- Reaction -->
<g id="node10" class="node">
<title>Reaction</title>
<ellipse fill="lightgrey" stroke="black" cx="314.25" cy="-81.16" rx="45.25" ry="40.66"/>
<text text-anchor="middle" x="314.25" y="-92.61" font-family="Times,serif" font-size="14.00">Reaction</text>
<text text-anchor="middle" x="314.25" y="-76.11" font-family="Times,serif" font-size="14.00">~</text>
<text text-anchor="middle" x="314.25" y="-59.61" font-family="Times,serif" font-size="14.00">Normal</text>
</g>
<!-- Days&#45;&gt;Reaction -->
<g id="edge5" class="edge">
<title>Days&#45;&gt;Reaction</title>
<path fill="none" stroke="black" d="M314.25,-158.18C314.25,-150.26 314.25,-141.83 314.25,-133.59"/>
<polygon fill="black" stroke="black" points="317.75,-133.63 314.25,-123.63 310.75,-133.63 317.75,-133.63"/>
</g>
<!-- Intercept -->
<g id="node2" class="node">
<title>Intercept</title>
<ellipse fill="none" stroke="black" cx="45.25" cy="-199.07" rx="45.25" ry="40.66"/>
<text text-anchor="middle" x="45.25" y="-210.52" font-family="Times,serif" font-size="14.00">Intercept</text>
<text text-anchor="middle" x="45.25" y="-194.02" font-family="Times,serif" font-size="14.00">~</text>
<text text-anchor="middle" x="45.25" y="-177.52" font-family="Times,serif" font-size="14.00">Normal</text>
</g>
<!-- Intercept&#45;&gt;Reaction -->
<g id="edge7" class="edge">
<title>Intercept&#45;&gt;Reaction</title>
<path fill="none" stroke="black" d="M69.76,-164.48C78.41,-154.64 88.85,-144.69 100.25,-137.82 148.79,-108.55 212.53,-94.52 257.78,-87.9"/>
<polygon fill="black" stroke="black" points="258.23,-91.37 267.66,-86.54 257.28,-84.44 258.23,-91.37"/>
</g>
<!-- 1|Subject_sigma -->
<g id="node3" class="node">
<title>1|Subject_sigma</title>
<ellipse fill="none" stroke="black" cx="805.25" cy="-316.38" rx="74.95" ry="40.66"/>
<text text-anchor="middle" x="805.25" y="-327.83" font-family="Times,serif" font-size="14.00">1|Subject_sigma</text>
<text text-anchor="middle" x="805.25" y="-311.33" font-family="Times,serif" font-size="14.00">~</text>
<text text-anchor="middle" x="805.25" y="-294.83" font-family="Times,serif" font-size="14.00">HalfNormal</text>
</g>
<!-- 1|Subject -->
<g id="node8" class="node">
<title>1|Subject</title>
<polygon fill="none" stroke="black" points="489.38,-227.82 399.13,-227.82 399.13,-170.32 489.38,-170.32 489.38,-227.82"/>
<text text-anchor="middle" x="444.25" y="-210.52" font-family="Times,serif" font-size="14.00">1|Subject</text>
<text text-anchor="middle" x="444.25" y="-194.02" font-family="Times,serif" font-size="14.00">~</text>
<text text-anchor="middle" x="444.25" y="-177.52" font-family="Times,serif" font-size="14.00">Deterministic</text>
</g>
<!-- 1|Subject_sigma&#45;&gt;1|Subject -->
<g id="edge1" class="edge">
<title>1|Subject_sigma&#45;&gt;1|Subject</title>
<path fill="none" stroke="black" d="M752.4,-287.4C743.17,-283.12 733.55,-279.04 724.25,-275.73 658.05,-252.12 638.05,-258.29 570.25,-239.73 547.26,-233.43 522.17,-225.71 500.48,-218.76"/>
<polygon fill="black" stroke="black" points="501.83,-215.52 491.24,-215.78 499.68,-222.18 501.83,-215.52"/>
</g>
<!-- Reaction_sigma -->
<g id="node4" class="node">
<title>Reaction_sigma</title>
<ellipse fill="none" stroke="black" cx="182.25" cy="-199.07" rx="73.36" ry="40.66"/>
<text text-anchor="middle" x="182.25" y="-210.52" font-family="Times,serif" font-size="14.00">Reaction_sigma</text>
<text text-anchor="middle" x="182.25" y="-194.02" font-family="Times,serif" font-size="14.00">~</text>
<text text-anchor="middle" x="182.25" y="-177.52" font-family="Times,serif" font-size="14.00">HalfStudentT</text>
</g>
<!-- Reaction_sigma&#45;&gt;Reaction -->
<g id="edge9" class="edge">
<title>Reaction_sigma&#45;&gt;Reaction</title>
<path fill="none" stroke="black" d="M220.79,-164.23C237.38,-149.66 256.79,-132.62 273.6,-117.85"/>
<polygon fill="black" stroke="black" points="275.79,-120.59 281,-111.36 271.17,-115.33 275.79,-120.59"/>
</g>
<!-- Days|Subject_sigma -->
<g id="node5" class="node">
<title>Days|Subject_sigma</title>
<ellipse fill="none" stroke="black" cx="988.25" cy="-316.38" rx="89.8" ry="40.66"/>
<text text-anchor="middle" x="988.25" y="-327.83" font-family="Times,serif" font-size="14.00">Days|Subject_sigma</text>
<text text-anchor="middle" x="988.25" y="-311.33" font-family="Times,serif" font-size="14.00">~</text>
<text text-anchor="middle" x="988.25" y="-294.83" font-family="Times,serif" font-size="14.00">HalfNormal</text>
</g>
<!-- Days|Subject -->
<g id="node6" class="node">
<title>Days|Subject</title>
<polygon fill="none" stroke="black" points="669.38,-227.82 579.13,-227.82 579.13,-170.32 669.38,-170.32 669.38,-227.82"/>
<text text-anchor="middle" x="624.25" y="-210.52" font-family="Times,serif" font-size="14.00">Days|Subject</text>
<text text-anchor="middle" x="624.25" y="-194.02" font-family="Times,serif" font-size="14.00">~</text>
<text text-anchor="middle" x="624.25" y="-177.52" font-family="Times,serif" font-size="14.00">Deterministic</text>
</g>
<!-- Days|Subject_sigma&#45;&gt;Days|Subject -->
<g id="edge4" class="edge">
<title>Days|Subject_sigma&#45;&gt;Days|Subject</title>
<path fill="none" stroke="black" d="M922.84,-288.08C911.71,-283.75 900.2,-279.47 889.25,-275.73 818.25,-251.44 734.78,-228.51 680.77,-214.4"/>
<polygon fill="black" stroke="black" points="681.73,-211.03 671.17,-211.9 679.97,-217.8 681.73,-211.03"/>
</g>
<!-- Days|Subject&#45;&gt;Reaction -->
<g id="edge6" class="edge">
<title>Days|Subject&#45;&gt;Reaction</title>
<path fill="none" stroke="black" d="M578.91,-174.32C555.25,-162.46 525.61,-148.42 498.25,-137.82 455.53,-121.25 405.71,-106.45 368.69,-96.28"/>
<polygon fill="black" stroke="black" points="369.67,-92.91 359.1,-93.67 367.83,-99.67 369.67,-92.91"/>
</g>
<!-- Days|Subject_offset -->
<g id="node7" class="node">
<title>Days|Subject_offset</title>
<ellipse fill="none" stroke="black" cx="624.25" cy="-316.38" rx="88.21" ry="40.66"/>
<text text-anchor="middle" x="624.25" y="-327.83" font-family="Times,serif" font-size="14.00">Days|Subject_offset</text>
<text text-anchor="middle" x="624.25" y="-311.33" font-family="Times,serif" font-size="14.00">~</text>
<text text-anchor="middle" x="624.25" y="-294.83" font-family="Times,serif" font-size="14.00">Normal</text>
</g>
<!-- Days|Subject_offset&#45;&gt;Days|Subject -->
<g id="edge3" class="edge">
<title>Days|Subject_offset&#45;&gt;Days|Subject</title>
<path fill="none" stroke="black" d="M624.25,-275.38C624.25,-263.67 624.25,-250.88 624.25,-239.23"/>
<polygon fill="black" stroke="black" points="627.75,-239.54 624.25,-229.54 620.75,-239.54 627.75,-239.54"/>
</g>
<!-- 1|Subject&#45;&gt;Reaction -->
<g id="edge8" class="edge">
<title>1|Subject&#45;&gt;Reaction</title>
<path fill="none" stroke="black" d="M412.79,-170.01C395.19,-154.32 373.08,-134.61 354.27,-117.84"/>
<polygon fill="black" stroke="black" points="356.81,-115.41 347.01,-111.37 352.15,-120.63 356.81,-115.41"/>
</g>
<!-- 1|Subject_offset -->
<g id="node9" class="node">
<title>1|Subject_offset</title>
<ellipse fill="none" stroke="black" cx="444.25" cy="-316.38" rx="73.36" ry="40.66"/>
<text text-anchor="middle" x="444.25" y="-327.83" font-family="Times,serif" font-size="14.00">1|Subject_offset</text>
<text text-anchor="middle" x="444.25" y="-311.33" font-family="Times,serif" font-size="14.00">~</text>
<text text-anchor="middle" x="444.25" y="-294.83" font-family="Times,serif" font-size="14.00">Normal</text>
</g>
<!-- 1|Subject_offset&#45;&gt;1|Subject -->
<g id="edge2" class="edge">
<title>1|Subject_offset&#45;&gt;1|Subject</title>
<path fill="none" stroke="black" d="M444.25,-275.38C444.25,-263.67 444.25,-250.88 444.25,-239.23"/>
<polygon fill="black" stroke="black" points="447.75,-239.54 444.25,-229.54 440.75,-239.54 447.75,-239.54"/>
</g>
</g>
</svg>