<?xml version="1.0" encoding="UTF-8" standalone="no"?>
<!DOCTYPE svg PUBLIC "-//W3C//DTD SVG 1.1//EN"
 "http://www.w3.org/Graphics/SVG/1.1/DTD/svg11.dtd">
<!-- Generated by graphviz version 9.0.0 (0)
 -->
<!-- Pages: 1 -->
<svg width="447pt" height="247pt"
 viewBox="0.00 0.00 446.54 247.13" xmlns="http://www.w3.org/2000/svg" xmlns:xlink="http://www.w3.org/1999/xlink">
<g id="graph0" class="graph" transform="scale(1 1) rotate(0) translate(4 243.13)">
<polygon fill="white" stroke="none" points="-4,4 -4,-243.13 442.54,-243.13 442.54,4 -4,4"/>
<g id="clust1" class="cluster">
<title>clustery_obs (103)</title>
<path fill="none" stroke="black" d="M160.25,-8C160.25,-8 244.25,-8 244.25,-8 250.25,-8 256.25,-14 256.25,-20 256.25,-20 256.25,-117.82 256.25,-117.82 256.25,-123.82 250.25,-129.82 244.25,-129.82 244.25,-129.82 160.25,-129.82 160.25,-129.82 154.25,-129.82 148.25,-123.82 148.25,-117.82 148.25,-117.82 148.25,-20 148.25,-20 148.25,-14 154.25,-8 160.25,-8"/>
<text text-anchor="middle" x="215.63" y="-15.2" font-family="Times,serif" font-size="14.00">y_obs (103)</text>
</g>
<!-- Intercept -->
<g id="node1" class="node">
<title>Intercept</title>
<ellipse fill="none" stroke="black" cx="45.25" cy="-198.48" rx="45.25" ry="40.66"/>
<text text-anchor="middle" x="45.25" y="-209.93" font-family="Times,serif" font-size="14.00">Intercept</text>
<text text-anchor="middle" x="45.25" y="-193.43" font-family="Times,serif" font-size="14.00">~</text>
<text text-anchor="middle" x="45.25" y="-176.93" font-family="Times,serif" font-size="14.00">Normal</text>
</g>
<!-- y -->
<g id="node5" class="node">
<title>y</title>
<ellipse fill="lightgrey" stroke="black" cx="202.25" cy="-81.16" rx="46.32" ry="40.66"/>
<text text-anchor="middle" x="202.25" y="-92.61" font-family="Times,serif" font-size="14.00">y</text>
<text text-anchor="middle" x="202.25" y="-76.11" font-family="Times,serif" font-size="14.00">~</text>
<text text-anchor="middle" x="202.25" y="-59.61" font-family="Times,serif" font-size="14.00">StudentT</text>
</g>
<!-- Intercept&#45;&gt;y -->
<g id="edge1" class="edge">
<title>Intercept&#45;&gt;y</title>
<path fill="none" stroke="black" d="M80.1,-171.88C103.01,-155.06 133.19,-132.89 157.82,-114.79"/>
<polygon fill="black" stroke="black" points="159.76,-117.72 165.75,-108.97 155.61,-112.07 159.76,-117.72"/>
</g>
<!-- y_nu -->
<g id="node2" class="node">
<title>y_nu</title>
<ellipse fill="none" stroke="black" cx="151.25" cy="-198.48" rx="42.6" ry="40.66"/>
<text text-anchor="middle" x="151.25" y="-209.93" font-family="Times,serif" font-size="14.00">y_nu</text>
<text text-anchor="middle" x="151.25" y="-193.43" font-family="Times,serif" font-size="14.00">~</text>
<text text-anchor="middle" x="151.25" y="-176.93" font-family="Times,serif" font-size="14.00">Gamma</text>
</g>
<!-- y_nu&#45;&gt;y -->
<g id="edge3" class="edge">
<title>y_nu&#45;&gt;y</title>
<path fill="none" stroke="black" d="M167.53,-160.67C171.86,-150.89 176.6,-140.18 181.14,-129.9"/>
<polygon fill="black" stroke="black" points="184.33,-131.35 185.17,-120.79 177.92,-128.52 184.33,-131.35"/>
</g>
<!-- x -->
<g id="node3" class="node">
<title>x</title>
<ellipse fill="none" stroke="black" cx="253.25" cy="-198.48" rx="41.01" ry="40.66"/>
<text text-anchor="middle" x="253.25" y="-209.93" font-family="Times,serif" font-size="14.00">x</text>
<text text-anchor="middle" x="253.25" y="-193.43" font-family="Times,serif" font-size="14.00">~</text>
<text text-anchor="middle" x="253.25" y="-176.93" font-family="Times,serif" font-size="14.00">Normal</text>
</g>
<!-- x&#45;&gt;y -->
<g id="edge2" class="edge">
<title>x&#45;&gt;y</title>
<path fill="none" stroke="black" d="M236.98,-160.67C232.65,-150.89 227.91,-140.18 223.37,-129.9"/>
<polygon fill="black" stroke="black" points="226.59,-128.52 219.34,-120.79 220.18,-131.35 226.59,-128.52"/>
</g>
<!-- y_sigma -->
<g id="node4" class="node">
<title>y_sigma</title>
<ellipse fill="none" stroke="black" cx="375.25" cy="-198.48" rx="63.29" ry="40.66"/>
<text text-anchor="middle" x="375.25" y="-209.93" font-family="Times,serif" font-size="14.00">y_sigma</text>
<text text-anchor="middle" x="375.25" y="-193.43" font-family="Times,serif" font-size="14.00">~</text>
<text text-anchor="middle" x="375.25" y="-176.93" font-family="Times,serif" font-size="14.00">HalfStudentT</text>
</g>
<!-- y_sigma&#45;&gt;y -->
<g id="edge4" class="edge">
<title>y_sigma&#45;&gt;y</title>
<path fill="none" stroke="black" d="M332.05,-168.67C306.46,-151.62 274.08,-130.03 248.05,-112.69"/>
<polygon fill="black" stroke="black" points="250.3,-109.98 240.04,-107.34 246.42,-115.8 250.3,-109.98"/>
</g>
</g>
</svg>