<?xml version="1.0" encoding="UTF-8" standalone="no"?>
<!DOCTYPE svg PUBLIC "-//W3C//DTD SVG 1.1//EN"
 "http://www.w3.org/Graphics/SVG/1.1/DTD/svg11.dtd">
<!-- Generated by graphviz version 9.0.0 (0)
 -->
<!-- Pages: 1 -->
<svg width="343pt" height="247pt"
 viewBox="0.00 0.00 343.27 247.13" xmlns="http://www.w3.org/2000/svg" xmlns:xlink="http://www.w3.org/1999/xlink">
<g id="graph0" class="graph" transform="scale(1 1) rotate(0) translate(4 243.13)">
<polygon fill="white" stroke="none" points="-4,4 -4,-243.13 339.27,-243.13 339.27,4 -4,4"/>
<g id="clust1" class="cluster">
<title>clustery_obs (200)</title>
<path fill="none" stroke="black" d="M126.01,-8C126.01,-8 200.01,-8 200.01,-8 206.01,-8 212.01,-14 212.01,-20 212.01,-20 212.01,-117.82 212.01,-117.82 212.01,-123.82 206.01,-129.82 200.01,-129.82 200.01,-129.82 126.01,-129.82 126.01,-129.82 120.01,-129.82 114.01,-123.82 114.01,-117.82 114.01,-117.82 114.01,-20 114.01,-20 114.01,-14 120.01,-8 126.01,-8"/>
<text text-anchor="middle" x="171.39" y="-15.2" font-family="Times,serif" font-size="14.00">y_obs (200)</text>
</g>
<!-- x -->
<g id="node1" class="node">
<title>x</title>
<ellipse fill="none" stroke="black" cx="41.01" cy="-198.48" rx="41.01" ry="40.66"/>
<text text-anchor="middle" x="41.01" y="-209.93" font-family="Times,serif" font-size="14.00">x</text>
<text text-anchor="middle" x="41.01" y="-193.43" font-family="Times,serif" font-size="14.00">~</text>
<text text-anchor="middle" x="41.01" y="-176.93" font-family="Times,serif" font-size="14.00">Normal</text>
</g>
<!-- y -->
<g id="node4" class="node">
<title>y</title>
<ellipse fill="lightgrey" stroke="black" cx="163.01" cy="-81.16" rx="41.01" ry="40.66"/>
<text text-anchor="middle" x="163.01" y="-92.61" font-family="Times,serif" font-size="14.00">y</text>
<text text-anchor="middle" x="163.01" y="-76.11" font-family="Times,serif" font-size="14.00">~</text>
<text text-anchor="middle" x="163.01" y="-59.61" font-family="Times,serif" font-size="14.00">Normal</text>
</g>
<!-- x&#45;&gt;y -->
<g id="edge1" class="edge">
<title>x&#45;&gt;y</title>
<path fill="none" stroke="black" d="M70.54,-169.56C87.18,-153.84 108.11,-134.05 125.85,-117.28"/>
<polygon fill="black" stroke="black" points="127.79,-120.27 132.65,-110.86 122.98,-115.18 127.79,-120.27"/>
</g>
<!-- y_sigma -->
<g id="node2" class="node">
<title>y_sigma</title>
<ellipse fill="none" stroke="black" cx="163.01" cy="-198.48" rx="63.29" ry="40.66"/>
<text text-anchor="middle" x="163.01" y="-209.93" font-family="Times,serif" font-size="14.00">y_sigma</text>
<text text-anchor="middle" x="163.01" y="-193.43" font-family="Times,serif" font-size="14.00">~</text>
<text text-anchor="middle" x="163.01" y="-176.93" font-family="Times,serif" font-size="14.00">HalfStudentT</text>
</g>
<!-- y_sigma&#45;&gt;y -->
<g id="edge2" class="edge">
<title>y_sigma&#45;&gt;y</title>
<path fill="none" stroke="black" d="M163.01,-157.47C163.01,-149.69 163.01,-141.43 163.01,-133.34"/>
<polygon fill="black" stroke="black" points="166.51,-133.61 163.01,-123.61 159.51,-133.61 166.51,-133.61"/>
</g>
<!-- Intercept -->
<g id="node3" class="node">
<title>Intercept</title>
<ellipse fill="none" stroke="black" cx="290.01" cy="-198.48" rx="45.25" ry="40.66"/>
<text text-anchor="middle" x="290.01" y="-209.93" font-family="Times,serif" font-size="14.00">Intercept</text>
<text text-anchor="middle" x="290.01" y="-193.43" font-family="Times,serif" font-size="14.00">~</text>
<text text-anchor="middle" x="290.01" y="-176.93" font-family="Times,serif" font-size="14.00">Normal</text>
</g>
<!-- Intercept&#45;&gt;y -->
<g id="edge3" class="edge">
<title>Intercept&#45;&gt;y</title>
<path fill="none" stroke="black" d="M258.62,-168.97C241.17,-153.12 219.32,-133.29 200.92,-116.58"/>
<polygon fill="black" stroke="black" points="203.61,-114.3 193.86,-110.17 198.91,-119.48 203.61,-114.3"/>
</g>
</g>
</svg>