<?xml version="1.0" encoding="UTF-8" standalone="no"?>
<!DOCTYPE svg PUBLIC "-//W3C//DTD SVG 1.1//EN"
 "http://www.w3.org/Graphics/SVG/1.1/DTD/svg11.dtd">
<!-- Generated by graphviz version 9.0.0 (0)
 -->
<!-- Pages: 1 -->
<svg width="363pt" height="247pt"
 viewBox="0.00 0.00 362.62 247.13" xmlns="http://www.w3.org/2000/svg" xmlns:xlink="http://www.w3.org/1999/xlink">
<g id="graph0" class="graph" transform="scale(1 1) rotate(0) translate(4 243.13)">
<polygon fill="white" stroke="none" points="-4,4 -4,-243.13 358.62,-243.13 358.62,4 -4,4"/>
<g id="clust1" class="cluster">
<title>clusterReaction_obs (144)</title>
<path fill="none" stroke="black" d="M100.25,-8C100.25,-8 198.25,-8 198.25,-8 204.25,-8 210.25,-14 210.25,-20 210.25,-20 210.25,-117.82 210.25,-117.82 210.25,-123.82 204.25,-129.82 198.25,-129.82 198.25,-129.82 100.25,-129.82 100.25,-129.82 94.25,-129.82 88.25,-123.82 88.25,-117.82 88.25,-117.82 88.25,-20 88.25,-20 88.25,-14 94.25,-8 100.25,-8"/>
<text text-anchor="middle" x="149" y="-15.2" font-family="Times,serif" font-size="14.00">Reaction_obs (144)</text>
</g>
<!-- Intercept -->
<g id="node1" class="node">
<title>Intercept</title>
<ellipse fill="none" stroke="black" cx="45.25" cy="-198.48" rx="45.25" ry="40.66"/>
<text text-anchor="middle" x="45.25" y="-209.93" font-family="Times,serif" font-size="14.00">Intercept</text>
<text text-anchor="middle" x="45.25" y="-193.43" font-family="Times,serif" font-size="14.00">~</text>
<text text-anchor="middle" x="45.25" y="-176.93" font-family="Times,serif" font-size="14.00">Normal</text>
</g>
<!-- Reaction -->
<g id="node4" class="node">
<title>Reaction</title>
<ellipse fill="lightgrey" stroke="black" cx="149.25" cy="-81.16" rx="45.25" ry="40.66"/>
<text text-anchor="middle" x="149.25" y="-92.61" font-family="Times,serif" font-size="14.00">Reaction</text>
<text text-anchor="middle" x="149.25" y="-76.11" font-family="Times,serif" font-size="14.00">~</text>
<text text-anchor="middle" x="149.25" y="-59.61" font-family="Times,serif" font-size="14.00">Normal</text>
</g>
<!-- Intercept&#45;&gt;Reaction -->
<g id="edge2" class="edge">
<title>Intercept&#45;&gt;Reaction</title>
<path fill="none" stroke="black" d="M73.4,-166.27C85.77,-152.55 100.44,-136.29 113.57,-121.73"/>
<polygon fill="black" stroke="black" points="115.98,-124.28 120.07,-114.51 110.78,-119.6 115.98,-124.28"/>
</g>
<!-- Days -->
<g id="node2" class="node">
<title>Days</title>
<ellipse fill="none" stroke="black" cx="149.25" cy="-198.48" rx="41.01" ry="40.66"/>
<text text-anchor="middle" x="149.25" y="-209.93" font-family="Times,serif" font-size="14.00">Days</text>
<text text-anchor="middle" x="149.25" y="-193.43" font-family="Times,serif" font-size="14.00">~</text>
<text text-anchor="middle" x="149.25" y="-176.93" font-family="Times,serif" font-size="14.00">Normal</text>
</g>
<!-- Days&#45;&gt;Reaction -->
<g id="edge1" class="edge">
<title>Days&#45;&gt;Reaction</title>
<path fill="none" stroke="black" d="M149.25,-157.47C149.25,-149.69 149.25,-141.43 149.25,-133.34"/>
<polygon fill="black" stroke="black" points="152.75,-133.61 149.25,-123.61 145.75,-133.61 152.75,-133.61"/>
</g>
<!-- Reaction_sigma -->
<g id="node3" class="node">
<title>Reaction_sigma</title>
<ellipse fill="none" stroke="black" cx="281.25" cy="-198.48" rx="73.36" ry="40.66"/>
<text text-anchor="middle" x="281.25" y="-209.93" font-family="Times,serif" font-size="14.00">Reaction_sigma</text>
<text text-anchor="middle" x="281.25" y="-193.43" font-family="Times,serif" font-size="14.00">~</text>
<text text-anchor="middle" x="281.25" y="-176.93" font-family="Times,serif" font-size="14.00">HalfStudentT</text>
</g>
<!-- Reaction_sigma&#45;&gt;Reaction -->
<g id="edge3" class="edge">
<title>Reaction_sigma&#45;&gt;Reaction</title>
<path fill="none" stroke="black" d="M242.36,-163.5C225.79,-149.02 206.45,-132.12 189.7,-117.49"/>
<polygon fill="black" stroke="black" points="192.18,-115.01 182.35,-111.07 187.58,-120.28 192.18,-115.01"/>
</g>
</g>
</svg>