<?xml version="1.0" encoding="UTF-8" standalone="no"?>
<!DOCTYPE svg PUBLIC "-//W3C//DTD SVG 1.1//EN"
 "http://www.w3.org/Graphics/SVG/1.1/DTD/svg11.dtd">
<!-- Generated by graphviz version 9.0.0 (0)
 -->
<!-- Pages: 1 -->
<svg width="446pt" height="247pt"
 viewBox="0.00 0.00 445.86 247.13" xmlns="http://www.w3.org/2000/svg" xmlns:xlink="http://www.w3.org/1999/xlink">
<g id="graph0" class="graph" transform="scale(1 1) rotate(0) translate(4 243.13)">
<polygon fill="white" stroke="none" points="-4,4 -4,-243.13 441.86,-243.13 441.86,4 -4,4"/>
<g id="clust1" class="cluster">
<title>clustery_obs (103)</title>
<path fill="none" stroke="black" d="M168.25,-8C168.25,-8 252.25,-8 252.25,-8 258.25,-8 264.25,-14 264.25,-20 264.25,-20 264.25,-117.82 264.25,-117.82 264.25,-123.82 258.25,-129.82 252.25,-129.82 252.25,-129.82 168.25,-129.82 168.25,-129.82 162.25,-129.82 156.25,-123.82 156.25,-117.82 156.25,-117.82 156.25,-20 156.25,-20 156.25,-14 162.25,-8 168.25,-8"/>
<text text-anchor="middle" x="223.63" y="-15.2" font-family="Times,serif" font-size="14.00">y_obs (103)</text>
</g>
<!-- Intercept -->
<g id="node1" class="node">
<title>Intercept</title>
<ellipse fill="none" stroke="black" cx="45.25" cy="-198.48" rx="45.25" ry="40.66"/>
<text text-anchor="middle" x="45.25" y="-209.93" font-family="Times,serif" font-size="14.00">Intercept</text>
<text text-anchor="middle" x="45.25" y="-193.43" font-family="Times,serif" font-size="14.00">~</text>
<text text-anchor="middle" x="45.25" y="-176.93" font-family="Times,serif" font-size="14.00">Normal</text>
</g>
<!-- y -->
<g id="node5" class="node">
<title>y</title>
<ellipse fill="lightgrey" stroke="black" cx="210.25" cy="-81.16" rx="46.32" ry="40.66"/>
<text text-anchor="middle" x="210.25" y="-92.61" font-family="Times,serif" font-size="14.00">y</text>
<text text-anchor="middle" x="210.25" y="-76.11" font-family="Times,serif" font-size="14.00">~</text>
<text text-anchor="middle" x="210.25" y="-59.61" font-family="Times,serif" font-size="14.00">StudentT</text>
</g>
<!-- Intercept&#45;&gt;y -->
<g id="edge1" class="edge">
<title>Intercept&#45;&gt;y</title>
<path fill="none" stroke="black" d="M79.98,-171.69C86.36,-167.04 92.99,-162.25 99.25,-157.82 120.44,-142.82 144.18,-126.57 164.26,-112.98"/>
<polygon fill="black" stroke="black" points="166.21,-115.89 172.53,-107.39 162.29,-110.09 166.21,-115.89"/>
</g>
<!-- x -->
<g id="node2" class="node">
<title>x</title>
<ellipse fill="none" stroke="black" cx="149.25" cy="-198.48" rx="41.01" ry="40.66"/>
<text text-anchor="middle" x="149.25" y="-209.93" font-family="Times,serif" font-size="14.00">x</text>
<text text-anchor="middle" x="149.25" y="-193.43" font-family="Times,serif" font-size="14.00">~</text>
<text text-anchor="middle" x="149.25" y="-176.93" font-family="Times,serif" font-size="14.00">Normal</text>
</g>
<!-- x&#45;&gt;y -->
<g id="edge2" class="edge">
<title>x&#45;&gt;y</title>
<path fill="none" stroke="black" d="M168.05,-161.94C173.63,-151.4 179.82,-139.7 185.7,-128.58"/>
<polygon fill="black" stroke="black" points="188.7,-130.39 190.28,-119.91 182.51,-127.12 188.7,-130.39"/>
</g>
<!-- y_sigma -->
<g id="node3" class="node">
<title>y_sigma</title>
<ellipse fill="none" stroke="black" cx="271.25" cy="-198.48" rx="63.29" ry="40.66"/>
<text text-anchor="middle" x="271.25" y="-209.93" font-family="Times,serif" font-size="14.00">y_sigma</text>
<text text-anchor="middle" x="271.25" y="-193.43" font-family="Times,serif" font-size="14.00">~</text>
<text text-anchor="middle" x="271.25" y="-176.93" font-family="Times,serif" font-size="14.00">HalfStudentT</text>
</g>
<!-- y_sigma&#45;&gt;y -->
<g id="edge3" class="edge">
<title>y_sigma&#45;&gt;y</title>
<path fill="none" stroke="black" d="M251.28,-159.72C246.02,-149.77 240.28,-138.91 234.8,-128.56"/>
<polygon fill="black" stroke="black" points="237.92,-126.97 230.15,-119.77 231.73,-130.25 237.92,-126.97"/>
</g>
<!-- y_nu -->
<g id="node4" class="node">
<title>y_nu</title>
<ellipse fill="none" stroke="black" cx="395.25" cy="-198.48" rx="42.6" ry="40.66"/>
<text text-anchor="middle" x="395.25" y="-209.93" font-family="Times,serif" font-size="14.00">y_nu</text>
<text text-anchor="middle" x="395.25" y="-193.43" font-family="Times,serif" font-size="14.00">~</text>
<text text-anchor="middle" x="395.25" y="-176.93" font-family="Times,serif" font-size="14.00">Gamma</text>
</g>
<!-- y_nu&#45;&gt;y -->
<g id="edge4" class="edge">
<title>y_nu&#45;&gt;y</title>
<path fill="none" stroke="black" d="M362.73,-171.62C356.38,-166.87 349.69,-162.08 343.25,-157.82 316.36,-140.03 285.07,-122.1 259.59,-108.16"/>
<polygon fill="black" stroke="black" points="261.57,-105.25 251.11,-103.55 258.23,-111.4 261.57,-105.25"/>
</g>
</g>
</svg>