<?xml version="1.0" encoding="UTF-8" standalone="no"?>
<!DOCTYPE svg PUBLIC "-//W3C//DTD SVG 1.1//EN"
 "http://www.w3.org/Graphics/SVG/1.1/DTD/svg11.dtd">
<!-- Generated by graphviz version 9.0.0 (0)
 -->
<!-- Pages: 1 -->
<svg width="571pt" height="361pt"
 viewBox="0.00 0.00 571.00 361.13" xmlns="http://www.w3.org/2000/svg" xmlns:xlink="http://www.w3.org/1999/xlink">
<g id="graph0" class="graph" transform="scale(1 1) rotate(0) translate(4 357.13)">
<polygon fill="white" stroke="none" points="-4,4 -4,-357.13 567,-357.13 567,4 -4,4"/>
<g id="clust1" class="cluster">
<title>clustergroup (5)</title>
<path fill="none" stroke="black" d="M20,-223.32C20,-223.32 326,-223.32 326,-223.32 332,-223.32 338,-229.32 338,-235.32 338,-235.32 338,-333.13 338,-333.13 338,-339.13 332,-345.13 326,-345.13 326,-345.13 20,-345.13 20,-345.13 14,-345.13 8,-339.13 8,-333.13 8,-333.13 8,-235.32 8,-235.32 8,-229.32 14,-223.32 20,-223.32"/>
<text text-anchor="middle" x="304.5" y="-230.52" font-family="Times,serif" font-size="14.00">group (5)</text>
</g>
<g id="clust2" class="cluster">
<title>clusterobs_id (100)</title>
<path fill="none" stroke="black" d="M358,-8C358,-8 543,-8 543,-8 549,-8 555,-14 555,-20 555,-20 555,-321.23 555,-321.23 555,-327.23 549,-333.23 543,-333.23 543,-333.23 358,-333.23 358,-333.23 352,-333.23 346,-327.23 346,-321.23 346,-321.23 346,-20 346,-20 346,-14 352,-8 358,-8"/>
<text text-anchor="middle" x="512.5" y="-15.2" font-family="Times,serif" font-size="14.00">obs_id (100)</text>
</g>
<!-- sigma -->
<g id="node1" class="node">
<title>sigma</title>
<ellipse fill="none" stroke="black" cx="73" cy="-296.48" rx="57.45" ry="40.66"/>
<text text-anchor="middle" x="73" y="-307.93" font-family="Times,serif" font-size="14.00">sigma</text>
<text text-anchor="middle" x="73" y="-291.43" font-family="Times,serif" font-size="14.00">~</text>
<text text-anchor="middle" x="73" y="-274.93" font-family="Times,serif" font-size="14.00">HalfCauchy</text>
</g>
<!-- y -->
<g id="node4" class="node">
<title>y</title>
<ellipse fill="lightgrey" stroke="black" cx="399" cy="-81.16" rx="41.01" ry="40.66"/>
<text text-anchor="middle" x="399" y="-92.61" font-family="Times,serif" font-size="14.00">y</text>
<text text-anchor="middle" x="399" y="-76.11" font-family="Times,serif" font-size="14.00">~</text>
<text text-anchor="middle" x="399" y="-59.61" font-family="Times,serif" font-size="14.00">Normal</text>
</g>
<!-- sigma&#45;&gt;y -->
<g id="edge5" class="edge">
<title>sigma&#45;&gt;y</title>
<path fill="none" stroke="black" d="M100.78,-260.5C111.85,-247.87 125.23,-234.09 139,-223.32 206.52,-170.52 296.49,-126.57 350.95,-102.37"/>
<polygon fill="black" stroke="black" points="352.22,-105.64 359.97,-98.41 349.41,-99.23 352.22,-105.64"/>
</g>
<!-- β0 -->
<g id="node2" class="node">
<title>β0</title>
<ellipse fill="none" stroke="black" cx="189" cy="-296.48" rx="41.01" ry="40.66"/>
<text text-anchor="middle" x="189" y="-307.93" font-family="Times,serif" font-size="14.00">β0</text>
<text text-anchor="middle" x="189" y="-291.43" font-family="Times,serif" font-size="14.00">~</text>
<text text-anchor="middle" x="189" y="-274.93" font-family="Times,serif" font-size="14.00">Normal</text>
</g>
<!-- μ -->
<g id="node6" class="node">
<title>μ</title>
<polygon fill="none" stroke="black" points="444.12,-215.32 353.88,-215.32 353.88,-157.82 444.12,-157.82 444.12,-215.32"/>
<text text-anchor="middle" x="399" y="-198.02" font-family="Times,serif" font-size="14.00">μ</text>
<text text-anchor="middle" x="399" y="-181.52" font-family="Times,serif" font-size="14.00">~</text>
<text text-anchor="middle" x="399" y="-165.02" font-family="Times,serif" font-size="14.00">Deterministic</text>
</g>
<!-- β0&#45;&gt;μ -->
<g id="edge3" class="edge">
<title>β0&#45;&gt;μ</title>
<path fill="none" stroke="black" d="M206.58,-259.48C214.72,-246.26 225.6,-232.34 239,-223.32 269.42,-202.85 309.73,-193.93 342.29,-190.11"/>
<polygon fill="black" stroke="black" points="342.35,-193.63 351.94,-189.12 341.64,-186.66 342.35,-193.63"/>
</g>
<!-- β1 -->
<g id="node3" class="node">
<title>β1</title>
<ellipse fill="none" stroke="black" cx="289" cy="-296.48" rx="41.01" ry="40.66"/>
<text text-anchor="middle" x="289" y="-307.93" font-family="Times,serif" font-size="14.00">β1</text>
<text text-anchor="middle" x="289" y="-291.43" font-family="Times,serif" font-size="14.00">~</text>
<text text-anchor="middle" x="289" y="-274.93" font-family="Times,serif" font-size="14.00">Normal</text>
</g>
<!-- β1&#45;&gt;μ -->
<g id="edge2" class="edge">
<title>β1&#45;&gt;μ</title>
<path fill="none" stroke="black" d="M310.09,-261.37C318.98,-248.56 330.04,-234.43 342,-223.32 342.9,-222.48 343.82,-221.66 344.76,-220.84"/>
<polygon fill="black" stroke="black" points="346.82,-223.67 352.45,-214.69 342.45,-218.2 346.82,-223.67"/>
</g>
<!-- x -->
<g id="node5" class="node">
<title>x</title>
<path fill="lightgrey" stroke="black" d="M429.62,-325.23C429.62,-325.23 366.38,-325.23 366.38,-325.23 360.38,-325.23 354.38,-319.23 354.38,-313.23 354.38,-313.23 354.38,-279.73 354.38,-279.73 354.38,-273.73 360.38,-267.73 366.38,-267.73 366.38,-267.73 429.62,-267.73 429.62,-267.73 435.62,-267.73 441.62,-273.73 441.62,-279.73 441.62,-279.73 441.62,-313.23 441.62,-313.23 441.62,-319.23 435.62,-325.23 429.62,-325.23"/>
<text text-anchor="middle" x="398" y="-307.93" font-family="Times,serif" font-size="14.00">x</text>
<text text-anchor="middle" x="398" y="-291.43" font-family="Times,serif" font-size="14.00">~</text>
<text text-anchor="middle" x="398" y="-274.93" font-family="Times,serif" font-size="14.00">MutableData</text>
</g>
<!-- x&#45;&gt;μ -->
<g id="edge1" class="edge">
<title>x&#45;&gt;μ</title>
<path fill="none" stroke="black" d="M398.26,-267.41C398.37,-255.04 398.51,-240.3 398.64,-226.87"/>
<polygon fill="black" stroke="black" points="402.13,-227.04 398.73,-217.01 395.13,-226.98 402.13,-227.04"/>
</g>
<!-- μ&#45;&gt;y -->
<g id="edge6" class="edge">
<title>μ&#45;&gt;y</title>
<path fill="none" stroke="black" d="M399,-157.58C399,-150.1 399,-141.77 399,-133.45"/>
<polygon fill="black" stroke="black" points="402.5,-133.71 399,-123.71 395.5,-133.71 402.5,-133.71"/>
</g>
<!-- g -->
<g id="node7" class="node">
<title>g</title>
<path fill="lightgrey" stroke="black" d="M534.62,-325.23C534.62,-325.23 471.38,-325.23 471.38,-325.23 465.38,-325.23 459.38,-319.23 459.38,-313.23 459.38,-313.23 459.38,-279.73 459.38,-279.73 459.38,-273.73 465.38,-267.73 471.38,-267.73 471.38,-267.73 534.62,-267.73 534.62,-267.73 540.62,-267.73 546.62,-273.73 546.62,-279.73 546.62,-279.73 546.62,-313.23 546.62,-313.23 546.62,-319.23 540.62,-325.23 534.62,-325.23"/>
<text text-anchor="middle" x="503" y="-307.93" font-family="Times,serif" font-size="14.00">g</text>
<text text-anchor="middle" x="503" y="-291.43" font-family="Times,serif" font-size="14.00">~</text>
<text text-anchor="middle" x="503" y="-274.93" font-family="Times,serif" font-size="14.00">MutableData</text>
</g>
<!-- g&#45;&gt;y -->
<g id="edge7" class="edge">
<title>g&#45;&gt;y</title>
<path fill="none" stroke="black" d="M495.25,-267.38C486.83,-238.88 471.99,-193.94 453,-157.82 446.78,-146 438.94,-133.91 431.18,-122.97"/>
<polygon fill="black" stroke="black" points="434.02,-120.93 425.31,-114.91 428.36,-125.05 434.02,-120.93"/>
</g>
<!-- g&#45;&gt;μ -->
<g id="edge4" class="edge">
<title>g&#45;&gt;μ</title>
<path fill="none" stroke="black" d="M486.01,-267.34C477.94,-255.09 467.58,-240.81 450.71,-223.75"/>
<polygon fill="black" stroke="black" points="453.17,-221.26 443.57,-216.77 448.28,-226.27 453.17,-221.26"/>
</g>
</g>
</svg>