<?xml version="1.0" encoding="UTF-8" standalone="no"?>
<!DOCTYPE svg PUBLIC "-//W3C//DTD SVG 1.1//EN"
 "http://www.w3.org/Graphics/SVG/1.1/DTD/svg11.dtd">
<!-- Generated by graphviz version 9.0.0 (0)
 -->
<!-- Pages: 1 -->
<svg width="363pt" height="247pt"
 viewBox="0.00 0.00 363.27 247.13" xmlns="http://www.w3.org/2000/svg" xmlns:xlink="http://www.w3.org/1999/xlink">
<g id="graph0" class="graph" transform="scale(1 1) rotate(0) translate(4 243.13)">
<polygon fill="white" stroke="none" points="-4,4 -4,-243.13 359.27,-243.13 359.27,4 -4,4"/>
<g id="clust1" class="cluster">
<title>clusterReaction_obs (144)</title>
<path fill="none" stroke="black" d="M124.01,-8C124.01,-8 222.01,-8 222.01,-8 228.01,-8 234.01,-14 234.01,-20 234.01,-20 234.01,-117.82 234.01,-117.82 234.01,-123.82 228.01,-129.82 222.01,-129.82 222.01,-129.82 124.01,-129.82 124.01,-129.82 118.01,-129.82 112.01,-123.82 112.01,-117.82 112.01,-117.82 112.01,-20 112.01,-20 112.01,-14 118.01,-8 124.01,-8"/>
<text text-anchor="middle" x="172.76" y="-15.2" font-family="Times,serif" font-size="14.00">Reaction_obs (144)</text>
</g>
<!-- Days -->
<g id="node1" class="node">
<title>Days</title>
<ellipse fill="none" stroke="black" cx="41.01" cy="-198.48" rx="41.01" ry="40.66"/>
<text text-anchor="middle" x="41.01" y="-209.93" font-family="Times,serif" font-size="14.00">Days</text>
<text text-anchor="middle" x="41.01" y="-193.43" font-family="Times,serif" font-size="14.00">~</text>
<text text-anchor="middle" x="41.01" y="-176.93" font-family="Times,serif" font-size="14.00">Normal</text>
</g>
<!-- Reaction -->
<g id="node4" class="node">
<title>Reaction</title>
<ellipse fill="lightgrey" stroke="black" cx="173.01" cy="-81.16" rx="45.25" ry="40.66"/>
<text text-anchor="middle" x="173.01" y="-92.61" font-family="Times,serif" font-size="14.00">Reaction</text>
<text text-anchor="middle" x="173.01" y="-76.11" font-family="Times,serif" font-size="14.00">~</text>
<text text-anchor="middle" x="173.01" y="-59.61" font-family="Times,serif" font-size="14.00">Normal</text>
</g>
<!-- Days&#45;&gt;Reaction -->
<g id="edge1" class="edge">
<title>Days&#45;&gt;Reaction</title>
<path fill="none" stroke="black" d="M71.63,-170.73C89.81,-154.85 113.07,-134.53 132.72,-117.36"/>
<polygon fill="black" stroke="black" points="134.82,-120.17 140.05,-110.96 130.21,-114.9 134.82,-120.17"/>
</g>
<!-- Reaction_sigma -->
<g id="node2" class="node">
<title>Reaction_sigma</title>
<ellipse fill="none" stroke="black" cx="173.01" cy="-198.48" rx="73.36" ry="40.66"/>
<text text-anchor="middle" x="173.01" y="-209.93" font-family="Times,serif" font-size="14.00">Reaction_sigma</text>
<text text-anchor="middle" x="173.01" y="-193.43" font-family="Times,serif" font-size="14.00">~</text>
<text text-anchor="middle" x="173.01" y="-176.93" font-family="Times,serif" font-size="14.00">HalfStudentT</text>
</g>
<!-- Reaction_sigma&#45;&gt;Reaction -->
<g id="edge2" class="edge">
<title>Reaction_sigma&#45;&gt;Reaction</title>
<path fill="none" stroke="black" d="M173.01,-157.47C173.01,-149.69 173.01,-141.43 173.01,-133.34"/>
<polygon fill="black" stroke="black" points="176.51,-133.61 173.01,-123.61 169.51,-133.61 176.51,-133.61"/>
</g>
<!-- Intercept -->
<g id="node3" class="node">
<title>Intercept</title>
<ellipse fill="none" stroke="black" cx="310.01" cy="-198.48" rx="45.25" ry="40.66"/>
<text text-anchor="middle" x="310.01" y="-209.93" font-family="Times,serif" font-size="14.00">Intercept</text>
<text text-anchor="middle" x="310.01" y="-193.43" font-family="Times,serif" font-size="14.00">~</text>
<text text-anchor="middle" x="310.01" y="-176.93" font-family="Times,serif" font-size="14.00">Normal</text>
</g>
<!-- Intercept&#45;&gt;Reaction -->
<g id="edge3" class="edge">
<title>Intercept&#45;&gt;Reaction</title>
<path fill="none" stroke="black" d="M277.2,-169.85C258.3,-153.95 234.38,-133.82 214.23,-116.85"/>
<polygon fill="black" stroke="black" points="216.62,-114.29 206.72,-110.53 212.11,-119.65 216.62,-114.29"/>
</g>
</g>
</svg>