<?xml version="1.0" encoding="utf-8" standalone="no"?>
<!DOCTYPE svg PUBLIC "-//W3C//DTD SVG 1.1//EN"
  "http://www.w3.org/Graphics/SVG/1.1/DTD/svg11.dtd">
<svg xmlns:xlink="http://www.w3.org/1999/xlink" width="599.61707pt" height="366.599844pt" viewBox="0 0 599.61707 366.599844" xmlns="http://www.w3.org/2000/svg" version="1.1">
 <metadata>
  <rdf:RDF xmlns:dc="http://purl.org/dc/elements/1.1/" xmlns:cc="http://creativecommons.org/ns#" xmlns:rdf="http://www.w3.org/1999/02/22-rdf-syntax-ns#">
   <cc:Work>
    <dc:type rdf:resource="http://purl.org/dc/dcmitype/StillImage"/>
    <dc:date>2024-02-12T09:08:12.830267</dc:date>
    <dc:format>image/svg+xml</dc:format>
    <dc:creator>
     <cc:Agent>
      <dc:title>Matplotlib v3.8.2, https://matplotlib.org/</dc:title>
     </cc:Agent>
    </dc:creator>
   </cc:Work>
  </rdf:RDF>
 </metadata>
 <defs>
  <style type="text/css">*{stroke-linejoin: round; stroke-linecap: butt}</style>
 </defs>
 <g id="figure_1">
  <g id="patch_1">
   <path d="M 0 366.599844 
L 599.61707 366.599844 
L 599.61707 0 
L 0 0 
z
" style="fill: #ffffff"/>
  </g>
  <g id="axes_1">
   <g id="patch_2">
    <path d="M 29.241719 339.84 
L 587.241719 339.84 
L 587.241719 7.2 
L 29.241719 7.2 
z
" style="fill: #eaeaf2"/>
   </g>
   <g id="matplotlib.axis_1">
    <g id="xtick_1">
     <g id="line2d_1">
      <path d="M 97.666016 339.84 
L 97.666016 7.2 
" clip-path="url(#p9600a97d6f)" style="fill: none; stroke: #ffffff; stroke-linecap: round"/>
     </g>
     <g id="text_1">
      <!-- −1.5 -->
      <g style="fill: #262626" transform="translate(86.808672 357.213594) scale(0.11 -0.11)">
       <defs>
        <path id="ArialMT-2212" d="M 3381 1997 
L 356 1997 
L 356 2522 
L 3381 2522 
L 3381 1997 
z
" transform="scale(0.015625)"/>
        <path id="ArialMT-31" d="M 2384 0 
L 1822 0 
L 1822 3584 
Q 1619 3391 1289 3197 
Q 959 3003 697 2906 
L 697 3450 
Q 1169 3672 1522 3987 
Q 1875 4303 2022 4600 
L 2384 4600 
L 2384 0 
z
" transform="scale(0.015625)"/>
        <path id="ArialMT-2e" d="M 581 0 
L 581 641 
L 1222 641 
L 1222 0 
L 581 0 
z
" transform="scale(0.015625)"/>
        <path id="ArialMT-35" d="M 266 1200 
L 856 1250 
Q 922 819 1161 601 
Q 1400 384 1738 384 
Q 2144 384 2425 690 
Q 2706 997 2706 1503 
Q 2706 1984 2436 2262 
Q 2166 2541 1728 2541 
Q 1456 2541 1237 2417 
Q 1019 2294 894 2097 
L 366 2166 
L 809 4519 
L 3088 4519 
L 3088 3981 
L 1259 3981 
L 1013 2750 
Q 1425 3038 1878 3038 
Q 2478 3038 2890 2622 
Q 3303 2206 3303 1553 
Q 3303 931 2941 478 
Q 2500 -78 1738 -78 
Q 1113 -78 717 272 
Q 322 622 266 1200 
z
" transform="scale(0.015625)"/>
       </defs>
       <use xlink:href="#ArialMT-2212"/>
       <use xlink:href="#ArialMT-31" x="58.398438"/>
       <use xlink:href="#ArialMT-2e" x="114.013672"/>
       <use xlink:href="#ArialMT-35" x="141.796875"/>
      </g>
     </g>
    </g>
    <g id="xtick_2">
     <g id="line2d_2">
      <path d="M 167.252595 339.84 
L 167.252595 7.2 
" clip-path="url(#p9600a97d6f)" style="fill: none; stroke: #ffffff; stroke-linecap: round"/>
     </g>
     <g id="text_2">
      <!-- −1.0 -->
      <g style="fill: #262626" transform="translate(156.395251 357.213594) scale(0.11 -0.11)">
       <defs>
        <path id="ArialMT-30" d="M 266 2259 
Q 266 3072 433 3567 
Q 600 4063 929 4331 
Q 1259 4600 1759 4600 
Q 2128 4600 2406 4451 
Q 2684 4303 2865 4023 
Q 3047 3744 3150 3342 
Q 3253 2941 3253 2259 
Q 3253 1453 3087 958 
Q 2922 463 2592 192 
Q 2263 -78 1759 -78 
Q 1097 -78 719 397 
Q 266 969 266 2259 
z
M 844 2259 
Q 844 1131 1108 757 
Q 1372 384 1759 384 
Q 2147 384 2411 759 
Q 2675 1134 2675 2259 
Q 2675 3391 2411 3762 
Q 2147 4134 1753 4134 
Q 1366 4134 1134 3806 
Q 844 3388 844 2259 
z
" transform="scale(0.015625)"/>
       </defs>
       <use xlink:href="#ArialMT-2212"/>
       <use xlink:href="#ArialMT-31" x="58.398438"/>
       <use xlink:href="#ArialMT-2e" x="114.013672"/>
       <use xlink:href="#ArialMT-30" x="141.796875"/>
      </g>
     </g>
    </g>
    <g id="xtick_3">
     <g id="line2d_3">
      <path d="M 236.839174 339.84 
L 236.839174 7.2 
" clip-path="url(#p9600a97d6f)" style="fill: none; stroke: #ffffff; stroke-linecap: round"/>
     </g>
     <g id="text_3">
      <!-- −0.5 -->
      <g style="fill: #262626" transform="translate(225.98183 357.213594) scale(0.11 -0.11)">
       <use xlink:href="#ArialMT-2212"/>
       <use xlink:href="#ArialMT-30" x="58.398438"/>
       <use xlink:href="#ArialMT-2e" x="114.013672"/>
       <use xlink:href="#ArialMT-35" x="141.796875"/>
      </g>
     </g>
    </g>
    <g id="xtick_4">
     <g id="line2d_4">
      <path d="M 306.425753 339.84 
L 306.425753 7.2 
" clip-path="url(#p9600a97d6f)" style="fill: none; stroke: #ffffff; stroke-linecap: round"/>
     </g>
     <g id="text_4">
      <!-- 0.0 -->
      <g style="fill: #262626" transform="translate(298.780753 357.213594) scale(0.11 -0.11)">
       <use xlink:href="#ArialMT-30"/>
       <use xlink:href="#ArialMT-2e" x="55.615234"/>
       <use xlink:href="#ArialMT-30" x="83.398438"/>
      </g>
     </g>
    </g>
    <g id="xtick_5">
     <g id="line2d_5">
      <path d="M 376.012332 339.84 
L 376.012332 7.2 
" clip-path="url(#p9600a97d6f)" style="fill: none; stroke: #ffffff; stroke-linecap: round"/>
     </g>
     <g id="text_5">
      <!-- 0.5 -->
      <g style="fill: #262626" transform="translate(368.367332 357.213594) scale(0.11 -0.11)">
       <use xlink:href="#ArialMT-30"/>
       <use xlink:href="#ArialMT-2e" x="55.615234"/>
       <use xlink:href="#ArialMT-35" x="83.398438"/>
      </g>
     </g>
    </g>
    <g id="xtick_6">
     <g id="line2d_6">
      <path d="M 445.598911 339.84 
L 445.598911 7.2 
" clip-path="url(#p9600a97d6f)" style="fill: none; stroke: #ffffff; stroke-linecap: round"/>
     </g>
     <g id="text_6">
      <!-- 1.0 -->
      <g style="fill: #262626" transform="translate(437.953911 357.213594) scale(0.11 -0.11)">
       <use xlink:href="#ArialMT-31"/>
       <use xlink:href="#ArialMT-2e" x="55.615234"/>
       <use xlink:href="#ArialMT-30" x="83.398438"/>
      </g>
     </g>
    </g>
    <g id="xtick_7">
     <g id="line2d_7">
      <path d="M 515.185491 339.84 
L 515.185491 7.2 
" clip-path="url(#p9600a97d6f)" style="fill: none; stroke: #ffffff; stroke-linecap: round"/>
     </g>
     <g id="text_7">
      <!-- 1.5 -->
      <g style="fill: #262626" transform="translate(507.540491 357.213594) scale(0.11 -0.11)">
       <use xlink:href="#ArialMT-31"/>
       <use xlink:href="#ArialMT-2e" x="55.615234"/>
       <use xlink:href="#ArialMT-35" x="83.398438"/>
      </g>
     </g>
    </g>
    <g id="xtick_8">
     <g id="line2d_8">
      <path d="M 584.77207 339.84 
L 584.77207 7.2 
" clip-path="url(#p9600a97d6f)" style="fill: none; stroke: #ffffff; stroke-linecap: round"/>
     </g>
     <g id="text_8">
      <!-- 2.0 -->
      <g style="fill: #262626" transform="translate(577.12707 357.213594) scale(0.11 -0.11)">
       <defs>
        <path id="ArialMT-32" d="M 3222 541 
L 3222 0 
L 194 0 
Q 188 203 259 391 
Q 375 700 629 1000 
Q 884 1300 1366 1694 
Q 2113 2306 2375 2664 
Q 2638 3022 2638 3341 
Q 2638 3675 2398 3904 
Q 2159 4134 1775 4134 
Q 1369 4134 1125 3890 
Q 881 3647 878 3216 
L 300 3275 
Q 359 3922 746 4261 
Q 1134 4600 1788 4600 
Q 2447 4600 2831 4234 
Q 3216 3869 3216 3328 
Q 3216 3053 3103 2787 
Q 2991 2522 2730 2228 
Q 2469 1934 1863 1422 
Q 1356 997 1212 845 
Q 1069 694 975 541 
L 3222 541 
z
" transform="scale(0.015625)"/>
       </defs>
       <use xlink:href="#ArialMT-32"/>
       <use xlink:href="#ArialMT-2e" x="55.615234"/>
       <use xlink:href="#ArialMT-30" x="83.398438"/>
      </g>
     </g>
    </g>
   </g>
   <g id="matplotlib.axis_2">
    <g id="ytick_1">
     <g id="line2d_9">
      <path d="M 29.241719 329.056083 
L 587.241719 329.056083 
" clip-path="url(#p9600a97d6f)" style="fill: none; stroke: #ffffff; stroke-linecap: round"/>
     </g>
     <g id="text_9">
      <!-- −3 -->
      <g style="fill: #262626" transform="translate(7.2 332.99288) scale(0.11 -0.11)">
       <defs>
        <path id="ArialMT-33" d="M 269 1209 
L 831 1284 
Q 928 806 1161 595 
Q 1394 384 1728 384 
Q 2125 384 2398 659 
Q 2672 934 2672 1341 
Q 2672 1728 2419 1979 
Q 2166 2231 1775 2231 
Q 1616 2231 1378 2169 
L 1441 2663 
Q 1497 2656 1531 2656 
Q 1891 2656 2178 2843 
Q 2466 3031 2466 3422 
Q 2466 3731 2256 3934 
Q 2047 4138 1716 4138 
Q 1388 4138 1169 3931 
Q 950 3725 888 3313 
L 325 3413 
Q 428 3978 793 4289 
Q 1159 4600 1703 4600 
Q 2078 4600 2393 4439 
Q 2709 4278 2876 4000 
Q 3044 3722 3044 3409 
Q 3044 3113 2884 2869 
Q 2725 2625 2413 2481 
Q 2819 2388 3044 2092 
Q 3269 1797 3269 1353 
Q 3269 753 2831 336 
Q 2394 -81 1725 -81 
Q 1122 -81 723 278 
Q 325 638 269 1209 
z
" transform="scale(0.015625)"/>
       </defs>
       <use xlink:href="#ArialMT-2212"/>
       <use xlink:href="#ArialMT-33" x="58.398438"/>
      </g>
     </g>
    </g>
    <g id="ytick_2">
     <g id="line2d_10">
      <path d="M 29.241719 258.245878 
L 587.241719 258.245878 
" clip-path="url(#p9600a97d6f)" style="fill: none; stroke: #ffffff; stroke-linecap: round"/>
     </g>
     <g id="text_10">
      <!-- −2 -->
      <g style="fill: #262626" transform="translate(7.2 262.182675) scale(0.11 -0.11)">
       <use xlink:href="#ArialMT-2212"/>
       <use xlink:href="#ArialMT-32" x="58.398438"/>
      </g>
     </g>
    </g>
    <g id="ytick_3">
     <g id="line2d_11">
      <path d="M 29.241719 187.435673 
L 587.241719 187.435673 
" clip-path="url(#p9600a97d6f)" style="fill: none; stroke: #ffffff; stroke-linecap: round"/>
     </g>
     <g id="text_11">
      <!-- −1 -->
      <g style="fill: #262626" transform="translate(7.2 191.37247) scale(0.11 -0.11)">
       <use xlink:href="#ArialMT-2212"/>
       <use xlink:href="#ArialMT-31" x="58.398438"/>
      </g>
     </g>
    </g>
    <g id="ytick_4">
     <g id="line2d_12">
      <path d="M 29.241719 116.625468 
L 587.241719 116.625468 
" clip-path="url(#p9600a97d6f)" style="fill: none; stroke: #ffffff; stroke-linecap: round"/>
     </g>
     <g id="text_12">
      <!-- 0 -->
      <g style="fill: #262626" transform="translate(13.624688 120.562265) scale(0.11 -0.11)">
       <use xlink:href="#ArialMT-30"/>
      </g>
     </g>
    </g>
    <g id="ytick_5">
     <g id="line2d_13">
      <path d="M 29.241719 45.815263 
L 587.241719 45.815263 
" clip-path="url(#p9600a97d6f)" style="fill: none; stroke: #ffffff; stroke-linecap: round"/>
     </g>
     <g id="text_13">
      <!-- 1 -->
      <g style="fill: #262626" transform="translate(13.624688 49.75206) scale(0.11 -0.11)">
       <use xlink:href="#ArialMT-31"/>
      </g>
     </g>
    </g>
   </g>
   <g id="line2d_14">
    <path d="M 54.605355 314.180354 
L 66.096596 285.914295 
L 68.709473 279.556872 
L 88.219894 232.810195 
L 92.229173 223.333895 
L 93.391283 220.595012 
L 97.249081 211.534061 
L 100.176174 204.701041 
L 100.376701 204.234698 
L 106.784814 189.534687 
L 107.598906 187.709716 
L 111.058693 180.142704 
L 117.44037 167.388566 
L 119.612301 163.339966 
L 138.042095 134.983464 
L 138.848339 133.666961 
L 145.935876 122.523431 
L 166.485513 93.114739 
L 175.825931 83.175588 
L 177.696187 81.087336 
L 178.930503 79.719684 
L 193.12997 66.103859 
L 199.557829 61.478206 
L 209.601579 53.504945 
L 209.805774 53.300767 
L 214.850781 50.51834 
L 216.12025 50.379396 
L 220.134774 50.217359 
L 226.054893 49.405583 
L 229.630391 48.817455 
L 231.394298 48.72233 
L 241.332288 49.004799 
L 244.168803 48.878192 
L 244.88849 48.863234 
L 247.588282 48.873378 
L 247.809814 48.878094 
L 248.405799 48.882779 
L 251.373574 48.925158 
L 251.725779 48.930388 
L 256.432778 49.949334 
L 256.503139 49.973528 
L 261.157898 51.903305 
L 264.358992 53.223475 
L 265.262916 53.514769 
L 285.474602 58.768195 
L 287.98609 59.829003 
L 288.949298 60.103903 
L 291.745513 60.989537 
L 292.998268 61.450302 
L 293.60212 61.68322 
L 296.216885 62.572227 
L 300.262564 64.160807 
L 302.613509 64.77038 
L 307.946774 66.284453 
L 308.647167 66.453576 
L 309.063329 66.581675 
L 322.236124 69.999682 
L 335.255169 71.433075 
L 336.194184 71.926373 
L 339.43321 71.513009 
L 348.118402 71.002984 
L 348.155044 71.003831 
L 348.286934 71.007217 
L 351.065035 71.247195 
L 355.328743 72.729204 
L 355.787832 73.029982 
L 364.449502 78.718346 
L 364.711523 79.039117 
L 367.508492 82.257514 
L 368.736658 83.58648 
L 369.324725 84.170936 
L 369.812212 84.692677 
L 371.303376 86.237802 
L 383.910487 98.116663 
L 385.553318 99.681522 
L 387.105674 101.212371 
L 390.759026 104.650969 
L 402.450463 113.469846 
L 436.774235 136.323696 
L 452.777051 149.134577 
L 460.44084 154.168593 
L 466.264518 159.170514 
L 466.493989 159.383016 
L 487.264715 177.035655 
L 492.628128 181.509829 
L 493.367642 182.128436 
L 493.849233 182.531104 
L 500.895499 188.047448 
L 510.153007 194.100348 
L 510.967461 194.537299 
L 512.479782 195.196674 
L 535.746622 209.946652 
L 537.927076 211.300683 
L 540.841556 213.095486 
L 541.73122 213.640484 
L 554.651043 221.528398 
L 558.240975 223.748837 
L 559.12163 224.297108 
L 560.486415 225.149895 
L 561.878082 226.023641 
" clip-path="url(#p9600a97d6f)" style="fill: none; stroke: #ff6347; stroke-width: 1.5; stroke-linecap: round"/>
   </g>
   <g id="line2d_15">
    <defs>
     <path id="mcaafb87374" d="M 0 1.5 
C 0.397805 1.5 0.77937 1.341951 1.06066 1.06066 
C 1.341951 0.77937 1.5 0.397805 1.5 0 
C 1.5 -0.397805 1.341951 -0.77937 1.06066 -1.06066 
C 0.77937 -1.341951 0.397805 -1.5 0 -1.5 
C -0.397805 -1.5 -0.77937 -1.341951 -1.06066 -1.06066 
C -1.341951 -0.77937 -1.5 -0.397805 -1.5 0 
C -1.5 0.397805 -1.341951 0.77937 -1.06066 1.06066 
C -0.77937 1.341951 -0.397805 1.5 0 1.5 
z
" style="stroke: #1a1a1a"/>
    </defs>
    <g clip-path="url(#p9600a97d6f)">
     <use xlink:href="#mcaafb87374" x="247.809814" y="51.851893" style="fill: #1a1a1a; stroke: #1a1a1a"/>
     <use xlink:href="#mcaafb87374" x="554.651043" y="236.293128" style="fill: #1a1a1a; stroke: #1a1a1a"/>
     <use xlink:href="#mcaafb87374" x="296.216885" y="51.630521" style="fill: #1a1a1a; stroke: #1a1a1a"/>
     <use xlink:href="#mcaafb87374" x="291.745513" y="52.491148" style="fill: #1a1a1a; stroke: #1a1a1a"/>
     <use xlink:href="#mcaafb87374" x="175.825931" y="94.515868" style="fill: #1a1a1a; stroke: #1a1a1a"/>
     <use xlink:href="#mcaafb87374" x="265.262916" y="71.581336" style="fill: #1a1a1a; stroke: #1a1a1a"/>
     <use xlink:href="#mcaafb87374" x="251.373574" y="42.173688" style="fill: #1a1a1a; stroke: #1a1a1a"/>
     <use xlink:href="#mcaafb87374" x="371.303376" y="101.00169" style="fill: #1a1a1a; stroke: #1a1a1a"/>
     <use xlink:href="#mcaafb87374" x="93.391283" y="230.948347" style="fill: #1a1a1a; stroke: #1a1a1a"/>
     <use xlink:href="#mcaafb87374" x="54.605355" y="324.72" style="fill: #1a1a1a; stroke: #1a1a1a"/>
     <use xlink:href="#mcaafb87374" x="402.450463" y="110.51168" style="fill: #1a1a1a; stroke: #1a1a1a"/>
     <use xlink:href="#mcaafb87374" x="300.262564" y="84.112082" style="fill: #1a1a1a; stroke: #1a1a1a"/>
     <use xlink:href="#mcaafb87374" x="383.910487" y="102.630398" style="fill: #1a1a1a; stroke: #1a1a1a"/>
     <use xlink:href="#mcaafb87374" x="369.324725" y="62.737454" style="fill: #1a1a1a; stroke: #1a1a1a"/>
     <use xlink:href="#mcaafb87374" x="460.44084" y="161.505612" style="fill: #1a1a1a; stroke: #1a1a1a"/>
     <use xlink:href="#mcaafb87374" x="452.777051" y="124.528381" style="fill: #1a1a1a; stroke: #1a1a1a"/>
     <use xlink:href="#mcaafb87374" x="466.264518" y="147.534505" style="fill: #1a1a1a; stroke: #1a1a1a"/>
     <use xlink:href="#mcaafb87374" x="216.12025" y="25.370177" style="fill: #1a1a1a; stroke: #1a1a1a"/>
     <use xlink:href="#mcaafb87374" x="256.503139" y="41.923856" style="fill: #1a1a1a; stroke: #1a1a1a"/>
     <use xlink:href="#mcaafb87374" x="293.60212" y="47.544666" style="fill: #1a1a1a; stroke: #1a1a1a"/>
     <use xlink:href="#mcaafb87374" x="335.255169" y="65.567247" style="fill: #1a1a1a; stroke: #1a1a1a"/>
     <use xlink:href="#mcaafb87374" x="537.927076" y="195.488366" style="fill: #1a1a1a; stroke: #1a1a1a"/>
     <use xlink:href="#mcaafb87374" x="209.805774" y="84.177414" style="fill: #1a1a1a; stroke: #1a1a1a"/>
     <use xlink:href="#mcaafb87374" x="138.848339" y="126.571008" style="fill: #1a1a1a; stroke: #1a1a1a"/>
     <use xlink:href="#mcaafb87374" x="355.328743" y="56.532809" style="fill: #1a1a1a; stroke: #1a1a1a"/>
     <use xlink:href="#mcaafb87374" x="307.946774" y="80.578158" style="fill: #1a1a1a; stroke: #1a1a1a"/>
     <use xlink:href="#mcaafb87374" x="138.042095" y="107.982278" style="fill: #1a1a1a; stroke: #1a1a1a"/>
     <use xlink:href="#mcaafb87374" x="336.194184" y="66.863199" style="fill: #1a1a1a; stroke: #1a1a1a"/>
     <use xlink:href="#mcaafb87374" x="500.895499" y="172.184336" style="fill: #1a1a1a; stroke: #1a1a1a"/>
     <use xlink:href="#mcaafb87374" x="385.553318" y="106.00969" style="fill: #1a1a1a; stroke: #1a1a1a"/>
     <use xlink:href="#mcaafb87374" x="166.485513" y="77.24025" style="fill: #1a1a1a; stroke: #1a1a1a"/>
     <use xlink:href="#mcaafb87374" x="145.935876" y="127.243249" style="fill: #1a1a1a; stroke: #1a1a1a"/>
     <use xlink:href="#mcaafb87374" x="193.12997" y="41.370164" style="fill: #1a1a1a; stroke: #1a1a1a"/>
     <use xlink:href="#mcaafb87374" x="493.367642" y="191.92258" style="fill: #1a1a1a; stroke: #1a1a1a"/>
     <use xlink:href="#mcaafb87374" x="68.709473" y="280.72533" style="fill: #1a1a1a; stroke: #1a1a1a"/>
     <use xlink:href="#mcaafb87374" x="100.176174" y="207.243874" style="fill: #1a1a1a; stroke: #1a1a1a"/>
     <use xlink:href="#mcaafb87374" x="88.219894" y="205.666123" style="fill: #1a1a1a; stroke: #1a1a1a"/>
     <use xlink:href="#mcaafb87374" x="493.849233" y="187.356354" style="fill: #1a1a1a; stroke: #1a1a1a"/>
     <use xlink:href="#mcaafb87374" x="368.736658" y="77.566726" style="fill: #1a1a1a; stroke: #1a1a1a"/>
     <use xlink:href="#mcaafb87374" x="107.598906" y="175.505879" style="fill: #1a1a1a; stroke: #1a1a1a"/>
     <use xlink:href="#mcaafb87374" x="247.588282" y="61.414627" style="fill: #1a1a1a; stroke: #1a1a1a"/>
     <use xlink:href="#mcaafb87374" x="256.432778" y="40.705982" style="fill: #1a1a1a; stroke: #1a1a1a"/>
     <use xlink:href="#mcaafb87374" x="285.474602" y="67.713519" style="fill: #1a1a1a; stroke: #1a1a1a"/>
     <use xlink:href="#mcaafb87374" x="111.058693" y="188.273549" style="fill: #1a1a1a; stroke: #1a1a1a"/>
     <use xlink:href="#mcaafb87374" x="436.774235" y="140.863852" style="fill: #1a1a1a; stroke: #1a1a1a"/>
     <use xlink:href="#mcaafb87374" x="540.841556" y="200.505577" style="fill: #1a1a1a; stroke: #1a1a1a"/>
     <use xlink:href="#mcaafb87374" x="241.332288" y="22.32" style="fill: #1a1a1a; stroke: #1a1a1a"/>
     <use xlink:href="#mcaafb87374" x="512.479782" y="205.300432" style="fill: #1a1a1a; stroke: #1a1a1a"/>
     <use xlink:href="#mcaafb87374" x="348.286934" y="63.023028" style="fill: #1a1a1a; stroke: #1a1a1a"/>
     <use xlink:href="#mcaafb87374" x="248.405799" y="66.667555" style="fill: #1a1a1a; stroke: #1a1a1a"/>
     <use xlink:href="#mcaafb87374" x="106.784814" y="168.793547" style="fill: #1a1a1a; stroke: #1a1a1a"/>
     <use xlink:href="#mcaafb87374" x="355.787832" y="51.664885" style="fill: #1a1a1a; stroke: #1a1a1a"/>
     <use xlink:href="#mcaafb87374" x="541.73122" y="196.730407" style="fill: #1a1a1a; stroke: #1a1a1a"/>
     <use xlink:href="#mcaafb87374" x="487.264715" y="186.713708" style="fill: #1a1a1a; stroke: #1a1a1a"/>
     <use xlink:href="#mcaafb87374" x="510.967461" y="204.465027" style="fill: #1a1a1a; stroke: #1a1a1a"/>
     <use xlink:href="#mcaafb87374" x="287.98609" y="75.151599" style="fill: #1a1a1a; stroke: #1a1a1a"/>
     <use xlink:href="#mcaafb87374" x="387.105674" y="120.384548" style="fill: #1a1a1a; stroke: #1a1a1a"/>
     <use xlink:href="#mcaafb87374" x="244.168803" y="27.068727" style="fill: #1a1a1a; stroke: #1a1a1a"/>
     <use xlink:href="#mcaafb87374" x="351.065035" y="59.756021" style="fill: #1a1a1a; stroke: #1a1a1a"/>
     <use xlink:href="#mcaafb87374" x="231.394298" y="44.59954" style="fill: #1a1a1a; stroke: #1a1a1a"/>
     <use xlink:href="#mcaafb87374" x="229.630391" y="63.161529" style="fill: #1a1a1a; stroke: #1a1a1a"/>
     <use xlink:href="#mcaafb87374" x="364.449502" y="93.651072" style="fill: #1a1a1a; stroke: #1a1a1a"/>
     <use xlink:href="#mcaafb87374" x="322.236124" y="93.061532" style="fill: #1a1a1a; stroke: #1a1a1a"/>
     <use xlink:href="#mcaafb87374" x="535.746622" y="207.456345" style="fill: #1a1a1a; stroke: #1a1a1a"/>
     <use xlink:href="#mcaafb87374" x="264.358992" y="44.833118" style="fill: #1a1a1a; stroke: #1a1a1a"/>
     <use xlink:href="#mcaafb87374" x="209.601579" y="46.179929" style="fill: #1a1a1a; stroke: #1a1a1a"/>
     <use xlink:href="#mcaafb87374" x="339.43321" y="74.309074" style="fill: #1a1a1a; stroke: #1a1a1a"/>
     <use xlink:href="#mcaafb87374" x="390.759026" y="86.730223" style="fill: #1a1a1a; stroke: #1a1a1a"/>
     <use xlink:href="#mcaafb87374" x="369.812212" y="71.236006" style="fill: #1a1a1a; stroke: #1a1a1a"/>
     <use xlink:href="#mcaafb87374" x="199.557829" y="53.755507" style="fill: #1a1a1a; stroke: #1a1a1a"/>
     <use xlink:href="#mcaafb87374" x="348.118402" y="77.848463" style="fill: #1a1a1a; stroke: #1a1a1a"/>
     <use xlink:href="#mcaafb87374" x="251.725779" y="57.770885" style="fill: #1a1a1a; stroke: #1a1a1a"/>
     <use xlink:href="#mcaafb87374" x="510.153007" y="215.757746" style="fill: #1a1a1a; stroke: #1a1a1a"/>
     <use xlink:href="#mcaafb87374" x="560.486415" y="239.766226" style="fill: #1a1a1a; stroke: #1a1a1a"/>
     <use xlink:href="#mcaafb87374" x="92.229173" y="210.180549" style="fill: #1a1a1a; stroke: #1a1a1a"/>
     <use xlink:href="#mcaafb87374" x="220.134774" y="35.312676" style="fill: #1a1a1a; stroke: #1a1a1a"/>
     <use xlink:href="#mcaafb87374" x="214.850781" y="103.292772" style="fill: #1a1a1a; stroke: #1a1a1a"/>
     <use xlink:href="#mcaafb87374" x="261.157898" y="41.418862" style="fill: #1a1a1a; stroke: #1a1a1a"/>
     <use xlink:href="#mcaafb87374" x="244.88849" y="51.560716" style="fill: #1a1a1a; stroke: #1a1a1a"/>
     <use xlink:href="#mcaafb87374" x="559.12163" y="227.847518" style="fill: #1a1a1a; stroke: #1a1a1a"/>
     <use xlink:href="#mcaafb87374" x="292.998268" y="62.758504" style="fill: #1a1a1a; stroke: #1a1a1a"/>
     <use xlink:href="#mcaafb87374" x="177.696187" y="75.816818" style="fill: #1a1a1a; stroke: #1a1a1a"/>
     <use xlink:href="#mcaafb87374" x="178.930503" y="83.719247" style="fill: #1a1a1a; stroke: #1a1a1a"/>
     <use xlink:href="#mcaafb87374" x="226.054893" y="64.480177" style="fill: #1a1a1a; stroke: #1a1a1a"/>
     <use xlink:href="#mcaafb87374" x="119.612301" y="169.284074" style="fill: #1a1a1a; stroke: #1a1a1a"/>
     <use xlink:href="#mcaafb87374" x="66.096596" y="300.857903" style="fill: #1a1a1a; stroke: #1a1a1a"/>
     <use xlink:href="#mcaafb87374" x="492.628128" y="168.443846" style="fill: #1a1a1a; stroke: #1a1a1a"/>
     <use xlink:href="#mcaafb87374" x="367.508492" y="103.909571" style="fill: #1a1a1a; stroke: #1a1a1a"/>
     <use xlink:href="#mcaafb87374" x="348.155044" y="77.693118" style="fill: #1a1a1a; stroke: #1a1a1a"/>
     <use xlink:href="#mcaafb87374" x="364.711523" y="71.66671" style="fill: #1a1a1a; stroke: #1a1a1a"/>
     <use xlink:href="#mcaafb87374" x="117.44037" y="171.459168" style="fill: #1a1a1a; stroke: #1a1a1a"/>
     <use xlink:href="#mcaafb87374" x="97.249081" y="196.8973" style="fill: #1a1a1a; stroke: #1a1a1a"/>
     <use xlink:href="#mcaafb87374" x="308.647167" y="38.642368" style="fill: #1a1a1a; stroke: #1a1a1a"/>
     <use xlink:href="#mcaafb87374" x="288.949298" y="52.072089" style="fill: #1a1a1a; stroke: #1a1a1a"/>
     <use xlink:href="#mcaafb87374" x="466.493989" y="167.659696" style="fill: #1a1a1a; stroke: #1a1a1a"/>
     <use xlink:href="#mcaafb87374" x="558.240975" y="205.183333" style="fill: #1a1a1a; stroke: #1a1a1a"/>
     <use xlink:href="#mcaafb87374" x="561.878082" y="235.876719" style="fill: #1a1a1a; stroke: #1a1a1a"/>
     <use xlink:href="#mcaafb87374" x="309.063329" y="66.683024" style="fill: #1a1a1a; stroke: #1a1a1a"/>
     <use xlink:href="#mcaafb87374" x="100.376701" y="200.281857" style="fill: #1a1a1a; stroke: #1a1a1a"/>
     <use xlink:href="#mcaafb87374" x="302.613509" y="62.51296" style="fill: #1a1a1a; stroke: #1a1a1a"/>
    </g>
   </g>
   <g id="patch_3">
    <path d="M 29.241719 339.84 
L 29.241719 7.2 
" style="fill: none; stroke: #ffffff; stroke-width: 1.25; stroke-linejoin: miter; stroke-linecap: square"/>
   </g>
   <g id="patch_4">
    <path d="M 587.241719 339.84 
L 587.241719 7.2 
" style="fill: none; stroke: #ffffff; stroke-width: 1.25; stroke-linejoin: miter; stroke-linecap: square"/>
   </g>
   <g id="patch_5">
    <path d="M 29.241719 339.84 
L 587.241719 339.84 
" style="fill: none; stroke: #ffffff; stroke-width: 1.25; stroke-linejoin: miter; stroke-linecap: square"/>
   </g>
   <g id="patch_6">
    <path d="M 29.241719 7.2 
L 587.241719 7.2 
" style="fill: none; stroke: #ffffff; stroke-width: 1.25; stroke-linejoin: miter; stroke-linecap: square"/>
   </g>
  </g>
 </g>
 <defs>
  <clipPath id="p9600a97d6f">
   <rect x="29.241719" y="7.2" width="558" height="332.64"/>
  </clipPath>
 </defs>
</svg>