<?xml version="1.0" encoding="utf-8" standalone="no"?>
<!DOCTYPE svg PUBLIC "-//W3C//DTD SVG 1.1//EN"
  "http://www.w3.org/Graphics/SVG/1.1/DTD/svg11.dtd">
<svg xmlns:xlink="http://www.w3.org/1999/xlink" width="603.614687pt" height="366.599844pt" viewBox="0 0 603.614687 366.599844" xmlns="http://www.w3.org/2000/svg" version="1.1">
 <metadata>
  <rdf:RDF xmlns:dc="http://purl.org/dc/elements/1.1/" xmlns:cc="http://creativecommons.org/ns#" xmlns:rdf="http://www.w3.org/1999/02/22-rdf-syntax-ns#">
   <cc:Work>
    <dc:type rdf:resource="http://purl.org/dc/dcmitype/StillImage"/>
    <dc:date>2024-02-12T08:52:00.698060</dc:date>
    <dc:format>image/svg+xml</dc:format>
    <dc:creator>
     <cc:Agent>
      <dc:title>Matplotlib v3.8.2, https://matplotlib.org/</dc:title>
     </cc:Agent>
    </dc:creator>
   </cc:Work>
  </rdf:RDF>
 </metadata>
 <defs>
  <style type="text/css">*{stroke-linejoin: round; stroke-linecap: butt}</style>
 </defs>
 <g id="figure_1">
  <g id="patch_1">
   <path d="M 0 366.599844 
L 603.614687 366.599844 
L 603.614687 0 
L 0 0 
z
" style="fill: #ffffff"/>
  </g>
  <g id="axes_1">
   <g id="patch_2">
    <path d="M 38.414687 339.84 
L 596.414688 339.84 
L 596.414688 7.2 
L 38.414687 7.2 
z
" style="fill: #eaeaf2"/>
   </g>
   <g id="matplotlib.axis_1">
    <g id="xtick_1">
     <g id="line2d_1">
      <path d="M 96.874461 339.84 
L 96.874461 7.2 
" clip-path="url(#pdfc2f16c4b)" style="fill: none; stroke: #ffffff; stroke-linecap: round"/>
     </g>
     <g id="text_1">
      <!-- −1.5 -->
      <g style="fill: #262626" transform="translate(86.017117 357.213594) scale(0.11 -0.11)">
       <defs>
        <path id="ArialMT-2212" d="M 3381 1997 
L 356 1997 
L 356 2522 
L 3381 2522 
L 3381 1997 
z
" transform="scale(0.015625)"/>
        <path id="ArialMT-31" d="M 2384 0 
L 1822 0 
L 1822 3584 
Q 1619 3391 1289 3197 
Q 959 3003 697 2906 
L 697 3450 
Q 1169 3672 1522 3987 
Q 1875 4303 2022 4600 
L 2384 4600 
L 2384 0 
z
" transform="scale(0.015625)"/>
        <path id="ArialMT-2e" d="M 581 0 
L 581 641 
L 1222 641 
L 1222 0 
L 581 0 
z
" transform="scale(0.015625)"/>
        <path id="ArialMT-35" d="M 266 1200 
L 856 1250 
Q 922 819 1161 601 
Q 1400 384 1738 384 
Q 2144 384 2425 690 
Q 2706 997 2706 1503 
Q 2706 1984 2436 2262 
Q 2166 2541 1728 2541 
Q 1456 2541 1237 2417 
Q 1019 2294 894 2097 
L 366 2166 
L 809 4519 
L 3088 4519 
L 3088 3981 
L 1259 3981 
L 1013 2750 
Q 1425 3038 1878 3038 
Q 2478 3038 2890 2622 
Q 3303 2206 3303 1553 
Q 3303 931 2941 478 
Q 2500 -78 1738 -78 
Q 1113 -78 717 272 
Q 322 622 266 1200 
z
" transform="scale(0.015625)"/>
       </defs>
       <use xlink:href="#ArialMT-2212"/>
       <use xlink:href="#ArialMT-31" x="58.398438"/>
       <use xlink:href="#ArialMT-2e" x="114.013672"/>
       <use xlink:href="#ArialMT-35" x="141.796875"/>
      </g>
     </g>
    </g>
    <g id="xtick_2">
     <g id="line2d_2">
      <path d="M 168.577266 339.84 
L 168.577266 7.2 
" clip-path="url(#pdfc2f16c4b)" style="fill: none; stroke: #ffffff; stroke-linecap: round"/>
     </g>
     <g id="text_2">
      <!-- −1.0 -->
      <g style="fill: #262626" transform="translate(157.719922 357.213594) scale(0.11 -0.11)">
       <defs>
        <path id="ArialMT-30" d="M 266 2259 
Q 266 3072 433 3567 
Q 600 4063 929 4331 
Q 1259 4600 1759 4600 
Q 2128 4600 2406 4451 
Q 2684 4303 2865 4023 
Q 3047 3744 3150 3342 
Q 3253 2941 3253 2259 
Q 3253 1453 3087 958 
Q 2922 463 2592 192 
Q 2263 -78 1759 -78 
Q 1097 -78 719 397 
Q 266 969 266 2259 
z
M 844 2259 
Q 844 1131 1108 757 
Q 1372 384 1759 384 
Q 2147 384 2411 759 
Q 2675 1134 2675 2259 
Q 2675 3391 2411 3762 
Q 2147 4134 1753 4134 
Q 1366 4134 1134 3806 
Q 844 3388 844 2259 
z
" transform="scale(0.015625)"/>
       </defs>
       <use xlink:href="#ArialMT-2212"/>
       <use xlink:href="#ArialMT-31" x="58.398438"/>
       <use xlink:href="#ArialMT-2e" x="114.013672"/>
       <use xlink:href="#ArialMT-30" x="141.796875"/>
      </g>
     </g>
    </g>
    <g id="xtick_3">
     <g id="line2d_3">
      <path d="M 240.280071 339.84 
L 240.280071 7.2 
" clip-path="url(#pdfc2f16c4b)" style="fill: none; stroke: #ffffff; stroke-linecap: round"/>
     </g>
     <g id="text_3">
      <!-- −0.5 -->
      <g style="fill: #262626" transform="translate(229.422727 357.213594) scale(0.11 -0.11)">
       <use xlink:href="#ArialMT-2212"/>
       <use xlink:href="#ArialMT-30" x="58.398438"/>
       <use xlink:href="#ArialMT-2e" x="114.013672"/>
       <use xlink:href="#ArialMT-35" x="141.796875"/>
      </g>
     </g>
    </g>
    <g id="xtick_4">
     <g id="line2d_4">
      <path d="M 311.982876 339.84 
L 311.982876 7.2 
" clip-path="url(#pdfc2f16c4b)" style="fill: none; stroke: #ffffff; stroke-linecap: round"/>
     </g>
     <g id="text_4">
      <!-- 0.0 -->
      <g style="fill: #262626" transform="translate(304.337876 357.213594) scale(0.11 -0.11)">
       <use xlink:href="#ArialMT-30"/>
       <use xlink:href="#ArialMT-2e" x="55.615234"/>
       <use xlink:href="#ArialMT-30" x="83.398438"/>
      </g>
     </g>
    </g>
    <g id="xtick_5">
     <g id="line2d_5">
      <path d="M 383.685681 339.84 
L 383.685681 7.2 
" clip-path="url(#pdfc2f16c4b)" style="fill: none; stroke: #ffffff; stroke-linecap: round"/>
     </g>
     <g id="text_5">
      <!-- 0.5 -->
      <g style="fill: #262626" transform="translate(376.040681 357.213594) scale(0.11 -0.11)">
       <use xlink:href="#ArialMT-30"/>
       <use xlink:href="#ArialMT-2e" x="55.615234"/>
       <use xlink:href="#ArialMT-35" x="83.398438"/>
      </g>
     </g>
    </g>
    <g id="xtick_6">
     <g id="line2d_6">
      <path d="M 455.388486 339.84 
L 455.388486 7.2 
" clip-path="url(#pdfc2f16c4b)" style="fill: none; stroke: #ffffff; stroke-linecap: round"/>
     </g>
     <g id="text_6">
      <!-- 1.0 -->
      <g style="fill: #262626" transform="translate(447.743486 357.213594) scale(0.11 -0.11)">
       <use xlink:href="#ArialMT-31"/>
       <use xlink:href="#ArialMT-2e" x="55.615234"/>
       <use xlink:href="#ArialMT-30" x="83.398438"/>
      </g>
     </g>
    </g>
    <g id="xtick_7">
     <g id="line2d_7">
      <path d="M 527.091291 339.84 
L 527.091291 7.2 
" clip-path="url(#pdfc2f16c4b)" style="fill: none; stroke: #ffffff; stroke-linecap: round"/>
     </g>
     <g id="text_7">
      <!-- 1.5 -->
      <g style="fill: #262626" transform="translate(519.446291 357.213594) scale(0.11 -0.11)">
       <use xlink:href="#ArialMT-31"/>
       <use xlink:href="#ArialMT-2e" x="55.615234"/>
       <use xlink:href="#ArialMT-35" x="83.398438"/>
      </g>
     </g>
    </g>
   </g>
   <g id="matplotlib.axis_2">
    <g id="ytick_1">
     <g id="line2d_8">
      <path d="M 38.414687 325.895666 
L 596.414688 325.895666 
" clip-path="url(#pdfc2f16c4b)" style="fill: none; stroke: #ffffff; stroke-linecap: round"/>
     </g>
     <g id="text_8">
      <!-- −2.5 -->
      <g style="fill: #262626" transform="translate(7.2 329.832463) scale(0.11 -0.11)">
       <defs>
        <path id="ArialMT-32" d="M 3222 541 
L 3222 0 
L 194 0 
Q 188 203 259 391 
Q 375 700 629 1000 
Q 884 1300 1366 1694 
Q 2113 2306 2375 2664 
Q 2638 3022 2638 3341 
Q 2638 3675 2398 3904 
Q 2159 4134 1775 4134 
Q 1369 4134 1125 3890 
Q 881 3647 878 3216 
L 300 3275 
Q 359 3922 746 4261 
Q 1134 4600 1788 4600 
Q 2447 4600 2831 4234 
Q 3216 3869 3216 3328 
Q 3216 3053 3103 2787 
Q 2991 2522 2730 2228 
Q 2469 1934 1863 1422 
Q 1356 997 1212 845 
Q 1069 694 975 541 
L 3222 541 
z
" transform="scale(0.015625)"/>
       </defs>
       <use xlink:href="#ArialMT-2212"/>
       <use xlink:href="#ArialMT-32" x="58.398438"/>
       <use xlink:href="#ArialMT-2e" x="114.013672"/>
       <use xlink:href="#ArialMT-35" x="141.796875"/>
      </g>
     </g>
    </g>
    <g id="ytick_2">
     <g id="line2d_9">
      <path d="M 38.414687 288.222375 
L 596.414688 288.222375 
" clip-path="url(#pdfc2f16c4b)" style="fill: none; stroke: #ffffff; stroke-linecap: round"/>
     </g>
     <g id="text_9">
      <!-- −2.0 -->
      <g style="fill: #262626" transform="translate(7.2 292.159172) scale(0.11 -0.11)">
       <use xlink:href="#ArialMT-2212"/>
       <use xlink:href="#ArialMT-32" x="58.398438"/>
       <use xlink:href="#ArialMT-2e" x="114.013672"/>
       <use xlink:href="#ArialMT-30" x="141.796875"/>
      </g>
     </g>
    </g>
    <g id="ytick_3">
     <g id="line2d_10">
      <path d="M 38.414687 250.549083 
L 596.414688 250.549083 
" clip-path="url(#pdfc2f16c4b)" style="fill: none; stroke: #ffffff; stroke-linecap: round"/>
     </g>
     <g id="text_10">
      <!-- −1.5 -->
      <g style="fill: #262626" transform="translate(7.2 254.48588) scale(0.11 -0.11)">
       <use xlink:href="#ArialMT-2212"/>
       <use xlink:href="#ArialMT-31" x="58.398438"/>
       <use xlink:href="#ArialMT-2e" x="114.013672"/>
       <use xlink:href="#ArialMT-35" x="141.796875"/>
      </g>
     </g>
    </g>
    <g id="ytick_4">
     <g id="line2d_11">
      <path d="M 38.414687 212.875792 
L 596.414688 212.875792 
" clip-path="url(#pdfc2f16c4b)" style="fill: none; stroke: #ffffff; stroke-linecap: round"/>
     </g>
     <g id="text_11">
      <!-- −1.0 -->
      <g style="fill: #262626" transform="translate(7.2 216.812589) scale(0.11 -0.11)">
       <use xlink:href="#ArialMT-2212"/>
       <use xlink:href="#ArialMT-31" x="58.398438"/>
       <use xlink:href="#ArialMT-2e" x="114.013672"/>
       <use xlink:href="#ArialMT-30" x="141.796875"/>
      </g>
     </g>
    </g>
    <g id="ytick_5">
     <g id="line2d_12">
      <path d="M 38.414687 175.2025 
L 596.414688 175.2025 
" clip-path="url(#pdfc2f16c4b)" style="fill: none; stroke: #ffffff; stroke-linecap: round"/>
     </g>
     <g id="text_12">
      <!-- −0.5 -->
      <g style="fill: #262626" transform="translate(7.2 179.139297) scale(0.11 -0.11)">
       <use xlink:href="#ArialMT-2212"/>
       <use xlink:href="#ArialMT-30" x="58.398438"/>
       <use xlink:href="#ArialMT-2e" x="114.013672"/>
       <use xlink:href="#ArialMT-35" x="141.796875"/>
      </g>
     </g>
    </g>
    <g id="ytick_6">
     <g id="line2d_13">
      <path d="M 38.414687 137.529209 
L 596.414688 137.529209 
" clip-path="url(#pdfc2f16c4b)" style="fill: none; stroke: #ffffff; stroke-linecap: round"/>
     </g>
     <g id="text_13">
      <!-- 0.0 -->
      <g style="fill: #262626" transform="translate(13.624687 141.466006) scale(0.11 -0.11)">
       <use xlink:href="#ArialMT-30"/>
       <use xlink:href="#ArialMT-2e" x="55.615234"/>
       <use xlink:href="#ArialMT-30" x="83.398438"/>
      </g>
     </g>
    </g>
    <g id="ytick_7">
     <g id="line2d_14">
      <path d="M 38.414687 99.855917 
L 596.414688 99.855917 
" clip-path="url(#pdfc2f16c4b)" style="fill: none; stroke: #ffffff; stroke-linecap: round"/>
     </g>
     <g id="text_14">
      <!-- 0.5 -->
      <g style="fill: #262626" transform="translate(13.624687 103.792714) scale(0.11 -0.11)">
       <use xlink:href="#ArialMT-30"/>
       <use xlink:href="#ArialMT-2e" x="55.615234"/>
       <use xlink:href="#ArialMT-35" x="83.398438"/>
      </g>
     </g>
    </g>
    <g id="ytick_8">
     <g id="line2d_15">
      <path d="M 38.414687 62.182626 
L 596.414688 62.182626 
" clip-path="url(#pdfc2f16c4b)" style="fill: none; stroke: #ffffff; stroke-linecap: round"/>
     </g>
     <g id="text_15">
      <!-- 1.0 -->
      <g style="fill: #262626" transform="translate(13.624687 66.119423) scale(0.11 -0.11)">
       <use xlink:href="#ArialMT-31"/>
       <use xlink:href="#ArialMT-2e" x="55.615234"/>
       <use xlink:href="#ArialMT-30" x="83.398438"/>
      </g>
     </g>
    </g>
    <g id="ytick_9">
     <g id="line2d_16">
      <path d="M 38.414687 24.509334 
L 596.414688 24.509334 
" clip-path="url(#pdfc2f16c4b)" style="fill: none; stroke: #ffffff; stroke-linecap: round"/>
     </g>
     <g id="text_16">
      <!-- 1.5 -->
      <g style="fill: #262626" transform="translate(13.624687 28.446131) scale(0.11 -0.11)">
       <use xlink:href="#ArialMT-31"/>
       <use xlink:href="#ArialMT-2e" x="55.615234"/>
       <use xlink:href="#ArialMT-35" x="83.398438"/>
      </g>
     </g>
    </g>
   </g>
   <g id="line2d_17">
    <path d="M 63.778324 324.72 
L 70.44744 305.957945 
L 73.033185 298.703843 
L 79.676628 280.156097 
L 80.180381 278.75548 
L 93.599183 241.63662 
L 93.925264 240.733723 
L 99.434557 225.361501 
L 106.636418 205.092156 
L 108.960162 198.54861 
L 110.782306 194.016786 
L 114.055767 186.444079 
L 117.744956 178.932525 
L 120.398277 173.576786 
L 123.315268 167.555585 
L 133.861683 147.130576 
L 133.991668 146.876582 
L 134.965934 144.980509 
L 143.039699 132.757019 
L 146.437742 129.878904 
L 149.028229 127.444479 
L 153.643524 122.676985 
L 172.230273 103.307951 
L 180.40509 96.268575 
L 184.783332 92.778419 
L 186.946721 90.961614 
L 215.946502 68.51316 
L 218.784758 66.300084 
L 222.127917 63.501165 
L 227.179629 59.575771 
L 227.657738 59.173403 
L 230.966188 56.732157 
L 233.319518 55.793062 
L 249.696357 50.670476 
L 252.079416 49.931536 
L 255.708077 48.773535 
L 260.098411 47.28953 
L 261.620524 46.777368 
L 267.215648 46.278564 
L 273.028264 47.814471 
L 273.179031 47.847416 
L 278.986158 49.633133 
L 281.995138 50.510235 
L 291.784551 52.623485 
L 301.995852 56.293939 
L 308.017471 58.998738 
L 309.240614 59.74231 
L 311.634132 61.432175 
L 319.620523 67.891872 
L 322.652497 70.300493 
L 323.144042 70.687812 
L 324.92117 72.347132 
L 325.365291 72.754345 
L 329.925812 77.000392 
L 334.913493 82.383331 
L 346.933916 92.358698 
L 349.213688 94.122062 
L 350.443529 95.838248 
L 359.137749 102.184206 
L 364.509456 102.65457 
L 365.32586 102.759332 
L 365.923641 102.817041 
L 368.222635 103.019967 
L 369.408277 103.136524 
L 369.739376 103.171809 
L 372.130721 103.425928 
L 373.274446 103.542397 
L 385.600445 110.086141 
L 388.379819 111.773982 
L 394.418285 115.824818 
L 394.487239 115.871266 
L 401.914036 120.69269 
L 404.271893 122.580996 
L 405.015585 123.190454 
L 405.029359 123.20211 
L 416.202388 133.691618 
L 425.300468 143.53582 
L 440.863402 157.843746 
L 447.021179 163.041375 
L 456.846405 171.23229 
L 460.179387 173.958374 
L 464.964609 177.944451 
L 465.517815 178.422967 
L 467.802789 180.216652 
L 474.306856 185.181586 
L 480.6527 190.230432 
L 484.607372 193.275353 
L 488.157945 196.143318 
L 501.642857 207.996522 
L 515.022258 220.122208 
L 531.149123 235.322893 
L 535.375263 239.420772 
L 536.492671 240.509688 
L 537.462698 241.456071 
L 540.255454 244.183571 
L 546.144619 249.936568 
L 547.492159 251.25236 
L 552.338847 255.978971 
L 569.950565 273.084582 
L 571.051051 274.153533 
" clip-path="url(#pdfc2f16c4b)" style="fill: none; stroke: #ff6347; stroke-width: 1.5; stroke-linecap: round"/>
   </g>
   <g id="line2d_18">
    <defs>
     <path id="m1f619f81bc" d="M 0 1.5 
C 0.397805 1.5 0.77937 1.341951 1.06066 1.06066 
C 1.341951 0.77937 1.5 0.397805 1.5 0 
C 1.5 -0.397805 1.341951 -0.77937 1.06066 -1.06066 
C 0.77937 -1.341951 0.397805 -1.5 0 -1.5 
C -0.397805 -1.5 -0.77937 -1.341951 -1.06066 -1.06066 
C -1.341951 -0.77937 -1.5 -0.397805 -1.5 0 
C -1.5 0.397805 -1.341951 0.77937 -1.06066 1.06066 
C -0.77937 1.341951 -0.397805 1.5 0 1.5 
z
" style="stroke: #1a1a1a"/>
    </defs>
    <g clip-path="url(#pdfc2f16c4b)">
     <use xlink:href="#m1f619f81bc" x="349.213688" y="83.911324" style="fill: #1a1a1a; stroke: #1a1a1a"/>
     <use xlink:href="#m1f619f81bc" x="80.180381" y="277.99915" style="fill: #1a1a1a; stroke: #1a1a1a"/>
     <use xlink:href="#m1f619f81bc" x="480.6527" y="186.200181" style="fill: #1a1a1a; stroke: #1a1a1a"/>
     <use xlink:href="#m1f619f81bc" x="108.960162" y="195.284054" style="fill: #1a1a1a; stroke: #1a1a1a"/>
     <use xlink:href="#m1f619f81bc" x="404.271893" y="131.27872" style="fill: #1a1a1a; stroke: #1a1a1a"/>
     <use xlink:href="#m1f619f81bc" x="368.222635" y="104.061831" style="fill: #1a1a1a; stroke: #1a1a1a"/>
     <use xlink:href="#m1f619f81bc" x="215.946502" y="47.476342" style="fill: #1a1a1a; stroke: #1a1a1a"/>
     <use xlink:href="#m1f619f81bc" x="146.437742" y="128.529726" style="fill: #1a1a1a; stroke: #1a1a1a"/>
     <use xlink:href="#m1f619f81bc" x="501.642857" y="211.434797" style="fill: #1a1a1a; stroke: #1a1a1a"/>
     <use xlink:href="#m1f619f81bc" x="369.739376" y="94.782841" style="fill: #1a1a1a; stroke: #1a1a1a"/>
     <use xlink:href="#m1f619f81bc" x="464.964609" y="198.442196" style="fill: #1a1a1a; stroke: #1a1a1a"/>
     <use xlink:href="#m1f619f81bc" x="334.913493" y="117.715624" style="fill: #1a1a1a; stroke: #1a1a1a"/>
     <use xlink:href="#m1f619f81bc" x="346.933916" y="101.586228" style="fill: #1a1a1a; stroke: #1a1a1a"/>
     <use xlink:href="#m1f619f81bc" x="261.620524" y="45.307598" style="fill: #1a1a1a; stroke: #1a1a1a"/>
     <use xlink:href="#m1f619f81bc" x="484.607372" y="174.654249" style="fill: #1a1a1a; stroke: #1a1a1a"/>
     <use xlink:href="#m1f619f81bc" x="133.861683" y="116.49525" style="fill: #1a1a1a; stroke: #1a1a1a"/>
     <use xlink:href="#m1f619f81bc" x="123.315268" y="189.602013" style="fill: #1a1a1a; stroke: #1a1a1a"/>
     <use xlink:href="#m1f619f81bc" x="106.636418" y="222.815106" style="fill: #1a1a1a; stroke: #1a1a1a"/>
     <use xlink:href="#m1f619f81bc" x="227.179629" y="62.040433" style="fill: #1a1a1a; stroke: #1a1a1a"/>
     <use xlink:href="#m1f619f81bc" x="70.44744" y="300.927114" style="fill: #1a1a1a; stroke: #1a1a1a"/>
     <use xlink:href="#m1f619f81bc" x="515.022258" y="196.904661" style="fill: #1a1a1a; stroke: #1a1a1a"/>
     <use xlink:href="#m1f619f81bc" x="319.620523" y="62.259319" style="fill: #1a1a1a; stroke: #1a1a1a"/>
     <use xlink:href="#m1f619f81bc" x="309.240614" y="46.415583" style="fill: #1a1a1a; stroke: #1a1a1a"/>
     <use xlink:href="#m1f619f81bc" x="552.338847" y="244.349584" style="fill: #1a1a1a; stroke: #1a1a1a"/>
     <use xlink:href="#m1f619f81bc" x="350.443529" y="123.797542" style="fill: #1a1a1a; stroke: #1a1a1a"/>
     <use xlink:href="#m1f619f81bc" x="569.950565" y="226.933548" style="fill: #1a1a1a; stroke: #1a1a1a"/>
     <use xlink:href="#m1f619f81bc" x="467.802789" y="166.1674" style="fill: #1a1a1a; stroke: #1a1a1a"/>
     <use xlink:href="#m1f619f81bc" x="308.017471" y="79.864068" style="fill: #1a1a1a; stroke: #1a1a1a"/>
     <use xlink:href="#m1f619f81bc" x="373.274446" y="110.316287" style="fill: #1a1a1a; stroke: #1a1a1a"/>
     <use xlink:href="#m1f619f81bc" x="401.914036" y="121.831317" style="fill: #1a1a1a; stroke: #1a1a1a"/>
     <use xlink:href="#m1f619f81bc" x="531.149123" y="259.349582" style="fill: #1a1a1a; stroke: #1a1a1a"/>
     <use xlink:href="#m1f619f81bc" x="291.784551" y="58.897365" style="fill: #1a1a1a; stroke: #1a1a1a"/>
     <use xlink:href="#m1f619f81bc" x="93.925264" y="223.256933" style="fill: #1a1a1a; stroke: #1a1a1a"/>
     <use xlink:href="#m1f619f81bc" x="186.946721" y="84.852128" style="fill: #1a1a1a; stroke: #1a1a1a"/>
     <use xlink:href="#m1f619f81bc" x="227.657738" y="62.721936" style="fill: #1a1a1a; stroke: #1a1a1a"/>
     <use xlink:href="#m1f619f81bc" x="184.783332" y="106.862412" style="fill: #1a1a1a; stroke: #1a1a1a"/>
     <use xlink:href="#m1f619f81bc" x="440.863402" y="163.714712" style="fill: #1a1a1a; stroke: #1a1a1a"/>
     <use xlink:href="#m1f619f81bc" x="260.098411" y="44.080744" style="fill: #1a1a1a; stroke: #1a1a1a"/>
     <use xlink:href="#m1f619f81bc" x="460.179387" y="194.604402" style="fill: #1a1a1a; stroke: #1a1a1a"/>
     <use xlink:href="#m1f619f81bc" x="547.492159" y="244.430638" style="fill: #1a1a1a; stroke: #1a1a1a"/>
     <use xlink:href="#m1f619f81bc" x="230.966188" y="42.896121" style="fill: #1a1a1a; stroke: #1a1a1a"/>
     <use xlink:href="#m1f619f81bc" x="99.434557" y="221.502002" style="fill: #1a1a1a; stroke: #1a1a1a"/>
     <use xlink:href="#m1f619f81bc" x="180.40509" y="94.456167" style="fill: #1a1a1a; stroke: #1a1a1a"/>
     <use xlink:href="#m1f619f81bc" x="255.708077" y="43.999739" style="fill: #1a1a1a; stroke: #1a1a1a"/>
     <use xlink:href="#m1f619f81bc" x="249.696357" y="25.257125" style="fill: #1a1a1a; stroke: #1a1a1a"/>
     <use xlink:href="#m1f619f81bc" x="329.925812" y="56.074706" style="fill: #1a1a1a; stroke: #1a1a1a"/>
     <use xlink:href="#m1f619f81bc" x="456.846405" y="181.083498" style="fill: #1a1a1a; stroke: #1a1a1a"/>
     <use xlink:href="#m1f619f81bc" x="394.487239" y="130.927107" style="fill: #1a1a1a; stroke: #1a1a1a"/>
     <use xlink:href="#m1f619f81bc" x="153.643524" y="104.042619" style="fill: #1a1a1a; stroke: #1a1a1a"/>
     <use xlink:href="#m1f619f81bc" x="120.398277" y="144.375194" style="fill: #1a1a1a; stroke: #1a1a1a"/>
     <use xlink:href="#m1f619f81bc" x="301.995852" y="66.698007" style="fill: #1a1a1a; stroke: #1a1a1a"/>
     <use xlink:href="#m1f619f81bc" x="149.028229" y="118.59919" style="fill: #1a1a1a; stroke: #1a1a1a"/>
     <use xlink:href="#m1f619f81bc" x="540.255454" y="220.163577" style="fill: #1a1a1a; stroke: #1a1a1a"/>
     <use xlink:href="#m1f619f81bc" x="252.079416" y="49.795093" style="fill: #1a1a1a; stroke: #1a1a1a"/>
     <use xlink:href="#m1f619f81bc" x="172.230273" y="102.54308" style="fill: #1a1a1a; stroke: #1a1a1a"/>
     <use xlink:href="#m1f619f81bc" x="222.127917" y="53.094701" style="fill: #1a1a1a; stroke: #1a1a1a"/>
     <use xlink:href="#m1f619f81bc" x="278.986158" y="37.800141" style="fill: #1a1a1a; stroke: #1a1a1a"/>
     <use xlink:href="#m1f619f81bc" x="117.744956" y="173.095819" style="fill: #1a1a1a; stroke: #1a1a1a"/>
     <use xlink:href="#m1f619f81bc" x="488.157945" y="222.537212" style="fill: #1a1a1a; stroke: #1a1a1a"/>
     <use xlink:href="#m1f619f81bc" x="273.028264" y="84.489505" style="fill: #1a1a1a; stroke: #1a1a1a"/>
     <use xlink:href="#m1f619f81bc" x="388.379819" y="109.725748" style="fill: #1a1a1a; stroke: #1a1a1a"/>
     <use xlink:href="#m1f619f81bc" x="281.995138" y="22.32" style="fill: #1a1a1a; stroke: #1a1a1a"/>
     <use xlink:href="#m1f619f81bc" x="79.676628" y="291.930993" style="fill: #1a1a1a; stroke: #1a1a1a"/>
     <use xlink:href="#m1f619f81bc" x="110.782306" y="201.081543" style="fill: #1a1a1a; stroke: #1a1a1a"/>
     <use xlink:href="#m1f619f81bc" x="571.051051" y="292.450779" style="fill: #1a1a1a; stroke: #1a1a1a"/>
     <use xlink:href="#m1f619f81bc" x="369.408277" y="102.968498" style="fill: #1a1a1a; stroke: #1a1a1a"/>
     <use xlink:href="#m1f619f81bc" x="546.144619" y="269.200163" style="fill: #1a1a1a; stroke: #1a1a1a"/>
     <use xlink:href="#m1f619f81bc" x="465.517815" y="181.186747" style="fill: #1a1a1a; stroke: #1a1a1a"/>
     <use xlink:href="#m1f619f81bc" x="218.784758" y="83.7591" style="fill: #1a1a1a; stroke: #1a1a1a"/>
     <use xlink:href="#m1f619f81bc" x="537.462698" y="222.631266" style="fill: #1a1a1a; stroke: #1a1a1a"/>
     <use xlink:href="#m1f619f81bc" x="324.92117" y="71.419157" style="fill: #1a1a1a; stroke: #1a1a1a"/>
     <use xlink:href="#m1f619f81bc" x="474.306856" y="160.668264" style="fill: #1a1a1a; stroke: #1a1a1a"/>
     <use xlink:href="#m1f619f81bc" x="133.991668" y="145.939344" style="fill: #1a1a1a; stroke: #1a1a1a"/>
     <use xlink:href="#m1f619f81bc" x="325.365291" y="98.836665" style="fill: #1a1a1a; stroke: #1a1a1a"/>
     <use xlink:href="#m1f619f81bc" x="73.033185" y="317.990996" style="fill: #1a1a1a; stroke: #1a1a1a"/>
     <use xlink:href="#m1f619f81bc" x="143.039699" y="146.888445" style="fill: #1a1a1a; stroke: #1a1a1a"/>
     <use xlink:href="#m1f619f81bc" x="405.029359" y="114.230288" style="fill: #1a1a1a; stroke: #1a1a1a"/>
     <use xlink:href="#m1f619f81bc" x="93.599183" y="230.939062" style="fill: #1a1a1a; stroke: #1a1a1a"/>
     <use xlink:href="#m1f619f81bc" x="364.509456" y="107.340229" style="fill: #1a1a1a; stroke: #1a1a1a"/>
     <use xlink:href="#m1f619f81bc" x="311.634132" y="43.888422" style="fill: #1a1a1a; stroke: #1a1a1a"/>
     <use xlink:href="#m1f619f81bc" x="322.652497" y="59.638085" style="fill: #1a1a1a; stroke: #1a1a1a"/>
     <use xlink:href="#m1f619f81bc" x="365.32586" y="119.607396" style="fill: #1a1a1a; stroke: #1a1a1a"/>
     <use xlink:href="#m1f619f81bc" x="267.215648" y="57.857541" style="fill: #1a1a1a; stroke: #1a1a1a"/>
     <use xlink:href="#m1f619f81bc" x="323.144042" y="48.508747" style="fill: #1a1a1a; stroke: #1a1a1a"/>
     <use xlink:href="#m1f619f81bc" x="405.015585" y="124.757558" style="fill: #1a1a1a; stroke: #1a1a1a"/>
     <use xlink:href="#m1f619f81bc" x="365.923641" y="91.030506" style="fill: #1a1a1a; stroke: #1a1a1a"/>
     <use xlink:href="#m1f619f81bc" x="447.021179" y="152.911762" style="fill: #1a1a1a; stroke: #1a1a1a"/>
     <use xlink:href="#m1f619f81bc" x="134.965934" y="127.333416" style="fill: #1a1a1a; stroke: #1a1a1a"/>
     <use xlink:href="#m1f619f81bc" x="394.418285" y="98.199234" style="fill: #1a1a1a; stroke: #1a1a1a"/>
     <use xlink:href="#m1f619f81bc" x="536.492671" y="246.992708" style="fill: #1a1a1a; stroke: #1a1a1a"/>
     <use xlink:href="#m1f619f81bc" x="273.179031" y="37.936339" style="fill: #1a1a1a; stroke: #1a1a1a"/>
     <use xlink:href="#m1f619f81bc" x="63.778324" y="318.11256" style="fill: #1a1a1a; stroke: #1a1a1a"/>
     <use xlink:href="#m1f619f81bc" x="416.202388" y="135.934972" style="fill: #1a1a1a; stroke: #1a1a1a"/>
     <use xlink:href="#m1f619f81bc" x="385.600445" y="88.266695" style="fill: #1a1a1a; stroke: #1a1a1a"/>
     <use xlink:href="#m1f619f81bc" x="233.319518" y="67.00765" style="fill: #1a1a1a; stroke: #1a1a1a"/>
     <use xlink:href="#m1f619f81bc" x="535.375263" y="266.192519" style="fill: #1a1a1a; stroke: #1a1a1a"/>
     <use xlink:href="#m1f619f81bc" x="114.055767" y="175.116572" style="fill: #1a1a1a; stroke: #1a1a1a"/>
     <use xlink:href="#m1f619f81bc" x="425.300468" y="136.92052" style="fill: #1a1a1a; stroke: #1a1a1a"/>
     <use xlink:href="#m1f619f81bc" x="359.137749" y="102.623934" style="fill: #1a1a1a; stroke: #1a1a1a"/>
     <use xlink:href="#m1f619f81bc" x="372.130721" y="96.99092" style="fill: #1a1a1a; stroke: #1a1a1a"/>
    </g>
   </g>
   <g id="patch_3">
    <path d="M 38.414687 339.84 
L 38.414687 7.2 
" style="fill: none; stroke: #ffffff; stroke-width: 1.25; stroke-linejoin: miter; stroke-linecap: square"/>
   </g>
   <g id="patch_4">
    <path d="M 596.414688 339.84 
L 596.414688 7.2 
" style="fill: none; stroke: #ffffff; stroke-width: 1.25; stroke-linejoin: miter; stroke-linecap: square"/>
   </g>
   <g id="patch_5">
    <path d="M 38.414687 339.84 
L 596.414688 339.84 
" style="fill: none; stroke: #ffffff; stroke-width: 1.25; stroke-linejoin: miter; stroke-linecap: square"/>
   </g>
   <g id="patch_6">
    <path d="M 38.414687 7.2 
L 596.414688 7.2 
" style="fill: none; stroke: #ffffff; stroke-width: 1.25; stroke-linejoin: miter; stroke-linecap: square"/>
   </g>
  </g>
 </g>
 <defs>
  <clipPath id="pdfc2f16c4b">
   <rect x="38.414687" y="7.2" width="558" height="332.64"/>
  </clipPath>
 </defs>
</svg>