<?xml version="1.0" encoding="utf-8" standalone="no"?>
<!DOCTYPE svg PUBLIC "-//W3C//DTD SVG 1.1//EN"
  "http://www.w3.org/Graphics/SVG/1.1/DTD/svg11.dtd">
<svg xmlns:xlink="http://www.w3.org/1999/xlink" width="621.650156pt" height="396.450469pt" viewBox="0 0 621.650156 396.450469" xmlns="http://www.w3.org/2000/svg" version="1.1">
 <metadata>
  <rdf:RDF xmlns:dc="http://purl.org/dc/elements/1.1/" xmlns:cc="http://creativecommons.org/ns#" xmlns:rdf="http://www.w3.org/1999/02/22-rdf-syntax-ns#">
   <cc:Work>
    <dc:type rdf:resource="http://purl.org/dc/dcmitype/StillImage"/>
    <dc:date>2024-02-12T08:52:39.796166</dc:date>
    <dc:format>image/svg+xml</dc:format>
    <dc:creator>
     <cc:Agent>
      <dc:title>Matplotlib v3.8.2, https://matplotlib.org/</dc:title>
     </cc:Agent>
    </dc:creator>
   </cc:Work>
  </rdf:RDF>
 </metadata>
 <defs>
  <style type="text/css">*{stroke-linejoin: round; stroke-linecap: butt}</style>
 </defs>
 <g id="figure_1">
  <g id="patch_1">
   <path d="M 0 396.450469 
L 621.650156 396.450469 
L 621.650156 0 
L 0 0 
z
" style="fill: #ffffff"/>
  </g>
  <g id="axes_1">
   <g id="patch_2">
    <path d="M 56.450156 354.429375 
L 614.450156 354.429375 
L 614.450156 21.789375 
L 56.450156 21.789375 
z
" style="fill: #eaeaf2"/>
   </g>
   <g id="matplotlib.axis_1">
    <g id="xtick_1">
     <g id="line2d_1">
      <path d="M 81.813793 354.429375 
L 81.813793 21.789375 
" clip-path="url(#pbcaae6527b)" style="fill: none; stroke: #ffffff; stroke-linecap: round"/>
     </g>
     <g id="text_1">
      <!-- 0.0 -->
      <g style="fill: #262626" transform="translate(74.168793 371.802969) scale(0.11 -0.11)">
       <defs>
        <path id="ArialMT-30" d="M 266 2259 
Q 266 3072 433 3567 
Q 600 4063 929 4331 
Q 1259 4600 1759 4600 
Q 2128 4600 2406 4451 
Q 2684 4303 2865 4023 
Q 3047 3744 3150 3342 
Q 3253 2941 3253 2259 
Q 3253 1453 3087 958 
Q 2922 463 2592 192 
Q 2263 -78 1759 -78 
Q 1097 -78 719 397 
Q 266 969 266 2259 
z
M 844 2259 
Q 844 1131 1108 757 
Q 1372 384 1759 384 
Q 2147 384 2411 759 
Q 2675 1134 2675 2259 
Q 2675 3391 2411 3762 
Q 2147 4134 1753 4134 
Q 1366 4134 1134 3806 
Q 844 3388 844 2259 
z
" transform="scale(0.015625)"/>
        <path id="ArialMT-2e" d="M 581 0 
L 581 641 
L 1222 641 
L 1222 0 
L 581 0 
z
" transform="scale(0.015625)"/>
       </defs>
       <use xlink:href="#ArialMT-30"/>
       <use xlink:href="#ArialMT-2e" x="55.615234"/>
       <use xlink:href="#ArialMT-30" x="83.398438"/>
      </g>
     </g>
    </g>
    <g id="xtick_2">
     <g id="line2d_2">
      <path d="M 183.268338 354.429375 
L 183.268338 21.789375 
" clip-path="url(#pbcaae6527b)" style="fill: none; stroke: #ffffff; stroke-linecap: round"/>
     </g>
     <g id="text_2">
      <!-- 0.2 -->
      <g style="fill: #262626" transform="translate(175.623338 371.802969) scale(0.11 -0.11)">
       <defs>
        <path id="ArialMT-32" d="M 3222 541 
L 3222 0 
L 194 0 
Q 188 203 259 391 
Q 375 700 629 1000 
Q 884 1300 1366 1694 
Q 2113 2306 2375 2664 
Q 2638 3022 2638 3341 
Q 2638 3675 2398 3904 
Q 2159 4134 1775 4134 
Q 1369 4134 1125 3890 
Q 881 3647 878 3216 
L 300 3275 
Q 359 3922 746 4261 
Q 1134 4600 1788 4600 
Q 2447 4600 2831 4234 
Q 3216 3869 3216 3328 
Q 3216 3053 3103 2787 
Q 2991 2522 2730 2228 
Q 2469 1934 1863 1422 
Q 1356 997 1212 845 
Q 1069 694 975 541 
L 3222 541 
z
" transform="scale(0.015625)"/>
       </defs>
       <use xlink:href="#ArialMT-30"/>
       <use xlink:href="#ArialMT-2e" x="55.615234"/>
       <use xlink:href="#ArialMT-32" x="83.398438"/>
      </g>
     </g>
    </g>
    <g id="xtick_3">
     <g id="line2d_3">
      <path d="M 284.722884 354.429375 
L 284.722884 21.789375 
" clip-path="url(#pbcaae6527b)" style="fill: none; stroke: #ffffff; stroke-linecap: round"/>
     </g>
     <g id="text_3">
      <!-- 0.4 -->
      <g style="fill: #262626" transform="translate(277.077884 371.802969) scale(0.11 -0.11)">
       <defs>
        <path id="ArialMT-34" d="M 2069 0 
L 2069 1097 
L 81 1097 
L 81 1613 
L 2172 4581 
L 2631 4581 
L 2631 1613 
L 3250 1613 
L 3250 1097 
L 2631 1097 
L 2631 0 
L 2069 0 
z
M 2069 1613 
L 2069 3678 
L 634 1613 
L 2069 1613 
z
" transform="scale(0.015625)"/>
       </defs>
       <use xlink:href="#ArialMT-30"/>
       <use xlink:href="#ArialMT-2e" x="55.615234"/>
       <use xlink:href="#ArialMT-34" x="83.398438"/>
      </g>
     </g>
    </g>
    <g id="xtick_4">
     <g id="line2d_4">
      <path d="M 386.177429 354.429375 
L 386.177429 21.789375 
" clip-path="url(#pbcaae6527b)" style="fill: none; stroke: #ffffff; stroke-linecap: round"/>
     </g>
     <g id="text_4">
      <!-- 0.6 -->
      <g style="fill: #262626" transform="translate(378.532429 371.802969) scale(0.11 -0.11)">
       <defs>
        <path id="ArialMT-36" d="M 3184 3459 
L 2625 3416 
Q 2550 3747 2413 3897 
Q 2184 4138 1850 4138 
Q 1581 4138 1378 3988 
Q 1113 3794 959 3422 
Q 806 3050 800 2363 
Q 1003 2672 1297 2822 
Q 1591 2972 1913 2972 
Q 2475 2972 2870 2558 
Q 3266 2144 3266 1488 
Q 3266 1056 3080 686 
Q 2894 316 2569 119 
Q 2244 -78 1831 -78 
Q 1128 -78 684 439 
Q 241 956 241 2144 
Q 241 3472 731 4075 
Q 1159 4600 1884 4600 
Q 2425 4600 2770 4297 
Q 3116 3994 3184 3459 
z
M 888 1484 
Q 888 1194 1011 928 
Q 1134 663 1356 523 
Q 1578 384 1822 384 
Q 2178 384 2434 671 
Q 2691 959 2691 1453 
Q 2691 1928 2437 2201 
Q 2184 2475 1800 2475 
Q 1419 2475 1153 2201 
Q 888 1928 888 1484 
z
" transform="scale(0.015625)"/>
       </defs>
       <use xlink:href="#ArialMT-30"/>
       <use xlink:href="#ArialMT-2e" x="55.615234"/>
       <use xlink:href="#ArialMT-36" x="83.398438"/>
      </g>
     </g>
    </g>
    <g id="xtick_5">
     <g id="line2d_5">
      <path d="M 487.631974 354.429375 
L 487.631974 21.789375 
" clip-path="url(#pbcaae6527b)" style="fill: none; stroke: #ffffff; stroke-linecap: round"/>
     </g>
     <g id="text_5">
      <!-- 0.8 -->
      <g style="fill: #262626" transform="translate(479.986974 371.802969) scale(0.11 -0.11)">
       <defs>
        <path id="ArialMT-38" d="M 1131 2484 
Q 781 2613 612 2850 
Q 444 3088 444 3419 
Q 444 3919 803 4259 
Q 1163 4600 1759 4600 
Q 2359 4600 2725 4251 
Q 3091 3903 3091 3403 
Q 3091 3084 2923 2848 
Q 2756 2613 2416 2484 
Q 2838 2347 3058 2040 
Q 3278 1734 3278 1309 
Q 3278 722 2862 322 
Q 2447 -78 1769 -78 
Q 1091 -78 675 323 
Q 259 725 259 1325 
Q 259 1772 486 2073 
Q 713 2375 1131 2484 
z
M 1019 3438 
Q 1019 3113 1228 2906 
Q 1438 2700 1772 2700 
Q 2097 2700 2305 2904 
Q 2513 3109 2513 3406 
Q 2513 3716 2298 3927 
Q 2084 4138 1766 4138 
Q 1444 4138 1231 3931 
Q 1019 3725 1019 3438 
z
M 838 1322 
Q 838 1081 952 856 
Q 1066 631 1291 507 
Q 1516 384 1775 384 
Q 2178 384 2440 643 
Q 2703 903 2703 1303 
Q 2703 1709 2433 1975 
Q 2163 2241 1756 2241 
Q 1359 2241 1098 1978 
Q 838 1716 838 1322 
z
" transform="scale(0.015625)"/>
       </defs>
       <use xlink:href="#ArialMT-30"/>
       <use xlink:href="#ArialMT-2e" x="55.615234"/>
       <use xlink:href="#ArialMT-38" x="83.398438"/>
      </g>
     </g>
    </g>
    <g id="xtick_6">
     <g id="line2d_6">
      <path d="M 589.08652 354.429375 
L 589.08652 21.789375 
" clip-path="url(#pbcaae6527b)" style="fill: none; stroke: #ffffff; stroke-linecap: round"/>
     </g>
     <g id="text_6">
      <!-- 1.0 -->
      <g style="fill: #262626" transform="translate(581.44152 371.802969) scale(0.11 -0.11)">
       <defs>
        <path id="ArialMT-31" d="M 2384 0 
L 1822 0 
L 1822 3584 
Q 1619 3391 1289 3197 
Q 959 3003 697 2906 
L 697 3450 
Q 1169 3672 1522 3987 
Q 1875 4303 2022 4600 
L 2384 4600 
L 2384 0 
z
" transform="scale(0.015625)"/>
       </defs>
       <use xlink:href="#ArialMT-31"/>
       <use xlink:href="#ArialMT-2e" x="55.615234"/>
       <use xlink:href="#ArialMT-30" x="83.398438"/>
      </g>
     </g>
    </g>
    <g id="text_7">
     <!-- Gruppo (codificato con 0 e 1) -->
     <g style="fill: #262626" transform="translate(258.080156 386.724844) scale(0.12 -0.12)">
      <defs>
       <path id="ArialMT-47" d="M 2638 1797 
L 2638 2334 
L 4578 2338 
L 4578 638 
Q 4131 281 3656 101 
Q 3181 -78 2681 -78 
Q 2006 -78 1454 211 
Q 903 500 622 1047 
Q 341 1594 341 2269 
Q 341 2938 620 3517 
Q 900 4097 1425 4378 
Q 1950 4659 2634 4659 
Q 3131 4659 3532 4498 
Q 3934 4338 4162 4050 
Q 4391 3763 4509 3300 
L 3963 3150 
Q 3859 3500 3706 3700 
Q 3553 3900 3268 4020 
Q 2984 4141 2638 4141 
Q 2222 4141 1919 4014 
Q 1616 3888 1430 3681 
Q 1244 3475 1141 3228 
Q 966 2803 966 2306 
Q 966 1694 1177 1281 
Q 1388 869 1791 669 
Q 2194 469 2647 469 
Q 3041 469 3416 620 
Q 3791 772 3984 944 
L 3984 1797 
L 2638 1797 
z
" transform="scale(0.015625)"/>
       <path id="ArialMT-72" d="M 416 0 
L 416 3319 
L 922 3319 
L 922 2816 
Q 1116 3169 1280 3281 
Q 1444 3394 1641 3394 
Q 1925 3394 2219 3213 
L 2025 2691 
Q 1819 2813 1613 2813 
Q 1428 2813 1281 2702 
Q 1134 2591 1072 2394 
Q 978 2094 978 1738 
L 978 0 
L 416 0 
z
" transform="scale(0.015625)"/>
       <path id="ArialMT-75" d="M 2597 0 
L 2597 488 
Q 2209 -75 1544 -75 
Q 1250 -75 995 37 
Q 741 150 617 320 
Q 494 491 444 738 
Q 409 903 409 1263 
L 409 3319 
L 972 3319 
L 972 1478 
Q 972 1038 1006 884 
Q 1059 663 1231 536 
Q 1403 409 1656 409 
Q 1909 409 2131 539 
Q 2353 669 2445 892 
Q 2538 1116 2538 1541 
L 2538 3319 
L 3100 3319 
L 3100 0 
L 2597 0 
z
" transform="scale(0.015625)"/>
       <path id="ArialMT-70" d="M 422 -1272 
L 422 3319 
L 934 3319 
L 934 2888 
Q 1116 3141 1344 3267 
Q 1572 3394 1897 3394 
Q 2322 3394 2647 3175 
Q 2972 2956 3137 2557 
Q 3303 2159 3303 1684 
Q 3303 1175 3120 767 
Q 2938 359 2589 142 
Q 2241 -75 1856 -75 
Q 1575 -75 1351 44 
Q 1128 163 984 344 
L 984 -1272 
L 422 -1272 
z
M 931 1641 
Q 931 1000 1190 694 
Q 1450 388 1819 388 
Q 2194 388 2461 705 
Q 2728 1022 2728 1688 
Q 2728 2322 2467 2637 
Q 2206 2953 1844 2953 
Q 1484 2953 1207 2617 
Q 931 2281 931 1641 
z
" transform="scale(0.015625)"/>
       <path id="ArialMT-6f" d="M 213 1659 
Q 213 2581 725 3025 
Q 1153 3394 1769 3394 
Q 2453 3394 2887 2945 
Q 3322 2497 3322 1706 
Q 3322 1066 3130 698 
Q 2938 331 2570 128 
Q 2203 -75 1769 -75 
Q 1072 -75 642 372 
Q 213 819 213 1659 
z
M 791 1659 
Q 791 1022 1069 705 
Q 1347 388 1769 388 
Q 2188 388 2466 706 
Q 2744 1025 2744 1678 
Q 2744 2294 2464 2611 
Q 2184 2928 1769 2928 
Q 1347 2928 1069 2612 
Q 791 2297 791 1659 
z
" transform="scale(0.015625)"/>
       <path id="ArialMT-20" transform="scale(0.015625)"/>
       <path id="ArialMT-28" d="M 1497 -1347 
Q 1031 -759 709 28 
Q 388 816 388 1659 
Q 388 2403 628 3084 
Q 909 3875 1497 4659 
L 1900 4659 
Q 1522 4009 1400 3731 
Q 1209 3300 1100 2831 
Q 966 2247 966 1656 
Q 966 153 1900 -1347 
L 1497 -1347 
z
" transform="scale(0.015625)"/>
       <path id="ArialMT-63" d="M 2588 1216 
L 3141 1144 
Q 3050 572 2676 248 
Q 2303 -75 1759 -75 
Q 1078 -75 664 370 
Q 250 816 250 1647 
Q 250 2184 428 2587 
Q 606 2991 970 3192 
Q 1334 3394 1763 3394 
Q 2303 3394 2647 3120 
Q 2991 2847 3088 2344 
L 2541 2259 
Q 2463 2594 2264 2762 
Q 2066 2931 1784 2931 
Q 1359 2931 1093 2626 
Q 828 2322 828 1663 
Q 828 994 1084 691 
Q 1341 388 1753 388 
Q 2084 388 2306 591 
Q 2528 794 2588 1216 
z
" transform="scale(0.015625)"/>
       <path id="ArialMT-64" d="M 2575 0 
L 2575 419 
Q 2259 -75 1647 -75 
Q 1250 -75 917 144 
Q 584 363 401 755 
Q 219 1147 219 1656 
Q 219 2153 384 2558 
Q 550 2963 881 3178 
Q 1213 3394 1622 3394 
Q 1922 3394 2156 3267 
Q 2391 3141 2538 2938 
L 2538 4581 
L 3097 4581 
L 3097 0 
L 2575 0 
z
M 797 1656 
Q 797 1019 1065 703 
Q 1334 388 1700 388 
Q 2069 388 2326 689 
Q 2584 991 2584 1609 
Q 2584 2291 2321 2609 
Q 2059 2928 1675 2928 
Q 1300 2928 1048 2622 
Q 797 2316 797 1656 
z
" transform="scale(0.015625)"/>
       <path id="ArialMT-69" d="M 425 3934 
L 425 4581 
L 988 4581 
L 988 3934 
L 425 3934 
z
M 425 0 
L 425 3319 
L 988 3319 
L 988 0 
L 425 0 
z
" transform="scale(0.015625)"/>
       <path id="ArialMT-66" d="M 556 0 
L 556 2881 
L 59 2881 
L 59 3319 
L 556 3319 
L 556 3672 
Q 556 4006 616 4169 
Q 697 4388 901 4523 
Q 1106 4659 1475 4659 
Q 1713 4659 2000 4603 
L 1916 4113 
Q 1741 4144 1584 4144 
Q 1328 4144 1222 4034 
Q 1116 3925 1116 3625 
L 1116 3319 
L 1763 3319 
L 1763 2881 
L 1116 2881 
L 1116 0 
L 556 0 
z
" transform="scale(0.015625)"/>
       <path id="ArialMT-61" d="M 2588 409 
Q 2275 144 1986 34 
Q 1697 -75 1366 -75 
Q 819 -75 525 192 
Q 231 459 231 875 
Q 231 1119 342 1320 
Q 453 1522 633 1644 
Q 813 1766 1038 1828 
Q 1203 1872 1538 1913 
Q 2219 1994 2541 2106 
Q 2544 2222 2544 2253 
Q 2544 2597 2384 2738 
Q 2169 2928 1744 2928 
Q 1347 2928 1158 2789 
Q 969 2650 878 2297 
L 328 2372 
Q 403 2725 575 2942 
Q 747 3159 1072 3276 
Q 1397 3394 1825 3394 
Q 2250 3394 2515 3294 
Q 2781 3194 2906 3042 
Q 3031 2891 3081 2659 
Q 3109 2516 3109 2141 
L 3109 1391 
Q 3109 606 3145 398 
Q 3181 191 3288 0 
L 2700 0 
Q 2613 175 2588 409 
z
M 2541 1666 
Q 2234 1541 1622 1453 
Q 1275 1403 1131 1340 
Q 988 1278 909 1158 
Q 831 1038 831 891 
Q 831 666 1001 516 
Q 1172 366 1500 366 
Q 1825 366 2078 508 
Q 2331 650 2450 897 
Q 2541 1088 2541 1459 
L 2541 1666 
z
" transform="scale(0.015625)"/>
       <path id="ArialMT-74" d="M 1650 503 
L 1731 6 
Q 1494 -44 1306 -44 
Q 1000 -44 831 53 
Q 663 150 594 308 
Q 525 466 525 972 
L 525 2881 
L 113 2881 
L 113 3319 
L 525 3319 
L 525 4141 
L 1084 4478 
L 1084 3319 
L 1650 3319 
L 1650 2881 
L 1084 2881 
L 1084 941 
Q 1084 700 1114 631 
Q 1144 563 1211 522 
Q 1278 481 1403 481 
Q 1497 481 1650 503 
z
" transform="scale(0.015625)"/>
       <path id="ArialMT-6e" d="M 422 0 
L 422 3319 
L 928 3319 
L 928 2847 
Q 1294 3394 1984 3394 
Q 2284 3394 2536 3286 
Q 2788 3178 2913 3003 
Q 3038 2828 3088 2588 
Q 3119 2431 3119 2041 
L 3119 0 
L 2556 0 
L 2556 2019 
Q 2556 2363 2490 2533 
Q 2425 2703 2258 2804 
Q 2091 2906 1866 2906 
Q 1506 2906 1245 2678 
Q 984 2450 984 1813 
L 984 0 
L 422 0 
z
" transform="scale(0.015625)"/>
       <path id="ArialMT-65" d="M 2694 1069 
L 3275 997 
Q 3138 488 2766 206 
Q 2394 -75 1816 -75 
Q 1088 -75 661 373 
Q 234 822 234 1631 
Q 234 2469 665 2931 
Q 1097 3394 1784 3394 
Q 2450 3394 2872 2941 
Q 3294 2488 3294 1666 
Q 3294 1616 3291 1516 
L 816 1516 
Q 847 969 1125 678 
Q 1403 388 1819 388 
Q 2128 388 2347 550 
Q 2566 713 2694 1069 
z
M 847 1978 
L 2700 1978 
Q 2663 2397 2488 2606 
Q 2219 2931 1791 2931 
Q 1403 2931 1139 2672 
Q 875 2413 847 1978 
z
" transform="scale(0.015625)"/>
       <path id="ArialMT-29" d="M 791 -1347 
L 388 -1347 
Q 1322 153 1322 1656 
Q 1322 2244 1188 2822 
Q 1081 3291 891 3722 
Q 769 4003 388 4659 
L 791 4659 
Q 1378 3875 1659 3084 
Q 1900 2403 1900 1659 
Q 1900 816 1576 28 
Q 1253 -759 791 -1347 
z
" transform="scale(0.015625)"/>
      </defs>
      <use xlink:href="#ArialMT-47"/>
      <use xlink:href="#ArialMT-72" x="77.783203"/>
      <use xlink:href="#ArialMT-75" x="111.083984"/>
      <use xlink:href="#ArialMT-70" x="166.699219"/>
      <use xlink:href="#ArialMT-70" x="222.314453"/>
      <use xlink:href="#ArialMT-6f" x="277.929688"/>
      <use xlink:href="#ArialMT-20" x="333.544922"/>
      <use xlink:href="#ArialMT-28" x="361.328125"/>
      <use xlink:href="#ArialMT-63" x="394.628906"/>
      <use xlink:href="#ArialMT-6f" x="444.628906"/>
      <use xlink:href="#ArialMT-64" x="500.244141"/>
      <use xlink:href="#ArialMT-69" x="555.859375"/>
      <use xlink:href="#ArialMT-66" x="578.076172"/>
      <use xlink:href="#ArialMT-69" x="605.859375"/>
      <use xlink:href="#ArialMT-63" x="628.076172"/>
      <use xlink:href="#ArialMT-61" x="678.076172"/>
      <use xlink:href="#ArialMT-74" x="733.691406"/>
      <use xlink:href="#ArialMT-6f" x="761.474609"/>
      <use xlink:href="#ArialMT-20" x="817.089844"/>
      <use xlink:href="#ArialMT-63" x="844.873047"/>
      <use xlink:href="#ArialMT-6f" x="894.873047"/>
      <use xlink:href="#ArialMT-6e" x="950.488281"/>
      <use xlink:href="#ArialMT-20" x="1006.103516"/>
      <use xlink:href="#ArialMT-30" x="1033.886719"/>
      <use xlink:href="#ArialMT-20" x="1089.501953"/>
      <use xlink:href="#ArialMT-65" x="1117.285156"/>
      <use xlink:href="#ArialMT-20" x="1172.900391"/>
      <use xlink:href="#ArialMT-31" x="1200.683594"/>
      <use xlink:href="#ArialMT-29" x="1256.298828"/>
     </g>
    </g>
   </g>
   <g id="matplotlib.axis_2">
    <g id="ytick_1">
     <g id="line2d_7">
      <path d="M 56.450156 332.644504 
L 614.450156 332.644504 
" clip-path="url(#pbcaae6527b)" style="fill: none; stroke: #ffffff; stroke-linecap: round"/>
     </g>
     <g id="text_8">
      <!-- −400 -->
      <g style="fill: #262626" transform="translate(22.174375 336.581301) scale(0.11 -0.11)">
       <defs>
        <path id="ArialMT-2212" d="M 3381 1997 
L 356 1997 
L 356 2522 
L 3381 2522 
L 3381 1997 
z
" transform="scale(0.015625)"/>
       </defs>
       <use xlink:href="#ArialMT-2212"/>
       <use xlink:href="#ArialMT-34" x="58.398438"/>
       <use xlink:href="#ArialMT-30" x="114.013672"/>
       <use xlink:href="#ArialMT-30" x="169.628906"/>
      </g>
     </g>
    </g>
    <g id="ytick_2">
     <g id="line2d_8">
      <path d="M 56.450156 292.476509 
L 614.450156 292.476509 
" clip-path="url(#pbcaae6527b)" style="fill: none; stroke: #ffffff; stroke-linecap: round"/>
     </g>
     <g id="text_9">
      <!-- −300 -->
      <g style="fill: #262626" transform="translate(22.174375 296.413306) scale(0.11 -0.11)">
       <defs>
        <path id="ArialMT-33" d="M 269 1209 
L 831 1284 
Q 928 806 1161 595 
Q 1394 384 1728 384 
Q 2125 384 2398 659 
Q 2672 934 2672 1341 
Q 2672 1728 2419 1979 
Q 2166 2231 1775 2231 
Q 1616 2231 1378 2169 
L 1441 2663 
Q 1497 2656 1531 2656 
Q 1891 2656 2178 2843 
Q 2466 3031 2466 3422 
Q 2466 3731 2256 3934 
Q 2047 4138 1716 4138 
Q 1388 4138 1169 3931 
Q 950 3725 888 3313 
L 325 3413 
Q 428 3978 793 4289 
Q 1159 4600 1703 4600 
Q 2078 4600 2393 4439 
Q 2709 4278 2876 4000 
Q 3044 3722 3044 3409 
Q 3044 3113 2884 2869 
Q 2725 2625 2413 2481 
Q 2819 2388 3044 2092 
Q 3269 1797 3269 1353 
Q 3269 753 2831 336 
Q 2394 -81 1725 -81 
Q 1122 -81 723 278 
Q 325 638 269 1209 
z
" transform="scale(0.015625)"/>
       </defs>
       <use xlink:href="#ArialMT-2212"/>
       <use xlink:href="#ArialMT-33" x="58.398438"/>
       <use xlink:href="#ArialMT-30" x="114.013672"/>
       <use xlink:href="#ArialMT-30" x="169.628906"/>
      </g>
     </g>
    </g>
    <g id="ytick_3">
     <g id="line2d_9">
      <path d="M 56.450156 252.308513 
L 614.450156 252.308513 
" clip-path="url(#pbcaae6527b)" style="fill: none; stroke: #ffffff; stroke-linecap: round"/>
     </g>
     <g id="text_10">
      <!-- −200 -->
      <g style="fill: #262626" transform="translate(22.174375 256.24531) scale(0.11 -0.11)">
       <use xlink:href="#ArialMT-2212"/>
       <use xlink:href="#ArialMT-32" x="58.398438"/>
       <use xlink:href="#ArialMT-30" x="114.013672"/>
       <use xlink:href="#ArialMT-30" x="169.628906"/>
      </g>
     </g>
    </g>
    <g id="ytick_4">
     <g id="line2d_10">
      <path d="M 56.450156 212.140518 
L 614.450156 212.140518 
" clip-path="url(#pbcaae6527b)" style="fill: none; stroke: #ffffff; stroke-linecap: round"/>
     </g>
     <g id="text_11">
      <!-- −100 -->
      <g style="fill: #262626" transform="translate(22.174375 216.077315) scale(0.11 -0.11)">
       <use xlink:href="#ArialMT-2212"/>
       <use xlink:href="#ArialMT-31" x="58.398438"/>
       <use xlink:href="#ArialMT-30" x="114.013672"/>
       <use xlink:href="#ArialMT-30" x="169.628906"/>
      </g>
     </g>
    </g>
    <g id="ytick_5">
     <g id="line2d_11">
      <path d="M 56.450156 171.972522 
L 614.450156 171.972522 
" clip-path="url(#pbcaae6527b)" style="fill: none; stroke: #ffffff; stroke-linecap: round"/>
     </g>
     <g id="text_12">
      <!-- 0 -->
      <g style="fill: #262626" transform="translate(40.833125 175.909319) scale(0.11 -0.11)">
       <use xlink:href="#ArialMT-30"/>
      </g>
     </g>
    </g>
    <g id="ytick_6">
     <g id="line2d_12">
      <path d="M 56.450156 131.804527 
L 614.450156 131.804527 
" clip-path="url(#pbcaae6527b)" style="fill: none; stroke: #ffffff; stroke-linecap: round"/>
     </g>
     <g id="text_13">
      <!-- 100 -->
      <g style="fill: #262626" transform="translate(28.599062 135.741324) scale(0.11 -0.11)">
       <use xlink:href="#ArialMT-31"/>
       <use xlink:href="#ArialMT-30" x="55.615234"/>
       <use xlink:href="#ArialMT-30" x="111.230469"/>
      </g>
     </g>
    </g>
    <g id="ytick_7">
     <g id="line2d_13">
      <path d="M 56.450156 91.636531 
L 614.450156 91.636531 
" clip-path="url(#pbcaae6527b)" style="fill: none; stroke: #ffffff; stroke-linecap: round"/>
     </g>
     <g id="text_14">
      <!-- 200 -->
      <g style="fill: #262626" transform="translate(28.599062 95.573328) scale(0.11 -0.11)">
       <use xlink:href="#ArialMT-32"/>
       <use xlink:href="#ArialMT-30" x="55.615234"/>
       <use xlink:href="#ArialMT-30" x="111.230469"/>
      </g>
     </g>
    </g>
    <g id="ytick_8">
     <g id="line2d_14">
      <path d="M 56.450156 51.468536 
L 614.450156 51.468536 
" clip-path="url(#pbcaae6527b)" style="fill: none; stroke: #ffffff; stroke-linecap: round"/>
     </g>
     <g id="text_15">
      <!-- 300 -->
      <g style="fill: #262626" transform="translate(28.599062 55.405333) scale(0.11 -0.11)">
       <use xlink:href="#ArialMT-33"/>
       <use xlink:href="#ArialMT-30" x="55.615234"/>
       <use xlink:href="#ArialMT-30" x="111.230469"/>
      </g>
     </g>
    </g>
    <g id="text_16">
     <!-- Soddisfazione della vita -->
     <g style="fill: #262626" transform="translate(15.789375 251.146875) rotate(-90) scale(0.12 -0.12)">
      <defs>
       <path id="ArialMT-53" d="M 288 1472 
L 859 1522 
Q 900 1178 1048 958 
Q 1197 738 1509 602 
Q 1822 466 2213 466 
Q 2559 466 2825 569 
Q 3091 672 3220 851 
Q 3350 1031 3350 1244 
Q 3350 1459 3225 1620 
Q 3100 1781 2813 1891 
Q 2628 1963 1997 2114 
Q 1366 2266 1113 2400 
Q 784 2572 623 2826 
Q 463 3081 463 3397 
Q 463 3744 659 4045 
Q 856 4347 1234 4503 
Q 1613 4659 2075 4659 
Q 2584 4659 2973 4495 
Q 3363 4331 3572 4012 
Q 3781 3694 3797 3291 
L 3216 3247 
Q 3169 3681 2898 3903 
Q 2628 4125 2100 4125 
Q 1550 4125 1298 3923 
Q 1047 3722 1047 3438 
Q 1047 3191 1225 3031 
Q 1400 2872 2139 2705 
Q 2878 2538 3153 2413 
Q 3553 2228 3743 1945 
Q 3934 1663 3934 1294 
Q 3934 928 3725 604 
Q 3516 281 3123 101 
Q 2731 -78 2241 -78 
Q 1619 -78 1198 103 
Q 778 284 539 648 
Q 300 1013 288 1472 
z
" transform="scale(0.015625)"/>
       <path id="ArialMT-73" d="M 197 991 
L 753 1078 
Q 800 744 1014 566 
Q 1228 388 1613 388 
Q 2000 388 2187 545 
Q 2375 703 2375 916 
Q 2375 1106 2209 1216 
Q 2094 1291 1634 1406 
Q 1016 1563 777 1677 
Q 538 1791 414 1992 
Q 291 2194 291 2438 
Q 291 2659 392 2848 
Q 494 3038 669 3163 
Q 800 3259 1026 3326 
Q 1253 3394 1513 3394 
Q 1903 3394 2198 3281 
Q 2494 3169 2634 2976 
Q 2775 2784 2828 2463 
L 2278 2388 
Q 2241 2644 2061 2787 
Q 1881 2931 1553 2931 
Q 1166 2931 1000 2803 
Q 834 2675 834 2503 
Q 834 2394 903 2306 
Q 972 2216 1119 2156 
Q 1203 2125 1616 2013 
Q 2213 1853 2448 1751 
Q 2684 1650 2818 1456 
Q 2953 1263 2953 975 
Q 2953 694 2789 445 
Q 2625 197 2315 61 
Q 2006 -75 1616 -75 
Q 969 -75 630 194 
Q 291 463 197 991 
z
" transform="scale(0.015625)"/>
       <path id="ArialMT-7a" d="M 125 0 
L 125 456 
L 2238 2881 
Q 1878 2863 1603 2863 
L 250 2863 
L 250 3319 
L 2963 3319 
L 2963 2947 
L 1166 841 
L 819 456 
Q 1197 484 1528 484 
L 3063 484 
L 3063 0 
L 125 0 
z
" transform="scale(0.015625)"/>
       <path id="ArialMT-6c" d="M 409 0 
L 409 4581 
L 972 4581 
L 972 0 
L 409 0 
z
" transform="scale(0.015625)"/>
       <path id="ArialMT-76" d="M 1344 0 
L 81 3319 
L 675 3319 
L 1388 1331 
Q 1503 1009 1600 663 
Q 1675 925 1809 1294 
L 2547 3319 
L 3125 3319 
L 1869 0 
L 1344 0 
z
" transform="scale(0.015625)"/>
      </defs>
      <use xlink:href="#ArialMT-53"/>
      <use xlink:href="#ArialMT-6f" x="66.699219"/>
      <use xlink:href="#ArialMT-64" x="122.314453"/>
      <use xlink:href="#ArialMT-64" x="177.929688"/>
      <use xlink:href="#ArialMT-69" x="233.544922"/>
      <use xlink:href="#ArialMT-73" x="255.761719"/>
      <use xlink:href="#ArialMT-66" x="305.761719"/>
      <use xlink:href="#ArialMT-61" x="333.544922"/>
      <use xlink:href="#ArialMT-7a" x="389.160156"/>
      <use xlink:href="#ArialMT-69" x="439.160156"/>
      <use xlink:href="#ArialMT-6f" x="461.376953"/>
      <use xlink:href="#ArialMT-6e" x="516.992188"/>
      <use xlink:href="#ArialMT-65" x="572.607422"/>
      <use xlink:href="#ArialMT-20" x="628.222656"/>
      <use xlink:href="#ArialMT-64" x="656.005859"/>
      <use xlink:href="#ArialMT-65" x="711.621094"/>
      <use xlink:href="#ArialMT-6c" x="767.236328"/>
      <use xlink:href="#ArialMT-6c" x="789.453125"/>
      <use xlink:href="#ArialMT-61" x="811.669922"/>
      <use xlink:href="#ArialMT-20" x="867.285156"/>
      <use xlink:href="#ArialMT-76" x="895.068359"/>
      <use xlink:href="#ArialMT-69" x="945.068359"/>
      <use xlink:href="#ArialMT-74" x="967.285156"/>
      <use xlink:href="#ArialMT-61" x="995.068359"/>
     </g>
    </g>
   </g>
   <g id="line2d_15">
    <path d="M 81.813793 188.151373 
L 132.541065 183.663385 
L 183.268338 179.175397 
L 233.995611 174.687408 
L 284.722884 170.19942 
L 335.450156 165.711431 
L 386.177429 161.223443 
L 436.904702 156.735455 
L 487.631974 152.247466 
L 538.359247 147.759478 
L 589.08652 143.27149 
" clip-path="url(#pbcaae6527b)" style="fill: none; stroke: #1a1a1a; stroke-opacity: 0.4; stroke-width: 1.5; stroke-linecap: round"/>
   </g>
   <g id="line2d_16">
    <path d="M 81.813793 198.894422 
L 132.541065 212.935917 
L 183.268338 226.977412 
L 233.995611 241.018908 
L 284.722884 255.060403 
L 335.450156 269.101898 
L 386.177429 283.143394 
L 436.904702 297.184889 
L 487.631974 311.226384 
L 538.359247 325.26788 
L 589.08652 339.309375 
" clip-path="url(#pbcaae6527b)" style="fill: none; stroke: #1a1a1a; stroke-opacity: 0.4; stroke-width: 1.5; stroke-linecap: round"/>
   </g>
   <g id="line2d_17">
    <path d="M 81.813793 165.049165 
L 132.541065 168.201165 
L 183.268338 171.353166 
L 233.995611 174.505166 
L 284.722884 177.657166 
L 335.450156 180.809166 
L 386.177429 183.961167 
L 436.904702 187.113167 
L 487.631974 190.265167 
L 538.359247 193.417167 
L 589.08652 196.569168 
" clip-path="url(#pbcaae6527b)" style="fill: none; stroke: #1a1a1a; stroke-opacity: 0.4; stroke-width: 1.5; stroke-linecap: round"/>
   </g>
   <g id="line2d_18">
    <path d="M 81.813793 140.575848 
L 132.541065 130.2092 
L 183.268338 119.842553 
L 233.995611 109.475906 
L 284.722884 99.109259 
L 335.450156 88.742611 
L 386.177429 78.375964 
L 436.904702 68.009317 
L 487.631974 57.64267 
L 538.359247 47.276022 
L 589.08652 36.909375 
" clip-path="url(#pbcaae6527b)" style="fill: none; stroke: #1a1a1a; stroke-opacity: 0.4; stroke-width: 1.5; stroke-linecap: round"/>
   </g>
   <g id="line2d_19">
    <path d="M 81.813793 124.253543 
L 132.541065 128.021402 
L 183.268338 131.789261 
L 233.995611 135.557121 
L 284.722884 139.32498 
L 335.450156 143.092839 
L 386.177429 146.860699 
L 436.904702 150.628558 
L 487.631974 154.396417 
L 538.359247 158.164277 
L 589.08652 161.932136 
" clip-path="url(#pbcaae6527b)" style="fill: none; stroke: #1a1a1a; stroke-opacity: 0.4; stroke-width: 1.5; stroke-linecap: round"/>
   </g>
   <g id="line2d_20">
    <path d="M 81.813793 196.223462 
L 132.541065 189.35067 
L 183.268338 182.477878 
L 233.995611 175.605086 
L 284.722884 168.732294 
L 335.450156 161.859502 
L 386.177429 154.98671 
L 436.904702 148.113918 
L 487.631974 141.241126 
L 538.359247 134.368334 
L 589.08652 127.495542 
" clip-path="url(#pbcaae6527b)" style="fill: none; stroke: #1a1a1a; stroke-opacity: 0.4; stroke-width: 1.5; stroke-linecap: round"/>
   </g>
   <g id="line2d_21">
    <path d="M 81.813793 139.771035 
L 132.541065 140.144188 
L 183.268338 140.51734 
L 233.995611 140.890493 
L 284.722884 141.263645 
L 335.450156 141.636798 
L 386.177429 142.00995 
L 436.904702 142.383103 
L 487.631974 142.756255 
L 538.359247 143.129407 
L 589.08652 143.50256 
" clip-path="url(#pbcaae6527b)" style="fill: none; stroke: #1a1a1a; stroke-opacity: 0.4; stroke-width: 1.5; stroke-linecap: round"/>
   </g>
   <g id="line2d_22">
    <path d="M 81.813793 112.754721 
L 132.541065 110.306304 
L 183.268338 107.857887 
L 233.995611 105.40947 
L 284.722884 102.961053 
L 335.450156 100.512635 
L 386.177429 98.064218 
L 436.904702 95.615801 
L 487.631974 93.167384 
L 538.359247 90.718967 
L 589.08652 88.27055 
" clip-path="url(#pbcaae6527b)" style="fill: none; stroke: #1a1a1a; stroke-opacity: 0.4; stroke-width: 1.5; stroke-linecap: round"/>
   </g>
   <g id="line2d_23">
    <path d="M 81.813793 195.951565 
L 132.541065 194.523005 
L 183.268338 193.094446 
L 233.995611 191.665886 
L 284.722884 190.237326 
L 335.450156 188.808767 
L 386.177429 187.380207 
L 436.904702 185.951647 
L 487.631974 184.523088 
L 538.359247 183.094528 
L 589.08652 181.665969 
" clip-path="url(#pbcaae6527b)" style="fill: none; stroke: #1a1a1a; stroke-opacity: 0.4; stroke-width: 1.5; stroke-linecap: round"/>
   </g>
   <g id="line2d_24">
    <path d="M 81.813793 199.275176 
L 132.541065 198.019315 
L 183.268338 196.763454 
L 233.995611 195.507593 
L 284.722884 194.251733 
L 335.450156 192.995872 
L 386.177429 191.740011 
L 436.904702 190.48415 
L 487.631974 189.228289 
L 538.359247 187.972429 
L 589.08652 186.716568 
" clip-path="url(#pbcaae6527b)" style="fill: none; stroke: #1a1a1a; stroke-opacity: 0.4; stroke-width: 1.5; stroke-linecap: round"/>
   </g>
   <g id="line2d_25">
    <path d="M 81.813793 132.7164 
L 132.541065 134.358061 
L 183.268338 135.999722 
L 233.995611 137.641383 
L 284.722884 139.283044 
L 335.450156 140.924705 
L 386.177429 142.566366 
L 436.904702 144.208027 
L 487.631974 145.849688 
L 538.359247 147.491349 
L 589.08652 149.133011 
" clip-path="url(#pbcaae6527b)" style="fill: none; stroke: #1a1a1a; stroke-opacity: 0.4; stroke-width: 1.5; stroke-linecap: round"/>
   </g>
   <g id="line2d_26">
    <path d="M 81.813793 197.382216 
L 132.541065 193.191816 
L 183.268338 189.001416 
L 233.995611 184.811015 
L 284.722884 180.620615 
L 335.450156 176.430215 
L 386.177429 172.239815 
L 436.904702 168.049415 
L 487.631974 163.859015 
L 538.359247 159.668615 
L 589.08652 155.478215 
" clip-path="url(#pbcaae6527b)" style="fill: none; stroke: #1a1a1a; stroke-opacity: 0.4; stroke-width: 1.5; stroke-linecap: round"/>
   </g>
   <g id="line2d_27">
    <path d="M 81.813793 199.337102 
L 132.541065 206.991424 
L 183.268338 214.645746 
L 233.995611 222.300068 
L 284.722884 229.95439 
L 335.450156 237.608712 
L 386.177429 245.263034 
L 436.904702 252.917356 
L 487.631974 260.571678 
L 538.359247 268.226 
L 589.08652 275.880322 
" clip-path="url(#pbcaae6527b)" style="fill: none; stroke: #1a1a1a; stroke-opacity: 0.4; stroke-width: 1.5; stroke-linecap: round"/>
   </g>
   <g id="line2d_28">
    <path d="M 81.813793 163.257997 
L 132.541065 160.990783 
L 183.268338 158.723569 
L 233.995611 156.456354 
L 284.722884 154.18914 
L 335.450156 151.921926 
L 386.177429 149.654711 
L 436.904702 147.387497 
L 487.631974 145.120283 
L 538.359247 142.853069 
L 589.08652 140.585854 
" clip-path="url(#pbcaae6527b)" style="fill: none; stroke: #1a1a1a; stroke-opacity: 0.4; stroke-width: 1.5; stroke-linecap: round"/>
   </g>
   <g id="line2d_29">
    <path d="M 81.813793 208.014858 
L 132.541065 211.196736 
L 183.268338 214.378614 
L 233.995611 217.560492 
L 284.722884 220.742371 
L 335.450156 223.924249 
L 386.177429 227.106127 
L 436.904702 230.288005 
L 487.631974 233.469883 
L 538.359247 236.651762 
L 589.08652 239.83364 
" clip-path="url(#pbcaae6527b)" style="fill: none; stroke: #1a1a1a; stroke-opacity: 0.4; stroke-width: 1.5; stroke-linecap: round"/>
   </g>
   <g id="line2d_30">
    <path d="M 81.813793 179.304821 
L 132.541065 189.246775 
L 183.268338 199.188729 
L 233.995611 209.130683 
L 284.722884 219.072637 
L 335.450156 229.014591 
L 386.177429 238.956545 
L 436.904702 248.898499 
L 487.631974 258.840453 
L 538.359247 268.782407 
L 589.08652 278.724361 
" clip-path="url(#pbcaae6527b)" style="fill: none; stroke: #1a1a1a; stroke-opacity: 0.4; stroke-width: 1.5; stroke-linecap: round"/>
   </g>
   <g id="line2d_31">
    <path d="M 81.813793 181.295213 
L 132.541065 186.981411 
L 183.268338 192.667608 
L 233.995611 198.353806 
L 284.722884 204.040003 
L 335.450156 209.726201 
L 386.177429 215.412398 
L 436.904702 221.098596 
L 487.631974 226.784794 
L 538.359247 232.470991 
L 589.08652 238.157189 
" clip-path="url(#pbcaae6527b)" style="fill: none; stroke: #1a1a1a; stroke-opacity: 0.4; stroke-width: 1.5; stroke-linecap: round"/>
   </g>
   <g id="line2d_32">
    <path d="M 81.813793 173.861688 
L 132.541065 167.5013 
L 183.268338 161.140912 
L 233.995611 154.780524 
L 284.722884 148.420137 
L 335.450156 142.059749 
L 386.177429 135.699361 
L 436.904702 129.338973 
L 487.631974 122.978585 
L 538.359247 116.618197 
L 589.08652 110.257809 
" clip-path="url(#pbcaae6527b)" style="fill: none; stroke: #1a1a1a; stroke-opacity: 0.4; stroke-width: 1.5; stroke-linecap: round"/>
   </g>
   <g id="line2d_33">
    <path d="M 81.813793 196.810346 
L 132.541065 193.892204 
L 183.268338 190.974063 
L 233.995611 188.055921 
L 284.722884 185.13778 
L 335.450156 182.219639 
L 386.177429 179.301497 
L 436.904702 176.383356 
L 487.631974 173.465214 
L 538.359247 170.547073 
L 589.08652 167.628931 
" clip-path="url(#pbcaae6527b)" style="fill: none; stroke: #1a1a1a; stroke-opacity: 0.4; stroke-width: 1.5; stroke-linecap: round"/>
   </g>
   <g id="line2d_34">
    <path d="M 81.813793 179.765165 
L 132.541065 185.66554 
L 183.268338 191.565915 
L 233.995611 197.46629 
L 284.722884 203.366665 
L 335.450156 209.267039 
L 386.177429 215.167414 
L 436.904702 221.067789 
L 487.631974 226.968164 
L 538.359247 232.868539 
L 589.08652 238.768914 
" clip-path="url(#pbcaae6527b)" style="fill: none; stroke: #1a1a1a; stroke-opacity: 0.4; stroke-width: 1.5; stroke-linecap: round"/>
   </g>
   <g id="line2d_35">
    <path d="M 81.813793 128.523471 
L 132.541065 129.146387 
L 183.268338 129.769303 
L 233.995611 130.392219 
L 284.722884 131.015135 
L 335.450156 131.638051 
L 386.177429 132.260967 
L 436.904702 132.883884 
L 487.631974 133.5068 
L 538.359247 134.129716 
L 589.08652 134.752632 
" clip-path="url(#pbcaae6527b)" style="fill: none; stroke: #1a1a1a; stroke-opacity: 0.4; stroke-width: 1.5; stroke-linecap: round"/>
   </g>
   <g id="line2d_36">
    <path d="M 81.813793 171.301371 
L 132.541065 169.679596 
L 183.268338 168.057821 
L 233.995611 166.436046 
L 284.722884 164.814271 
L 335.450156 163.192497 
L 386.177429 161.570722 
L 436.904702 159.948947 
L 487.631974 158.327172 
L 538.359247 156.705397 
L 589.08652 155.083622 
" clip-path="url(#pbcaae6527b)" style="fill: none; stroke: #1a1a1a; stroke-opacity: 0.4; stroke-width: 1.5; stroke-linecap: round"/>
   </g>
   <g id="line2d_37">
    <path d="M 81.813793 190.071266 
L 132.541065 189.106543 
L 183.268338 188.14182 
L 233.995611 187.177097 
L 284.722884 186.212373 
L 335.450156 185.24765 
L 386.177429 184.282927 
L 436.904702 183.318204 
L 487.631974 182.353481 
L 538.359247 181.388758 
L 589.08652 180.424035 
" clip-path="url(#pbcaae6527b)" style="fill: none; stroke: #1a1a1a; stroke-opacity: 0.4; stroke-width: 1.5; stroke-linecap: round"/>
   </g>
   <g id="line2d_38">
    <path d="M 81.813793 186.02139 
L 132.541065 180.84674 
L 183.268338 175.672091 
L 233.995611 170.497441 
L 284.722884 165.322791 
L 335.450156 160.148141 
L 386.177429 154.973491 
L 436.904702 149.798842 
L 487.631974 144.624192 
L 538.359247 139.449542 
L 589.08652 134.274892 
" clip-path="url(#pbcaae6527b)" style="fill: none; stroke: #1a1a1a; stroke-opacity: 0.4; stroke-width: 1.5; stroke-linecap: round"/>
   </g>
   <g id="line2d_39">
    <path d="M 81.813793 129.563387 
L 132.541065 125.41197 
L 183.268338 121.260554 
L 233.995611 117.109137 
L 284.722884 112.95772 
L 335.450156 108.806303 
L 386.177429 104.654886 
L 436.904702 100.503469 
L 487.631974 96.352052 
L 538.359247 92.200635 
L 589.08652 88.049218 
" clip-path="url(#pbcaae6527b)" style="fill: none; stroke: #1a1a1a; stroke-opacity: 0.4; stroke-width: 1.5; stroke-linecap: round"/>
   </g>
   <g id="line2d_40">
    <path d="M 81.813793 181.581891 
L 132.541065 183.810275 
L 183.268338 186.03866 
L 233.995611 188.267044 
L 284.722884 190.495428 
L 335.450156 192.723813 
L 386.177429 194.952197 
L 436.904702 197.180582 
L 487.631974 199.408966 
L 538.359247 201.637351 
L 589.08652 203.865735 
" clip-path="url(#pbcaae6527b)" style="fill: none; stroke: #1a1a1a; stroke-opacity: 0.4; stroke-width: 1.5; stroke-linecap: round"/>
   </g>
   <g id="line2d_41">
    <path d="M 81.813793 192.840272 
L 132.541065 191.591281 
L 183.268338 190.34229 
L 233.995611 189.093299 
L 284.722884 187.844308 
L 335.450156 186.595317 
L 386.177429 185.346326 
L 436.904702 184.097336 
L 487.631974 182.848345 
L 538.359247 181.599354 
L 589.08652 180.350363 
" clip-path="url(#pbcaae6527b)" style="fill: none; stroke: #1a1a1a; stroke-opacity: 0.4; stroke-width: 1.5; stroke-linecap: round"/>
   </g>
   <g id="line2d_42">
    <path d="M 81.813793 177.860992 
L 132.541065 166.361254 
L 183.268338 154.861516 
L 233.995611 143.361778 
L 284.722884 131.862039 
L 335.450156 120.362301 
L 386.177429 108.862563 
L 436.904702 97.362825 
L 487.631974 85.863087 
L 538.359247 74.363349 
L 589.08652 62.863611 
" clip-path="url(#pbcaae6527b)" style="fill: none; stroke: #1a1a1a; stroke-opacity: 0.4; stroke-width: 1.5; stroke-linecap: round"/>
   </g>
   <g id="line2d_43">
    <path d="M 81.813793 158.610289 
L 132.541065 153.494051 
L 183.268338 148.377813 
L 233.995611 143.261575 
L 284.722884 138.145336 
L 335.450156 133.029098 
L 386.177429 127.91286 
L 436.904702 122.796622 
L 487.631974 117.680384 
L 538.359247 112.564145 
L 589.08652 107.447907 
" clip-path="url(#pbcaae6527b)" style="fill: none; stroke: #1a1a1a; stroke-opacity: 0.4; stroke-width: 1.5; stroke-linecap: round"/>
   </g>
   <g id="line2d_44">
    <path d="M 81.813793 178.576485 
L 132.541065 176.107 
L 183.268338 173.637515 
L 233.995611 171.16803 
L 284.722884 168.698545 
L 335.450156 166.22906 
L 386.177429 163.759575 
L 436.904702 161.29009 
L 487.631974 158.820605 
L 538.359247 156.35112 
L 589.08652 153.881635 
" clip-path="url(#pbcaae6527b)" style="fill: none; stroke: #1a1a1a; stroke-opacity: 0.4; stroke-width: 1.5; stroke-linecap: round"/>
   </g>
   <g id="line2d_45">
    <path d="M 81.813793 210.553337 
L 132.541065 212.208481 
L 183.268338 213.863625 
L 233.995611 215.51877 
L 284.722884 217.173914 
L 335.450156 218.829058 
L 386.177429 220.484202 
L 436.904702 222.139346 
L 487.631974 223.79449 
L 538.359247 225.449635 
L 589.08652 227.104779 
" clip-path="url(#pbcaae6527b)" style="fill: none; stroke: #1a1a1a; stroke-opacity: 0.4; stroke-width: 1.5; stroke-linecap: round"/>
   </g>
   <g id="line2d_46">
    <path d="M 81.813793 179.28142 
L 132.541065 181.561529 
L 183.268338 183.841638 
L 233.995611 186.121747 
L 284.722884 188.401856 
L 335.450156 190.681965 
L 386.177429 192.962074 
L 436.904702 195.242183 
L 487.631974 197.522292 
L 538.359247 199.802401 
L 589.08652 202.08251 
" clip-path="url(#pbcaae6527b)" style="fill: none; stroke: #1a1a1a; stroke-opacity: 0.4; stroke-width: 1.5; stroke-linecap: round"/>
   </g>
   <g id="line2d_47">
    <path d="M 81.813793 183.669645 
L 132.541065 188.752671 
L 183.268338 193.835697 
L 233.995611 198.918724 
L 284.722884 204.00175 
L 335.450156 209.084776 
L 386.177429 214.167802 
L 436.904702 219.250828 
L 487.631974 224.333854 
L 538.359247 229.41688 
L 589.08652 234.499906 
" clip-path="url(#pbcaae6527b)" style="fill: none; stroke: #1a1a1a; stroke-opacity: 0.4; stroke-width: 1.5; stroke-linecap: round"/>
   </g>
   <g id="line2d_48">
    <path d="M 81.813793 180.70942 
L 132.541065 180.537051 
L 183.268338 180.364681 
L 233.995611 180.192312 
L 284.722884 180.019943 
L 335.450156 179.847573 
L 386.177429 179.675204 
L 436.904702 179.502834 
L 487.631974 179.330465 
L 538.359247 179.158095 
L 589.08652 178.985726 
" clip-path="url(#pbcaae6527b)" style="fill: none; stroke: #1a1a1a; stroke-opacity: 0.4; stroke-width: 1.5; stroke-linecap: round"/>
   </g>
   <g id="line2d_49">
    <path d="M 81.813793 146.348875 
L 132.541065 141.189828 
L 183.268338 136.03078 
L 233.995611 130.871732 
L 284.722884 125.712685 
L 335.450156 120.553637 
L 386.177429 115.394589 
L 436.904702 110.235542 
L 487.631974 105.076494 
L 538.359247 99.917446 
L 589.08652 94.758399 
" clip-path="url(#pbcaae6527b)" style="fill: none; stroke: #1a1a1a; stroke-opacity: 0.4; stroke-width: 1.5; stroke-linecap: round"/>
   </g>
   <g id="line2d_50">
    <path d="M 81.813793 163.544705 
L 132.541065 164.78864 
L 183.268338 166.032575 
L 233.995611 167.27651 
L 284.722884 168.520445 
L 335.450156 169.76438 
L 386.177429 171.008316 
L 436.904702 172.252251 
L 487.631974 173.496186 
L 538.359247 174.740121 
L 589.08652 175.984056 
" clip-path="url(#pbcaae6527b)" style="fill: none; stroke: #1a1a1a; stroke-opacity: 0.4; stroke-width: 1.5; stroke-linecap: round"/>
   </g>
   <g id="line2d_51">
    <path d="M 81.813793 147.491487 
L 132.541065 143.546841 
L 183.268338 139.602194 
L 233.995611 135.657548 
L 284.722884 131.712902 
L 335.450156 127.768255 
L 386.177429 123.823609 
L 436.904702 119.878963 
L 487.631974 115.934317 
L 538.359247 111.98967 
L 589.08652 108.045024 
" clip-path="url(#pbcaae6527b)" style="fill: none; stroke: #1a1a1a; stroke-opacity: 0.4; stroke-width: 1.5; stroke-linecap: round"/>
   </g>
   <g id="line2d_52">
    <path d="M 81.813793 164.639272 
L 132.541065 156.203242 
L 183.268338 147.767211 
L 233.995611 139.33118 
L 284.722884 130.895149 
L 335.450156 122.459119 
L 386.177429 114.023088 
L 436.904702 105.587057 
L 487.631974 97.151026 
L 538.359247 88.714996 
L 589.08652 80.278965 
" clip-path="url(#pbcaae6527b)" style="fill: none; stroke: #1a1a1a; stroke-opacity: 0.4; stroke-width: 1.5; stroke-linecap: round"/>
   </g>
   <g id="line2d_53">
    <path d="M 81.813793 158.181846 
L 132.541065 157.7397 
L 183.268338 157.297554 
L 233.995611 156.855408 
L 284.722884 156.413262 
L 335.450156 155.971116 
L 386.177429 155.52897 
L 436.904702 155.086824 
L 487.631974 154.644678 
L 538.359247 154.202532 
L 589.08652 153.760386 
" clip-path="url(#pbcaae6527b)" style="fill: none; stroke: #1a1a1a; stroke-opacity: 0.4; stroke-width: 1.5; stroke-linecap: round"/>
   </g>
   <g id="line2d_54">
    <path d="M 81.813793 179.448051 
L 132.541065 180.018225 
L 183.268338 180.5884 
L 233.995611 181.158575 
L 284.722884 181.728749 
L 335.450156 182.298924 
L 386.177429 182.869099 
L 436.904702 183.439274 
L 487.631974 184.009448 
L 538.359247 184.579623 
L 589.08652 185.149798 
" clip-path="url(#pbcaae6527b)" style="fill: none; stroke: #1a1a1a; stroke-opacity: 0.4; stroke-width: 1.5; stroke-linecap: round"/>
   </g>
   <g id="line2d_55">
    <path d="M 81.813793 185.647666 
L 132.541065 180.177475 
L 183.268338 174.707283 
L 233.995611 169.237091 
L 284.722884 163.766899 
L 335.450156 158.296708 
L 386.177429 152.826516 
L 436.904702 147.356324 
L 487.631974 141.886133 
L 538.359247 136.415941 
L 589.08652 130.945749 
" clip-path="url(#pbcaae6527b)" style="fill: none; stroke: #1a1a1a; stroke-opacity: 0.4; stroke-width: 1.5; stroke-linecap: round"/>
   </g>
   <g id="line2d_56">
    <path d="M 81.813793 166.634067 
L 132.541065 168.629474 
L 183.268338 170.624881 
L 233.995611 172.620288 
L 284.722884 174.615694 
L 335.450156 176.611101 
L 386.177429 178.606508 
L 436.904702 180.601915 
L 487.631974 182.597322 
L 538.359247 184.592728 
L 589.08652 186.588135 
" clip-path="url(#pbcaae6527b)" style="fill: none; stroke: #1a1a1a; stroke-opacity: 0.4; stroke-width: 1.5; stroke-linecap: round"/>
   </g>
   <g id="line2d_57">
    <path d="M 81.813793 165.807174 
L 132.541065 175.361146 
L 183.268338 184.915117 
L 233.995611 194.469089 
L 284.722884 204.02306 
L 335.450156 213.577032 
L 386.177429 223.131003 
L 436.904702 232.684975 
L 487.631974 242.238946 
L 538.359247 251.792918 
L 589.08652 261.346889 
" clip-path="url(#pbcaae6527b)" style="fill: none; stroke: #1a1a1a; stroke-opacity: 0.4; stroke-width: 1.5; stroke-linecap: round"/>
   </g>
   <g id="line2d_58">
    <path d="M 81.813793 172.295312 
L 132.541065 175.536657 
L 183.268338 178.778001 
L 233.995611 182.019346 
L 284.722884 185.260691 
L 335.450156 188.502035 
L 386.177429 191.74338 
L 436.904702 194.984725 
L 487.631974 198.226069 
L 538.359247 201.467414 
L 589.08652 204.708758 
" clip-path="url(#pbcaae6527b)" style="fill: none; stroke: #1a1a1a; stroke-opacity: 0.4; stroke-width: 1.5; stroke-linecap: round"/>
   </g>
   <g id="line2d_59">
    <path d="M 81.813793 172.735047 
L 132.541065 175.889034 
L 183.268338 179.043021 
L 233.995611 182.197008 
L 284.722884 185.350996 
L 335.450156 188.504983 
L 386.177429 191.65897 
L 436.904702 194.812957 
L 487.631974 197.966944 
L 538.359247 201.120932 
L 589.08652 204.274919 
" clip-path="url(#pbcaae6527b)" style="fill: none; stroke: #1a1a1a; stroke-opacity: 0.4; stroke-width: 1.5; stroke-linecap: round"/>
   </g>
   <g id="line2d_60">
    <path d="M 81.813793 152.4274 
L 132.541065 153.194678 
L 183.268338 153.961957 
L 233.995611 154.729235 
L 284.722884 155.496513 
L 335.450156 156.263791 
L 386.177429 157.03107 
L 436.904702 157.798348 
L 487.631974 158.565626 
L 538.359247 159.332904 
L 589.08652 160.100183 
" clip-path="url(#pbcaae6527b)" style="fill: none; stroke: #1a1a1a; stroke-opacity: 0.4; stroke-width: 1.5; stroke-linecap: round"/>
   </g>
   <g id="line2d_61">
    <path d="M 81.813793 154.861052 
L 132.541065 151.233058 
L 183.268338 147.605064 
L 233.995611 143.97707 
L 284.722884 140.349077 
L 335.450156 136.721083 
L 386.177429 133.093089 
L 436.904702 129.465095 
L 487.631974 125.837102 
L 538.359247 122.209108 
L 589.08652 118.581114 
" clip-path="url(#pbcaae6527b)" style="fill: none; stroke: #1a1a1a; stroke-opacity: 0.4; stroke-width: 1.5; stroke-linecap: round"/>
   </g>
   <g id="line2d_62">
    <path d="M 81.813793 184.915512 
L 132.541065 188.039964 
L 183.268338 191.164416 
L 233.995611 194.288868 
L 284.722884 197.41332 
L 335.450156 200.537771 
L 386.177429 203.662223 
L 436.904702 206.786675 
L 487.631974 209.911127 
L 538.359247 213.035579 
L 589.08652 216.16003 
" clip-path="url(#pbcaae6527b)" style="fill: none; stroke: #1a1a1a; stroke-opacity: 0.4; stroke-width: 1.5; stroke-linecap: round"/>
   </g>
   <g id="line2d_63">
    <path d="M 81.813793 160.153989 
L 132.541065 164.150351 
L 183.268338 168.146712 
L 233.995611 172.143074 
L 284.722884 176.139436 
L 335.450156 180.135798 
L 386.177429 184.13216 
L 436.904702 188.128521 
L 487.631974 192.124883 
L 538.359247 196.121245 
L 589.08652 200.117607 
" clip-path="url(#pbcaae6527b)" style="fill: none; stroke: #1a1a1a; stroke-opacity: 0.4; stroke-width: 1.5; stroke-linecap: round"/>
   </g>
   <g id="line2d_64">
    <path d="M 81.813793 141.614902 
L 132.541065 144.091602 
L 183.268338 146.568302 
L 233.995611 149.045002 
L 284.722884 151.521702 
L 335.450156 153.998402 
L 386.177429 156.475102 
L 436.904702 158.951802 
L 487.631974 161.428502 
L 538.359247 163.905202 
L 589.08652 166.381902 
" clip-path="url(#pbcaae6527b)" style="fill: none; stroke: #1a1a1a; stroke-opacity: 0.4; stroke-width: 1.5; stroke-linecap: round"/>
   </g>
   <g id="patch_3">
    <path d="M 56.450156 354.429375 
L 56.450156 21.789375 
" style="fill: none; stroke: #ffffff; stroke-width: 1.25; stroke-linejoin: miter; stroke-linecap: square"/>
   </g>
   <g id="patch_4">
    <path d="M 614.450156 354.429375 
L 614.450156 21.789375 
" style="fill: none; stroke: #ffffff; stroke-width: 1.25; stroke-linejoin: miter; stroke-linecap: square"/>
   </g>
   <g id="patch_5">
    <path d="M 56.450156 354.429375 
L 614.450156 354.429375 
" style="fill: none; stroke: #ffffff; stroke-width: 1.25; stroke-linejoin: miter; stroke-linecap: square"/>
   </g>
   <g id="patch_6">
    <path d="M 56.450156 21.789375 
L 614.450156 21.789375 
" style="fill: none; stroke: #ffffff; stroke-width: 1.25; stroke-linejoin: miter; stroke-linecap: square"/>
   </g>
   <g id="text_17">
    <!-- Distribuzione predittiva a priori -->
    <g style="fill: #262626" transform="translate(254.753906 15.789375) scale(0.12 -0.12)">
     <defs>
      <path id="ArialMT-44" d="M 494 0 
L 494 4581 
L 2072 4581 
Q 2606 4581 2888 4516 
Q 3281 4425 3559 4188 
Q 3922 3881 4101 3404 
Q 4281 2928 4281 2316 
Q 4281 1794 4159 1391 
Q 4038 988 3847 723 
Q 3656 459 3429 307 
Q 3203 156 2883 78 
Q 2563 0 2147 0 
L 494 0 
z
M 1100 541 
L 2078 541 
Q 2531 541 2789 625 
Q 3047 709 3200 863 
Q 3416 1078 3536 1442 
Q 3656 1806 3656 2325 
Q 3656 3044 3420 3430 
Q 3184 3816 2847 3947 
Q 2603 4041 2063 4041 
L 1100 4041 
L 1100 541 
z
" transform="scale(0.015625)"/>
      <path id="ArialMT-62" d="M 941 0 
L 419 0 
L 419 4581 
L 981 4581 
L 981 2947 
Q 1338 3394 1891 3394 
Q 2197 3394 2470 3270 
Q 2744 3147 2920 2923 
Q 3097 2700 3197 2384 
Q 3297 2069 3297 1709 
Q 3297 856 2875 390 
Q 2453 -75 1863 -75 
Q 1275 -75 941 416 
L 941 0 
z
M 934 1684 
Q 934 1088 1097 822 
Q 1363 388 1816 388 
Q 2184 388 2453 708 
Q 2722 1028 2722 1663 
Q 2722 2313 2464 2622 
Q 2206 2931 1841 2931 
Q 1472 2931 1203 2611 
Q 934 2291 934 1684 
z
" transform="scale(0.015625)"/>
     </defs>
     <use xlink:href="#ArialMT-44"/>
     <use xlink:href="#ArialMT-69" x="72.216797"/>
     <use xlink:href="#ArialMT-73" x="94.433594"/>
     <use xlink:href="#ArialMT-74" x="144.433594"/>
     <use xlink:href="#ArialMT-72" x="172.216797"/>
     <use xlink:href="#ArialMT-69" x="205.517578"/>
     <use xlink:href="#ArialMT-62" x="227.734375"/>
     <use xlink:href="#ArialMT-75" x="283.349609"/>
     <use xlink:href="#ArialMT-7a" x="338.964844"/>
     <use xlink:href="#ArialMT-69" x="388.964844"/>
     <use xlink:href="#ArialMT-6f" x="411.181641"/>
     <use xlink:href="#ArialMT-6e" x="466.796875"/>
     <use xlink:href="#ArialMT-65" x="522.412109"/>
     <use xlink:href="#ArialMT-20" x="578.027344"/>
     <use xlink:href="#ArialMT-70" x="605.810547"/>
     <use xlink:href="#ArialMT-72" x="661.425781"/>
     <use xlink:href="#ArialMT-65" x="694.726562"/>
     <use xlink:href="#ArialMT-64" x="750.341797"/>
     <use xlink:href="#ArialMT-69" x="805.957031"/>
     <use xlink:href="#ArialMT-74" x="828.173828"/>
     <use xlink:href="#ArialMT-74" x="855.957031"/>
     <use xlink:href="#ArialMT-69" x="883.740234"/>
     <use xlink:href="#ArialMT-76" x="905.957031"/>
     <use xlink:href="#ArialMT-61" x="955.957031"/>
     <use xlink:href="#ArialMT-20" x="1011.572266"/>
     <use xlink:href="#ArialMT-61" x="1039.355469"/>
     <use xlink:href="#ArialMT-20" x="1094.970703"/>
     <use xlink:href="#ArialMT-70" x="1122.753906"/>
     <use xlink:href="#ArialMT-72" x="1178.369141"/>
     <use xlink:href="#ArialMT-69" x="1211.669922"/>
     <use xlink:href="#ArialMT-6f" x="1233.886719"/>
     <use xlink:href="#ArialMT-72" x="1289.501953"/>
     <use xlink:href="#ArialMT-69" x="1322.802734"/>
    </g>
   </g>
  </g>
 </g>
 <defs>
  <clipPath id="pbcaae6527b">
   <rect x="56.450156" y="21.789375" width="558" height="332.64"/>
  </clipPath>
 </defs>
</svg>