<?xml version="1.0" encoding="UTF-8" standalone="no"?>
<!DOCTYPE svg PUBLIC "-//W3C//DTD SVG 1.1//EN"
 "http://www.w3.org/Graphics/SVG/1.1/DTD/svg11.dtd">
<!-- Generated by graphviz version 11.0.0 (0)
 -->
<!-- Pages: 1 -->
<svg width="446pt" height="247pt"
 viewBox="0.00 0.00 446.30 247.13" xmlns="http://www.w3.org/2000/svg" xmlns:xlink="http://www.w3.org/1999/xlink">
<g id="graph0" class="graph" transform="scale(1 1) rotate(0) translate(4 243.13)">
<polygon fill="white" stroke="none" points="-4,4 -4,-243.13 442.3,-243.13 442.3,4 -4,4"/>
<g id="clust1" class="cluster">
<title>clustery_obs (103)</title>
<path fill="none" stroke="black" d="M156.01,-8C156.01,-8 240.01,-8 240.01,-8 246.01,-8 252.01,-14 252.01,-20 252.01,-20 252.01,-117.82 252.01,-117.82 252.01,-123.82 246.01,-129.82 240.01,-129.82 240.01,-129.82 156.01,-129.82 156.01,-129.82 150.01,-129.82 144.01,-123.82 144.01,-117.82 144.01,-117.82 144.01,-20 144.01,-20 144.01,-14 150.01,-8 156.01,-8"/>
<text text-anchor="middle" x="211.39" y="-15.2" font-family="Times,serif" font-size="14.00">y_obs (103)</text>
</g>
<!-- x -->
<g id="node1" class="node">
<title>x</title>
<ellipse fill="none" stroke="black" cx="41.01" cy="-198.48" rx="41.01" ry="40.66"/>
<text text-anchor="middle" x="41.01" y="-209.93" font-family="Times,serif" font-size="14.00">x</text>
<text text-anchor="middle" x="41.01" y="-193.43" font-family="Times,serif" font-size="14.00">~</text>
<text text-anchor="middle" x="41.01" y="-176.93" font-family="Times,serif" font-size="14.00">Normal</text>
</g>
<!-- y -->
<g id="node5" class="node">
<title>y</title>
<ellipse fill="lightgrey" stroke="black" cx="198.01" cy="-81.16" rx="46.32" ry="40.66"/>
<text text-anchor="middle" x="198.01" y="-92.61" font-family="Times,serif" font-size="14.00">y</text>
<text text-anchor="middle" x="198.01" y="-76.11" font-family="Times,serif" font-size="14.00">~</text>
<text text-anchor="middle" x="198.01" y="-59.61" font-family="Times,serif" font-size="14.00">StudentT</text>
</g>
<!-- x&#45;&gt;y -->
<g id="edge1" class="edge">
<title>x&#45;&gt;y</title>
<path fill="none" stroke="black" d="M72.55,-172.03C78.63,-167.25 84.98,-162.33 91.01,-157.82 110.95,-142.88 133.41,-126.88 152.58,-113.46"/>
<polygon fill="black" stroke="black" points="154.55,-116.35 160.75,-107.76 150.55,-110.61 154.55,-116.35"/>
</g>
<!-- Intercept -->
<g id="node2" class="node">
<title>Intercept</title>
<ellipse fill="none" stroke="black" cx="145.01" cy="-198.48" rx="45.25" ry="40.66"/>
<text text-anchor="middle" x="145.01" y="-209.93" font-family="Times,serif" font-size="14.00">Intercept</text>
<text text-anchor="middle" x="145.01" y="-193.43" font-family="Times,serif" font-size="14.00">~</text>
<text text-anchor="middle" x="145.01" y="-176.93" font-family="Times,serif" font-size="14.00">Normal</text>
</g>
<!-- Intercept&#45;&gt;y -->
<g id="edge2" class="edge">
<title>Intercept&#45;&gt;y</title>
<path fill="none" stroke="black" d="M162.07,-160.35C166.57,-150.58 171.47,-139.9 176.18,-129.66"/>
<polygon fill="black" stroke="black" points="179.35,-131.13 180.35,-120.59 172.99,-128.21 179.35,-131.13"/>
</g>
<!-- y_nu -->
<g id="node3" class="node">
<title>y_nu</title>
<ellipse fill="none" stroke="black" cx="251.01" cy="-198.48" rx="42.6" ry="40.66"/>
<text text-anchor="middle" x="251.01" y="-209.93" font-family="Times,serif" font-size="14.00">y_nu</text>
<text text-anchor="middle" x="251.01" y="-193.43" font-family="Times,serif" font-size="14.00">~</text>
<text text-anchor="middle" x="251.01" y="-176.93" font-family="Times,serif" font-size="14.00">Gamma</text>
</g>
<!-- y_nu&#45;&gt;y -->
<g id="edge3" class="edge">
<title>y_nu&#45;&gt;y</title>
<path fill="none" stroke="black" d="M234.1,-160.67C229.55,-150.78 224.57,-139.95 219.81,-129.58"/>
<polygon fill="black" stroke="black" points="223.12,-128.4 215.76,-120.78 216.76,-131.33 223.12,-128.4"/>
</g>
<!-- y_sigma -->
<g id="node4" class="node">
<title>y_sigma</title>
<ellipse fill="none" stroke="black" cx="375.01" cy="-198.48" rx="63.29" ry="40.66"/>
<text text-anchor="middle" x="375.01" y="-209.93" font-family="Times,serif" font-size="14.00">y_sigma</text>
<text text-anchor="middle" x="375.01" y="-193.43" font-family="Times,serif" font-size="14.00">~</text>
<text text-anchor="middle" x="375.01" y="-176.93" font-family="Times,serif" font-size="14.00">HalfStudentT</text>
</g>
<!-- y_sigma&#45;&gt;y -->
<g id="edge4" class="edge">
<title>y_sigma&#45;&gt;y</title>
<path fill="none" stroke="black" d="M331.26,-168.97C304.91,-151.8 271.38,-129.96 244.54,-112.48"/>
<polygon fill="black" stroke="black" points="246.54,-109.6 236.26,-107.07 242.72,-115.47 246.54,-109.6"/>
</g>
</g>
</svg>