<?xml version="1.0" encoding="UTF-8" standalone="no"?>
<!DOCTYPE svg PUBLIC "-//W3C//DTD SVG 1.1//EN"
 "http://www.w3.org/Graphics/SVG/1.1/DTD/svg11.dtd">
<!-- Generated by graphviz version 9.0.0 (0)
 -->
<!-- Pages: 1 -->
<svg width="424pt" height="498pt"
 viewBox="0.00 0.00 423.55 497.77" xmlns="http://www.w3.org/2000/svg" xmlns:xlink="http://www.w3.org/1999/xlink">
<g id="graph0" class="graph" transform="scale(1 1) rotate(0) translate(4 493.77)">
<polygon fill="white" stroke="none" points="-4,4 -4,-493.77 419.55,-493.77 419.55,4 -4,4"/>
<g id="clust1" class="cluster">
<title>clusteri (1)</title>
<path fill="none" stroke="black" d="M105.54,-8C105.54,-8 211.54,-8 211.54,-8 217.54,-8 223.54,-14 223.54,-20 223.54,-20 223.54,-469.77 223.54,-469.77 223.54,-475.77 217.54,-481.77 211.54,-481.77 211.54,-481.77 105.54,-481.77 105.54,-481.77 99.54,-481.77 93.54,-475.77 93.54,-469.77 93.54,-469.77 93.54,-20 93.54,-20 93.54,-14 99.54,-8 105.54,-8"/>
<text text-anchor="middle" x="203.92" y="-15.2" font-family="Times,serif" font-size="14.00">i (1)</text>
</g>
<!-- beta_y0 -->
<g id="node1" class="node">
<title>beta_y0</title>
<ellipse fill="none" stroke="black" cx="41.54" cy="-315.79" rx="41.54" ry="40.66"/>
<text text-anchor="middle" x="41.54" y="-327.24" font-family="Times,serif" font-size="14.00">beta_y0</text>
<text text-anchor="middle" x="41.54" y="-310.74" font-family="Times,serif" font-size="14.00">~</text>
<text text-anchor="middle" x="41.54" y="-294.24" font-family="Times,serif" font-size="14.00">Normal</text>
</g>
<!-- y_mu -->
<g id="node9" class="node">
<title>y_mu</title>
<polygon fill="none" stroke="black" points="213.67,-227.23 123.42,-227.23 123.42,-169.73 213.67,-169.73 213.67,-227.23"/>
<text text-anchor="middle" x="168.54" y="-209.93" font-family="Times,serif" font-size="14.00">y_mu</text>
<text text-anchor="middle" x="168.54" y="-193.43" font-family="Times,serif" font-size="14.00">~</text>
<text text-anchor="middle" x="168.54" y="-176.93" font-family="Times,serif" font-size="14.00">Deterministic</text>
</g>
<!-- beta_y0&#45;&gt;y_mu -->
<g id="edge4" class="edge">
<title>beta_y0&#45;&gt;y_mu</title>
<path fill="none" stroke="black" d="M71.64,-287.46C88.94,-271.75 110.87,-251.84 129.49,-234.94"/>
<polygon fill="black" stroke="black" points="131.61,-237.74 136.66,-228.43 126.9,-232.56 131.61,-237.74"/>
</g>
<!-- beta_z0 -->
<g id="node2" class="node">
<title>beta_z0</title>
<ellipse fill="none" stroke="black" cx="272.54" cy="-433.11" rx="41.01" ry="40.66"/>
<text text-anchor="middle" x="272.54" y="-444.56" font-family="Times,serif" font-size="14.00">beta_z0</text>
<text text-anchor="middle" x="272.54" y="-428.06" font-family="Times,serif" font-size="14.00">~</text>
<text text-anchor="middle" x="272.54" y="-411.56" font-family="Times,serif" font-size="14.00">Normal</text>
</g>
<!-- z -->
<g id="node8" class="node">
<title>z</title>
<ellipse fill="none" stroke="black" cx="168.54" cy="-315.79" rx="47.38" ry="40.66"/>
<text text-anchor="middle" x="168.54" y="-327.24" font-family="Times,serif" font-size="14.00">z</text>
<text text-anchor="middle" x="168.54" y="-310.74" font-family="Times,serif" font-size="14.00">~</text>
<text text-anchor="middle" x="168.54" y="-294.24" font-family="Times,serif" font-size="14.00">Bernoulli</text>
</g>
<!-- beta_z0&#45;&gt;z -->
<g id="edge2" class="edge">
<title>beta_z0&#45;&gt;z</title>
<path fill="none" stroke="black" d="M245.49,-402.11C233.11,-388.39 218.27,-371.93 204.93,-357.14"/>
<polygon fill="black" stroke="black" points="207.59,-354.86 198.29,-349.78 202.39,-359.55 207.59,-354.86"/>
</g>
<!-- beta_zy -->
<g id="node3" class="node">
<title>beta_zy</title>
<ellipse fill="none" stroke="black" cx="274.54" cy="-315.79" rx="41.01" ry="40.66"/>
<text text-anchor="middle" x="274.54" y="-327.24" font-family="Times,serif" font-size="14.00">beta_zy</text>
<text text-anchor="middle" x="274.54" y="-310.74" font-family="Times,serif" font-size="14.00">~</text>
<text text-anchor="middle" x="274.54" y="-294.24" font-family="Times,serif" font-size="14.00">Normal</text>
</g>
<!-- beta_zy&#45;&gt;y_mu -->
<g id="edge7" class="edge">
<title>beta_zy&#45;&gt;y_mu</title>
<path fill="none" stroke="black" d="M247.24,-285.1C233.35,-269.98 216.35,-251.48 201.7,-235.55"/>
<polygon fill="black" stroke="black" points="204.66,-233.59 195.31,-228.6 199.5,-238.33 204.66,-233.59"/>
</g>
<!-- beta_cy -->
<g id="node4" class="node">
<title>beta_cy</title>
<ellipse fill="none" stroke="black" cx="374.54" cy="-315.79" rx="41.01" ry="40.66"/>
<text text-anchor="middle" x="374.54" y="-327.24" font-family="Times,serif" font-size="14.00">beta_cy</text>
<text text-anchor="middle" x="374.54" y="-310.74" font-family="Times,serif" font-size="14.00">~</text>
<text text-anchor="middle" x="374.54" y="-294.24" font-family="Times,serif" font-size="14.00">Normal</text>
</g>
<!-- beta_cy&#45;&gt;y_mu -->
<g id="edge8" class="edge">
<title>beta_cy&#45;&gt;y_mu</title>
<path fill="none" stroke="black" d="M344.19,-288.14C337.95,-283.42 331.23,-278.83 324.54,-275.13 282.47,-251.88 265.04,-261.61 222.54,-239.13 219.5,-237.53 216.45,-235.76 213.42,-233.9"/>
<polygon fill="black" stroke="black" points="215.44,-231.04 205.15,-228.51 211.62,-236.9 215.44,-231.04"/>
</g>
<!-- sigma_y -->
<g id="node5" class="node">
<title>sigma_y</title>
<ellipse fill="none" stroke="black" cx="289.54" cy="-198.48" rx="57.98" ry="40.66"/>
<text text-anchor="middle" x="289.54" y="-209.93" font-family="Times,serif" font-size="14.00">sigma_y</text>
<text text-anchor="middle" x="289.54" y="-193.43" font-family="Times,serif" font-size="14.00">~</text>
<text text-anchor="middle" x="289.54" y="-176.93" font-family="Times,serif" font-size="14.00">HalfNormal</text>
</g>
<!-- y -->
<g id="node10" class="node">
<title>y</title>
<ellipse fill="none" stroke="black" cx="171.54" cy="-81.16" rx="41.01" ry="40.66"/>
<text text-anchor="middle" x="171.54" y="-92.61" font-family="Times,serif" font-size="14.00">y</text>
<text text-anchor="middle" x="171.54" y="-76.11" font-family="Times,serif" font-size="14.00">~</text>
<text text-anchor="middle" x="171.54" y="-59.61" font-family="Times,serif" font-size="14.00">Normal</text>
</g>
<!-- sigma_y&#45;&gt;y -->
<g id="edge9" class="edge">
<title>sigma_y&#45;&gt;y</title>
<path fill="none" stroke="black" d="M256.04,-164.74C241.21,-150.24 223.72,-133.15 208.5,-118.28"/>
<polygon fill="black" stroke="black" points="211,-115.82 201.4,-111.34 206.11,-120.83 211,-115.82"/>
</g>
<!-- beta_cz -->
<g id="node6" class="node">
<title>beta_cz</title>
<ellipse fill="none" stroke="black" cx="372.54" cy="-433.11" rx="41.01" ry="40.66"/>
<text text-anchor="middle" x="372.54" y="-444.56" font-family="Times,serif" font-size="14.00">beta_cz</text>
<text text-anchor="middle" x="372.54" y="-428.06" font-family="Times,serif" font-size="14.00">~</text>
<text text-anchor="middle" x="372.54" y="-411.56" font-family="Times,serif" font-size="14.00">Normal</text>
</g>
<!-- beta_cz&#45;&gt;z -->
<g id="edge3" class="edge">
<title>beta_cz&#45;&gt;z</title>
<path fill="none" stroke="black" d="M342.15,-405.53C335.92,-400.8 329.21,-396.19 322.54,-392.45 282.08,-369.75 265.61,-378.05 224.54,-356.45 220.68,-354.42 216.77,-352.16 212.92,-349.77"/>
<polygon fill="black" stroke="black" points="215.05,-346.98 204.76,-344.47 211.24,-352.86 215.05,-346.98"/>
</g>
<!-- c -->
<g id="node7" class="node">
<title>c</title>
<ellipse fill="none" stroke="black" cx="155.54" cy="-433.11" rx="41.01" ry="40.66"/>
<text text-anchor="middle" x="155.54" y="-444.56" font-family="Times,serif" font-size="14.00">c</text>
<text text-anchor="middle" x="155.54" y="-428.06" font-family="Times,serif" font-size="14.00">~</text>
<text text-anchor="middle" x="155.54" y="-411.56" font-family="Times,serif" font-size="14.00">Normal</text>
</g>
<!-- c&#45;&gt;z -->
<g id="edge1" class="edge">
<title>c&#45;&gt;z</title>
<path fill="none" stroke="black" d="M160.02,-392.42C160.9,-384.54 161.85,-376.16 162.77,-367.96"/>
<polygon fill="black" stroke="black" points="166.25,-368.39 163.89,-358.06 159.29,-367.6 166.25,-368.39"/>
</g>
<!-- c&#45;&gt;y_mu -->
<g id="edge5" class="edge">
<title>c&#45;&gt;y_mu</title>
<path fill="none" stroke="black" d="M132.09,-399.46C124.26,-386.68 116.52,-371.5 112.54,-356.45 103.31,-321.51 101.22,-309.46 112.54,-275.13 117.11,-261.3 125.28,-247.92 134.01,-236.36"/>
<polygon fill="black" stroke="black" points="136.62,-238.69 140.11,-228.69 131.15,-234.33 136.62,-238.69"/>
</g>
<!-- z&#45;&gt;y_mu -->
<g id="edge6" class="edge">
<title>z&#45;&gt;y_mu</title>
<path fill="none" stroke="black" d="M168.54,-274.78C168.54,-263.08 168.54,-250.29 168.54,-238.64"/>
<polygon fill="black" stroke="black" points="172.04,-238.95 168.54,-228.95 165.04,-238.95 172.04,-238.95"/>
</g>
<!-- y_mu&#45;&gt;y -->
<g id="edge10" class="edge">
<title>y_mu&#45;&gt;y</title>
<path fill="none" stroke="black" d="M169.28,-169.27C169.56,-158.44 169.89,-145.73 170.21,-133.41"/>
<polygon fill="black" stroke="black" points="173.7,-133.87 170.46,-123.78 166.7,-133.69 173.7,-133.87"/>
</g>
</g>
</svg>