<?xml version="1.0" encoding="UTF-8" standalone="no"?>
<!DOCTYPE svg PUBLIC "-//W3C//DTD SVG 1.1//EN"
 "http://www.w3.org/Graphics/SVG/1.1/DTD/svg11.dtd">
<!-- Generated by graphviz version 9.0.0 (0)
 -->
<!-- Pages: 1 -->
<svg width="888pt" height="381pt"
 viewBox="0.00 0.00 887.97 381.04" xmlns="http://www.w3.org/2000/svg" xmlns:xlink="http://www.w3.org/1999/xlink">
<g id="graph0" class="graph" transform="scale(1 1) rotate(0) translate(4 377.04)">
<polygon fill="white" stroke="none" points="-4,4 -4,-377.04 883.97,-377.04 883.97,4 -4,4"/>
<g id="clust1" class="cluster">
<title>clusterSubject__factor_dim (18)</title>
<path fill="none" stroke="black" d="M171.95,-137.82C171.95,-137.82 504.95,-137.82 504.95,-137.82 510.95,-137.82 516.95,-143.82 516.95,-149.82 516.95,-149.82 516.95,-353.04 516.95,-353.04 516.95,-359.04 510.95,-365.04 504.95,-365.04 504.95,-365.04 171.95,-365.04 171.95,-365.04 165.95,-365.04 159.95,-359.04 159.95,-353.04 159.95,-353.04 159.95,-149.82 159.95,-149.82 159.95,-143.82 165.95,-137.82 171.95,-137.82"/>
<text text-anchor="middle" x="438.83" y="-145.02" font-family="Times,serif" font-size="14.00">Subject__factor_dim (18)</text>
</g>
<g id="clust2" class="cluster">
<title>clusterReaction_obs (144)</title>
<path fill="none" stroke="black" d="M548.95,-8C548.95,-8 646.95,-8 646.95,-8 652.95,-8 658.95,-14 658.95,-20 658.95,-20 658.95,-117.82 658.95,-117.82 658.95,-123.82 652.95,-129.82 646.95,-129.82 646.95,-129.82 548.95,-129.82 548.95,-129.82 542.95,-129.82 536.95,-123.82 536.95,-117.82 536.95,-117.82 536.95,-20 536.95,-20 536.95,-14 542.95,-8 548.95,-8"/>
<text text-anchor="middle" x="597.7" y="-15.2" font-family="Times,serif" font-size="14.00">Reaction_obs (144)</text>
</g>
<!-- 1|Subject_sigma -->
<g id="node1" class="node">
<title>1|Subject_sigma</title>
<ellipse fill="none" stroke="black" cx="74.95" cy="-316.38" rx="74.95" ry="40.66"/>
<text text-anchor="middle" x="74.95" y="-327.83" font-family="Times,serif" font-size="14.00">1|Subject_sigma</text>
<text text-anchor="middle" x="74.95" y="-311.33" font-family="Times,serif" font-size="14.00">~</text>
<text text-anchor="middle" x="74.95" y="-294.83" font-family="Times,serif" font-size="14.00">HalfNormal</text>
</g>
<!-- 1|Subject -->
<g id="node7" class="node">
<title>1|Subject</title>
<polygon fill="none" stroke="black" points="286.08,-227.82 195.83,-227.82 195.83,-170.32 286.08,-170.32 286.08,-227.82"/>
<text text-anchor="middle" x="240.95" y="-210.52" font-family="Times,serif" font-size="14.00">1|Subject</text>
<text text-anchor="middle" x="240.95" y="-194.02" font-family="Times,serif" font-size="14.00">~</text>
<text text-anchor="middle" x="240.95" y="-177.52" font-family="Times,serif" font-size="14.00">Deterministic</text>
</g>
<!-- 1|Subject_sigma&#45;&gt;1|Subject -->
<g id="edge1" class="edge">
<title>1|Subject_sigma&#45;&gt;1|Subject</title>
<path fill="none" stroke="black" d="M120.31,-283.87C142.24,-268.64 168.6,-250.33 191.09,-234.71"/>
<polygon fill="black" stroke="black" points="193.01,-237.64 199.22,-229.06 189.01,-231.89 193.01,-237.64"/>
</g>
<!-- Reaction_sigma -->
<g id="node2" class="node">
<title>Reaction_sigma</title>
<ellipse fill="none" stroke="black" cx="597.95" cy="-199.07" rx="73.36" ry="40.66"/>
<text text-anchor="middle" x="597.95" y="-210.52" font-family="Times,serif" font-size="14.00">Reaction_sigma</text>
<text text-anchor="middle" x="597.95" y="-194.02" font-family="Times,serif" font-size="14.00">~</text>
<text text-anchor="middle" x="597.95" y="-177.52" font-family="Times,serif" font-size="14.00">HalfStudentT</text>
</g>
<!-- Reaction -->
<g id="node10" class="node">
<title>Reaction</title>
<ellipse fill="lightgrey" stroke="black" cx="597.95" cy="-81.16" rx="45.25" ry="40.66"/>
<text text-anchor="middle" x="597.95" y="-92.61" font-family="Times,serif" font-size="14.00">Reaction</text>
<text text-anchor="middle" x="597.95" y="-76.11" font-family="Times,serif" font-size="14.00">~</text>
<text text-anchor="middle" x="597.95" y="-59.61" font-family="Times,serif" font-size="14.00">Normal</text>
</g>
<!-- Reaction_sigma&#45;&gt;Reaction -->
<g id="edge9" class="edge">
<title>Reaction_sigma&#45;&gt;Reaction</title>
<path fill="none" stroke="black" d="M597.95,-158.18C597.95,-150.26 597.95,-141.83 597.95,-133.59"/>
<polygon fill="black" stroke="black" points="601.45,-133.63 597.95,-123.63 594.45,-133.63 601.45,-133.63"/>
</g>
<!-- Intercept -->
<g id="node3" class="node">
<title>Intercept</title>
<ellipse fill="none" stroke="black" cx="734.95" cy="-199.07" rx="45.25" ry="40.66"/>
<text text-anchor="middle" x="734.95" y="-210.52" font-family="Times,serif" font-size="14.00">Intercept</text>
<text text-anchor="middle" x="734.95" y="-194.02" font-family="Times,serif" font-size="14.00">~</text>
<text text-anchor="middle" x="734.95" y="-177.52" font-family="Times,serif" font-size="14.00">Normal</text>
</g>
<!-- Intercept&#45;&gt;Reaction -->
<g id="edge5" class="edge">
<title>Intercept&#45;&gt;Reaction</title>
<path fill="none" stroke="black" d="M708.29,-166.07C699.68,-156.53 689.8,-146.35 679.95,-137.82 669.07,-128.4 656.55,-119.19 644.62,-111.07"/>
<polygon fill="black" stroke="black" points="646.74,-108.27 636.48,-105.64 642.86,-114.1 646.74,-108.27"/>
</g>
<!-- Days -->
<g id="node4" class="node">
<title>Days</title>
<ellipse fill="none" stroke="black" cx="838.95" cy="-199.07" rx="41.01" ry="40.66"/>
<text text-anchor="middle" x="838.95" y="-210.52" font-family="Times,serif" font-size="14.00">Days</text>
<text text-anchor="middle" x="838.95" y="-194.02" font-family="Times,serif" font-size="14.00">~</text>
<text text-anchor="middle" x="838.95" y="-177.52" font-family="Times,serif" font-size="14.00">Normal</text>
</g>
<!-- Days&#45;&gt;Reaction -->
<g id="edge6" class="edge">
<title>Days&#45;&gt;Reaction</title>
<path fill="none" stroke="black" d="M816.81,-164.33C809.01,-154.6 799.52,-144.75 788.95,-137.82 748.13,-111.02 694.15,-96.85 653.99,-89.53"/>
<polygon fill="black" stroke="black" points="654.73,-86.1 644.28,-87.85 653.54,-93 654.73,-86.1"/>
</g>
<!-- Days|Subject_sigma -->
<g id="node5" class="node">
<title>Days|Subject_sigma</title>
<ellipse fill="none" stroke="black" cx="616.95" cy="-316.38" rx="89.8" ry="40.66"/>
<text text-anchor="middle" x="616.95" y="-327.83" font-family="Times,serif" font-size="14.00">Days|Subject_sigma</text>
<text text-anchor="middle" x="616.95" y="-311.33" font-family="Times,serif" font-size="14.00">~</text>
<text text-anchor="middle" x="616.95" y="-294.83" font-family="Times,serif" font-size="14.00">HalfNormal</text>
</g>
<!-- Days|Subject -->
<g id="node8" class="node">
<title>Days|Subject</title>
<polygon fill="none" stroke="black" points="507.08,-227.82 416.83,-227.82 416.83,-170.32 507.08,-170.32 507.08,-227.82"/>
<text text-anchor="middle" x="461.95" y="-210.52" font-family="Times,serif" font-size="14.00">Days|Subject</text>
<text text-anchor="middle" x="461.95" y="-194.02" font-family="Times,serif" font-size="14.00">~</text>
<text text-anchor="middle" x="461.95" y="-177.52" font-family="Times,serif" font-size="14.00">Deterministic</text>
</g>
<!-- Days|Subject_sigma&#45;&gt;Days|Subject -->
<g id="edge4" class="edge">
<title>Days|Subject_sigma&#45;&gt;Days|Subject</title>
<path fill="none" stroke="black" d="M570.87,-281.1C551.3,-266.54 528.52,-249.59 508.86,-234.97"/>
<polygon fill="black" stroke="black" points="511.11,-232.28 501,-229.11 506.93,-237.89 511.11,-232.28"/>
</g>
<!-- 1|Subject_offset -->
<g id="node6" class="node">
<title>1|Subject_offset</title>
<ellipse fill="none" stroke="black" cx="240.95" cy="-316.38" rx="73.36" ry="40.66"/>
<text text-anchor="middle" x="240.95" y="-327.83" font-family="Times,serif" font-size="14.00">1|Subject_offset</text>
<text text-anchor="middle" x="240.95" y="-311.33" font-family="Times,serif" font-size="14.00">~</text>
<text text-anchor="middle" x="240.95" y="-294.83" font-family="Times,serif" font-size="14.00">Normal</text>
</g>
<!-- 1|Subject_offset&#45;&gt;1|Subject -->
<g id="edge2" class="edge">
<title>1|Subject_offset&#45;&gt;1|Subject</title>
<path fill="none" stroke="black" d="M240.95,-275.38C240.95,-263.67 240.95,-250.88 240.95,-239.23"/>
<polygon fill="black" stroke="black" points="244.45,-239.54 240.95,-229.54 237.45,-239.54 244.45,-239.54"/>
</g>
<!-- 1|Subject&#45;&gt;Reaction -->
<g id="edge7" class="edge">
<title>1|Subject&#45;&gt;Reaction</title>
<path fill="none" stroke="black" d="M286.41,-180.81C319.85,-168.33 366.49,-151.35 407.95,-137.82 453.45,-122.96 505.67,-107.8 543.84,-97.06"/>
<polygon fill="black" stroke="black" points="544.57,-100.49 553.25,-94.42 542.68,-93.75 544.57,-100.49"/>
</g>
<!-- Days|Subject&#45;&gt;Reaction -->
<g id="edge8" class="edge">
<title>Days|Subject&#45;&gt;Reaction</title>
<path fill="none" stroke="black" d="M484.56,-170.04C493.77,-159.4 504.85,-147.52 515.95,-137.82 526.79,-128.35 539.3,-119.12 551.23,-111"/>
<polygon fill="black" stroke="black" points="552.99,-114.03 559.37,-105.57 549.11,-108.2 552.99,-114.03"/>
</g>
<!-- Days|Subject_offset -->
<g id="node9" class="node">
<title>Days|Subject_offset</title>
<ellipse fill="none" stroke="black" cx="420.95" cy="-316.38" rx="88.21" ry="40.66"/>
<text text-anchor="middle" x="420.95" y="-327.83" font-family="Times,serif" font-size="14.00">Days|Subject_offset</text>
<text text-anchor="middle" x="420.95" y="-311.33" font-family="Times,serif" font-size="14.00">~</text>
<text text-anchor="middle" x="420.95" y="-294.83" font-family="Times,serif" font-size="14.00">Normal</text>
</g>
<!-- Days|Subject_offset&#45;&gt;Days|Subject -->
<g id="edge3" class="edge">
<title>Days|Subject_offset&#45;&gt;Days|Subject</title>
<path fill="none" stroke="black" d="M434.95,-276.02C439.25,-263.93 443.97,-250.65 448.25,-238.61"/>
<polygon fill="black" stroke="black" points="451.47,-240 451.52,-229.41 444.87,-237.66 451.47,-240"/>
</g>
</g>
</svg>