<?xml version="1.0" encoding="UTF-8" standalone="no"?>
<!DOCTYPE svg PUBLIC "-//W3C//DTD SVG 1.1//EN"
 "http://www.w3.org/Graphics/SVG/1.1/DTD/svg11.dtd">
<!-- Generated by graphviz version 9.0.0 (0)
 -->
<!-- Pages: 1 -->
<svg width="447pt" height="247pt"
 viewBox="0.00 0.00 447.27 247.13" xmlns="http://www.w3.org/2000/svg" xmlns:xlink="http://www.w3.org/1999/xlink">
<g id="graph0" class="graph" transform="scale(1 1) rotate(0) translate(4 243.13)">
<polygon fill="white" stroke="none" points="-4,4 -4,-243.13 443.27,-243.13 443.27,4 -4,4"/>
<g id="clust1" class="cluster">
<title>clustery_obs (103)</title>
<path fill="none" stroke="black" d="M192.25,-8C192.25,-8 276.25,-8 276.25,-8 282.25,-8 288.25,-14 288.25,-20 288.25,-20 288.25,-117.82 288.25,-117.82 288.25,-123.82 282.25,-129.82 276.25,-129.82 276.25,-129.82 192.25,-129.82 192.25,-129.82 186.25,-129.82 180.25,-123.82 180.25,-117.82 180.25,-117.82 180.25,-20 180.25,-20 180.25,-14 186.25,-8 192.25,-8"/>
<text text-anchor="middle" x="247.63" y="-15.2" font-family="Times,serif" font-size="14.00">y_obs (103)</text>
</g>
<!-- Intercept -->
<g id="node1" class="node">
<title>Intercept</title>
<ellipse fill="none" stroke="black" cx="45.25" cy="-198.48" rx="45.25" ry="40.66"/>
<text text-anchor="middle" x="45.25" y="-209.93" font-family="Times,serif" font-size="14.00">Intercept</text>
<text text-anchor="middle" x="45.25" y="-193.43" font-family="Times,serif" font-size="14.00">~</text>
<text text-anchor="middle" x="45.25" y="-176.93" font-family="Times,serif" font-size="14.00">Normal</text>
</g>
<!-- y -->
<g id="node5" class="node">
<title>y</title>
<ellipse fill="lightgrey" stroke="black" cx="234.25" cy="-81.16" rx="46.32" ry="40.66"/>
<text text-anchor="middle" x="234.25" y="-92.61" font-family="Times,serif" font-size="14.00">y</text>
<text text-anchor="middle" x="234.25" y="-76.11" font-family="Times,serif" font-size="14.00">~</text>
<text text-anchor="middle" x="234.25" y="-59.61" font-family="Times,serif" font-size="14.00">StudentT</text>
</g>
<!-- Intercept&#45;&gt;y -->
<g id="edge1" class="edge">
<title>Intercept&#45;&gt;y</title>
<path fill="none" stroke="black" d="M79.77,-171.71C86.47,-166.95 93.51,-162.13 100.25,-157.82 127.67,-140.27 159.34,-122.29 185,-108.26"/>
<polygon fill="black" stroke="black" points="186.44,-111.47 193.55,-103.62 183.09,-105.32 186.44,-111.47"/>
</g>
<!-- y_sigma -->
<g id="node2" class="node">
<title>y_sigma</title>
<ellipse fill="none" stroke="black" cx="172.25" cy="-198.48" rx="63.29" ry="40.66"/>
<text text-anchor="middle" x="172.25" y="-209.93" font-family="Times,serif" font-size="14.00">y_sigma</text>
<text text-anchor="middle" x="172.25" y="-193.43" font-family="Times,serif" font-size="14.00">~</text>
<text text-anchor="middle" x="172.25" y="-176.93" font-family="Times,serif" font-size="14.00">HalfStudentT</text>
</g>
<!-- y_sigma&#45;&gt;y -->
<g id="edge2" class="edge">
<title>y_sigma&#45;&gt;y</title>
<path fill="none" stroke="black" d="M192.56,-159.72C197.91,-149.77 203.74,-138.91 209.31,-128.56"/>
<polygon fill="black" stroke="black" points="212.38,-130.23 214.04,-119.77 206.22,-126.92 212.38,-130.23"/>
</g>
<!-- y_nu -->
<g id="node3" class="node">
<title>y_nu</title>
<ellipse fill="none" stroke="black" cx="296.25" cy="-198.48" rx="42.6" ry="40.66"/>
<text text-anchor="middle" x="296.25" y="-209.93" font-family="Times,serif" font-size="14.00">y_nu</text>
<text text-anchor="middle" x="296.25" y="-193.43" font-family="Times,serif" font-size="14.00">~</text>
<text text-anchor="middle" x="296.25" y="-176.93" font-family="Times,serif" font-size="14.00">Gamma</text>
</g>
<!-- y_nu&#45;&gt;y -->
<g id="edge3" class="edge">
<title>y_nu&#45;&gt;y</title>
<path fill="none" stroke="black" d="M277.15,-161.94C271.43,-151.3 265.07,-139.47 259.04,-128.26"/>
<polygon fill="black" stroke="black" points="262.16,-126.66 254.34,-119.51 255.99,-129.98 262.16,-126.66"/>
</g>
<!-- x -->
<g id="node4" class="node">
<title>x</title>
<ellipse fill="none" stroke="black" cx="398.25" cy="-198.48" rx="41.01" ry="40.66"/>
<text text-anchor="middle" x="398.25" y="-209.93" font-family="Times,serif" font-size="14.00">x</text>
<text text-anchor="middle" x="398.25" y="-193.43" font-family="Times,serif" font-size="14.00">~</text>
<text text-anchor="middle" x="398.25" y="-176.93" font-family="Times,serif" font-size="14.00">Normal</text>
</g>
<!-- x&#45;&gt;y -->
<g id="edge4" class="edge">
<title>x&#45;&gt;y</title>
<path fill="none" stroke="black" d="M366.83,-171.89C360.74,-167.12 354.35,-162.25 348.25,-157.82 326.6,-142.09 301.93,-125.55 281.09,-111.96"/>
<polygon fill="black" stroke="black" points="283.07,-109.07 272.77,-106.57 279.26,-114.95 283.07,-109.07"/>
</g>
</g>
</svg>