<?xml version="1.0" encoding="UTF-8" standalone="no"?>
<!DOCTYPE svg PUBLIC "-//W3C//DTD SVG 1.1//EN"
 "http://www.w3.org/Graphics/SVG/1.1/DTD/svg11.dtd">
<!-- Generated by graphviz version 9.0.0 (0)
 -->
<!-- Pages: 1 -->
<svg width="447pt" height="247pt"
 viewBox="0.00 0.00 447.27 247.13" xmlns="http://www.w3.org/2000/svg" xmlns:xlink="http://www.w3.org/1999/xlink">
<g id="graph0" class="graph" transform="scale(1 1) rotate(0) translate(4 243.13)">
<polygon fill="white" stroke="none" points="-4,4 -4,-243.13 443.27,-243.13 443.27,4 -4,4"/>
<g id="clust1" class="cluster">
<title>clustery_obs (103)</title>
<path fill="none" stroke="black" d="M163.01,-8C163.01,-8 247.01,-8 247.01,-8 253.01,-8 259.01,-14 259.01,-20 259.01,-20 259.01,-117.82 259.01,-117.82 259.01,-123.82 253.01,-129.82 247.01,-129.82 247.01,-129.82 163.01,-129.82 163.01,-129.82 157.01,-129.82 151.01,-123.82 151.01,-117.82 151.01,-117.82 151.01,-20 151.01,-20 151.01,-14 157.01,-8 163.01,-8"/>
<text text-anchor="middle" x="218.39" y="-15.2" font-family="Times,serif" font-size="14.00">y_obs (103)</text>
</g>
<!-- x -->
<g id="node1" class="node">
<title>x</title>
<ellipse fill="none" stroke="black" cx="41.01" cy="-198.48" rx="41.01" ry="40.66"/>
<text text-anchor="middle" x="41.01" y="-209.93" font-family="Times,serif" font-size="14.00">x</text>
<text text-anchor="middle" x="41.01" y="-193.43" font-family="Times,serif" font-size="14.00">~</text>
<text text-anchor="middle" x="41.01" y="-176.93" font-family="Times,serif" font-size="14.00">Normal</text>
</g>
<!-- y -->
<g id="node5" class="node">
<title>y</title>
<ellipse fill="lightgrey" stroke="black" cx="205.01" cy="-81.16" rx="46.32" ry="40.66"/>
<text text-anchor="middle" x="205.01" y="-92.61" font-family="Times,serif" font-size="14.00">y</text>
<text text-anchor="middle" x="205.01" y="-76.11" font-family="Times,serif" font-size="14.00">~</text>
<text text-anchor="middle" x="205.01" y="-59.61" font-family="Times,serif" font-size="14.00">StudentT</text>
</g>
<!-- x&#45;&gt;y -->
<g id="edge1" class="edge">
<title>x&#45;&gt;y</title>
<path fill="none" stroke="black" d="M72.44,-171.89C78.53,-167.12 84.92,-162.25 91.01,-157.82 112.66,-142.09 137.34,-125.55 158.18,-111.96"/>
<polygon fill="black" stroke="black" points="160.01,-114.95 166.49,-106.57 156.2,-109.07 160.01,-114.95"/>
</g>
<!-- y_nu -->
<g id="node2" class="node">
<title>y_nu</title>
<ellipse fill="none" stroke="black" cx="143.01" cy="-198.48" rx="42.6" ry="40.66"/>
<text text-anchor="middle" x="143.01" y="-209.93" font-family="Times,serif" font-size="14.00">y_nu</text>
<text text-anchor="middle" x="143.01" y="-193.43" font-family="Times,serif" font-size="14.00">~</text>
<text text-anchor="middle" x="143.01" y="-176.93" font-family="Times,serif" font-size="14.00">Gamma</text>
</g>
<!-- y_nu&#45;&gt;y -->
<g id="edge2" class="edge">
<title>y_nu&#45;&gt;y</title>
<path fill="none" stroke="black" d="M162.12,-161.94C167.84,-151.3 174.2,-139.47 180.23,-128.26"/>
<polygon fill="black" stroke="black" points="183.28,-129.98 184.93,-119.51 177.11,-126.66 183.28,-129.98"/>
</g>
<!-- y_sigma -->
<g id="node3" class="node">
<title>y_sigma</title>
<ellipse fill="none" stroke="black" cx="267.01" cy="-198.48" rx="63.29" ry="40.66"/>
<text text-anchor="middle" x="267.01" y="-209.93" font-family="Times,serif" font-size="14.00">y_sigma</text>
<text text-anchor="middle" x="267.01" y="-193.43" font-family="Times,serif" font-size="14.00">~</text>
<text text-anchor="middle" x="267.01" y="-176.93" font-family="Times,serif" font-size="14.00">HalfStudentT</text>
</g>
<!-- y_sigma&#45;&gt;y -->
<g id="edge3" class="edge">
<title>y_sigma&#45;&gt;y</title>
<path fill="none" stroke="black" d="M246.71,-159.72C241.36,-149.77 235.53,-138.91 229.96,-128.56"/>
<polygon fill="black" stroke="black" points="233.05,-126.92 225.23,-119.77 226.88,-130.23 233.05,-126.92"/>
</g>
<!-- Intercept -->
<g id="node4" class="node">
<title>Intercept</title>
<ellipse fill="none" stroke="black" cx="394.01" cy="-198.48" rx="45.25" ry="40.66"/>
<text text-anchor="middle" x="394.01" y="-209.93" font-family="Times,serif" font-size="14.00">Intercept</text>
<text text-anchor="middle" x="394.01" y="-193.43" font-family="Times,serif" font-size="14.00">~</text>
<text text-anchor="middle" x="394.01" y="-176.93" font-family="Times,serif" font-size="14.00">Normal</text>
</g>
<!-- Intercept&#45;&gt;y -->
<g id="edge4" class="edge">
<title>Intercept&#45;&gt;y</title>
<path fill="none" stroke="black" d="M359.5,-171.71C352.8,-166.95 345.75,-162.13 339.01,-157.82 311.6,-140.27 279.93,-122.29 254.26,-108.26"/>
<polygon fill="black" stroke="black" points="256.17,-105.32 245.71,-103.62 252.83,-111.47 256.17,-105.32"/>
</g>
</g>
</svg>