<?xml version="1.0" encoding="UTF-8" standalone="no"?>
<!DOCTYPE svg PUBLIC "-//W3C//DTD SVG 1.1//EN"
 "http://www.w3.org/Graphics/SVG/1.1/DTD/svg11.dtd">
<!-- Generated by graphviz version 11.0.0 (0)
 -->
<!-- Pages: 1 -->
<svg width="616pt" height="591pt"
 viewBox="0.00 0.00 616.02 591.27" xmlns="http://www.w3.org/2000/svg" xmlns:xlink="http://www.w3.org/1999/xlink">
<g id="graph0" class="graph" transform="scale(1 1) rotate(0) translate(4 587.27)">
<polygon fill="white" stroke="none" points="-4,4 -4,-587.27 612.02,-587.27 612.02,4 -4,4"/>
<g id="clust1" class="cluster">
<title>cluster5000</title>
<path fill="none" stroke="black" d="M104.01,-8C104.01,-8 270.01,-8 270.01,-8 276.01,-8 282.01,-14 282.01,-20 282.01,-20 282.01,-563.27 282.01,-563.27 282.01,-569.27 276.01,-575.27 270.01,-575.27 270.01,-575.27 104.01,-575.27 104.01,-575.27 98.01,-575.27 92.01,-569.27 92.01,-563.27 92.01,-563.27 92.01,-20 92.01,-20 92.01,-14 98.01,-8 104.01,-8"/>
<text text-anchor="middle" x="260.51" y="-15.2" font-family="Times,serif" font-size="14.00">5000</text>
</g>
<!-- _Q -->
<g id="node1" class="node">
<title>_Q</title>
<path fill="lightgrey" stroke="black" d="M162.01,-438.04C162.01,-438.04 132.01,-438.04 132.01,-438.04 126.01,-438.04 120.01,-432.04 120.01,-426.04 120.01,-426.04 120.01,-392.54 120.01,-392.54 120.01,-386.54 126.01,-380.54 132.01,-380.54 132.01,-380.54 162.01,-380.54 162.01,-380.54 168.01,-380.54 174.01,-386.54 174.01,-392.54 174.01,-392.54 174.01,-426.04 174.01,-426.04 174.01,-432.04 168.01,-438.04 162.01,-438.04"/>
<text text-anchor="middle" x="147.01" y="-420.74" font-family="Times,serif" font-size="14.00">_Q</text>
<text text-anchor="middle" x="147.01" y="-404.24" font-family="Times,serif" font-size="14.00">~</text>
<text text-anchor="middle" x="147.01" y="-387.74" font-family="Times,serif" font-size="14.00">Data</text>
</g>
<!-- _P -->
<g id="node2" class="node">
<title>_P</title>
<path fill="lightgrey" stroke="black" d="M248.01,-98C248.01,-98 218.01,-98 218.01,-98 212.01,-98 206.01,-92 206.01,-86 206.01,-86 206.01,-52.5 206.01,-52.5 206.01,-46.5 212.01,-40.5 218.01,-40.5 218.01,-40.5 248.01,-40.5 248.01,-40.5 254.01,-40.5 260.01,-46.5 260.01,-52.5 260.01,-52.5 260.01,-86 260.01,-86 260.01,-92 254.01,-98 248.01,-98"/>
<text text-anchor="middle" x="233.01" y="-80.7" font-family="Times,serif" font-size="14.00">_P</text>
<text text-anchor="middle" x="233.01" y="-64.2" font-family="Times,serif" font-size="14.00">~</text>
<text text-anchor="middle" x="233.01" y="-47.7" font-family="Times,serif" font-size="14.00">Data</text>
</g>
<!-- Q -->
<g id="node3" class="node">
<title>Q</title>
<ellipse fill="lightgrey" stroke="black" cx="147.01" cy="-526.61" rx="41.01" ry="40.66"/>
<text text-anchor="middle" x="147.01" y="-538.06" font-family="Times,serif" font-size="14.00">Q</text>
<text text-anchor="middle" x="147.01" y="-521.56" font-family="Times,serif" font-size="14.00">~</text>
<text text-anchor="middle" x="147.01" y="-505.06" font-family="Times,serif" font-size="14.00">Normal</text>
</g>
<!-- Q&#45;&gt;_Q -->
<g id="edge1" class="edge">
<title>Q&#45;&gt;_Q</title>
<path fill="none" stroke="black" d="M147.01,-485.6C147.01,-473.89 147.01,-461.11 147.01,-449.45"/>
<polygon fill="black" stroke="black" points="150.51,-449.77 147.01,-439.77 143.51,-449.77 150.51,-449.77"/>
</g>
<!-- X -->
<g id="node4" class="node">
<title>X</title>
<ellipse fill="lightgrey" stroke="black" cx="233.01" cy="-409.29" rx="41.01" ry="40.66"/>
<text text-anchor="middle" x="233.01" y="-420.74" font-family="Times,serif" font-size="14.00">X</text>
<text text-anchor="middle" x="233.01" y="-404.24" font-family="Times,serif" font-size="14.00">~</text>
<text text-anchor="middle" x="233.01" y="-387.74" font-family="Times,serif" font-size="14.00">Normal</text>
</g>
<!-- Q&#45;&gt;X -->
<g id="edge5" class="edge">
<title>Q&#45;&gt;X</title>
<path fill="none" stroke="black" d="M171.2,-493.18C180.8,-480.3 191.97,-465.32 202.15,-451.67"/>
<polygon fill="black" stroke="black" points="204.93,-453.8 208.1,-443.69 199.32,-449.62 204.93,-453.8"/>
</g>
<!-- Y -->
<g id="node5" class="node">
<title>Y</title>
<ellipse fill="lightgrey" stroke="black" cx="233.01" cy="-291.98" rx="41.01" ry="40.66"/>
<text text-anchor="middle" x="233.01" y="-303.43" font-family="Times,serif" font-size="14.00">Y</text>
<text text-anchor="middle" x="233.01" y="-286.93" font-family="Times,serif" font-size="14.00">~</text>
<text text-anchor="middle" x="233.01" y="-270.43" font-family="Times,serif" font-size="14.00">Normal</text>
</g>
<!-- Q&#45;&gt;Y -->
<g id="edge9" class="edge">
<title>Q&#45;&gt;Y</title>
<path fill="none" stroke="black" d="M125.53,-491.68C107.31,-458.17 87.57,-406.57 111.01,-368.63 129.82,-338.2 152.84,-351.85 183.01,-332.63 186.29,-330.55 189.61,-328.29 192.89,-325.94"/>
<polygon fill="black" stroke="black" points="194.84,-328.85 200.79,-320.08 190.67,-323.23 194.84,-328.85"/>
</g>
<!-- X&#45;&gt;Y -->
<g id="edge10" class="edge">
<title>X&#45;&gt;Y</title>
<path fill="none" stroke="black" d="M233.01,-368.28C233.01,-360.5 233.01,-352.25 233.01,-344.16"/>
<polygon fill="black" stroke="black" points="236.51,-344.43 233.01,-334.43 229.51,-344.43 236.51,-344.43"/>
</g>
<!-- P -->
<g id="node6" class="node">
<title>P</title>
<ellipse fill="lightgrey" stroke="black" cx="233.01" cy="-174.66" rx="41.01" ry="40.66"/>
<text text-anchor="middle" x="233.01" y="-186.11" font-family="Times,serif" font-size="14.00">P</text>
<text text-anchor="middle" x="233.01" y="-169.61" font-family="Times,serif" font-size="14.00">~</text>
<text text-anchor="middle" x="233.01" y="-153.11" font-family="Times,serif" font-size="14.00">Normal</text>
</g>
<!-- X&#45;&gt;P -->
<g id="edge14" class="edge">
<title>X&#45;&gt;P</title>
<path fill="none" stroke="black" d="M202,-382.09C195.87,-377.38 189.37,-372.68 183.01,-368.63 152.84,-349.42 129.82,-363.07 111.01,-332.63 92.01,-301.89 92.01,-282.06 111.01,-251.32 129.82,-220.88 152.84,-234.54 183.01,-215.32 186.29,-213.23 189.61,-210.97 192.89,-208.63"/>
<polygon fill="black" stroke="black" points="194.84,-211.53 200.79,-202.76 190.67,-205.91 194.84,-211.53"/>
</g>
<!-- _X -->
<g id="node7" class="node">
<title>_X</title>
<path fill="lightgrey" stroke="black" d="M162.01,-320.73C162.01,-320.73 132.01,-320.73 132.01,-320.73 126.01,-320.73 120.01,-314.73 120.01,-308.73 120.01,-308.73 120.01,-275.23 120.01,-275.23 120.01,-269.23 126.01,-263.23 132.01,-263.23 132.01,-263.23 162.01,-263.23 162.01,-263.23 168.01,-263.23 174.01,-269.23 174.01,-275.23 174.01,-275.23 174.01,-308.73 174.01,-308.73 174.01,-314.73 168.01,-320.73 162.01,-320.73"/>
<text text-anchor="middle" x="147.01" y="-303.43" font-family="Times,serif" font-size="14.00">_X</text>
<text text-anchor="middle" x="147.01" y="-286.93" font-family="Times,serif" font-size="14.00">~</text>
<text text-anchor="middle" x="147.01" y="-270.43" font-family="Times,serif" font-size="14.00">Data</text>
</g>
<!-- X&#45;&gt;_X -->
<g id="edge2" class="edge">
<title>X&#45;&gt;_X</title>
<path fill="none" stroke="black" d="M208.83,-375.86C198.13,-361.52 185.5,-344.58 174.45,-329.77"/>
<polygon fill="black" stroke="black" points="177.5,-328 168.71,-322.07 171.89,-332.18 177.5,-328"/>
</g>
<!-- Y&#45;&gt;P -->
<g id="edge17" class="edge">
<title>Y&#45;&gt;P</title>
<path fill="none" stroke="black" d="M233.01,-250.97C233.01,-243.19 233.01,-234.93 233.01,-226.84"/>
<polygon fill="black" stroke="black" points="236.51,-227.11 233.01,-217.11 229.51,-227.11 236.51,-227.11"/>
</g>
<!-- _Y -->
<g id="node8" class="node">
<title>_Y</title>
<path fill="lightgrey" stroke="black" d="M162.01,-203.41C162.01,-203.41 132.01,-203.41 132.01,-203.41 126.01,-203.41 120.01,-197.41 120.01,-191.41 120.01,-191.41 120.01,-157.91 120.01,-157.91 120.01,-151.91 126.01,-145.91 132.01,-145.91 132.01,-145.91 162.01,-145.91 162.01,-145.91 168.01,-145.91 174.01,-151.91 174.01,-157.91 174.01,-157.91 174.01,-191.41 174.01,-191.41 174.01,-197.41 168.01,-203.41 162.01,-203.41"/>
<text text-anchor="middle" x="147.01" y="-186.11" font-family="Times,serif" font-size="14.00">_Y</text>
<text text-anchor="middle" x="147.01" y="-169.61" font-family="Times,serif" font-size="14.00">~</text>
<text text-anchor="middle" x="147.01" y="-153.11" font-family="Times,serif" font-size="14.00">Data</text>
</g>
<!-- Y&#45;&gt;_Y -->
<g id="edge3" class="edge">
<title>Y&#45;&gt;_Y</title>
<path fill="none" stroke="black" d="M208.83,-258.55C198.13,-244.2 185.5,-227.27 174.45,-212.45"/>
<polygon fill="black" stroke="black" points="177.5,-210.68 168.71,-204.76 171.89,-214.87 177.5,-210.68"/>
</g>
<!-- P&#45;&gt;_P -->
<g id="edge4" class="edge">
<title>P&#45;&gt;_P</title>
<path fill="none" stroke="black" d="M233.01,-133.68C233.01,-125.83 233.01,-117.6 233.01,-109.76"/>
<polygon fill="black" stroke="black" points="236.51,-109.79 233.01,-99.79 229.51,-109.79 236.51,-109.79"/>
</g>
<!-- xy -->
<g id="node9" class="node">
<title>xy</title>
<ellipse fill="none" stroke="black" cx="333.01" cy="-409.29" rx="41.01" ry="40.66"/>
<text text-anchor="middle" x="333.01" y="-420.74" font-family="Times,serif" font-size="14.00">xy</text>
<text text-anchor="middle" x="333.01" y="-404.24" font-family="Times,serif" font-size="14.00">~</text>
<text text-anchor="middle" x="333.01" y="-387.74" font-family="Times,serif" font-size="14.00">Normal</text>
</g>
<!-- xy&#45;&gt;Y -->
<g id="edge8" class="edge">
<title>xy&#45;&gt;Y</title>
<path fill="none" stroke="black" d="M306.48,-377.69C294.29,-363.64 279.69,-346.81 266.73,-331.86"/>
<polygon fill="black" stroke="black" points="269.51,-329.72 260.32,-324.46 264.22,-334.31 269.51,-329.72"/>
</g>
<!-- xp -->
<g id="node10" class="node">
<title>xp</title>
<ellipse fill="none" stroke="black" cx="41.01" cy="-291.98" rx="41.01" ry="40.66"/>
<text text-anchor="middle" x="41.01" y="-303.43" font-family="Times,serif" font-size="14.00">xp</text>
<text text-anchor="middle" x="41.01" y="-286.93" font-family="Times,serif" font-size="14.00">~</text>
<text text-anchor="middle" x="41.01" y="-270.43" font-family="Times,serif" font-size="14.00">Normal</text>
</g>
<!-- xp&#45;&gt;P -->
<g id="edge13" class="edge">
<title>xp&#45;&gt;P</title>
<path fill="none" stroke="black" d="M70.73,-263.36C76.24,-258.99 82.12,-254.78 88.01,-251.32 126.93,-228.43 143.75,-237.61 183.01,-215.32 186.44,-213.37 189.88,-211.2 193.26,-208.9"/>
<polygon fill="black" stroke="black" points="195.3,-211.75 201.36,-203.07 191.21,-206.07 195.3,-211.75"/>
</g>
<!-- sigma_y -->
<g id="node11" class="node">
<title>sigma_y</title>
<ellipse fill="none" stroke="black" cx="450.01" cy="-409.29" rx="57.98" ry="40.66"/>
<text text-anchor="middle" x="450.01" y="-420.74" font-family="Times,serif" font-size="14.00">sigma_y</text>
<text text-anchor="middle" x="450.01" y="-404.24" font-family="Times,serif" font-size="14.00">~</text>
<text text-anchor="middle" x="450.01" y="-387.74" font-family="Times,serif" font-size="14.00">HalfNormal</text>
</g>
<!-- sigma_y&#45;&gt;Y -->
<g id="edge11" class="edge">
<title>sigma_y&#45;&gt;Y</title>
<path fill="none" stroke="black" d="M407.41,-381.46C399.45,-376.91 391.08,-372.43 383.01,-368.63 340.27,-348.51 324.28,-355.61 283.01,-332.63 279.57,-330.72 276.12,-328.57 272.72,-326.28"/>
<polygon fill="black" stroke="black" points="274.78,-323.45 264.61,-320.47 270.7,-329.14 274.78,-323.45"/>
</g>
<!-- qx -->
<g id="node12" class="node">
<title>qx</title>
<ellipse fill="none" stroke="black" cx="331.01" cy="-526.61" rx="41.01" ry="40.66"/>
<text text-anchor="middle" x="331.01" y="-538.06" font-family="Times,serif" font-size="14.00">qx</text>
<text text-anchor="middle" x="331.01" y="-521.56" font-family="Times,serif" font-size="14.00">~</text>
<text text-anchor="middle" x="331.01" y="-505.06" font-family="Times,serif" font-size="14.00">Normal</text>
</g>
<!-- qx&#45;&gt;X -->
<g id="edge7" class="edge">
<title>qx&#45;&gt;X</title>
<path fill="none" stroke="black" d="M305.01,-495.01C293.16,-481.07 278.99,-464.39 266.36,-449.54"/>
<polygon fill="black" stroke="black" points="269.26,-447.54 260.12,-442.19 263.93,-452.08 269.26,-447.54"/>
</g>
<!-- yp -->
<g id="node13" class="node">
<title>yp</title>
<ellipse fill="none" stroke="black" cx="333.01" cy="-291.98" rx="41.01" ry="40.66"/>
<text text-anchor="middle" x="333.01" y="-303.43" font-family="Times,serif" font-size="14.00">yp</text>
<text text-anchor="middle" x="333.01" y="-286.93" font-family="Times,serif" font-size="14.00">~</text>
<text text-anchor="middle" x="333.01" y="-270.43" font-family="Times,serif" font-size="14.00">Normal</text>
</g>
<!-- yp&#45;&gt;P -->
<g id="edge15" class="edge">
<title>yp&#45;&gt;P</title>
<path fill="none" stroke="black" d="M306.48,-260.38C294.29,-246.32 279.69,-229.49 266.73,-214.55"/>
<polygon fill="black" stroke="black" points="269.51,-212.41 260.32,-207.15 264.22,-216.99 269.51,-212.41"/>
</g>
<!-- sigma_p -->
<g id="node14" class="node">
<title>sigma_p</title>
<ellipse fill="none" stroke="black" cx="450.01" cy="-291.98" rx="57.98" ry="40.66"/>
<text text-anchor="middle" x="450.01" y="-303.43" font-family="Times,serif" font-size="14.00">sigma_p</text>
<text text-anchor="middle" x="450.01" y="-286.93" font-family="Times,serif" font-size="14.00">~</text>
<text text-anchor="middle" x="450.01" y="-270.43" font-family="Times,serif" font-size="14.00">HalfNormal</text>
</g>
<!-- sigma_p&#45;&gt;P -->
<g id="edge16" class="edge">
<title>sigma_p&#45;&gt;P</title>
<path fill="none" stroke="black" d="M406.65,-264.73C398.83,-260.17 390.72,-255.54 383.01,-251.32 348.91,-232.65 309.66,-212.91 279.86,-198.28"/>
<polygon fill="black" stroke="black" points="281.62,-195.24 271.1,-193.99 278.54,-201.53 281.62,-195.24"/>
</g>
<!-- sigma_x -->
<g id="node15" class="node">
<title>sigma_x</title>
<ellipse fill="none" stroke="black" cx="448.01" cy="-526.61" rx="57.98" ry="40.66"/>
<text text-anchor="middle" x="448.01" y="-538.06" font-family="Times,serif" font-size="14.00">sigma_x</text>
<text text-anchor="middle" x="448.01" y="-521.56" font-family="Times,serif" font-size="14.00">~</text>
<text text-anchor="middle" x="448.01" y="-505.06" font-family="Times,serif" font-size="14.00">HalfNormal</text>
</g>
<!-- sigma_x&#45;&gt;X -->
<g id="edge6" class="edge">
<title>sigma_x&#45;&gt;X</title>
<path fill="none" stroke="black" d="M405.39,-498.82C397.43,-494.27 389.07,-489.78 381.01,-485.95 339.09,-466.05 323.48,-472.66 283.01,-449.95 279.57,-448.02 276.13,-445.86 272.74,-443.58"/>
<polygon fill="black" stroke="black" points="274.79,-440.75 264.63,-437.76 270.71,-446.43 274.79,-440.75"/>
</g>
<!-- qy -->
<g id="node16" class="node">
<title>qy</title>
<ellipse fill="none" stroke="black" cx="567.01" cy="-409.29" rx="41.01" ry="40.66"/>
<text text-anchor="middle" x="567.01" y="-420.74" font-family="Times,serif" font-size="14.00">qy</text>
<text text-anchor="middle" x="567.01" y="-404.24" font-family="Times,serif" font-size="14.00">~</text>
<text text-anchor="middle" x="567.01" y="-387.74" font-family="Times,serif" font-size="14.00">Normal</text>
</g>
<!-- qy&#45;&gt;Y -->
<g id="edge12" class="edge">
<title>qy&#45;&gt;Y</title>
<path fill="none" stroke="black" d="M537.44,-380.82C531.08,-376.11 524.12,-371.74 517.01,-368.63 420.58,-326.54 379.45,-374.73 283.01,-332.63 279.24,-330.99 275.5,-328.98 271.88,-326.75"/>
<polygon fill="black" stroke="black" points="274.08,-324.02 263.84,-321.3 270.15,-329.81 274.08,-324.02"/>
</g>
</g>
</svg>