<?xml version="1.0" encoding="UTF-8" standalone="no"?>
<!DOCTYPE svg PUBLIC "-//W3C//DTD SVG 1.1//EN"
 "http://www.w3.org/Graphics/SVG/1.1/DTD/svg11.dtd">
<!-- Generated by graphviz version 9.0.0 (0)
 -->
<!-- Pages: 1 -->
<svg width="1086pt" height="381pt"
 viewBox="0.00 0.00 1085.97 381.04" xmlns="http://www.w3.org/2000/svg" xmlns:xlink="http://www.w3.org/1999/xlink">
<g id="graph0" class="graph" transform="scale(1 1) rotate(0) translate(4 377.04)">
<polygon fill="white" stroke="none" points="-4,4 -4,-377.04 1081.97,-377.04 1081.97,4 -4,4"/>
<g id="clust1" class="cluster">
<title>clusterSubject__factor_dim (18)</title>
<path fill="none" stroke="black" d="M375.01,-137.82C375.01,-137.82 708.01,-137.82 708.01,-137.82 714.01,-137.82 720.01,-143.82 720.01,-149.82 720.01,-149.82 720.01,-353.04 720.01,-353.04 720.01,-359.04 714.01,-365.04 708.01,-365.04 708.01,-365.04 375.01,-365.04 375.01,-365.04 369.01,-365.04 363.01,-359.04 363.01,-353.04 363.01,-353.04 363.01,-149.82 363.01,-149.82 363.01,-143.82 369.01,-137.82 375.01,-137.82"/>
<text text-anchor="middle" x="641.89" y="-145.02" font-family="Times,serif" font-size="14.00">Subject__factor_dim (18)</text>
</g>
<g id="clust2" class="cluster">
<title>clusterReaction_obs (144)</title>
<path fill="none" stroke="black" d="M261.01,-8C261.01,-8 359.01,-8 359.01,-8 365.01,-8 371.01,-14 371.01,-20 371.01,-20 371.01,-117.82 371.01,-117.82 371.01,-123.82 365.01,-129.82 359.01,-129.82 359.01,-129.82 261.01,-129.82 261.01,-129.82 255.01,-129.82 249.01,-123.82 249.01,-117.82 249.01,-117.82 249.01,-20 249.01,-20 249.01,-14 255.01,-8 261.01,-8"/>
<text text-anchor="middle" x="309.76" y="-15.2" font-family="Times,serif" font-size="14.00">Reaction_obs (144)</text>
</g>
<!-- Intercept -->
<g id="node1" class="node">
<title>Intercept</title>
<ellipse fill="none" stroke="black" cx="310.01" cy="-199.07" rx="45.25" ry="40.66"/>
<text text-anchor="middle" x="310.01" y="-210.52" font-family="Times,serif" font-size="14.00">Intercept</text>
<text text-anchor="middle" x="310.01" y="-194.02" font-family="Times,serif" font-size="14.00">~</text>
<text text-anchor="middle" x="310.01" y="-177.52" font-family="Times,serif" font-size="14.00">Normal</text>
</g>
<!-- Reaction -->
<g id="node10" class="node">
<title>Reaction</title>
<ellipse fill="lightgrey" stroke="black" cx="310.01" cy="-81.16" rx="45.25" ry="40.66"/>
<text text-anchor="middle" x="310.01" y="-92.61" font-family="Times,serif" font-size="14.00">Reaction</text>
<text text-anchor="middle" x="310.01" y="-76.11" font-family="Times,serif" font-size="14.00">~</text>
<text text-anchor="middle" x="310.01" y="-59.61" font-family="Times,serif" font-size="14.00">Normal</text>
</g>
<!-- Intercept&#45;&gt;Reaction -->
<g id="edge7" class="edge">
<title>Intercept&#45;&gt;Reaction</title>
<path fill="none" stroke="black" d="M310.01,-158.18C310.01,-150.26 310.01,-141.83 310.01,-133.59"/>
<polygon fill="black" stroke="black" points="313.51,-133.63 310.01,-123.63 306.51,-133.63 313.51,-133.63"/>
</g>
<!-- Days|Subject_sigma -->
<g id="node2" class="node">
<title>Days|Subject_sigma</title>
<ellipse fill="none" stroke="black" cx="820.01" cy="-316.38" rx="89.8" ry="40.66"/>
<text text-anchor="middle" x="820.01" y="-327.83" font-family="Times,serif" font-size="14.00">Days|Subject_sigma</text>
<text text-anchor="middle" x="820.01" y="-311.33" font-family="Times,serif" font-size="14.00">~</text>
<text text-anchor="middle" x="820.01" y="-294.83" font-family="Times,serif" font-size="14.00">HalfNormal</text>
</g>
<!-- Days|Subject -->
<g id="node8" class="node">
<title>Days|Subject</title>
<polygon fill="none" stroke="black" points="504.14,-227.82 413.89,-227.82 413.89,-170.32 504.14,-170.32 504.14,-227.82"/>
<text text-anchor="middle" x="459.01" y="-210.52" font-family="Times,serif" font-size="14.00">Days|Subject</text>
<text text-anchor="middle" x="459.01" y="-194.02" font-family="Times,serif" font-size="14.00">~</text>
<text text-anchor="middle" x="459.01" y="-177.52" font-family="Times,serif" font-size="14.00">Deterministic</text>
</g>
<!-- Days|Subject_sigma&#45;&gt;Days|Subject -->
<g id="edge4" class="edge">
<title>Days|Subject_sigma&#45;&gt;Days|Subject</title>
<path fill="none" stroke="black" d="M755.93,-287.48C745.36,-283.29 734.44,-279.21 724.01,-275.73 663.49,-255.49 646.36,-257.31 585.01,-239.73 562.1,-233.16 537.02,-225.39 515.31,-218.47"/>
<polygon fill="black" stroke="black" points="516.66,-215.23 506.07,-215.51 514.52,-221.89 516.66,-215.23"/>
</g>
<!-- 1|Subject_sigma -->
<g id="node3" class="node">
<title>1|Subject_sigma</title>
<ellipse fill="none" stroke="black" cx="1003.01" cy="-316.38" rx="74.95" ry="40.66"/>
<text text-anchor="middle" x="1003.01" y="-327.83" font-family="Times,serif" font-size="14.00">1|Subject_sigma</text>
<text text-anchor="middle" x="1003.01" y="-311.33" font-family="Times,serif" font-size="14.00">~</text>
<text text-anchor="middle" x="1003.01" y="-294.83" font-family="Times,serif" font-size="14.00">HalfNormal</text>
</g>
<!-- 1|Subject -->
<g id="node7" class="node">
<title>1|Subject</title>
<polygon fill="none" stroke="black" points="684.14,-227.82 593.89,-227.82 593.89,-170.32 684.14,-170.32 684.14,-227.82"/>
<text text-anchor="middle" x="639.01" y="-210.52" font-family="Times,serif" font-size="14.00">1|Subject</text>
<text text-anchor="middle" x="639.01" y="-194.02" font-family="Times,serif" font-size="14.00">~</text>
<text text-anchor="middle" x="639.01" y="-177.52" font-family="Times,serif" font-size="14.00">Deterministic</text>
</g>
<!-- 1|Subject_sigma&#45;&gt;1|Subject -->
<g id="edge1" class="edge">
<title>1|Subject_sigma&#45;&gt;1|Subject</title>
<path fill="none" stroke="black" d="M948.94,-288.14C939.11,-283.68 928.85,-279.35 919.01,-275.73 843.25,-247.86 752.57,-225.22 695.37,-212.2"/>
<polygon fill="black" stroke="black" points="696.39,-208.84 685.87,-210.05 694.85,-215.67 696.39,-208.84"/>
</g>
<!-- Days -->
<g id="node4" class="node">
<title>Days</title>
<ellipse fill="none" stroke="black" cx="41.01" cy="-199.07" rx="41.01" ry="40.66"/>
<text text-anchor="middle" x="41.01" y="-210.52" font-family="Times,serif" font-size="14.00">Days</text>
<text text-anchor="middle" x="41.01" y="-194.02" font-family="Times,serif" font-size="14.00">~</text>
<text text-anchor="middle" x="41.01" y="-177.52" font-family="Times,serif" font-size="14.00">Normal</text>
</g>
<!-- Days&#45;&gt;Reaction -->
<g id="edge8" class="edge">
<title>Days&#45;&gt;Reaction</title>
<path fill="none" stroke="black" d="M62.76,-164.42C70.6,-154.58 80.21,-144.64 91.01,-137.82 140.54,-106.52 206.81,-92.8 253.44,-86.8"/>
<polygon fill="black" stroke="black" points="253.83,-90.27 263.34,-85.61 253,-83.32 253.83,-90.27"/>
</g>
<!-- Reaction_sigma -->
<g id="node5" class="node">
<title>Reaction_sigma</title>
<ellipse fill="none" stroke="black" cx="173.01" cy="-199.07" rx="73.36" ry="40.66"/>
<text text-anchor="middle" x="173.01" y="-210.52" font-family="Times,serif" font-size="14.00">Reaction_sigma</text>
<text text-anchor="middle" x="173.01" y="-194.02" font-family="Times,serif" font-size="14.00">~</text>
<text text-anchor="middle" x="173.01" y="-177.52" font-family="Times,serif" font-size="14.00">HalfStudentT</text>
</g>
<!-- Reaction_sigma&#45;&gt;Reaction -->
<g id="edge9" class="edge">
<title>Reaction_sigma&#45;&gt;Reaction</title>
<path fill="none" stroke="black" d="M212.64,-164.54C230.3,-149.6 251.09,-132.01 268.91,-116.93"/>
<polygon fill="black" stroke="black" points="270.87,-119.86 276.24,-110.73 266.35,-114.52 270.87,-119.86"/>
</g>
<!-- Days|Subject_offset -->
<g id="node6" class="node">
<title>Days|Subject_offset</title>
<ellipse fill="none" stroke="black" cx="459.01" cy="-316.38" rx="88.21" ry="40.66"/>
<text text-anchor="middle" x="459.01" y="-327.83" font-family="Times,serif" font-size="14.00">Days|Subject_offset</text>
<text text-anchor="middle" x="459.01" y="-311.33" font-family="Times,serif" font-size="14.00">~</text>
<text text-anchor="middle" x="459.01" y="-294.83" font-family="Times,serif" font-size="14.00">Normal</text>
</g>
<!-- Days|Subject_offset&#45;&gt;Days|Subject -->
<g id="edge3" class="edge">
<title>Days|Subject_offset&#45;&gt;Days|Subject</title>
<path fill="none" stroke="black" d="M459.01,-275.38C459.01,-263.67 459.01,-250.88 459.01,-239.23"/>
<polygon fill="black" stroke="black" points="462.51,-239.54 459.01,-229.54 455.51,-239.54 462.51,-239.54"/>
</g>
<!-- 1|Subject&#45;&gt;Reaction -->
<g id="edge5" class="edge">
<title>1|Subject&#45;&gt;Reaction</title>
<path fill="none" stroke="black" d="M593.49,-173.88C569.91,-161.97 540.39,-148.02 513.01,-137.82 464.03,-119.56 406.4,-104.33 365.09,-94.44"/>
<polygon fill="black" stroke="black" points="365.9,-91.03 355.36,-92.14 364.29,-97.85 365.9,-91.03"/>
</g>
<!-- Days|Subject&#45;&gt;Reaction -->
<g id="edge6" class="edge">
<title>Days|Subject&#45;&gt;Reaction</title>
<path fill="none" stroke="black" d="M422.94,-170.01C401.82,-153.58 375.03,-132.74 352.84,-115.48"/>
<polygon fill="black" stroke="black" points="355.2,-112.87 345.15,-109.5 350.9,-118.4 355.2,-112.87"/>
</g>
<!-- 1|Subject_offset -->
<g id="node9" class="node">
<title>1|Subject_offset</title>
<ellipse fill="none" stroke="black" cx="639.01" cy="-316.38" rx="73.36" ry="40.66"/>
<text text-anchor="middle" x="639.01" y="-327.83" font-family="Times,serif" font-size="14.00">1|Subject_offset</text>
<text text-anchor="middle" x="639.01" y="-311.33" font-family="Times,serif" font-size="14.00">~</text>
<text text-anchor="middle" x="639.01" y="-294.83" font-family="Times,serif" font-size="14.00">Normal</text>
</g>
<!-- 1|Subject_offset&#45;&gt;1|Subject -->
<g id="edge2" class="edge">
<title>1|Subject_offset&#45;&gt;1|Subject</title>
<path fill="none" stroke="black" d="M639.01,-275.38C639.01,-263.67 639.01,-250.88 639.01,-239.23"/>
<polygon fill="black" stroke="black" points="642.51,-239.54 639.01,-229.54 635.51,-239.54 642.51,-239.54"/>
</g>
</g>
</svg>